M48
; DRILL file {KiCad (5.1.5)-3} date 18-4-2020 11:13:51
; FORMAT={-:-/ absolute / inch / decimal}
; #@! TF.CreationDate,2020-04-18T11:13:51+02:00
; #@! TF.GenerationSoftware,Kicad,Pcbnew,(5.1.5)-3
; #@! TF.FileFunction,Plated,1,2,PTH
FMAT,2
INCH
T1C0.0157
T2C0.0197
T3C0.0315
T4C0.0394
T5C0.0433
T6C0.0472
%
G90
G05
T1
X3.2Y-1.875
X3.25Y-0.6
X3.625Y-2.025
X5.6057Y-2.7557
X5.8Y-3.35
X6.1Y-2.25
X6.1Y-2.25
T2
X4.0Y-3.1
X4.0Y-3.25
T3
X5.65Y-2.2
X5.65Y-2.3
X5.65Y-2.4
X5.65Y-2.5
X5.95Y-2.2
X5.95Y-2.3
X5.95Y-2.4
X5.95Y-2.5
X5.7031Y-3.825
X5.9Y-3.825
X3.475Y-3.3
X3.475Y-3.6
X6.375Y-0.875
X6.375Y-1.175
X7.95Y-0.85
X7.95Y-1.15
X5.45Y-2.275
X5.45Y-2.4719
X5.8Y-1.925
X6.1Y-1.925
X6.575Y-0.875
X6.575Y-1.175
X3.9Y-3.8
X4.0969Y-3.8
X5.65Y-3.0
X5.65Y-3.1
X5.65Y-3.2
X5.65Y-3.3
X5.65Y-3.4
X5.65Y-3.5
X5.65Y-3.6
X5.95Y-3.0
X5.95Y-3.1
X5.95Y-3.2
X5.95Y-3.3
X5.95Y-3.4
X5.95Y-3.5
X5.95Y-3.6
X7.55Y-0.875
X7.55Y-1.175
X5.25Y-1.3
X5.25Y-1.6
X5.35Y-1.3
X5.35Y-1.6
X5.45Y-1.3
X5.45Y-1.6
X5.55Y-1.3
X5.55Y-1.6
X5.65Y-1.3
X5.65Y-1.6
X5.75Y-1.3
X5.75Y-1.6
X5.85Y-1.3
X5.85Y-1.6
X5.95Y-1.3
X5.95Y-1.6
X8.15Y-0.85
X8.15Y-1.15
X5.05Y-1.3531
X5.05Y-1.55
T4
X2.55Y-0.5
X2.65Y-0.5
X2.75Y-0.5
X2.85Y-0.5
X2.95Y-0.5
X3.05Y-0.5
X7.45Y-0.5
X7.55Y-0.5
X6.375Y-0.5
X6.475Y-0.5
X6.575Y-0.5
X4.85Y-0.5
X4.95Y-0.5
X5.05Y-0.5
X5.15Y-0.5
X5.25Y-0.5
X5.35Y-0.5
X5.45Y-0.5
X5.55Y-0.5
X4.85Y-0.85
X4.95Y-0.85
X5.05Y-0.85
X5.15Y-0.85
X5.25Y-0.85
X5.35Y-0.85
X5.45Y-0.85
X5.55Y-0.85
X2.55Y-0.85
X2.65Y-0.85
X2.75Y-0.85
X2.85Y-0.85
X2.95Y-0.85
X3.05Y-0.85
X2.7Y-3.8
X2.8Y-3.8
X3.6Y-0.5
X3.7Y-0.5
X3.8Y-0.5
X3.9Y-0.5
X4.0Y-0.5
X4.1Y-0.5
X4.2Y-0.5
X4.3Y-0.5
X7.95Y-0.5
X8.05Y-0.5
X8.15Y-0.5
X3.6Y-0.85
X3.7Y-0.85
X3.8Y-0.85
X3.9Y-0.85
X4.0Y-0.85
X4.1Y-0.85
X4.2Y-0.85
X4.3Y-0.85
X6.95Y-0.5
X7.05Y-0.5
T5
X3.7Y-2.2
X3.7Y-2.3
X3.7Y-2.4
X3.7Y-2.5
X3.7Y-2.6
X3.7Y-2.7
X3.7Y-2.8
X3.7Y-2.9
X3.7Y-3.0
X3.7Y-3.1
X3.7Y-3.2
X3.7Y-3.3
X3.7Y-3.4
X3.7Y-3.5
X3.8Y-2.2
X3.8Y-3.0
X3.8Y-3.1
X3.8Y-3.2
X3.8Y-3.4
X3.9Y-2.2
X4.0Y-2.2
X4.1Y-2.2
X4.2Y-2.2
X4.3Y-2.2
X4.3Y-2.3
X4.3Y-2.4
X4.3Y-2.5
X4.3Y-2.6
X4.3Y-2.7
X4.3Y-2.8
X4.3Y-2.9
X4.3Y-3.0
X4.3Y-3.1
X4.3Y-3.2
X4.3Y-3.3
X4.3Y-3.4
X4.3Y-3.5
T6
X3.2Y-1.2
X3.2Y-1.6
X4.6Y-1.2
X4.6Y-1.6
X3.4Y-1.2
X3.4Y-1.6
X4.4Y-1.2
X4.4Y-1.6
X4.0Y-1.2
X4.0Y-1.6
X6.6Y-2.125
X6.6Y-2.525
X3.6Y-1.2
X3.6Y-1.6
X4.2Y-1.2
X4.2Y-1.6
X3.8Y-1.2
X3.8Y-1.6
T0
M30
