G04 #@! TF.GenerationSoftware,KiCad,Pcbnew,(5.1.5)-3*
G04 #@! TF.CreationDate,2020-04-18T11:13:35+02:00*
G04 #@! TF.ProjectId,KorgPoly61_TeensyMidi,4b6f7267-506f-46c7-9936-315f5465656e,rev?*
G04 #@! TF.SameCoordinates,Original*
G04 #@! TF.FileFunction,Soldermask,Top*
G04 #@! TF.FilePolarity,Negative*
%FSLAX46Y46*%
G04 Gerber Fmt 4.6, Leading zero omitted, Abs format (unit mm)*
G04 Created by KiCad (PCBNEW (5.1.5)-3) date 2020-04-18 11:13:35*
%MOMM*%
%LPD*%
G04 APERTURE LIST*
%ADD10C,0.100000*%
G04 APERTURE END LIST*
D10*
G36*
X150108228Y-96336703D02*
G01*
X150263100Y-96400853D01*
X150402481Y-96493985D01*
X150521015Y-96612519D01*
X150614147Y-96751900D01*
X150678297Y-96906772D01*
X150711000Y-97071184D01*
X150711000Y-97238816D01*
X150678297Y-97403228D01*
X150614147Y-97558100D01*
X150521015Y-97697481D01*
X150402481Y-97816015D01*
X150263100Y-97909147D01*
X150108228Y-97973297D01*
X149943816Y-98006000D01*
X149776184Y-98006000D01*
X149611772Y-97973297D01*
X149456900Y-97909147D01*
X149317519Y-97816015D01*
X149198985Y-97697481D01*
X149105853Y-97558100D01*
X149041703Y-97403228D01*
X149009000Y-97238816D01*
X149009000Y-97071184D01*
X149041703Y-96906772D01*
X149105853Y-96751900D01*
X149198985Y-96612519D01*
X149317519Y-96493985D01*
X149456900Y-96400853D01*
X149611772Y-96336703D01*
X149776184Y-96304000D01*
X149943816Y-96304000D01*
X150108228Y-96336703D01*
G37*
G36*
X145108228Y-96336703D02*
G01*
X145263100Y-96400853D01*
X145402481Y-96493985D01*
X145521015Y-96612519D01*
X145614147Y-96751900D01*
X145678297Y-96906772D01*
X145711000Y-97071184D01*
X145711000Y-97238816D01*
X145678297Y-97403228D01*
X145614147Y-97558100D01*
X145521015Y-97697481D01*
X145402481Y-97816015D01*
X145263100Y-97909147D01*
X145108228Y-97973297D01*
X144943816Y-98006000D01*
X144776184Y-98006000D01*
X144611772Y-97973297D01*
X144456900Y-97909147D01*
X144317519Y-97816015D01*
X144198985Y-97697481D01*
X144105853Y-97558100D01*
X144041703Y-97403228D01*
X144009000Y-97238816D01*
X144009000Y-97071184D01*
X144041703Y-96906772D01*
X144105853Y-96751900D01*
X144198985Y-96612519D01*
X144317519Y-96493985D01*
X144456900Y-96400853D01*
X144611772Y-96336703D01*
X144776184Y-96304000D01*
X144943816Y-96304000D01*
X145108228Y-96336703D01*
G37*
G36*
X69481000Y-97421000D02*
G01*
X67679000Y-97421000D01*
X67679000Y-95619000D01*
X69481000Y-95619000D01*
X69481000Y-97421000D01*
G37*
G36*
X71233512Y-95623927D02*
G01*
X71382812Y-95653624D01*
X71546784Y-95721544D01*
X71694354Y-95820147D01*
X71819853Y-95945646D01*
X71918456Y-96093216D01*
X71986376Y-96257188D01*
X72021000Y-96431259D01*
X72021000Y-96608741D01*
X71986376Y-96782812D01*
X71918456Y-96946784D01*
X71819853Y-97094354D01*
X71694354Y-97219853D01*
X71546784Y-97318456D01*
X71382812Y-97386376D01*
X71233512Y-97416073D01*
X71208742Y-97421000D01*
X71031258Y-97421000D01*
X71006488Y-97416073D01*
X70857188Y-97386376D01*
X70693216Y-97318456D01*
X70545646Y-97219853D01*
X70420147Y-97094354D01*
X70321544Y-96946784D01*
X70253624Y-96782812D01*
X70219000Y-96608741D01*
X70219000Y-96431259D01*
X70253624Y-96257188D01*
X70321544Y-96093216D01*
X70420147Y-95945646D01*
X70545646Y-95820147D01*
X70693216Y-95721544D01*
X70857188Y-95653624D01*
X71006488Y-95623927D01*
X71031258Y-95619000D01*
X71208742Y-95619000D01*
X71233512Y-95623927D01*
G37*
G36*
X104308228Y-95701703D02*
G01*
X104463100Y-95765853D01*
X104602481Y-95858985D01*
X104721015Y-95977519D01*
X104814147Y-96116900D01*
X104878297Y-96271772D01*
X104911000Y-96436184D01*
X104911000Y-96603816D01*
X104878297Y-96768228D01*
X104814147Y-96923100D01*
X104721015Y-97062481D01*
X104602481Y-97181015D01*
X104463100Y-97274147D01*
X104308228Y-97338297D01*
X104143816Y-97371000D01*
X103976184Y-97371000D01*
X103811772Y-97338297D01*
X103656900Y-97274147D01*
X103517519Y-97181015D01*
X103398985Y-97062481D01*
X103305853Y-96923100D01*
X103241703Y-96768228D01*
X103209000Y-96603816D01*
X103209000Y-96436184D01*
X103241703Y-96271772D01*
X103305853Y-96116900D01*
X103398985Y-95977519D01*
X103517519Y-95858985D01*
X103656900Y-95765853D01*
X103811772Y-95701703D01*
X103976184Y-95669000D01*
X104143816Y-95669000D01*
X104308228Y-95701703D01*
G37*
G36*
X99308228Y-95701703D02*
G01*
X99463100Y-95765853D01*
X99602481Y-95858985D01*
X99721015Y-95977519D01*
X99814147Y-96116900D01*
X99878297Y-96271772D01*
X99911000Y-96436184D01*
X99911000Y-96603816D01*
X99878297Y-96768228D01*
X99814147Y-96923100D01*
X99721015Y-97062481D01*
X99602481Y-97181015D01*
X99463100Y-97274147D01*
X99308228Y-97338297D01*
X99143816Y-97371000D01*
X98976184Y-97371000D01*
X98811772Y-97338297D01*
X98656900Y-97274147D01*
X98517519Y-97181015D01*
X98398985Y-97062481D01*
X98305853Y-96923100D01*
X98241703Y-96768228D01*
X98209000Y-96603816D01*
X98209000Y-96436184D01*
X98241703Y-96271772D01*
X98305853Y-96116900D01*
X98398985Y-95977519D01*
X98517519Y-95858985D01*
X98656900Y-95765853D01*
X98811772Y-95701703D01*
X98976184Y-95669000D01*
X99143816Y-95669000D01*
X99308228Y-95701703D01*
G37*
G36*
X151981000Y-92291000D02*
G01*
X150279000Y-92291000D01*
X150279000Y-90589000D01*
X151981000Y-90589000D01*
X151981000Y-92291000D01*
G37*
G36*
X143758228Y-90621703D02*
G01*
X143913100Y-90685853D01*
X144052481Y-90778985D01*
X144171015Y-90897519D01*
X144264147Y-91036900D01*
X144328297Y-91191772D01*
X144361000Y-91356184D01*
X144361000Y-91523816D01*
X144328297Y-91688228D01*
X144264147Y-91843100D01*
X144171015Y-91982481D01*
X144052481Y-92101015D01*
X143913100Y-92194147D01*
X143758228Y-92258297D01*
X143593816Y-92291000D01*
X143426184Y-92291000D01*
X143261772Y-92258297D01*
X143106900Y-92194147D01*
X142967519Y-92101015D01*
X142848985Y-91982481D01*
X142755853Y-91843100D01*
X142691703Y-91688228D01*
X142659000Y-91523816D01*
X142659000Y-91356184D01*
X142691703Y-91191772D01*
X142755853Y-91036900D01*
X142848985Y-90897519D01*
X142967519Y-90778985D01*
X143106900Y-90685853D01*
X143261772Y-90621703D01*
X143426184Y-90589000D01*
X143593816Y-90589000D01*
X143758228Y-90621703D01*
G37*
G36*
X88513228Y-90621703D02*
G01*
X88668100Y-90685853D01*
X88807481Y-90778985D01*
X88926015Y-90897519D01*
X89019147Y-91036900D01*
X89083297Y-91191772D01*
X89116000Y-91356184D01*
X89116000Y-91523816D01*
X89083297Y-91688228D01*
X89019147Y-91843100D01*
X88926015Y-91982481D01*
X88807481Y-92101015D01*
X88668100Y-92194147D01*
X88513228Y-92258297D01*
X88348816Y-92291000D01*
X88181184Y-92291000D01*
X88016772Y-92258297D01*
X87861900Y-92194147D01*
X87722519Y-92101015D01*
X87603985Y-91982481D01*
X87510853Y-91843100D01*
X87446703Y-91688228D01*
X87414000Y-91523816D01*
X87414000Y-91356184D01*
X87446703Y-91191772D01*
X87510853Y-91036900D01*
X87603985Y-90897519D01*
X87722519Y-90778985D01*
X87861900Y-90685853D01*
X88016772Y-90621703D01*
X88181184Y-90589000D01*
X88348816Y-90589000D01*
X88513228Y-90621703D01*
G37*
G36*
X110071000Y-89751000D02*
G01*
X108369000Y-89751000D01*
X108369000Y-88049000D01*
X110071000Y-88049000D01*
X110071000Y-89751000D01*
G37*
G36*
X151378228Y-88081703D02*
G01*
X151533100Y-88145853D01*
X151672481Y-88238985D01*
X151791015Y-88357519D01*
X151884147Y-88496900D01*
X151948297Y-88651772D01*
X151981000Y-88816184D01*
X151981000Y-88983816D01*
X151948297Y-89148228D01*
X151884147Y-89303100D01*
X151791015Y-89442481D01*
X151672481Y-89561015D01*
X151533100Y-89654147D01*
X151378228Y-89718297D01*
X151213816Y-89751000D01*
X151046184Y-89751000D01*
X150881772Y-89718297D01*
X150726900Y-89654147D01*
X150587519Y-89561015D01*
X150468985Y-89442481D01*
X150375853Y-89303100D01*
X150311703Y-89148228D01*
X150279000Y-88983816D01*
X150279000Y-88816184D01*
X150311703Y-88651772D01*
X150375853Y-88496900D01*
X150468985Y-88357519D01*
X150587519Y-88238985D01*
X150726900Y-88145853D01*
X150881772Y-88081703D01*
X151046184Y-88049000D01*
X151213816Y-88049000D01*
X151378228Y-88081703D01*
G37*
G36*
X143758228Y-88081703D02*
G01*
X143913100Y-88145853D01*
X144052481Y-88238985D01*
X144171015Y-88357519D01*
X144264147Y-88496900D01*
X144328297Y-88651772D01*
X144361000Y-88816184D01*
X144361000Y-88983816D01*
X144328297Y-89148228D01*
X144264147Y-89303100D01*
X144171015Y-89442481D01*
X144052481Y-89561015D01*
X143913100Y-89654147D01*
X143758228Y-89718297D01*
X143593816Y-89751000D01*
X143426184Y-89751000D01*
X143261772Y-89718297D01*
X143106900Y-89654147D01*
X142967519Y-89561015D01*
X142848985Y-89442481D01*
X142755853Y-89303100D01*
X142691703Y-89148228D01*
X142659000Y-88983816D01*
X142659000Y-88816184D01*
X142691703Y-88651772D01*
X142755853Y-88496900D01*
X142848985Y-88357519D01*
X142967519Y-88238985D01*
X143106900Y-88145853D01*
X143261772Y-88081703D01*
X143426184Y-88049000D01*
X143593816Y-88049000D01*
X143758228Y-88081703D01*
G37*
G36*
X94228228Y-88081703D02*
G01*
X94383100Y-88145853D01*
X94522481Y-88238985D01*
X94641015Y-88357519D01*
X94734147Y-88496900D01*
X94798297Y-88651772D01*
X94831000Y-88816184D01*
X94831000Y-88983816D01*
X94798297Y-89148228D01*
X94734147Y-89303100D01*
X94641015Y-89442481D01*
X94522481Y-89561015D01*
X94383100Y-89654147D01*
X94228228Y-89718297D01*
X94063816Y-89751000D01*
X93896184Y-89751000D01*
X93731772Y-89718297D01*
X93576900Y-89654147D01*
X93437519Y-89561015D01*
X93318985Y-89442481D01*
X93225853Y-89303100D01*
X93161703Y-89148228D01*
X93129000Y-88983816D01*
X93129000Y-88816184D01*
X93161703Y-88651772D01*
X93225853Y-88496900D01*
X93318985Y-88357519D01*
X93437519Y-88238985D01*
X93576900Y-88145853D01*
X93731772Y-88081703D01*
X93896184Y-88049000D01*
X94063816Y-88049000D01*
X94228228Y-88081703D01*
G37*
G36*
X94228228Y-85541703D02*
G01*
X94383100Y-85605853D01*
X94522481Y-85698985D01*
X94641015Y-85817519D01*
X94734147Y-85956900D01*
X94798297Y-86111772D01*
X94831000Y-86276184D01*
X94831000Y-86443816D01*
X94798297Y-86608228D01*
X94734147Y-86763100D01*
X94641015Y-86902481D01*
X94522481Y-87021015D01*
X94383100Y-87114147D01*
X94228228Y-87178297D01*
X94063816Y-87211000D01*
X93896184Y-87211000D01*
X93731772Y-87178297D01*
X93576900Y-87114147D01*
X93437519Y-87021015D01*
X93318985Y-86902481D01*
X93225853Y-86763100D01*
X93161703Y-86608228D01*
X93129000Y-86443816D01*
X93129000Y-86276184D01*
X93161703Y-86111772D01*
X93225853Y-85956900D01*
X93318985Y-85817519D01*
X93437519Y-85698985D01*
X93576900Y-85605853D01*
X93731772Y-85541703D01*
X93896184Y-85509000D01*
X94063816Y-85509000D01*
X94228228Y-85541703D01*
G37*
G36*
X151378228Y-85541703D02*
G01*
X151533100Y-85605853D01*
X151672481Y-85698985D01*
X151791015Y-85817519D01*
X151884147Y-85956900D01*
X151948297Y-86111772D01*
X151981000Y-86276184D01*
X151981000Y-86443816D01*
X151948297Y-86608228D01*
X151884147Y-86763100D01*
X151791015Y-86902481D01*
X151672481Y-87021015D01*
X151533100Y-87114147D01*
X151378228Y-87178297D01*
X151213816Y-87211000D01*
X151046184Y-87211000D01*
X150881772Y-87178297D01*
X150726900Y-87114147D01*
X150587519Y-87021015D01*
X150468985Y-86902481D01*
X150375853Y-86763100D01*
X150311703Y-86608228D01*
X150279000Y-86443816D01*
X150279000Y-86276184D01*
X150311703Y-86111772D01*
X150375853Y-85956900D01*
X150468985Y-85817519D01*
X150587519Y-85698985D01*
X150726900Y-85605853D01*
X150881772Y-85541703D01*
X151046184Y-85509000D01*
X151213816Y-85509000D01*
X151378228Y-85541703D01*
G37*
G36*
X96768228Y-85541703D02*
G01*
X96923100Y-85605853D01*
X97062481Y-85698985D01*
X97181015Y-85817519D01*
X97274147Y-85956900D01*
X97338297Y-86111772D01*
X97371000Y-86276184D01*
X97371000Y-86443816D01*
X97338297Y-86608228D01*
X97274147Y-86763100D01*
X97181015Y-86902481D01*
X97062481Y-87021015D01*
X96923100Y-87114147D01*
X96768228Y-87178297D01*
X96603816Y-87211000D01*
X96436184Y-87211000D01*
X96271772Y-87178297D01*
X96116900Y-87114147D01*
X95977519Y-87021015D01*
X95858985Y-86902481D01*
X95765853Y-86763100D01*
X95701703Y-86608228D01*
X95669000Y-86443816D01*
X95669000Y-86276184D01*
X95701703Y-86111772D01*
X95765853Y-85956900D01*
X95858985Y-85817519D01*
X95977519Y-85698985D01*
X96116900Y-85605853D01*
X96271772Y-85541703D01*
X96436184Y-85509000D01*
X96603816Y-85509000D01*
X96768228Y-85541703D01*
G37*
G36*
X143758228Y-85541703D02*
G01*
X143913100Y-85605853D01*
X144052481Y-85698985D01*
X144171015Y-85817519D01*
X144264147Y-85956900D01*
X144328297Y-86111772D01*
X144361000Y-86276184D01*
X144361000Y-86443816D01*
X144328297Y-86608228D01*
X144264147Y-86763100D01*
X144171015Y-86902481D01*
X144052481Y-87021015D01*
X143913100Y-87114147D01*
X143758228Y-87178297D01*
X143593816Y-87211000D01*
X143426184Y-87211000D01*
X143261772Y-87178297D01*
X143106900Y-87114147D01*
X142967519Y-87021015D01*
X142848985Y-86902481D01*
X142755853Y-86763100D01*
X142691703Y-86608228D01*
X142659000Y-86443816D01*
X142659000Y-86276184D01*
X142691703Y-86111772D01*
X142755853Y-85956900D01*
X142848985Y-85817519D01*
X142967519Y-85698985D01*
X143106900Y-85605853D01*
X143261772Y-85541703D01*
X143426184Y-85509000D01*
X143593816Y-85509000D01*
X143758228Y-85541703D01*
G37*
G36*
X109468228Y-85541703D02*
G01*
X109623100Y-85605853D01*
X109762481Y-85698985D01*
X109881015Y-85817519D01*
X109974147Y-85956900D01*
X110038297Y-86111772D01*
X110071000Y-86276184D01*
X110071000Y-86443816D01*
X110038297Y-86608228D01*
X109974147Y-86763100D01*
X109881015Y-86902481D01*
X109762481Y-87021015D01*
X109623100Y-87114147D01*
X109468228Y-87178297D01*
X109303816Y-87211000D01*
X109136184Y-87211000D01*
X108971772Y-87178297D01*
X108816900Y-87114147D01*
X108677519Y-87021015D01*
X108558985Y-86902481D01*
X108465853Y-86763100D01*
X108401703Y-86608228D01*
X108369000Y-86443816D01*
X108369000Y-86276184D01*
X108401703Y-86111772D01*
X108465853Y-85956900D01*
X108558985Y-85817519D01*
X108677519Y-85698985D01*
X108816900Y-85605853D01*
X108971772Y-85541703D01*
X109136184Y-85509000D01*
X109303816Y-85509000D01*
X109468228Y-85541703D01*
G37*
G36*
X143758228Y-83001703D02*
G01*
X143913100Y-83065853D01*
X144052481Y-83158985D01*
X144171015Y-83277519D01*
X144264147Y-83416900D01*
X144328297Y-83571772D01*
X144361000Y-83736184D01*
X144361000Y-83903816D01*
X144328297Y-84068228D01*
X144264147Y-84223100D01*
X144171015Y-84362481D01*
X144052481Y-84481015D01*
X143913100Y-84574147D01*
X143758228Y-84638297D01*
X143593816Y-84671000D01*
X143426184Y-84671000D01*
X143261772Y-84638297D01*
X143106900Y-84574147D01*
X142967519Y-84481015D01*
X142848985Y-84362481D01*
X142755853Y-84223100D01*
X142691703Y-84068228D01*
X142659000Y-83903816D01*
X142659000Y-83736184D01*
X142691703Y-83571772D01*
X142755853Y-83416900D01*
X142848985Y-83277519D01*
X142967519Y-83158985D01*
X143106900Y-83065853D01*
X143261772Y-83001703D01*
X143426184Y-82969000D01*
X143593816Y-82969000D01*
X143758228Y-83001703D01*
G37*
G36*
X109468228Y-83001703D02*
G01*
X109623100Y-83065853D01*
X109762481Y-83158985D01*
X109881015Y-83277519D01*
X109974147Y-83416900D01*
X110038297Y-83571772D01*
X110071000Y-83736184D01*
X110071000Y-83903816D01*
X110038297Y-84068228D01*
X109974147Y-84223100D01*
X109881015Y-84362481D01*
X109762481Y-84481015D01*
X109623100Y-84574147D01*
X109468228Y-84638297D01*
X109303816Y-84671000D01*
X109136184Y-84671000D01*
X108971772Y-84638297D01*
X108816900Y-84574147D01*
X108677519Y-84481015D01*
X108558985Y-84362481D01*
X108465853Y-84223100D01*
X108401703Y-84068228D01*
X108369000Y-83903816D01*
X108369000Y-83736184D01*
X108401703Y-83571772D01*
X108465853Y-83416900D01*
X108558985Y-83277519D01*
X108677519Y-83158985D01*
X108816900Y-83065853D01*
X108971772Y-83001703D01*
X109136184Y-82969000D01*
X109303816Y-82969000D01*
X109468228Y-83001703D01*
G37*
G36*
X88513228Y-83001703D02*
G01*
X88668100Y-83065853D01*
X88807481Y-83158985D01*
X88926015Y-83277519D01*
X89019147Y-83416900D01*
X89083297Y-83571772D01*
X89116000Y-83736184D01*
X89116000Y-83903816D01*
X89083297Y-84068228D01*
X89019147Y-84223100D01*
X88926015Y-84362481D01*
X88807481Y-84481015D01*
X88668100Y-84574147D01*
X88513228Y-84638297D01*
X88348816Y-84671000D01*
X88181184Y-84671000D01*
X88016772Y-84638297D01*
X87861900Y-84574147D01*
X87722519Y-84481015D01*
X87603985Y-84362481D01*
X87510853Y-84223100D01*
X87446703Y-84068228D01*
X87414000Y-83903816D01*
X87414000Y-83736184D01*
X87446703Y-83571772D01*
X87510853Y-83416900D01*
X87603985Y-83277519D01*
X87722519Y-83158985D01*
X87861900Y-83065853D01*
X88016772Y-83001703D01*
X88181184Y-82969000D01*
X88348816Y-82969000D01*
X88513228Y-83001703D01*
G37*
G36*
X94228228Y-83001703D02*
G01*
X94383100Y-83065853D01*
X94522481Y-83158985D01*
X94641015Y-83277519D01*
X94734147Y-83416900D01*
X94798297Y-83571772D01*
X94831000Y-83736184D01*
X94831000Y-83903816D01*
X94798297Y-84068228D01*
X94734147Y-84223100D01*
X94641015Y-84362481D01*
X94522481Y-84481015D01*
X94383100Y-84574147D01*
X94228228Y-84638297D01*
X94063816Y-84671000D01*
X93896184Y-84671000D01*
X93731772Y-84638297D01*
X93576900Y-84574147D01*
X93437519Y-84481015D01*
X93318985Y-84362481D01*
X93225853Y-84223100D01*
X93161703Y-84068228D01*
X93129000Y-83903816D01*
X93129000Y-83736184D01*
X93161703Y-83571772D01*
X93225853Y-83416900D01*
X93318985Y-83277519D01*
X93437519Y-83158985D01*
X93576900Y-83065853D01*
X93731772Y-83001703D01*
X93896184Y-82969000D01*
X94063816Y-82969000D01*
X94228228Y-83001703D01*
G37*
G36*
X151378228Y-83001703D02*
G01*
X151533100Y-83065853D01*
X151672481Y-83158985D01*
X151791015Y-83277519D01*
X151884147Y-83416900D01*
X151948297Y-83571772D01*
X151981000Y-83736184D01*
X151981000Y-83903816D01*
X151948297Y-84068228D01*
X151884147Y-84223100D01*
X151791015Y-84362481D01*
X151672481Y-84481015D01*
X151533100Y-84574147D01*
X151378228Y-84638297D01*
X151213816Y-84671000D01*
X151046184Y-84671000D01*
X150881772Y-84638297D01*
X150726900Y-84574147D01*
X150587519Y-84481015D01*
X150468985Y-84362481D01*
X150375853Y-84223100D01*
X150311703Y-84068228D01*
X150279000Y-83903816D01*
X150279000Y-83736184D01*
X150311703Y-83571772D01*
X150375853Y-83416900D01*
X150468985Y-83277519D01*
X150587519Y-83158985D01*
X150726900Y-83065853D01*
X150881772Y-83001703D01*
X151046184Y-82969000D01*
X151213816Y-82969000D01*
X151378228Y-83001703D01*
G37*
G36*
X101891981Y-81587468D02*
G01*
X102074151Y-81662926D01*
X102238100Y-81772473D01*
X102377527Y-81911900D01*
X102487074Y-82075849D01*
X102562532Y-82258019D01*
X102601000Y-82451410D01*
X102601000Y-82648590D01*
X102562532Y-82841981D01*
X102487074Y-83024151D01*
X102377527Y-83188100D01*
X102238100Y-83327527D01*
X102074151Y-83437074D01*
X101891981Y-83512532D01*
X101795285Y-83531766D01*
X101698591Y-83551000D01*
X101501409Y-83551000D01*
X101404715Y-83531766D01*
X101308019Y-83512532D01*
X101125849Y-83437074D01*
X100961900Y-83327527D01*
X100822473Y-83188100D01*
X100712926Y-83024151D01*
X100637468Y-82841981D01*
X100599000Y-82648590D01*
X100599000Y-82451410D01*
X100637468Y-82258019D01*
X100712926Y-82075849D01*
X100822473Y-81911900D01*
X100961900Y-81772473D01*
X101125849Y-81662926D01*
X101308019Y-81587468D01*
X101501409Y-81549000D01*
X101698591Y-81549000D01*
X101891981Y-81587468D01*
G37*
G36*
X94228228Y-80461703D02*
G01*
X94383100Y-80525853D01*
X94522481Y-80618985D01*
X94641015Y-80737519D01*
X94734147Y-80876900D01*
X94798297Y-81031772D01*
X94831000Y-81196184D01*
X94831000Y-81363816D01*
X94798297Y-81528228D01*
X94734147Y-81683100D01*
X94641015Y-81822481D01*
X94522481Y-81941015D01*
X94383100Y-82034147D01*
X94228228Y-82098297D01*
X94063816Y-82131000D01*
X93896184Y-82131000D01*
X93731772Y-82098297D01*
X93576900Y-82034147D01*
X93437519Y-81941015D01*
X93318985Y-81822481D01*
X93225853Y-81683100D01*
X93161703Y-81528228D01*
X93129000Y-81363816D01*
X93129000Y-81196184D01*
X93161703Y-81031772D01*
X93225853Y-80876900D01*
X93318985Y-80737519D01*
X93437519Y-80618985D01*
X93576900Y-80525853D01*
X93731772Y-80461703D01*
X93896184Y-80429000D01*
X94063816Y-80429000D01*
X94228228Y-80461703D01*
G37*
G36*
X109468228Y-80461703D02*
G01*
X109623100Y-80525853D01*
X109762481Y-80618985D01*
X109881015Y-80737519D01*
X109974147Y-80876900D01*
X110038297Y-81031772D01*
X110071000Y-81196184D01*
X110071000Y-81363816D01*
X110038297Y-81528228D01*
X109974147Y-81683100D01*
X109881015Y-81822481D01*
X109762481Y-81941015D01*
X109623100Y-82034147D01*
X109468228Y-82098297D01*
X109303816Y-82131000D01*
X109136184Y-82131000D01*
X108971772Y-82098297D01*
X108816900Y-82034147D01*
X108677519Y-81941015D01*
X108558985Y-81822481D01*
X108465853Y-81683100D01*
X108401703Y-81528228D01*
X108369000Y-81363816D01*
X108369000Y-81196184D01*
X108401703Y-81031772D01*
X108465853Y-80876900D01*
X108558985Y-80737519D01*
X108677519Y-80618985D01*
X108816900Y-80525853D01*
X108971772Y-80461703D01*
X109136184Y-80429000D01*
X109303816Y-80429000D01*
X109468228Y-80461703D01*
G37*
G36*
X96768228Y-80461703D02*
G01*
X96923100Y-80525853D01*
X97062481Y-80618985D01*
X97181015Y-80737519D01*
X97274147Y-80876900D01*
X97338297Y-81031772D01*
X97371000Y-81196184D01*
X97371000Y-81363816D01*
X97338297Y-81528228D01*
X97274147Y-81683100D01*
X97181015Y-81822481D01*
X97062481Y-81941015D01*
X96923100Y-82034147D01*
X96768228Y-82098297D01*
X96603816Y-82131000D01*
X96436184Y-82131000D01*
X96271772Y-82098297D01*
X96116900Y-82034147D01*
X95977519Y-81941015D01*
X95858985Y-81822481D01*
X95765853Y-81683100D01*
X95701703Y-81528228D01*
X95669000Y-81363816D01*
X95669000Y-81196184D01*
X95701703Y-81031772D01*
X95765853Y-80876900D01*
X95858985Y-80737519D01*
X95977519Y-80618985D01*
X96116900Y-80525853D01*
X96271772Y-80461703D01*
X96436184Y-80429000D01*
X96603816Y-80429000D01*
X96768228Y-80461703D01*
G37*
G36*
X143758228Y-80461703D02*
G01*
X143913100Y-80525853D01*
X144052481Y-80618985D01*
X144171015Y-80737519D01*
X144264147Y-80876900D01*
X144328297Y-81031772D01*
X144361000Y-81196184D01*
X144361000Y-81363816D01*
X144328297Y-81528228D01*
X144264147Y-81683100D01*
X144171015Y-81822481D01*
X144052481Y-81941015D01*
X143913100Y-82034147D01*
X143758228Y-82098297D01*
X143593816Y-82131000D01*
X143426184Y-82131000D01*
X143261772Y-82098297D01*
X143106900Y-82034147D01*
X142967519Y-81941015D01*
X142848985Y-81822481D01*
X142755853Y-81683100D01*
X142691703Y-81528228D01*
X142659000Y-81363816D01*
X142659000Y-81196184D01*
X142691703Y-81031772D01*
X142755853Y-80876900D01*
X142848985Y-80737519D01*
X142967519Y-80618985D01*
X143106900Y-80525853D01*
X143261772Y-80461703D01*
X143426184Y-80429000D01*
X143593816Y-80429000D01*
X143758228Y-80461703D01*
G37*
G36*
X151378228Y-80461703D02*
G01*
X151533100Y-80525853D01*
X151672481Y-80618985D01*
X151791015Y-80737519D01*
X151884147Y-80876900D01*
X151948297Y-81031772D01*
X151981000Y-81196184D01*
X151981000Y-81363816D01*
X151948297Y-81528228D01*
X151884147Y-81683100D01*
X151791015Y-81822481D01*
X151672481Y-81941015D01*
X151533100Y-82034147D01*
X151378228Y-82098297D01*
X151213816Y-82131000D01*
X151046184Y-82131000D01*
X150881772Y-82098297D01*
X150726900Y-82034147D01*
X150587519Y-81941015D01*
X150468985Y-81822481D01*
X150375853Y-81683100D01*
X150311703Y-81528228D01*
X150279000Y-81363816D01*
X150279000Y-81196184D01*
X150311703Y-81031772D01*
X150375853Y-80876900D01*
X150468985Y-80737519D01*
X150587519Y-80618985D01*
X150726900Y-80525853D01*
X150881772Y-80461703D01*
X151046184Y-80429000D01*
X151213816Y-80429000D01*
X151378228Y-80461703D01*
G37*
G36*
X101795285Y-77758234D02*
G01*
X101891981Y-77777468D01*
X102074151Y-77852926D01*
X102238100Y-77962473D01*
X102377527Y-78101900D01*
X102487074Y-78265849D01*
X102562532Y-78448019D01*
X102601000Y-78641410D01*
X102601000Y-78838590D01*
X102562532Y-79031981D01*
X102487074Y-79214151D01*
X102377527Y-79378100D01*
X102238100Y-79517527D01*
X102074151Y-79627074D01*
X101891981Y-79702532D01*
X101698591Y-79741000D01*
X101501409Y-79741000D01*
X101308019Y-79702532D01*
X101125849Y-79627074D01*
X100961900Y-79517527D01*
X100822473Y-79378100D01*
X100712926Y-79214151D01*
X100637468Y-79031981D01*
X100599000Y-78838590D01*
X100599000Y-78641410D01*
X100637468Y-78448019D01*
X100712926Y-78265849D01*
X100822473Y-78101900D01*
X100961900Y-77962473D01*
X101125849Y-77852926D01*
X101308019Y-77777468D01*
X101404715Y-77758234D01*
X101501409Y-77739000D01*
X101698591Y-77739000D01*
X101795285Y-77758234D01*
G37*
G36*
X151378228Y-77921703D02*
G01*
X151533100Y-77985853D01*
X151672481Y-78078985D01*
X151791015Y-78197519D01*
X151884147Y-78336900D01*
X151948297Y-78491772D01*
X151981000Y-78656184D01*
X151981000Y-78823816D01*
X151948297Y-78988228D01*
X151884147Y-79143100D01*
X151791015Y-79282481D01*
X151672481Y-79401015D01*
X151533100Y-79494147D01*
X151378228Y-79558297D01*
X151213816Y-79591000D01*
X151046184Y-79591000D01*
X150881772Y-79558297D01*
X150726900Y-79494147D01*
X150587519Y-79401015D01*
X150468985Y-79282481D01*
X150375853Y-79143100D01*
X150311703Y-78988228D01*
X150279000Y-78823816D01*
X150279000Y-78656184D01*
X150311703Y-78491772D01*
X150375853Y-78336900D01*
X150468985Y-78197519D01*
X150587519Y-78078985D01*
X150726900Y-77985853D01*
X150881772Y-77921703D01*
X151046184Y-77889000D01*
X151213816Y-77889000D01*
X151378228Y-77921703D01*
G37*
G36*
X96768228Y-77921703D02*
G01*
X96923100Y-77985853D01*
X97062481Y-78078985D01*
X97181015Y-78197519D01*
X97274147Y-78336900D01*
X97338297Y-78491772D01*
X97371000Y-78656184D01*
X97371000Y-78823816D01*
X97338297Y-78988228D01*
X97274147Y-79143100D01*
X97181015Y-79282481D01*
X97062481Y-79401015D01*
X96923100Y-79494147D01*
X96768228Y-79558297D01*
X96603816Y-79591000D01*
X96436184Y-79591000D01*
X96271772Y-79558297D01*
X96116900Y-79494147D01*
X95977519Y-79401015D01*
X95858985Y-79282481D01*
X95765853Y-79143100D01*
X95701703Y-78988228D01*
X95669000Y-78823816D01*
X95669000Y-78656184D01*
X95701703Y-78491772D01*
X95765853Y-78336900D01*
X95858985Y-78197519D01*
X95977519Y-78078985D01*
X96116900Y-77985853D01*
X96271772Y-77921703D01*
X96436184Y-77889000D01*
X96603816Y-77889000D01*
X96768228Y-77921703D01*
G37*
G36*
X94228228Y-77921703D02*
G01*
X94383100Y-77985853D01*
X94522481Y-78078985D01*
X94641015Y-78197519D01*
X94734147Y-78336900D01*
X94798297Y-78491772D01*
X94831000Y-78656184D01*
X94831000Y-78823816D01*
X94798297Y-78988228D01*
X94734147Y-79143100D01*
X94641015Y-79282481D01*
X94522481Y-79401015D01*
X94383100Y-79494147D01*
X94228228Y-79558297D01*
X94063816Y-79591000D01*
X93896184Y-79591000D01*
X93731772Y-79558297D01*
X93576900Y-79494147D01*
X93437519Y-79401015D01*
X93318985Y-79282481D01*
X93225853Y-79143100D01*
X93161703Y-78988228D01*
X93129000Y-78823816D01*
X93129000Y-78656184D01*
X93161703Y-78491772D01*
X93225853Y-78336900D01*
X93318985Y-78197519D01*
X93437519Y-78078985D01*
X93576900Y-77985853D01*
X93731772Y-77921703D01*
X93896184Y-77889000D01*
X94063816Y-77889000D01*
X94228228Y-77921703D01*
G37*
G36*
X109468228Y-77921703D02*
G01*
X109623100Y-77985853D01*
X109762481Y-78078985D01*
X109881015Y-78197519D01*
X109974147Y-78336900D01*
X110038297Y-78491772D01*
X110071000Y-78656184D01*
X110071000Y-78823816D01*
X110038297Y-78988228D01*
X109974147Y-79143100D01*
X109881015Y-79282481D01*
X109762481Y-79401015D01*
X109623100Y-79494147D01*
X109468228Y-79558297D01*
X109303816Y-79591000D01*
X109136184Y-79591000D01*
X108971772Y-79558297D01*
X108816900Y-79494147D01*
X108677519Y-79401015D01*
X108558985Y-79282481D01*
X108465853Y-79143100D01*
X108401703Y-78988228D01*
X108369000Y-78823816D01*
X108369000Y-78656184D01*
X108401703Y-78491772D01*
X108465853Y-78336900D01*
X108558985Y-78197519D01*
X108677519Y-78078985D01*
X108816900Y-77985853D01*
X108971772Y-77921703D01*
X109136184Y-77889000D01*
X109303816Y-77889000D01*
X109468228Y-77921703D01*
G37*
G36*
X143758228Y-77921703D02*
G01*
X143913100Y-77985853D01*
X144052481Y-78078985D01*
X144171015Y-78197519D01*
X144264147Y-78336900D01*
X144328297Y-78491772D01*
X144361000Y-78656184D01*
X144361000Y-78823816D01*
X144328297Y-78988228D01*
X144264147Y-79143100D01*
X144171015Y-79282481D01*
X144052481Y-79401015D01*
X143913100Y-79494147D01*
X143758228Y-79558297D01*
X143593816Y-79591000D01*
X143426184Y-79591000D01*
X143261772Y-79558297D01*
X143106900Y-79494147D01*
X142967519Y-79401015D01*
X142848985Y-79282481D01*
X142755853Y-79143100D01*
X142691703Y-78988228D01*
X142659000Y-78823816D01*
X142659000Y-78656184D01*
X142691703Y-78491772D01*
X142755853Y-78336900D01*
X142848985Y-78197519D01*
X142967519Y-78078985D01*
X143106900Y-77985853D01*
X143261772Y-77921703D01*
X143426184Y-77889000D01*
X143593816Y-77889000D01*
X143758228Y-77921703D01*
G37*
G36*
X143758228Y-75381703D02*
G01*
X143913100Y-75445853D01*
X144052481Y-75538985D01*
X144171015Y-75657519D01*
X144264147Y-75796900D01*
X144328297Y-75951772D01*
X144361000Y-76116184D01*
X144361000Y-76283816D01*
X144328297Y-76448228D01*
X144264147Y-76603100D01*
X144171015Y-76742481D01*
X144052481Y-76861015D01*
X143913100Y-76954147D01*
X143758228Y-77018297D01*
X143593816Y-77051000D01*
X143426184Y-77051000D01*
X143261772Y-77018297D01*
X143106900Y-76954147D01*
X142967519Y-76861015D01*
X142848985Y-76742481D01*
X142755853Y-76603100D01*
X142691703Y-76448228D01*
X142659000Y-76283816D01*
X142659000Y-76116184D01*
X142691703Y-75951772D01*
X142755853Y-75796900D01*
X142848985Y-75657519D01*
X142967519Y-75538985D01*
X143106900Y-75445853D01*
X143261772Y-75381703D01*
X143426184Y-75349000D01*
X143593816Y-75349000D01*
X143758228Y-75381703D01*
G37*
G36*
X94228228Y-75381703D02*
G01*
X94383100Y-75445853D01*
X94522481Y-75538985D01*
X94641015Y-75657519D01*
X94734147Y-75796900D01*
X94798297Y-75951772D01*
X94831000Y-76116184D01*
X94831000Y-76283816D01*
X94798297Y-76448228D01*
X94734147Y-76603100D01*
X94641015Y-76742481D01*
X94522481Y-76861015D01*
X94383100Y-76954147D01*
X94228228Y-77018297D01*
X94063816Y-77051000D01*
X93896184Y-77051000D01*
X93731772Y-77018297D01*
X93576900Y-76954147D01*
X93437519Y-76861015D01*
X93318985Y-76742481D01*
X93225853Y-76603100D01*
X93161703Y-76448228D01*
X93129000Y-76283816D01*
X93129000Y-76116184D01*
X93161703Y-75951772D01*
X93225853Y-75796900D01*
X93318985Y-75657519D01*
X93437519Y-75538985D01*
X93576900Y-75445853D01*
X93731772Y-75381703D01*
X93896184Y-75349000D01*
X94063816Y-75349000D01*
X94228228Y-75381703D01*
G37*
G36*
X96768228Y-75381703D02*
G01*
X96923100Y-75445853D01*
X97062481Y-75538985D01*
X97181015Y-75657519D01*
X97274147Y-75796900D01*
X97338297Y-75951772D01*
X97371000Y-76116184D01*
X97371000Y-76283816D01*
X97338297Y-76448228D01*
X97274147Y-76603100D01*
X97181015Y-76742481D01*
X97062481Y-76861015D01*
X96923100Y-76954147D01*
X96768228Y-77018297D01*
X96603816Y-77051000D01*
X96436184Y-77051000D01*
X96271772Y-77018297D01*
X96116900Y-76954147D01*
X95977519Y-76861015D01*
X95858985Y-76742481D01*
X95765853Y-76603100D01*
X95701703Y-76448228D01*
X95669000Y-76283816D01*
X95669000Y-76116184D01*
X95701703Y-75951772D01*
X95765853Y-75796900D01*
X95858985Y-75657519D01*
X95977519Y-75538985D01*
X96116900Y-75445853D01*
X96271772Y-75381703D01*
X96436184Y-75349000D01*
X96603816Y-75349000D01*
X96768228Y-75381703D01*
G37*
G36*
X109468228Y-75381703D02*
G01*
X109623100Y-75445853D01*
X109762481Y-75538985D01*
X109881015Y-75657519D01*
X109974147Y-75796900D01*
X110038297Y-75951772D01*
X110071000Y-76116184D01*
X110071000Y-76283816D01*
X110038297Y-76448228D01*
X109974147Y-76603100D01*
X109881015Y-76742481D01*
X109762481Y-76861015D01*
X109623100Y-76954147D01*
X109468228Y-77018297D01*
X109303816Y-77051000D01*
X109136184Y-77051000D01*
X108971772Y-77018297D01*
X108816900Y-76954147D01*
X108677519Y-76861015D01*
X108558985Y-76742481D01*
X108465853Y-76603100D01*
X108401703Y-76448228D01*
X108369000Y-76283816D01*
X108369000Y-76116184D01*
X108401703Y-75951772D01*
X108465853Y-75796900D01*
X108558985Y-75657519D01*
X108677519Y-75538985D01*
X108816900Y-75445853D01*
X108971772Y-75381703D01*
X109136184Y-75349000D01*
X109303816Y-75349000D01*
X109468228Y-75381703D01*
G37*
G36*
X151378228Y-75381703D02*
G01*
X151533100Y-75445853D01*
X151672481Y-75538985D01*
X151791015Y-75657519D01*
X151884147Y-75796900D01*
X151948297Y-75951772D01*
X151981000Y-76116184D01*
X151981000Y-76283816D01*
X151948297Y-76448228D01*
X151884147Y-76603100D01*
X151791015Y-76742481D01*
X151672481Y-76861015D01*
X151533100Y-76954147D01*
X151378228Y-77018297D01*
X151213816Y-77051000D01*
X151046184Y-77051000D01*
X150881772Y-77018297D01*
X150726900Y-76954147D01*
X150587519Y-76861015D01*
X150468985Y-76742481D01*
X150375853Y-76603100D01*
X150311703Y-76448228D01*
X150279000Y-76283816D01*
X150279000Y-76116184D01*
X150311703Y-75951772D01*
X150375853Y-75796900D01*
X150468985Y-75657519D01*
X150587519Y-75538985D01*
X150726900Y-75445853D01*
X150881772Y-75381703D01*
X151046184Y-75349000D01*
X151213816Y-75349000D01*
X151378228Y-75381703D01*
G37*
G36*
X109468228Y-72841703D02*
G01*
X109623100Y-72905853D01*
X109762481Y-72998985D01*
X109881015Y-73117519D01*
X109974147Y-73256900D01*
X110038297Y-73411772D01*
X110071000Y-73576184D01*
X110071000Y-73743816D01*
X110038297Y-73908228D01*
X109974147Y-74063100D01*
X109881015Y-74202481D01*
X109762481Y-74321015D01*
X109623100Y-74414147D01*
X109468228Y-74478297D01*
X109303816Y-74511000D01*
X109136184Y-74511000D01*
X108971772Y-74478297D01*
X108816900Y-74414147D01*
X108677519Y-74321015D01*
X108558985Y-74202481D01*
X108465853Y-74063100D01*
X108401703Y-73908228D01*
X108369000Y-73743816D01*
X108369000Y-73576184D01*
X108401703Y-73411772D01*
X108465853Y-73256900D01*
X108558985Y-73117519D01*
X108677519Y-72998985D01*
X108816900Y-72905853D01*
X108971772Y-72841703D01*
X109136184Y-72809000D01*
X109303816Y-72809000D01*
X109468228Y-72841703D01*
G37*
G36*
X94228228Y-72841703D02*
G01*
X94383100Y-72905853D01*
X94522481Y-72998985D01*
X94641015Y-73117519D01*
X94734147Y-73256900D01*
X94798297Y-73411772D01*
X94831000Y-73576184D01*
X94831000Y-73743816D01*
X94798297Y-73908228D01*
X94734147Y-74063100D01*
X94641015Y-74202481D01*
X94522481Y-74321015D01*
X94383100Y-74414147D01*
X94228228Y-74478297D01*
X94063816Y-74511000D01*
X93896184Y-74511000D01*
X93731772Y-74478297D01*
X93576900Y-74414147D01*
X93437519Y-74321015D01*
X93318985Y-74202481D01*
X93225853Y-74063100D01*
X93161703Y-73908228D01*
X93129000Y-73743816D01*
X93129000Y-73576184D01*
X93161703Y-73411772D01*
X93225853Y-73256900D01*
X93318985Y-73117519D01*
X93437519Y-72998985D01*
X93576900Y-72905853D01*
X93731772Y-72841703D01*
X93896184Y-72809000D01*
X94063816Y-72809000D01*
X94228228Y-72841703D01*
G37*
G36*
X94228228Y-70301703D02*
G01*
X94383100Y-70365853D01*
X94522481Y-70458985D01*
X94641015Y-70577519D01*
X94734147Y-70716900D01*
X94798297Y-70871772D01*
X94831000Y-71036184D01*
X94831000Y-71203816D01*
X94798297Y-71368228D01*
X94734147Y-71523100D01*
X94641015Y-71662481D01*
X94522481Y-71781015D01*
X94383100Y-71874147D01*
X94228228Y-71938297D01*
X94063816Y-71971000D01*
X93896184Y-71971000D01*
X93731772Y-71938297D01*
X93576900Y-71874147D01*
X93437519Y-71781015D01*
X93318985Y-71662481D01*
X93225853Y-71523100D01*
X93161703Y-71368228D01*
X93129000Y-71203816D01*
X93129000Y-71036184D01*
X93161703Y-70871772D01*
X93225853Y-70716900D01*
X93318985Y-70577519D01*
X93437519Y-70458985D01*
X93576900Y-70365853D01*
X93731772Y-70301703D01*
X93896184Y-70269000D01*
X94063816Y-70269000D01*
X94228228Y-70301703D01*
G37*
G36*
X109468228Y-70301703D02*
G01*
X109623100Y-70365853D01*
X109762481Y-70458985D01*
X109881015Y-70577519D01*
X109974147Y-70716900D01*
X110038297Y-70871772D01*
X110071000Y-71036184D01*
X110071000Y-71203816D01*
X110038297Y-71368228D01*
X109974147Y-71523100D01*
X109881015Y-71662481D01*
X109762481Y-71781015D01*
X109623100Y-71874147D01*
X109468228Y-71938297D01*
X109303816Y-71971000D01*
X109136184Y-71971000D01*
X108971772Y-71938297D01*
X108816900Y-71874147D01*
X108677519Y-71781015D01*
X108558985Y-71662481D01*
X108465853Y-71523100D01*
X108401703Y-71368228D01*
X108369000Y-71203816D01*
X108369000Y-71036184D01*
X108401703Y-70871772D01*
X108465853Y-70716900D01*
X108558985Y-70577519D01*
X108677519Y-70458985D01*
X108816900Y-70365853D01*
X108971772Y-70301703D01*
X109136184Y-70269000D01*
X109303816Y-70269000D01*
X109468228Y-70301703D01*
G37*
G36*
X109468228Y-67761703D02*
G01*
X109623100Y-67825853D01*
X109762481Y-67918985D01*
X109881015Y-68037519D01*
X109974147Y-68176900D01*
X110038297Y-68331772D01*
X110071000Y-68496184D01*
X110071000Y-68663816D01*
X110038297Y-68828228D01*
X109974147Y-68983100D01*
X109881015Y-69122481D01*
X109762481Y-69241015D01*
X109623100Y-69334147D01*
X109468228Y-69398297D01*
X109303816Y-69431000D01*
X109136184Y-69431000D01*
X108971772Y-69398297D01*
X108816900Y-69334147D01*
X108677519Y-69241015D01*
X108558985Y-69122481D01*
X108465853Y-68983100D01*
X108401703Y-68828228D01*
X108369000Y-68663816D01*
X108369000Y-68496184D01*
X108401703Y-68331772D01*
X108465853Y-68176900D01*
X108558985Y-68037519D01*
X108677519Y-67918985D01*
X108816900Y-67825853D01*
X108971772Y-67761703D01*
X109136184Y-67729000D01*
X109303816Y-67729000D01*
X109468228Y-67761703D01*
G37*
G36*
X94228228Y-67761703D02*
G01*
X94383100Y-67825853D01*
X94522481Y-67918985D01*
X94641015Y-68037519D01*
X94734147Y-68176900D01*
X94798297Y-68331772D01*
X94831000Y-68496184D01*
X94831000Y-68663816D01*
X94798297Y-68828228D01*
X94734147Y-68983100D01*
X94641015Y-69122481D01*
X94522481Y-69241015D01*
X94383100Y-69334147D01*
X94228228Y-69398297D01*
X94063816Y-69431000D01*
X93896184Y-69431000D01*
X93731772Y-69398297D01*
X93576900Y-69334147D01*
X93437519Y-69241015D01*
X93318985Y-69122481D01*
X93225853Y-68983100D01*
X93161703Y-68828228D01*
X93129000Y-68663816D01*
X93129000Y-68496184D01*
X93161703Y-68331772D01*
X93225853Y-68176900D01*
X93318985Y-68037519D01*
X93437519Y-67918985D01*
X93576900Y-67825853D01*
X93731772Y-67761703D01*
X93896184Y-67729000D01*
X94063816Y-67729000D01*
X94228228Y-67761703D01*
G37*
G36*
X94228228Y-65221703D02*
G01*
X94383100Y-65285853D01*
X94522481Y-65378985D01*
X94641015Y-65497519D01*
X94734147Y-65636900D01*
X94798297Y-65791772D01*
X94831000Y-65956184D01*
X94831000Y-66123816D01*
X94798297Y-66288228D01*
X94734147Y-66443100D01*
X94641015Y-66582481D01*
X94522481Y-66701015D01*
X94383100Y-66794147D01*
X94228228Y-66858297D01*
X94063816Y-66891000D01*
X93896184Y-66891000D01*
X93731772Y-66858297D01*
X93576900Y-66794147D01*
X93437519Y-66701015D01*
X93318985Y-66582481D01*
X93225853Y-66443100D01*
X93161703Y-66288228D01*
X93129000Y-66123816D01*
X93129000Y-65956184D01*
X93161703Y-65791772D01*
X93225853Y-65636900D01*
X93318985Y-65497519D01*
X93437519Y-65378985D01*
X93576900Y-65285853D01*
X93731772Y-65221703D01*
X93896184Y-65189000D01*
X94063816Y-65189000D01*
X94228228Y-65221703D01*
G37*
G36*
X109468228Y-65221703D02*
G01*
X109623100Y-65285853D01*
X109762481Y-65378985D01*
X109881015Y-65497519D01*
X109974147Y-65636900D01*
X110038297Y-65791772D01*
X110071000Y-65956184D01*
X110071000Y-66123816D01*
X110038297Y-66288228D01*
X109974147Y-66443100D01*
X109881015Y-66582481D01*
X109762481Y-66701015D01*
X109623100Y-66794147D01*
X109468228Y-66858297D01*
X109303816Y-66891000D01*
X109136184Y-66891000D01*
X108971772Y-66858297D01*
X108816900Y-66794147D01*
X108677519Y-66701015D01*
X108558985Y-66582481D01*
X108465853Y-66443100D01*
X108401703Y-66288228D01*
X108369000Y-66123816D01*
X108369000Y-65956184D01*
X108401703Y-65791772D01*
X108465853Y-65636900D01*
X108558985Y-65497519D01*
X108677519Y-65378985D01*
X108816900Y-65285853D01*
X108971772Y-65221703D01*
X109136184Y-65189000D01*
X109303816Y-65189000D01*
X109468228Y-65221703D01*
G37*
G36*
X168891000Y-65386000D02*
G01*
X166389000Y-65386000D01*
X166389000Y-62884000D01*
X168891000Y-62884000D01*
X168891000Y-65386000D01*
G37*
G36*
X143758228Y-62681703D02*
G01*
X143913100Y-62745853D01*
X144052481Y-62838985D01*
X144171015Y-62957519D01*
X144264147Y-63096900D01*
X144328297Y-63251772D01*
X144361000Y-63416184D01*
X144361000Y-63583816D01*
X144328297Y-63748228D01*
X144264147Y-63903100D01*
X144171015Y-64042481D01*
X144052481Y-64161015D01*
X143913100Y-64254147D01*
X143758228Y-64318297D01*
X143593816Y-64351000D01*
X143426184Y-64351000D01*
X143261772Y-64318297D01*
X143106900Y-64254147D01*
X142967519Y-64161015D01*
X142848985Y-64042481D01*
X142755853Y-63903100D01*
X142691703Y-63748228D01*
X142659000Y-63583816D01*
X142659000Y-63416184D01*
X142691703Y-63251772D01*
X142755853Y-63096900D01*
X142848985Y-62957519D01*
X142967519Y-62838985D01*
X143106900Y-62745853D01*
X143261772Y-62681703D01*
X143426184Y-62649000D01*
X143593816Y-62649000D01*
X143758228Y-62681703D01*
G37*
G36*
X109468228Y-62681703D02*
G01*
X109623100Y-62745853D01*
X109762481Y-62838985D01*
X109881015Y-62957519D01*
X109974147Y-63096900D01*
X110038297Y-63251772D01*
X110071000Y-63416184D01*
X110071000Y-63583816D01*
X110038297Y-63748228D01*
X109974147Y-63903100D01*
X109881015Y-64042481D01*
X109762481Y-64161015D01*
X109623100Y-64254147D01*
X109468228Y-64318297D01*
X109303816Y-64351000D01*
X109136184Y-64351000D01*
X108971772Y-64318297D01*
X108816900Y-64254147D01*
X108677519Y-64161015D01*
X108558985Y-64042481D01*
X108465853Y-63903100D01*
X108401703Y-63748228D01*
X108369000Y-63583816D01*
X108369000Y-63416184D01*
X108401703Y-63251772D01*
X108465853Y-63096900D01*
X108558985Y-62957519D01*
X108677519Y-62838985D01*
X108816900Y-62745853D01*
X108971772Y-62681703D01*
X109136184Y-62649000D01*
X109303816Y-62649000D01*
X109468228Y-62681703D01*
G37*
G36*
X94228228Y-62681703D02*
G01*
X94383100Y-62745853D01*
X94522481Y-62838985D01*
X94641015Y-62957519D01*
X94734147Y-63096900D01*
X94798297Y-63251772D01*
X94831000Y-63416184D01*
X94831000Y-63583816D01*
X94798297Y-63748228D01*
X94734147Y-63903100D01*
X94641015Y-64042481D01*
X94522481Y-64161015D01*
X94383100Y-64254147D01*
X94228228Y-64318297D01*
X94063816Y-64351000D01*
X93896184Y-64351000D01*
X93731772Y-64318297D01*
X93576900Y-64254147D01*
X93437519Y-64161015D01*
X93318985Y-64042481D01*
X93225853Y-63903100D01*
X93161703Y-63748228D01*
X93129000Y-63583816D01*
X93129000Y-63416184D01*
X93161703Y-63251772D01*
X93225853Y-63096900D01*
X93318985Y-62957519D01*
X93437519Y-62838985D01*
X93576900Y-62745853D01*
X93731772Y-62681703D01*
X93896184Y-62649000D01*
X94063816Y-62649000D01*
X94228228Y-62681703D01*
G37*
G36*
X151981000Y-64351000D02*
G01*
X150279000Y-64351000D01*
X150279000Y-62649000D01*
X151981000Y-62649000D01*
X151981000Y-64351000D01*
G37*
G36*
X138678228Y-61966703D02*
G01*
X138833100Y-62030853D01*
X138972481Y-62123985D01*
X139091015Y-62242519D01*
X139184147Y-62381900D01*
X139248297Y-62536772D01*
X139281000Y-62701184D01*
X139281000Y-62868816D01*
X139248297Y-63033228D01*
X139184147Y-63188100D01*
X139091015Y-63327481D01*
X138972481Y-63446015D01*
X138833100Y-63539147D01*
X138678228Y-63603297D01*
X138513816Y-63636000D01*
X138346184Y-63636000D01*
X138181772Y-63603297D01*
X138026900Y-63539147D01*
X137887519Y-63446015D01*
X137768985Y-63327481D01*
X137675853Y-63188100D01*
X137611703Y-63033228D01*
X137579000Y-62868816D01*
X137579000Y-62701184D01*
X137611703Y-62536772D01*
X137675853Y-62381900D01*
X137768985Y-62242519D01*
X137887519Y-62123985D01*
X138026900Y-62030853D01*
X138181772Y-61966703D01*
X138346184Y-61934000D01*
X138513816Y-61934000D01*
X138678228Y-61966703D01*
G37*
G36*
X143758228Y-60141703D02*
G01*
X143913100Y-60205853D01*
X144052481Y-60298985D01*
X144171015Y-60417519D01*
X144264147Y-60556900D01*
X144328297Y-60711772D01*
X144361000Y-60876184D01*
X144361000Y-61043816D01*
X144328297Y-61208228D01*
X144264147Y-61363100D01*
X144171015Y-61502481D01*
X144052481Y-61621015D01*
X143913100Y-61714147D01*
X143758228Y-61778297D01*
X143593816Y-61811000D01*
X143426184Y-61811000D01*
X143261772Y-61778297D01*
X143106900Y-61714147D01*
X142967519Y-61621015D01*
X142848985Y-61502481D01*
X142755853Y-61363100D01*
X142691703Y-61208228D01*
X142659000Y-61043816D01*
X142659000Y-60876184D01*
X142691703Y-60711772D01*
X142755853Y-60556900D01*
X142848985Y-60417519D01*
X142967519Y-60298985D01*
X143106900Y-60205853D01*
X143261772Y-60141703D01*
X143426184Y-60109000D01*
X143593816Y-60109000D01*
X143758228Y-60141703D01*
G37*
G36*
X94228228Y-60141703D02*
G01*
X94383100Y-60205853D01*
X94522481Y-60298985D01*
X94641015Y-60417519D01*
X94734147Y-60556900D01*
X94798297Y-60711772D01*
X94831000Y-60876184D01*
X94831000Y-61043816D01*
X94798297Y-61208228D01*
X94734147Y-61363100D01*
X94641015Y-61502481D01*
X94522481Y-61621015D01*
X94383100Y-61714147D01*
X94228228Y-61778297D01*
X94063816Y-61811000D01*
X93896184Y-61811000D01*
X93731772Y-61778297D01*
X93576900Y-61714147D01*
X93437519Y-61621015D01*
X93318985Y-61502481D01*
X93225853Y-61363100D01*
X93161703Y-61208228D01*
X93129000Y-61043816D01*
X93129000Y-60876184D01*
X93161703Y-60711772D01*
X93225853Y-60556900D01*
X93318985Y-60417519D01*
X93437519Y-60298985D01*
X93576900Y-60205853D01*
X93731772Y-60141703D01*
X93896184Y-60109000D01*
X94063816Y-60109000D01*
X94228228Y-60141703D01*
G37*
G36*
X109468228Y-60141703D02*
G01*
X109623100Y-60205853D01*
X109762481Y-60298985D01*
X109881015Y-60417519D01*
X109974147Y-60556900D01*
X110038297Y-60711772D01*
X110071000Y-60876184D01*
X110071000Y-61043816D01*
X110038297Y-61208228D01*
X109974147Y-61363100D01*
X109881015Y-61502481D01*
X109762481Y-61621015D01*
X109623100Y-61714147D01*
X109468228Y-61778297D01*
X109303816Y-61811000D01*
X109136184Y-61811000D01*
X108971772Y-61778297D01*
X108816900Y-61714147D01*
X108677519Y-61621015D01*
X108558985Y-61502481D01*
X108465853Y-61363100D01*
X108401703Y-61208228D01*
X108369000Y-61043816D01*
X108369000Y-60876184D01*
X108401703Y-60711772D01*
X108465853Y-60556900D01*
X108558985Y-60417519D01*
X108677519Y-60298985D01*
X108816900Y-60205853D01*
X108971772Y-60141703D01*
X109136184Y-60109000D01*
X109303816Y-60109000D01*
X109468228Y-60141703D01*
G37*
G36*
X151378228Y-60141703D02*
G01*
X151533100Y-60205853D01*
X151672481Y-60298985D01*
X151791015Y-60417519D01*
X151884147Y-60556900D01*
X151948297Y-60711772D01*
X151981000Y-60876184D01*
X151981000Y-61043816D01*
X151948297Y-61208228D01*
X151884147Y-61363100D01*
X151791015Y-61502481D01*
X151672481Y-61621015D01*
X151533100Y-61714147D01*
X151378228Y-61778297D01*
X151213816Y-61811000D01*
X151046184Y-61811000D01*
X150881772Y-61778297D01*
X150726900Y-61714147D01*
X150587519Y-61621015D01*
X150468985Y-61502481D01*
X150375853Y-61363100D01*
X150311703Y-61208228D01*
X150279000Y-61043816D01*
X150279000Y-60876184D01*
X150311703Y-60711772D01*
X150375853Y-60556900D01*
X150468985Y-60417519D01*
X150587519Y-60298985D01*
X150726900Y-60205853D01*
X150881772Y-60141703D01*
X151046184Y-60109000D01*
X151213816Y-60109000D01*
X151378228Y-60141703D01*
G37*
G36*
X109468228Y-57601703D02*
G01*
X109623100Y-57665853D01*
X109762481Y-57758985D01*
X109881015Y-57877519D01*
X109974147Y-58016900D01*
X110038297Y-58171772D01*
X110071000Y-58336184D01*
X110071000Y-58503816D01*
X110038297Y-58668228D01*
X109974147Y-58823100D01*
X109881015Y-58962481D01*
X109762481Y-59081015D01*
X109623100Y-59174147D01*
X109468228Y-59238297D01*
X109303816Y-59271000D01*
X109136184Y-59271000D01*
X108971772Y-59238297D01*
X108816900Y-59174147D01*
X108677519Y-59081015D01*
X108558985Y-58962481D01*
X108465853Y-58823100D01*
X108401703Y-58668228D01*
X108369000Y-58503816D01*
X108369000Y-58336184D01*
X108401703Y-58171772D01*
X108465853Y-58016900D01*
X108558985Y-57877519D01*
X108677519Y-57758985D01*
X108816900Y-57665853D01*
X108971772Y-57601703D01*
X109136184Y-57569000D01*
X109303816Y-57569000D01*
X109468228Y-57601703D01*
G37*
G36*
X94228228Y-57601703D02*
G01*
X94383100Y-57665853D01*
X94522481Y-57758985D01*
X94641015Y-57877519D01*
X94734147Y-58016900D01*
X94798297Y-58171772D01*
X94831000Y-58336184D01*
X94831000Y-58503816D01*
X94798297Y-58668228D01*
X94734147Y-58823100D01*
X94641015Y-58962481D01*
X94522481Y-59081015D01*
X94383100Y-59174147D01*
X94228228Y-59238297D01*
X94063816Y-59271000D01*
X93896184Y-59271000D01*
X93731772Y-59238297D01*
X93576900Y-59174147D01*
X93437519Y-59081015D01*
X93318985Y-58962481D01*
X93225853Y-58823100D01*
X93161703Y-58668228D01*
X93129000Y-58503816D01*
X93129000Y-58336184D01*
X93161703Y-58171772D01*
X93225853Y-58016900D01*
X93318985Y-57877519D01*
X93437519Y-57758985D01*
X93576900Y-57665853D01*
X93731772Y-57601703D01*
X93896184Y-57569000D01*
X94063816Y-57569000D01*
X94228228Y-57601703D01*
G37*
G36*
X143758228Y-57601703D02*
G01*
X143913100Y-57665853D01*
X144052481Y-57758985D01*
X144171015Y-57877519D01*
X144264147Y-58016900D01*
X144328297Y-58171772D01*
X144361000Y-58336184D01*
X144361000Y-58503816D01*
X144328297Y-58668228D01*
X144264147Y-58823100D01*
X144171015Y-58962481D01*
X144052481Y-59081015D01*
X143913100Y-59174147D01*
X143758228Y-59238297D01*
X143593816Y-59271000D01*
X143426184Y-59271000D01*
X143261772Y-59238297D01*
X143106900Y-59174147D01*
X142967519Y-59081015D01*
X142848985Y-58962481D01*
X142755853Y-58823100D01*
X142691703Y-58668228D01*
X142659000Y-58503816D01*
X142659000Y-58336184D01*
X142691703Y-58171772D01*
X142755853Y-58016900D01*
X142848985Y-57877519D01*
X142967519Y-57758985D01*
X143106900Y-57665853D01*
X143261772Y-57601703D01*
X143426184Y-57569000D01*
X143593816Y-57569000D01*
X143758228Y-57601703D01*
G37*
G36*
X151378228Y-57601703D02*
G01*
X151533100Y-57665853D01*
X151672481Y-57758985D01*
X151791015Y-57877519D01*
X151884147Y-58016900D01*
X151948297Y-58171772D01*
X151981000Y-58336184D01*
X151981000Y-58503816D01*
X151948297Y-58668228D01*
X151884147Y-58823100D01*
X151791015Y-58962481D01*
X151672481Y-59081015D01*
X151533100Y-59174147D01*
X151378228Y-59238297D01*
X151213816Y-59271000D01*
X151046184Y-59271000D01*
X150881772Y-59238297D01*
X150726900Y-59174147D01*
X150587519Y-59081015D01*
X150468985Y-58962481D01*
X150375853Y-58823100D01*
X150311703Y-58668228D01*
X150279000Y-58503816D01*
X150279000Y-58336184D01*
X150311703Y-58171772D01*
X150375853Y-58016900D01*
X150468985Y-57877519D01*
X150587519Y-57758985D01*
X150726900Y-57665853D01*
X150881772Y-57601703D01*
X151046184Y-57569000D01*
X151213816Y-57569000D01*
X151378228Y-57601703D01*
G37*
G36*
X138678228Y-56966703D02*
G01*
X138833100Y-57030853D01*
X138972481Y-57123985D01*
X139091015Y-57242519D01*
X139184147Y-57381900D01*
X139248297Y-57536772D01*
X139281000Y-57701184D01*
X139281000Y-57868816D01*
X139248297Y-58033228D01*
X139184147Y-58188100D01*
X139091015Y-58327481D01*
X138972481Y-58446015D01*
X138833100Y-58539147D01*
X138678228Y-58603297D01*
X138513816Y-58636000D01*
X138346184Y-58636000D01*
X138181772Y-58603297D01*
X138026900Y-58539147D01*
X137887519Y-58446015D01*
X137768985Y-58327481D01*
X137675853Y-58188100D01*
X137611703Y-58033228D01*
X137579000Y-57868816D01*
X137579000Y-57701184D01*
X137611703Y-57536772D01*
X137675853Y-57381900D01*
X137768985Y-57242519D01*
X137887519Y-57123985D01*
X138026900Y-57030853D01*
X138181772Y-56966703D01*
X138346184Y-56934000D01*
X138513816Y-56934000D01*
X138678228Y-56966703D01*
G37*
G36*
X106928228Y-55061703D02*
G01*
X107083100Y-55125853D01*
X107222481Y-55218985D01*
X107341015Y-55337519D01*
X107434147Y-55476900D01*
X107498297Y-55631772D01*
X107531000Y-55796184D01*
X107531000Y-55963816D01*
X107498297Y-56128228D01*
X107434147Y-56283100D01*
X107341015Y-56422481D01*
X107222481Y-56541015D01*
X107083100Y-56634147D01*
X106928228Y-56698297D01*
X106763816Y-56731000D01*
X106596184Y-56731000D01*
X106431772Y-56698297D01*
X106276900Y-56634147D01*
X106137519Y-56541015D01*
X106018985Y-56422481D01*
X105925853Y-56283100D01*
X105861703Y-56128228D01*
X105829000Y-55963816D01*
X105829000Y-55796184D01*
X105861703Y-55631772D01*
X105925853Y-55476900D01*
X106018985Y-55337519D01*
X106137519Y-55218985D01*
X106276900Y-55125853D01*
X106431772Y-55061703D01*
X106596184Y-55029000D01*
X106763816Y-55029000D01*
X106928228Y-55061703D01*
G37*
G36*
X94228228Y-55061703D02*
G01*
X94383100Y-55125853D01*
X94522481Y-55218985D01*
X94641015Y-55337519D01*
X94734147Y-55476900D01*
X94798297Y-55631772D01*
X94831000Y-55796184D01*
X94831000Y-55963816D01*
X94798297Y-56128228D01*
X94734147Y-56283100D01*
X94641015Y-56422481D01*
X94522481Y-56541015D01*
X94383100Y-56634147D01*
X94228228Y-56698297D01*
X94063816Y-56731000D01*
X93896184Y-56731000D01*
X93731772Y-56698297D01*
X93576900Y-56634147D01*
X93437519Y-56541015D01*
X93318985Y-56422481D01*
X93225853Y-56283100D01*
X93161703Y-56128228D01*
X93129000Y-55963816D01*
X93129000Y-55796184D01*
X93161703Y-55631772D01*
X93225853Y-55476900D01*
X93318985Y-55337519D01*
X93437519Y-55218985D01*
X93576900Y-55125853D01*
X93731772Y-55061703D01*
X93896184Y-55029000D01*
X94063816Y-55029000D01*
X94228228Y-55061703D01*
G37*
G36*
X96768228Y-55061703D02*
G01*
X96923100Y-55125853D01*
X97062481Y-55218985D01*
X97181015Y-55337519D01*
X97274147Y-55476900D01*
X97338297Y-55631772D01*
X97371000Y-55796184D01*
X97371000Y-55963816D01*
X97338297Y-56128228D01*
X97274147Y-56283100D01*
X97181015Y-56422481D01*
X97062481Y-56541015D01*
X96923100Y-56634147D01*
X96768228Y-56698297D01*
X96603816Y-56731000D01*
X96436184Y-56731000D01*
X96271772Y-56698297D01*
X96116900Y-56634147D01*
X95977519Y-56541015D01*
X95858985Y-56422481D01*
X95765853Y-56283100D01*
X95701703Y-56128228D01*
X95669000Y-55963816D01*
X95669000Y-55796184D01*
X95701703Y-55631772D01*
X95765853Y-55476900D01*
X95858985Y-55337519D01*
X95977519Y-55218985D01*
X96116900Y-55125853D01*
X96271772Y-55061703D01*
X96436184Y-55029000D01*
X96603816Y-55029000D01*
X96768228Y-55061703D01*
G37*
G36*
X99308228Y-55061703D02*
G01*
X99463100Y-55125853D01*
X99602481Y-55218985D01*
X99721015Y-55337519D01*
X99814147Y-55476900D01*
X99878297Y-55631772D01*
X99911000Y-55796184D01*
X99911000Y-55963816D01*
X99878297Y-56128228D01*
X99814147Y-56283100D01*
X99721015Y-56422481D01*
X99602481Y-56541015D01*
X99463100Y-56634147D01*
X99308228Y-56698297D01*
X99143816Y-56731000D01*
X98976184Y-56731000D01*
X98811772Y-56698297D01*
X98656900Y-56634147D01*
X98517519Y-56541015D01*
X98398985Y-56422481D01*
X98305853Y-56283100D01*
X98241703Y-56128228D01*
X98209000Y-55963816D01*
X98209000Y-55796184D01*
X98241703Y-55631772D01*
X98305853Y-55476900D01*
X98398985Y-55337519D01*
X98517519Y-55218985D01*
X98656900Y-55125853D01*
X98811772Y-55061703D01*
X98976184Y-55029000D01*
X99143816Y-55029000D01*
X99308228Y-55061703D01*
G37*
G36*
X101848228Y-55061703D02*
G01*
X102003100Y-55125853D01*
X102142481Y-55218985D01*
X102261015Y-55337519D01*
X102354147Y-55476900D01*
X102418297Y-55631772D01*
X102451000Y-55796184D01*
X102451000Y-55963816D01*
X102418297Y-56128228D01*
X102354147Y-56283100D01*
X102261015Y-56422481D01*
X102142481Y-56541015D01*
X102003100Y-56634147D01*
X101848228Y-56698297D01*
X101683816Y-56731000D01*
X101516184Y-56731000D01*
X101351772Y-56698297D01*
X101196900Y-56634147D01*
X101057519Y-56541015D01*
X100938985Y-56422481D01*
X100845853Y-56283100D01*
X100781703Y-56128228D01*
X100749000Y-55963816D01*
X100749000Y-55796184D01*
X100781703Y-55631772D01*
X100845853Y-55476900D01*
X100938985Y-55337519D01*
X101057519Y-55218985D01*
X101196900Y-55125853D01*
X101351772Y-55061703D01*
X101516184Y-55029000D01*
X101683816Y-55029000D01*
X101848228Y-55061703D01*
G37*
G36*
X151378228Y-55061703D02*
G01*
X151533100Y-55125853D01*
X151672481Y-55218985D01*
X151791015Y-55337519D01*
X151884147Y-55476900D01*
X151948297Y-55631772D01*
X151981000Y-55796184D01*
X151981000Y-55963816D01*
X151948297Y-56128228D01*
X151884147Y-56283100D01*
X151791015Y-56422481D01*
X151672481Y-56541015D01*
X151533100Y-56634147D01*
X151378228Y-56698297D01*
X151213816Y-56731000D01*
X151046184Y-56731000D01*
X150881772Y-56698297D01*
X150726900Y-56634147D01*
X150587519Y-56541015D01*
X150468985Y-56422481D01*
X150375853Y-56283100D01*
X150311703Y-56128228D01*
X150279000Y-55963816D01*
X150279000Y-55796184D01*
X150311703Y-55631772D01*
X150375853Y-55476900D01*
X150468985Y-55337519D01*
X150587519Y-55218985D01*
X150726900Y-55125853D01*
X150881772Y-55061703D01*
X151046184Y-55029000D01*
X151213816Y-55029000D01*
X151378228Y-55061703D01*
G37*
G36*
X109468228Y-55061703D02*
G01*
X109623100Y-55125853D01*
X109762481Y-55218985D01*
X109881015Y-55337519D01*
X109974147Y-55476900D01*
X110038297Y-55631772D01*
X110071000Y-55796184D01*
X110071000Y-55963816D01*
X110038297Y-56128228D01*
X109974147Y-56283100D01*
X109881015Y-56422481D01*
X109762481Y-56541015D01*
X109623100Y-56634147D01*
X109468228Y-56698297D01*
X109303816Y-56731000D01*
X109136184Y-56731000D01*
X108971772Y-56698297D01*
X108816900Y-56634147D01*
X108677519Y-56541015D01*
X108558985Y-56422481D01*
X108465853Y-56283100D01*
X108401703Y-56128228D01*
X108369000Y-55963816D01*
X108369000Y-55796184D01*
X108401703Y-55631772D01*
X108465853Y-55476900D01*
X108558985Y-55337519D01*
X108677519Y-55218985D01*
X108816900Y-55125853D01*
X108971772Y-55061703D01*
X109136184Y-55029000D01*
X109303816Y-55029000D01*
X109468228Y-55061703D01*
G37*
G36*
X143758228Y-55061703D02*
G01*
X143913100Y-55125853D01*
X144052481Y-55218985D01*
X144171015Y-55337519D01*
X144264147Y-55476900D01*
X144328297Y-55631772D01*
X144361000Y-55796184D01*
X144361000Y-55963816D01*
X144328297Y-56128228D01*
X144264147Y-56283100D01*
X144171015Y-56422481D01*
X144052481Y-56541015D01*
X143913100Y-56634147D01*
X143758228Y-56698297D01*
X143593816Y-56731000D01*
X143426184Y-56731000D01*
X143261772Y-56698297D01*
X143106900Y-56634147D01*
X142967519Y-56541015D01*
X142848985Y-56422481D01*
X142755853Y-56283100D01*
X142691703Y-56128228D01*
X142659000Y-55963816D01*
X142659000Y-55796184D01*
X142691703Y-55631772D01*
X142755853Y-55476900D01*
X142848985Y-55337519D01*
X142967519Y-55218985D01*
X143106900Y-55125853D01*
X143261772Y-55061703D01*
X143426184Y-55029000D01*
X143593816Y-55029000D01*
X143758228Y-55061703D01*
G37*
G36*
X104388228Y-55061703D02*
G01*
X104543100Y-55125853D01*
X104682481Y-55218985D01*
X104801015Y-55337519D01*
X104894147Y-55476900D01*
X104958297Y-55631772D01*
X104991000Y-55796184D01*
X104991000Y-55963816D01*
X104958297Y-56128228D01*
X104894147Y-56283100D01*
X104801015Y-56422481D01*
X104682481Y-56541015D01*
X104543100Y-56634147D01*
X104388228Y-56698297D01*
X104223816Y-56731000D01*
X104056184Y-56731000D01*
X103891772Y-56698297D01*
X103736900Y-56634147D01*
X103597519Y-56541015D01*
X103478985Y-56422481D01*
X103385853Y-56283100D01*
X103321703Y-56128228D01*
X103289000Y-55963816D01*
X103289000Y-55796184D01*
X103321703Y-55631772D01*
X103385853Y-55476900D01*
X103478985Y-55337519D01*
X103597519Y-55218985D01*
X103736900Y-55125853D01*
X103891772Y-55061703D01*
X104056184Y-55029000D01*
X104223816Y-55029000D01*
X104388228Y-55061703D01*
G37*
G36*
X168004903Y-52772075D02*
G01*
X168232571Y-52866378D01*
X168437466Y-53003285D01*
X168611715Y-53177534D01*
X168748622Y-53382429D01*
X168842925Y-53610097D01*
X168891000Y-53851787D01*
X168891000Y-54098213D01*
X168842925Y-54339903D01*
X168748622Y-54567571D01*
X168611715Y-54772466D01*
X168437466Y-54946715D01*
X168232571Y-55083622D01*
X168232570Y-55083623D01*
X168232569Y-55083623D01*
X168004903Y-55177925D01*
X167763214Y-55226000D01*
X167516786Y-55226000D01*
X167275097Y-55177925D01*
X167047431Y-55083623D01*
X167047430Y-55083623D01*
X167047429Y-55083622D01*
X166842534Y-54946715D01*
X166668285Y-54772466D01*
X166531378Y-54567571D01*
X166437075Y-54339903D01*
X166389000Y-54098213D01*
X166389000Y-53851787D01*
X166437075Y-53610097D01*
X166531378Y-53382429D01*
X166668285Y-53177534D01*
X166842534Y-53003285D01*
X167047429Y-52866378D01*
X167275097Y-52772075D01*
X167516786Y-52724000D01*
X167763214Y-52724000D01*
X168004903Y-52772075D01*
G37*
G36*
X147568228Y-48076703D02*
G01*
X147723100Y-48140853D01*
X147862481Y-48233985D01*
X147981015Y-48352519D01*
X148074147Y-48491900D01*
X148138297Y-48646772D01*
X148171000Y-48811184D01*
X148171000Y-48978816D01*
X148138297Y-49143228D01*
X148074147Y-49298100D01*
X147981015Y-49437481D01*
X147862481Y-49556015D01*
X147723100Y-49649147D01*
X147568228Y-49713297D01*
X147403816Y-49746000D01*
X147236184Y-49746000D01*
X147071772Y-49713297D01*
X146916900Y-49649147D01*
X146777519Y-49556015D01*
X146658985Y-49437481D01*
X146565853Y-49298100D01*
X146501703Y-49143228D01*
X146469000Y-48978816D01*
X146469000Y-48811184D01*
X146501703Y-48646772D01*
X146565853Y-48491900D01*
X146658985Y-48352519D01*
X146777519Y-48233985D01*
X146916900Y-48140853D01*
X147071772Y-48076703D01*
X147236184Y-48044000D01*
X147403816Y-48044000D01*
X147568228Y-48076703D01*
G37*
G36*
X155188228Y-48076703D02*
G01*
X155343100Y-48140853D01*
X155482481Y-48233985D01*
X155601015Y-48352519D01*
X155694147Y-48491900D01*
X155758297Y-48646772D01*
X155791000Y-48811184D01*
X155791000Y-48978816D01*
X155758297Y-49143228D01*
X155694147Y-49298100D01*
X155601015Y-49437481D01*
X155482481Y-49556015D01*
X155343100Y-49649147D01*
X155188228Y-49713297D01*
X155023816Y-49746000D01*
X154856184Y-49746000D01*
X154691772Y-49713297D01*
X154536900Y-49649147D01*
X154397519Y-49556015D01*
X154278985Y-49437481D01*
X154185853Y-49298100D01*
X154121703Y-49143228D01*
X154089000Y-48978816D01*
X154089000Y-48811184D01*
X154121703Y-48646772D01*
X154185853Y-48491900D01*
X154278985Y-48352519D01*
X154397519Y-48233985D01*
X154536900Y-48140853D01*
X154691772Y-48076703D01*
X154856184Y-48044000D01*
X155023816Y-48044000D01*
X155188228Y-48076703D01*
G37*
G36*
X102851000Y-41891000D02*
G01*
X100349000Y-41891000D01*
X100349000Y-39389000D01*
X102851000Y-39389000D01*
X102851000Y-41891000D01*
G37*
G36*
X118091000Y-41891000D02*
G01*
X115589000Y-41891000D01*
X115589000Y-39389000D01*
X118091000Y-39389000D01*
X118091000Y-41891000D01*
G37*
G36*
X113011000Y-41891000D02*
G01*
X110509000Y-41891000D01*
X110509000Y-39389000D01*
X113011000Y-39389000D01*
X113011000Y-41891000D01*
G37*
G36*
X82531000Y-41891000D02*
G01*
X80029000Y-41891000D01*
X80029000Y-39389000D01*
X82531000Y-39389000D01*
X82531000Y-41891000D01*
G37*
G36*
X92691000Y-41891000D02*
G01*
X90189000Y-41891000D01*
X90189000Y-39389000D01*
X92691000Y-39389000D01*
X92691000Y-41891000D01*
G37*
G36*
X97771000Y-41891000D02*
G01*
X95269000Y-41891000D01*
X95269000Y-39389000D01*
X97771000Y-39389000D01*
X97771000Y-41891000D01*
G37*
G36*
X87611000Y-41891000D02*
G01*
X85109000Y-41891000D01*
X85109000Y-39389000D01*
X87611000Y-39389000D01*
X87611000Y-41891000D01*
G37*
G36*
X107931000Y-41891000D02*
G01*
X105429000Y-41891000D01*
X105429000Y-39389000D01*
X107931000Y-39389000D01*
X107931000Y-41891000D01*
G37*
G36*
X146298228Y-39821703D02*
G01*
X146453100Y-39885853D01*
X146592481Y-39978985D01*
X146711015Y-40097519D01*
X146804147Y-40236900D01*
X146868297Y-40391772D01*
X146901000Y-40556184D01*
X146901000Y-40723816D01*
X146868297Y-40888228D01*
X146804147Y-41043100D01*
X146711015Y-41182481D01*
X146592481Y-41301015D01*
X146453100Y-41394147D01*
X146298228Y-41458297D01*
X146133816Y-41491000D01*
X145966184Y-41491000D01*
X145801772Y-41458297D01*
X145646900Y-41394147D01*
X145507519Y-41301015D01*
X145388985Y-41182481D01*
X145295853Y-41043100D01*
X145231703Y-40888228D01*
X145199000Y-40723816D01*
X145199000Y-40556184D01*
X145231703Y-40391772D01*
X145295853Y-40236900D01*
X145388985Y-40097519D01*
X145507519Y-39978985D01*
X145646900Y-39885853D01*
X145801772Y-39821703D01*
X145966184Y-39789000D01*
X146133816Y-39789000D01*
X146298228Y-39821703D01*
G37*
G36*
X143758228Y-39821703D02*
G01*
X143913100Y-39885853D01*
X144052481Y-39978985D01*
X144171015Y-40097519D01*
X144264147Y-40236900D01*
X144328297Y-40391772D01*
X144361000Y-40556184D01*
X144361000Y-40723816D01*
X144328297Y-40888228D01*
X144264147Y-41043100D01*
X144171015Y-41182481D01*
X144052481Y-41301015D01*
X143913100Y-41394147D01*
X143758228Y-41458297D01*
X143593816Y-41491000D01*
X143426184Y-41491000D01*
X143261772Y-41458297D01*
X143106900Y-41394147D01*
X142967519Y-41301015D01*
X142848985Y-41182481D01*
X142755853Y-41043100D01*
X142691703Y-40888228D01*
X142659000Y-40723816D01*
X142659000Y-40556184D01*
X142691703Y-40391772D01*
X142755853Y-40236900D01*
X142848985Y-40097519D01*
X142967519Y-39978985D01*
X143106900Y-39885853D01*
X143261772Y-39821703D01*
X143426184Y-39789000D01*
X143593816Y-39789000D01*
X143758228Y-39821703D01*
G37*
G36*
X141218228Y-39821703D02*
G01*
X141373100Y-39885853D01*
X141512481Y-39978985D01*
X141631015Y-40097519D01*
X141724147Y-40236900D01*
X141788297Y-40391772D01*
X141821000Y-40556184D01*
X141821000Y-40723816D01*
X141788297Y-40888228D01*
X141724147Y-41043100D01*
X141631015Y-41182481D01*
X141512481Y-41301015D01*
X141373100Y-41394147D01*
X141218228Y-41458297D01*
X141053816Y-41491000D01*
X140886184Y-41491000D01*
X140721772Y-41458297D01*
X140566900Y-41394147D01*
X140427519Y-41301015D01*
X140308985Y-41182481D01*
X140215853Y-41043100D01*
X140151703Y-40888228D01*
X140119000Y-40723816D01*
X140119000Y-40556184D01*
X140151703Y-40391772D01*
X140215853Y-40236900D01*
X140308985Y-40097519D01*
X140427519Y-39978985D01*
X140566900Y-39885853D01*
X140721772Y-39821703D01*
X140886184Y-39789000D01*
X141053816Y-39789000D01*
X141218228Y-39821703D01*
G37*
G36*
X136138228Y-39821703D02*
G01*
X136293100Y-39885853D01*
X136432481Y-39978985D01*
X136551015Y-40097519D01*
X136644147Y-40236900D01*
X136708297Y-40391772D01*
X136741000Y-40556184D01*
X136741000Y-40723816D01*
X136708297Y-40888228D01*
X136644147Y-41043100D01*
X136551015Y-41182481D01*
X136432481Y-41301015D01*
X136293100Y-41394147D01*
X136138228Y-41458297D01*
X135973816Y-41491000D01*
X135806184Y-41491000D01*
X135641772Y-41458297D01*
X135486900Y-41394147D01*
X135347519Y-41301015D01*
X135228985Y-41182481D01*
X135135853Y-41043100D01*
X135071703Y-40888228D01*
X135039000Y-40723816D01*
X135039000Y-40556184D01*
X135071703Y-40391772D01*
X135135853Y-40236900D01*
X135228985Y-40097519D01*
X135347519Y-39978985D01*
X135486900Y-39885853D01*
X135641772Y-39821703D01*
X135806184Y-39789000D01*
X135973816Y-39789000D01*
X136138228Y-39821703D01*
G37*
G36*
X134201000Y-41491000D02*
G01*
X132499000Y-41491000D01*
X132499000Y-39789000D01*
X134201000Y-39789000D01*
X134201000Y-41491000D01*
G37*
G36*
X148838228Y-39821703D02*
G01*
X148993100Y-39885853D01*
X149132481Y-39978985D01*
X149251015Y-40097519D01*
X149344147Y-40236900D01*
X149408297Y-40391772D01*
X149441000Y-40556184D01*
X149441000Y-40723816D01*
X149408297Y-40888228D01*
X149344147Y-41043100D01*
X149251015Y-41182481D01*
X149132481Y-41301015D01*
X148993100Y-41394147D01*
X148838228Y-41458297D01*
X148673816Y-41491000D01*
X148506184Y-41491000D01*
X148341772Y-41458297D01*
X148186900Y-41394147D01*
X148047519Y-41301015D01*
X147928985Y-41182481D01*
X147835853Y-41043100D01*
X147771703Y-40888228D01*
X147739000Y-40723816D01*
X147739000Y-40556184D01*
X147771703Y-40391772D01*
X147835853Y-40236900D01*
X147928985Y-40097519D01*
X148047519Y-39978985D01*
X148186900Y-39885853D01*
X148341772Y-39821703D01*
X148506184Y-39789000D01*
X148673816Y-39789000D01*
X148838228Y-39821703D01*
G37*
G36*
X151378228Y-39821703D02*
G01*
X151533100Y-39885853D01*
X151672481Y-39978985D01*
X151791015Y-40097519D01*
X151884147Y-40236900D01*
X151948297Y-40391772D01*
X151981000Y-40556184D01*
X151981000Y-40723816D01*
X151948297Y-40888228D01*
X151884147Y-41043100D01*
X151791015Y-41182481D01*
X151672481Y-41301015D01*
X151533100Y-41394147D01*
X151378228Y-41458297D01*
X151213816Y-41491000D01*
X151046184Y-41491000D01*
X150881772Y-41458297D01*
X150726900Y-41394147D01*
X150587519Y-41301015D01*
X150468985Y-41182481D01*
X150375853Y-41043100D01*
X150311703Y-40888228D01*
X150279000Y-40723816D01*
X150279000Y-40556184D01*
X150311703Y-40391772D01*
X150375853Y-40236900D01*
X150468985Y-40097519D01*
X150587519Y-39978985D01*
X150726900Y-39885853D01*
X150881772Y-39821703D01*
X151046184Y-39789000D01*
X151213816Y-39789000D01*
X151378228Y-39821703D01*
G37*
G36*
X138678228Y-39821703D02*
G01*
X138833100Y-39885853D01*
X138972481Y-39978985D01*
X139091015Y-40097519D01*
X139184147Y-40236900D01*
X139248297Y-40391772D01*
X139281000Y-40556184D01*
X139281000Y-40723816D01*
X139248297Y-40888228D01*
X139184147Y-41043100D01*
X139091015Y-41182481D01*
X138972481Y-41301015D01*
X138833100Y-41394147D01*
X138678228Y-41458297D01*
X138513816Y-41491000D01*
X138346184Y-41491000D01*
X138181772Y-41458297D01*
X138026900Y-41394147D01*
X137887519Y-41301015D01*
X137768985Y-41182481D01*
X137675853Y-41043100D01*
X137611703Y-40888228D01*
X137579000Y-40723816D01*
X137579000Y-40556184D01*
X137611703Y-40391772D01*
X137675853Y-40236900D01*
X137768985Y-40097519D01*
X137887519Y-39978985D01*
X138026900Y-39885853D01*
X138181772Y-39821703D01*
X138346184Y-39789000D01*
X138513816Y-39789000D01*
X138678228Y-39821703D01*
G37*
G36*
X128518228Y-38551703D02*
G01*
X128673100Y-38615853D01*
X128812481Y-38708985D01*
X128931015Y-38827519D01*
X129024147Y-38966900D01*
X129088297Y-39121772D01*
X129121000Y-39286184D01*
X129121000Y-39453816D01*
X129088297Y-39618228D01*
X129024147Y-39773100D01*
X128931015Y-39912481D01*
X128812481Y-40031015D01*
X128673100Y-40124147D01*
X128518228Y-40188297D01*
X128353816Y-40221000D01*
X128186184Y-40221000D01*
X128021772Y-40188297D01*
X127866900Y-40124147D01*
X127727519Y-40031015D01*
X127608985Y-39912481D01*
X127515853Y-39773100D01*
X127451703Y-39618228D01*
X127419000Y-39453816D01*
X127419000Y-39286184D01*
X127451703Y-39121772D01*
X127515853Y-38966900D01*
X127608985Y-38827519D01*
X127727519Y-38708985D01*
X127866900Y-38615853D01*
X128021772Y-38551703D01*
X128186184Y-38519000D01*
X128353816Y-38519000D01*
X128518228Y-38551703D01*
G37*
G36*
X128518228Y-33551703D02*
G01*
X128673100Y-33615853D01*
X128812481Y-33708985D01*
X128931015Y-33827519D01*
X129024147Y-33966900D01*
X129088297Y-34121772D01*
X129121000Y-34286184D01*
X129121000Y-34453816D01*
X129088297Y-34618228D01*
X129024147Y-34773100D01*
X128931015Y-34912481D01*
X128812481Y-35031015D01*
X128673100Y-35124147D01*
X128518228Y-35188297D01*
X128353816Y-35221000D01*
X128186184Y-35221000D01*
X128021772Y-35188297D01*
X127866900Y-35124147D01*
X127727519Y-35031015D01*
X127608985Y-34912481D01*
X127515853Y-34773100D01*
X127451703Y-34618228D01*
X127419000Y-34453816D01*
X127419000Y-34286184D01*
X127451703Y-34121772D01*
X127515853Y-33966900D01*
X127608985Y-33827519D01*
X127727519Y-33708985D01*
X127866900Y-33615853D01*
X128021772Y-33551703D01*
X128186184Y-33519000D01*
X128353816Y-33519000D01*
X128518228Y-33551703D01*
G37*
G36*
X151378228Y-32201703D02*
G01*
X151533100Y-32265853D01*
X151672481Y-32358985D01*
X151791015Y-32477519D01*
X151884147Y-32616900D01*
X151948297Y-32771772D01*
X151981000Y-32936184D01*
X151981000Y-33103816D01*
X151948297Y-33268228D01*
X151884147Y-33423100D01*
X151791015Y-33562481D01*
X151672481Y-33681015D01*
X151533100Y-33774147D01*
X151378228Y-33838297D01*
X151213816Y-33871000D01*
X151046184Y-33871000D01*
X150881772Y-33838297D01*
X150726900Y-33774147D01*
X150587519Y-33681015D01*
X150468985Y-33562481D01*
X150375853Y-33423100D01*
X150311703Y-33268228D01*
X150279000Y-33103816D01*
X150279000Y-32936184D01*
X150311703Y-32771772D01*
X150375853Y-32616900D01*
X150468985Y-32477519D01*
X150587519Y-32358985D01*
X150726900Y-32265853D01*
X150881772Y-32201703D01*
X151046184Y-32169000D01*
X151213816Y-32169000D01*
X151378228Y-32201703D01*
G37*
G36*
X138678228Y-32201703D02*
G01*
X138833100Y-32265853D01*
X138972481Y-32358985D01*
X139091015Y-32477519D01*
X139184147Y-32616900D01*
X139248297Y-32771772D01*
X139281000Y-32936184D01*
X139281000Y-33103816D01*
X139248297Y-33268228D01*
X139184147Y-33423100D01*
X139091015Y-33562481D01*
X138972481Y-33681015D01*
X138833100Y-33774147D01*
X138678228Y-33838297D01*
X138513816Y-33871000D01*
X138346184Y-33871000D01*
X138181772Y-33838297D01*
X138026900Y-33774147D01*
X137887519Y-33681015D01*
X137768985Y-33562481D01*
X137675853Y-33423100D01*
X137611703Y-33268228D01*
X137579000Y-33103816D01*
X137579000Y-32936184D01*
X137611703Y-32771772D01*
X137675853Y-32616900D01*
X137768985Y-32477519D01*
X137887519Y-32358985D01*
X138026900Y-32265853D01*
X138181772Y-32201703D01*
X138346184Y-32169000D01*
X138513816Y-32169000D01*
X138678228Y-32201703D01*
G37*
G36*
X148838228Y-32201703D02*
G01*
X148993100Y-32265853D01*
X149132481Y-32358985D01*
X149251015Y-32477519D01*
X149344147Y-32616900D01*
X149408297Y-32771772D01*
X149441000Y-32936184D01*
X149441000Y-33103816D01*
X149408297Y-33268228D01*
X149344147Y-33423100D01*
X149251015Y-33562481D01*
X149132481Y-33681015D01*
X148993100Y-33774147D01*
X148838228Y-33838297D01*
X148673816Y-33871000D01*
X148506184Y-33871000D01*
X148341772Y-33838297D01*
X148186900Y-33774147D01*
X148047519Y-33681015D01*
X147928985Y-33562481D01*
X147835853Y-33423100D01*
X147771703Y-33268228D01*
X147739000Y-33103816D01*
X147739000Y-32936184D01*
X147771703Y-32771772D01*
X147835853Y-32616900D01*
X147928985Y-32477519D01*
X148047519Y-32358985D01*
X148186900Y-32265853D01*
X148341772Y-32201703D01*
X148506184Y-32169000D01*
X148673816Y-32169000D01*
X148838228Y-32201703D01*
G37*
G36*
X146298228Y-32201703D02*
G01*
X146453100Y-32265853D01*
X146592481Y-32358985D01*
X146711015Y-32477519D01*
X146804147Y-32616900D01*
X146868297Y-32771772D01*
X146901000Y-32936184D01*
X146901000Y-33103816D01*
X146868297Y-33268228D01*
X146804147Y-33423100D01*
X146711015Y-33562481D01*
X146592481Y-33681015D01*
X146453100Y-33774147D01*
X146298228Y-33838297D01*
X146133816Y-33871000D01*
X145966184Y-33871000D01*
X145801772Y-33838297D01*
X145646900Y-33774147D01*
X145507519Y-33681015D01*
X145388985Y-33562481D01*
X145295853Y-33423100D01*
X145231703Y-33268228D01*
X145199000Y-33103816D01*
X145199000Y-32936184D01*
X145231703Y-32771772D01*
X145295853Y-32616900D01*
X145388985Y-32477519D01*
X145507519Y-32358985D01*
X145646900Y-32265853D01*
X145801772Y-32201703D01*
X145966184Y-32169000D01*
X146133816Y-32169000D01*
X146298228Y-32201703D01*
G37*
G36*
X136138228Y-32201703D02*
G01*
X136293100Y-32265853D01*
X136432481Y-32358985D01*
X136551015Y-32477519D01*
X136644147Y-32616900D01*
X136708297Y-32771772D01*
X136741000Y-32936184D01*
X136741000Y-33103816D01*
X136708297Y-33268228D01*
X136644147Y-33423100D01*
X136551015Y-33562481D01*
X136432481Y-33681015D01*
X136293100Y-33774147D01*
X136138228Y-33838297D01*
X135973816Y-33871000D01*
X135806184Y-33871000D01*
X135641772Y-33838297D01*
X135486900Y-33774147D01*
X135347519Y-33681015D01*
X135228985Y-33562481D01*
X135135853Y-33423100D01*
X135071703Y-33268228D01*
X135039000Y-33103816D01*
X135039000Y-32936184D01*
X135071703Y-32771772D01*
X135135853Y-32616900D01*
X135228985Y-32477519D01*
X135347519Y-32358985D01*
X135486900Y-32265853D01*
X135641772Y-32201703D01*
X135806184Y-32169000D01*
X135973816Y-32169000D01*
X136138228Y-32201703D01*
G37*
G36*
X133598228Y-32201703D02*
G01*
X133753100Y-32265853D01*
X133892481Y-32358985D01*
X134011015Y-32477519D01*
X134104147Y-32616900D01*
X134168297Y-32771772D01*
X134201000Y-32936184D01*
X134201000Y-33103816D01*
X134168297Y-33268228D01*
X134104147Y-33423100D01*
X134011015Y-33562481D01*
X133892481Y-33681015D01*
X133753100Y-33774147D01*
X133598228Y-33838297D01*
X133433816Y-33871000D01*
X133266184Y-33871000D01*
X133101772Y-33838297D01*
X132946900Y-33774147D01*
X132807519Y-33681015D01*
X132688985Y-33562481D01*
X132595853Y-33423100D01*
X132531703Y-33268228D01*
X132499000Y-33103816D01*
X132499000Y-32936184D01*
X132531703Y-32771772D01*
X132595853Y-32616900D01*
X132688985Y-32477519D01*
X132807519Y-32358985D01*
X132946900Y-32265853D01*
X133101772Y-32201703D01*
X133266184Y-32169000D01*
X133433816Y-32169000D01*
X133598228Y-32201703D01*
G37*
G36*
X143758228Y-32201703D02*
G01*
X143913100Y-32265853D01*
X144052481Y-32358985D01*
X144171015Y-32477519D01*
X144264147Y-32616900D01*
X144328297Y-32771772D01*
X144361000Y-32936184D01*
X144361000Y-33103816D01*
X144328297Y-33268228D01*
X144264147Y-33423100D01*
X144171015Y-33562481D01*
X144052481Y-33681015D01*
X143913100Y-33774147D01*
X143758228Y-33838297D01*
X143593816Y-33871000D01*
X143426184Y-33871000D01*
X143261772Y-33838297D01*
X143106900Y-33774147D01*
X142967519Y-33681015D01*
X142848985Y-33562481D01*
X142755853Y-33423100D01*
X142691703Y-33268228D01*
X142659000Y-33103816D01*
X142659000Y-32936184D01*
X142691703Y-32771772D01*
X142755853Y-32616900D01*
X142848985Y-32477519D01*
X142967519Y-32358985D01*
X143106900Y-32265853D01*
X143261772Y-32201703D01*
X143426184Y-32169000D01*
X143593816Y-32169000D01*
X143758228Y-32201703D01*
G37*
G36*
X141218228Y-32201703D02*
G01*
X141373100Y-32265853D01*
X141512481Y-32358985D01*
X141631015Y-32477519D01*
X141724147Y-32616900D01*
X141788297Y-32771772D01*
X141821000Y-32936184D01*
X141821000Y-33103816D01*
X141788297Y-33268228D01*
X141724147Y-33423100D01*
X141631015Y-33562481D01*
X141512481Y-33681015D01*
X141373100Y-33774147D01*
X141218228Y-33838297D01*
X141053816Y-33871000D01*
X140886184Y-33871000D01*
X140721772Y-33838297D01*
X140566900Y-33774147D01*
X140427519Y-33681015D01*
X140308985Y-33562481D01*
X140215853Y-33423100D01*
X140151703Y-33268228D01*
X140119000Y-33103816D01*
X140119000Y-32936184D01*
X140151703Y-32771772D01*
X140215853Y-32616900D01*
X140308985Y-32477519D01*
X140427519Y-32358985D01*
X140566900Y-32265853D01*
X140721772Y-32201703D01*
X140886184Y-32169000D01*
X141053816Y-32169000D01*
X141218228Y-32201703D01*
G37*
G36*
X86724903Y-29277075D02*
G01*
X86952571Y-29371378D01*
X87157466Y-29508285D01*
X87331715Y-29682534D01*
X87468622Y-29887429D01*
X87562925Y-30115097D01*
X87611000Y-30356787D01*
X87611000Y-30603213D01*
X87562925Y-30844903D01*
X87468622Y-31072571D01*
X87331715Y-31277466D01*
X87157466Y-31451715D01*
X86952571Y-31588622D01*
X86952570Y-31588623D01*
X86952569Y-31588623D01*
X86724903Y-31682925D01*
X86483214Y-31731000D01*
X86236786Y-31731000D01*
X85995097Y-31682925D01*
X85767431Y-31588623D01*
X85767430Y-31588623D01*
X85767429Y-31588622D01*
X85562534Y-31451715D01*
X85388285Y-31277466D01*
X85251378Y-31072571D01*
X85157075Y-30844903D01*
X85109000Y-30603213D01*
X85109000Y-30356787D01*
X85157075Y-30115097D01*
X85251378Y-29887429D01*
X85388285Y-29682534D01*
X85562534Y-29508285D01*
X85767429Y-29371378D01*
X85995097Y-29277075D01*
X86236786Y-29229000D01*
X86483214Y-29229000D01*
X86724903Y-29277075D01*
G37*
G36*
X81644903Y-29277075D02*
G01*
X81872571Y-29371378D01*
X82077466Y-29508285D01*
X82251715Y-29682534D01*
X82388622Y-29887429D01*
X82482925Y-30115097D01*
X82531000Y-30356787D01*
X82531000Y-30603213D01*
X82482925Y-30844903D01*
X82388622Y-31072571D01*
X82251715Y-31277466D01*
X82077466Y-31451715D01*
X81872571Y-31588622D01*
X81872570Y-31588623D01*
X81872569Y-31588623D01*
X81644903Y-31682925D01*
X81403214Y-31731000D01*
X81156786Y-31731000D01*
X80915097Y-31682925D01*
X80687431Y-31588623D01*
X80687430Y-31588623D01*
X80687429Y-31588622D01*
X80482534Y-31451715D01*
X80308285Y-31277466D01*
X80171378Y-31072571D01*
X80077075Y-30844903D01*
X80029000Y-30603213D01*
X80029000Y-30356787D01*
X80077075Y-30115097D01*
X80171378Y-29887429D01*
X80308285Y-29682534D01*
X80482534Y-29508285D01*
X80687429Y-29371378D01*
X80915097Y-29277075D01*
X81156786Y-29229000D01*
X81403214Y-29229000D01*
X81644903Y-29277075D01*
G37*
G36*
X91804903Y-29277075D02*
G01*
X92032571Y-29371378D01*
X92237466Y-29508285D01*
X92411715Y-29682534D01*
X92548622Y-29887429D01*
X92642925Y-30115097D01*
X92691000Y-30356787D01*
X92691000Y-30603213D01*
X92642925Y-30844903D01*
X92548622Y-31072571D01*
X92411715Y-31277466D01*
X92237466Y-31451715D01*
X92032571Y-31588622D01*
X92032570Y-31588623D01*
X92032569Y-31588623D01*
X91804903Y-31682925D01*
X91563214Y-31731000D01*
X91316786Y-31731000D01*
X91075097Y-31682925D01*
X90847431Y-31588623D01*
X90847430Y-31588623D01*
X90847429Y-31588622D01*
X90642534Y-31451715D01*
X90468285Y-31277466D01*
X90331378Y-31072571D01*
X90237075Y-30844903D01*
X90189000Y-30603213D01*
X90189000Y-30356787D01*
X90237075Y-30115097D01*
X90331378Y-29887429D01*
X90468285Y-29682534D01*
X90642534Y-29508285D01*
X90847429Y-29371378D01*
X91075097Y-29277075D01*
X91316786Y-29229000D01*
X91563214Y-29229000D01*
X91804903Y-29277075D01*
G37*
G36*
X96884903Y-29277075D02*
G01*
X97112571Y-29371378D01*
X97317466Y-29508285D01*
X97491715Y-29682534D01*
X97628622Y-29887429D01*
X97722925Y-30115097D01*
X97771000Y-30356787D01*
X97771000Y-30603213D01*
X97722925Y-30844903D01*
X97628622Y-31072571D01*
X97491715Y-31277466D01*
X97317466Y-31451715D01*
X97112571Y-31588622D01*
X97112570Y-31588623D01*
X97112569Y-31588623D01*
X96884903Y-31682925D01*
X96643214Y-31731000D01*
X96396786Y-31731000D01*
X96155097Y-31682925D01*
X95927431Y-31588623D01*
X95927430Y-31588623D01*
X95927429Y-31588622D01*
X95722534Y-31451715D01*
X95548285Y-31277466D01*
X95411378Y-31072571D01*
X95317075Y-30844903D01*
X95269000Y-30603213D01*
X95269000Y-30356787D01*
X95317075Y-30115097D01*
X95411378Y-29887429D01*
X95548285Y-29682534D01*
X95722534Y-29508285D01*
X95927429Y-29371378D01*
X96155097Y-29277075D01*
X96396786Y-29229000D01*
X96643214Y-29229000D01*
X96884903Y-29277075D01*
G37*
G36*
X107044903Y-29277075D02*
G01*
X107272571Y-29371378D01*
X107477466Y-29508285D01*
X107651715Y-29682534D01*
X107788622Y-29887429D01*
X107882925Y-30115097D01*
X107931000Y-30356787D01*
X107931000Y-30603213D01*
X107882925Y-30844903D01*
X107788622Y-31072571D01*
X107651715Y-31277466D01*
X107477466Y-31451715D01*
X107272571Y-31588622D01*
X107272570Y-31588623D01*
X107272569Y-31588623D01*
X107044903Y-31682925D01*
X106803214Y-31731000D01*
X106556786Y-31731000D01*
X106315097Y-31682925D01*
X106087431Y-31588623D01*
X106087430Y-31588623D01*
X106087429Y-31588622D01*
X105882534Y-31451715D01*
X105708285Y-31277466D01*
X105571378Y-31072571D01*
X105477075Y-30844903D01*
X105429000Y-30603213D01*
X105429000Y-30356787D01*
X105477075Y-30115097D01*
X105571378Y-29887429D01*
X105708285Y-29682534D01*
X105882534Y-29508285D01*
X106087429Y-29371378D01*
X106315097Y-29277075D01*
X106556786Y-29229000D01*
X106803214Y-29229000D01*
X107044903Y-29277075D01*
G37*
G36*
X117204903Y-29277075D02*
G01*
X117432571Y-29371378D01*
X117637466Y-29508285D01*
X117811715Y-29682534D01*
X117948622Y-29887429D01*
X118042925Y-30115097D01*
X118091000Y-30356787D01*
X118091000Y-30603213D01*
X118042925Y-30844903D01*
X117948622Y-31072571D01*
X117811715Y-31277466D01*
X117637466Y-31451715D01*
X117432571Y-31588622D01*
X117432570Y-31588623D01*
X117432569Y-31588623D01*
X117204903Y-31682925D01*
X116963214Y-31731000D01*
X116716786Y-31731000D01*
X116475097Y-31682925D01*
X116247431Y-31588623D01*
X116247430Y-31588623D01*
X116247429Y-31588622D01*
X116042534Y-31451715D01*
X115868285Y-31277466D01*
X115731378Y-31072571D01*
X115637075Y-30844903D01*
X115589000Y-30603213D01*
X115589000Y-30356787D01*
X115637075Y-30115097D01*
X115731378Y-29887429D01*
X115868285Y-29682534D01*
X116042534Y-29508285D01*
X116247429Y-29371378D01*
X116475097Y-29277075D01*
X116716786Y-29229000D01*
X116963214Y-29229000D01*
X117204903Y-29277075D01*
G37*
G36*
X112124903Y-29277075D02*
G01*
X112352571Y-29371378D01*
X112557466Y-29508285D01*
X112731715Y-29682534D01*
X112868622Y-29887429D01*
X112962925Y-30115097D01*
X113011000Y-30356787D01*
X113011000Y-30603213D01*
X112962925Y-30844903D01*
X112868622Y-31072571D01*
X112731715Y-31277466D01*
X112557466Y-31451715D01*
X112352571Y-31588622D01*
X112352570Y-31588623D01*
X112352569Y-31588623D01*
X112124903Y-31682925D01*
X111883214Y-31731000D01*
X111636786Y-31731000D01*
X111395097Y-31682925D01*
X111167431Y-31588623D01*
X111167430Y-31588623D01*
X111167429Y-31588622D01*
X110962534Y-31451715D01*
X110788285Y-31277466D01*
X110651378Y-31072571D01*
X110557075Y-30844903D01*
X110509000Y-30603213D01*
X110509000Y-30356787D01*
X110557075Y-30115097D01*
X110651378Y-29887429D01*
X110788285Y-29682534D01*
X110962534Y-29508285D01*
X111167429Y-29371378D01*
X111395097Y-29277075D01*
X111636786Y-29229000D01*
X111883214Y-29229000D01*
X112124903Y-29277075D01*
G37*
G36*
X101964903Y-29277075D02*
G01*
X102192571Y-29371378D01*
X102397466Y-29508285D01*
X102571715Y-29682534D01*
X102708622Y-29887429D01*
X102802925Y-30115097D01*
X102851000Y-30356787D01*
X102851000Y-30603213D01*
X102802925Y-30844903D01*
X102708622Y-31072571D01*
X102571715Y-31277466D01*
X102397466Y-31451715D01*
X102192571Y-31588622D01*
X102192570Y-31588623D01*
X102192569Y-31588623D01*
X101964903Y-31682925D01*
X101723214Y-31731000D01*
X101476786Y-31731000D01*
X101235097Y-31682925D01*
X101007431Y-31588623D01*
X101007430Y-31588623D01*
X101007429Y-31588622D01*
X100802534Y-31451715D01*
X100628285Y-31277466D01*
X100491378Y-31072571D01*
X100397075Y-30844903D01*
X100349000Y-30603213D01*
X100349000Y-30356787D01*
X100397075Y-30115097D01*
X100491378Y-29887429D01*
X100628285Y-29682534D01*
X100802534Y-29508285D01*
X101007429Y-29371378D01*
X101235097Y-29277075D01*
X101476786Y-29229000D01*
X101723214Y-29229000D01*
X101964903Y-29277075D01*
G37*
G36*
X192018228Y-29026703D02*
G01*
X192173100Y-29090853D01*
X192312481Y-29183985D01*
X192431015Y-29302519D01*
X192524147Y-29441900D01*
X192588297Y-29596772D01*
X192621000Y-29761184D01*
X192621000Y-29928816D01*
X192588297Y-30093228D01*
X192524147Y-30248100D01*
X192431015Y-30387481D01*
X192312481Y-30506015D01*
X192173100Y-30599147D01*
X192018228Y-30663297D01*
X191853816Y-30696000D01*
X191686184Y-30696000D01*
X191521772Y-30663297D01*
X191366900Y-30599147D01*
X191227519Y-30506015D01*
X191108985Y-30387481D01*
X191015853Y-30248100D01*
X190951703Y-30093228D01*
X190919000Y-29928816D01*
X190919000Y-29761184D01*
X190951703Y-29596772D01*
X191015853Y-29441900D01*
X191108985Y-29302519D01*
X191227519Y-29183985D01*
X191366900Y-29090853D01*
X191521772Y-29026703D01*
X191686184Y-28994000D01*
X191853816Y-28994000D01*
X192018228Y-29026703D01*
G37*
G36*
X162173228Y-29026703D02*
G01*
X162328100Y-29090853D01*
X162467481Y-29183985D01*
X162586015Y-29302519D01*
X162679147Y-29441900D01*
X162743297Y-29596772D01*
X162776000Y-29761184D01*
X162776000Y-29928816D01*
X162743297Y-30093228D01*
X162679147Y-30248100D01*
X162586015Y-30387481D01*
X162467481Y-30506015D01*
X162328100Y-30599147D01*
X162173228Y-30663297D01*
X162008816Y-30696000D01*
X161841184Y-30696000D01*
X161676772Y-30663297D01*
X161521900Y-30599147D01*
X161382519Y-30506015D01*
X161263985Y-30387481D01*
X161170853Y-30248100D01*
X161106703Y-30093228D01*
X161074000Y-29928816D01*
X161074000Y-29761184D01*
X161106703Y-29596772D01*
X161170853Y-29441900D01*
X161263985Y-29302519D01*
X161382519Y-29183985D01*
X161521900Y-29090853D01*
X161676772Y-29026703D01*
X161841184Y-28994000D01*
X162008816Y-28994000D01*
X162173228Y-29026703D01*
G37*
G36*
X167253228Y-29026703D02*
G01*
X167408100Y-29090853D01*
X167547481Y-29183985D01*
X167666015Y-29302519D01*
X167759147Y-29441900D01*
X167823297Y-29596772D01*
X167856000Y-29761184D01*
X167856000Y-29928816D01*
X167823297Y-30093228D01*
X167759147Y-30248100D01*
X167666015Y-30387481D01*
X167547481Y-30506015D01*
X167408100Y-30599147D01*
X167253228Y-30663297D01*
X167088816Y-30696000D01*
X166921184Y-30696000D01*
X166756772Y-30663297D01*
X166601900Y-30599147D01*
X166462519Y-30506015D01*
X166343985Y-30387481D01*
X166250853Y-30248100D01*
X166186703Y-30093228D01*
X166154000Y-29928816D01*
X166154000Y-29761184D01*
X166186703Y-29596772D01*
X166250853Y-29441900D01*
X166343985Y-29302519D01*
X166462519Y-29183985D01*
X166601900Y-29090853D01*
X166756772Y-29026703D01*
X166921184Y-28994000D01*
X167088816Y-28994000D01*
X167253228Y-29026703D01*
G37*
G36*
X202178228Y-28391703D02*
G01*
X202333100Y-28455853D01*
X202472481Y-28548985D01*
X202591015Y-28667519D01*
X202684147Y-28806900D01*
X202748297Y-28961772D01*
X202781000Y-29126184D01*
X202781000Y-29293816D01*
X202748297Y-29458228D01*
X202684147Y-29613100D01*
X202591015Y-29752481D01*
X202472481Y-29871015D01*
X202333100Y-29964147D01*
X202178228Y-30028297D01*
X202013816Y-30061000D01*
X201846184Y-30061000D01*
X201681772Y-30028297D01*
X201526900Y-29964147D01*
X201387519Y-29871015D01*
X201268985Y-29752481D01*
X201175853Y-29613100D01*
X201111703Y-29458228D01*
X201079000Y-29293816D01*
X201079000Y-29126184D01*
X201111703Y-28961772D01*
X201175853Y-28806900D01*
X201268985Y-28667519D01*
X201387519Y-28548985D01*
X201526900Y-28455853D01*
X201681772Y-28391703D01*
X201846184Y-28359000D01*
X202013816Y-28359000D01*
X202178228Y-28391703D01*
G37*
G36*
X207258228Y-28391703D02*
G01*
X207413100Y-28455853D01*
X207552481Y-28548985D01*
X207671015Y-28667519D01*
X207764147Y-28806900D01*
X207828297Y-28961772D01*
X207861000Y-29126184D01*
X207861000Y-29293816D01*
X207828297Y-29458228D01*
X207764147Y-29613100D01*
X207671015Y-29752481D01*
X207552481Y-29871015D01*
X207413100Y-29964147D01*
X207258228Y-30028297D01*
X207093816Y-30061000D01*
X206926184Y-30061000D01*
X206761772Y-30028297D01*
X206606900Y-29964147D01*
X206467519Y-29871015D01*
X206348985Y-29752481D01*
X206255853Y-29613100D01*
X206191703Y-29458228D01*
X206159000Y-29293816D01*
X206159000Y-29126184D01*
X206191703Y-28961772D01*
X206255853Y-28806900D01*
X206348985Y-28667519D01*
X206467519Y-28548985D01*
X206606900Y-28455853D01*
X206761772Y-28391703D01*
X206926184Y-28359000D01*
X207093816Y-28359000D01*
X207258228Y-28391703D01*
G37*
G36*
X167253228Y-21406703D02*
G01*
X167408100Y-21470853D01*
X167547481Y-21563985D01*
X167666015Y-21682519D01*
X167759147Y-21821900D01*
X167823297Y-21976772D01*
X167856000Y-22141184D01*
X167856000Y-22308816D01*
X167823297Y-22473228D01*
X167759147Y-22628100D01*
X167666015Y-22767481D01*
X167547481Y-22886015D01*
X167408100Y-22979147D01*
X167253228Y-23043297D01*
X167088816Y-23076000D01*
X166921184Y-23076000D01*
X166756772Y-23043297D01*
X166601900Y-22979147D01*
X166462519Y-22886015D01*
X166343985Y-22767481D01*
X166250853Y-22628100D01*
X166186703Y-22473228D01*
X166154000Y-22308816D01*
X166154000Y-22141184D01*
X166186703Y-21976772D01*
X166250853Y-21821900D01*
X166343985Y-21682519D01*
X166462519Y-21563985D01*
X166601900Y-21470853D01*
X166756772Y-21406703D01*
X166921184Y-21374000D01*
X167088816Y-21374000D01*
X167253228Y-21406703D01*
G37*
G36*
X192018228Y-21406703D02*
G01*
X192173100Y-21470853D01*
X192312481Y-21563985D01*
X192431015Y-21682519D01*
X192524147Y-21821900D01*
X192588297Y-21976772D01*
X192621000Y-22141184D01*
X192621000Y-22308816D01*
X192588297Y-22473228D01*
X192524147Y-22628100D01*
X192431015Y-22767481D01*
X192312481Y-22886015D01*
X192173100Y-22979147D01*
X192018228Y-23043297D01*
X191853816Y-23076000D01*
X191686184Y-23076000D01*
X191521772Y-23043297D01*
X191366900Y-22979147D01*
X191227519Y-22886015D01*
X191108985Y-22767481D01*
X191015853Y-22628100D01*
X190951703Y-22473228D01*
X190919000Y-22308816D01*
X190919000Y-22141184D01*
X190951703Y-21976772D01*
X191015853Y-21821900D01*
X191108985Y-21682519D01*
X191227519Y-21563985D01*
X191366900Y-21470853D01*
X191521772Y-21406703D01*
X191686184Y-21374000D01*
X191853816Y-21374000D01*
X192018228Y-21406703D01*
G37*
G36*
X162173228Y-21406703D02*
G01*
X162328100Y-21470853D01*
X162467481Y-21563985D01*
X162586015Y-21682519D01*
X162679147Y-21821900D01*
X162743297Y-21976772D01*
X162776000Y-22141184D01*
X162776000Y-22308816D01*
X162743297Y-22473228D01*
X162679147Y-22628100D01*
X162586015Y-22767481D01*
X162467481Y-22886015D01*
X162328100Y-22979147D01*
X162173228Y-23043297D01*
X162008816Y-23076000D01*
X161841184Y-23076000D01*
X161676772Y-23043297D01*
X161521900Y-22979147D01*
X161382519Y-22886015D01*
X161263985Y-22767481D01*
X161170853Y-22628100D01*
X161106703Y-22473228D01*
X161074000Y-22308816D01*
X161074000Y-22141184D01*
X161106703Y-21976772D01*
X161170853Y-21821900D01*
X161263985Y-21682519D01*
X161382519Y-21563985D01*
X161521900Y-21470853D01*
X161676772Y-21406703D01*
X161841184Y-21374000D01*
X162008816Y-21374000D01*
X162173228Y-21406703D01*
G37*
G36*
X130923512Y-20693927D02*
G01*
X131072812Y-20723624D01*
X131236784Y-20791544D01*
X131384354Y-20890147D01*
X131509853Y-21015646D01*
X131608456Y-21163216D01*
X131676376Y-21327188D01*
X131711000Y-21501259D01*
X131711000Y-21678741D01*
X131676376Y-21852812D01*
X131608456Y-22016784D01*
X131509853Y-22164354D01*
X131384354Y-22289853D01*
X131236784Y-22388456D01*
X131072812Y-22456376D01*
X130923512Y-22486073D01*
X130898742Y-22491000D01*
X130721258Y-22491000D01*
X130696488Y-22486073D01*
X130547188Y-22456376D01*
X130383216Y-22388456D01*
X130235646Y-22289853D01*
X130110147Y-22164354D01*
X130011544Y-22016784D01*
X129943624Y-21852812D01*
X129909000Y-21678741D01*
X129909000Y-21501259D01*
X129943624Y-21327188D01*
X130011544Y-21163216D01*
X130110147Y-21015646D01*
X130235646Y-20890147D01*
X130383216Y-20791544D01*
X130547188Y-20723624D01*
X130696488Y-20693927D01*
X130721258Y-20689000D01*
X130898742Y-20689000D01*
X130923512Y-20693927D01*
G37*
G36*
X133463512Y-20693927D02*
G01*
X133612812Y-20723624D01*
X133776784Y-20791544D01*
X133924354Y-20890147D01*
X134049853Y-21015646D01*
X134148456Y-21163216D01*
X134216376Y-21327188D01*
X134251000Y-21501259D01*
X134251000Y-21678741D01*
X134216376Y-21852812D01*
X134148456Y-22016784D01*
X134049853Y-22164354D01*
X133924354Y-22289853D01*
X133776784Y-22388456D01*
X133612812Y-22456376D01*
X133463512Y-22486073D01*
X133438742Y-22491000D01*
X133261258Y-22491000D01*
X133236488Y-22486073D01*
X133087188Y-22456376D01*
X132923216Y-22388456D01*
X132775646Y-22289853D01*
X132650147Y-22164354D01*
X132551544Y-22016784D01*
X132483624Y-21852812D01*
X132449000Y-21678741D01*
X132449000Y-21501259D01*
X132483624Y-21327188D01*
X132551544Y-21163216D01*
X132650147Y-21015646D01*
X132775646Y-20890147D01*
X132923216Y-20791544D01*
X133087188Y-20723624D01*
X133236488Y-20693927D01*
X133261258Y-20689000D01*
X133438742Y-20689000D01*
X133463512Y-20693927D01*
G37*
G36*
X136003512Y-20693927D02*
G01*
X136152812Y-20723624D01*
X136316784Y-20791544D01*
X136464354Y-20890147D01*
X136589853Y-21015646D01*
X136688456Y-21163216D01*
X136756376Y-21327188D01*
X136791000Y-21501259D01*
X136791000Y-21678741D01*
X136756376Y-21852812D01*
X136688456Y-22016784D01*
X136589853Y-22164354D01*
X136464354Y-22289853D01*
X136316784Y-22388456D01*
X136152812Y-22456376D01*
X136003512Y-22486073D01*
X135978742Y-22491000D01*
X135801258Y-22491000D01*
X135776488Y-22486073D01*
X135627188Y-22456376D01*
X135463216Y-22388456D01*
X135315646Y-22289853D01*
X135190147Y-22164354D01*
X135091544Y-22016784D01*
X135023624Y-21852812D01*
X134989000Y-21678741D01*
X134989000Y-21501259D01*
X135023624Y-21327188D01*
X135091544Y-21163216D01*
X135190147Y-21015646D01*
X135315646Y-20890147D01*
X135463216Y-20791544D01*
X135627188Y-20723624D01*
X135776488Y-20693927D01*
X135801258Y-20689000D01*
X135978742Y-20689000D01*
X136003512Y-20693927D01*
G37*
G36*
X138543512Y-20693927D02*
G01*
X138692812Y-20723624D01*
X138856784Y-20791544D01*
X139004354Y-20890147D01*
X139129853Y-21015646D01*
X139228456Y-21163216D01*
X139296376Y-21327188D01*
X139331000Y-21501259D01*
X139331000Y-21678741D01*
X139296376Y-21852812D01*
X139228456Y-22016784D01*
X139129853Y-22164354D01*
X139004354Y-22289853D01*
X138856784Y-22388456D01*
X138692812Y-22456376D01*
X138543512Y-22486073D01*
X138518742Y-22491000D01*
X138341258Y-22491000D01*
X138316488Y-22486073D01*
X138167188Y-22456376D01*
X138003216Y-22388456D01*
X137855646Y-22289853D01*
X137730147Y-22164354D01*
X137631544Y-22016784D01*
X137563624Y-21852812D01*
X137529000Y-21678741D01*
X137529000Y-21501259D01*
X137563624Y-21327188D01*
X137631544Y-21163216D01*
X137730147Y-21015646D01*
X137855646Y-20890147D01*
X138003216Y-20791544D01*
X138167188Y-20723624D01*
X138316488Y-20693927D01*
X138341258Y-20689000D01*
X138518742Y-20689000D01*
X138543512Y-20693927D01*
G37*
G36*
X141083512Y-20693927D02*
G01*
X141232812Y-20723624D01*
X141396784Y-20791544D01*
X141544354Y-20890147D01*
X141669853Y-21015646D01*
X141768456Y-21163216D01*
X141836376Y-21327188D01*
X141871000Y-21501259D01*
X141871000Y-21678741D01*
X141836376Y-21852812D01*
X141768456Y-22016784D01*
X141669853Y-22164354D01*
X141544354Y-22289853D01*
X141396784Y-22388456D01*
X141232812Y-22456376D01*
X141083512Y-22486073D01*
X141058742Y-22491000D01*
X140881258Y-22491000D01*
X140856488Y-22486073D01*
X140707188Y-22456376D01*
X140543216Y-22388456D01*
X140395646Y-22289853D01*
X140270147Y-22164354D01*
X140171544Y-22016784D01*
X140103624Y-21852812D01*
X140069000Y-21678741D01*
X140069000Y-21501259D01*
X140103624Y-21327188D01*
X140171544Y-21163216D01*
X140270147Y-21015646D01*
X140395646Y-20890147D01*
X140543216Y-20791544D01*
X140707188Y-20723624D01*
X140856488Y-20693927D01*
X140881258Y-20689000D01*
X141058742Y-20689000D01*
X141083512Y-20693927D01*
G37*
G36*
X125843512Y-20693927D02*
G01*
X125992812Y-20723624D01*
X126156784Y-20791544D01*
X126304354Y-20890147D01*
X126429853Y-21015646D01*
X126528456Y-21163216D01*
X126596376Y-21327188D01*
X126631000Y-21501259D01*
X126631000Y-21678741D01*
X126596376Y-21852812D01*
X126528456Y-22016784D01*
X126429853Y-22164354D01*
X126304354Y-22289853D01*
X126156784Y-22388456D01*
X125992812Y-22456376D01*
X125843512Y-22486073D01*
X125818742Y-22491000D01*
X125641258Y-22491000D01*
X125616488Y-22486073D01*
X125467188Y-22456376D01*
X125303216Y-22388456D01*
X125155646Y-22289853D01*
X125030147Y-22164354D01*
X124931544Y-22016784D01*
X124863624Y-21852812D01*
X124829000Y-21678741D01*
X124829000Y-21501259D01*
X124863624Y-21327188D01*
X124931544Y-21163216D01*
X125030147Y-21015646D01*
X125155646Y-20890147D01*
X125303216Y-20791544D01*
X125467188Y-20723624D01*
X125616488Y-20693927D01*
X125641258Y-20689000D01*
X125818742Y-20689000D01*
X125843512Y-20693927D01*
G37*
G36*
X124091000Y-22491000D02*
G01*
X122289000Y-22491000D01*
X122289000Y-20689000D01*
X124091000Y-20689000D01*
X124091000Y-22491000D01*
G37*
G36*
X109333512Y-20693927D02*
G01*
X109482812Y-20723624D01*
X109646784Y-20791544D01*
X109794354Y-20890147D01*
X109919853Y-21015646D01*
X110018456Y-21163216D01*
X110086376Y-21327188D01*
X110121000Y-21501259D01*
X110121000Y-21678741D01*
X110086376Y-21852812D01*
X110018456Y-22016784D01*
X109919853Y-22164354D01*
X109794354Y-22289853D01*
X109646784Y-22388456D01*
X109482812Y-22456376D01*
X109333512Y-22486073D01*
X109308742Y-22491000D01*
X109131258Y-22491000D01*
X109106488Y-22486073D01*
X108957188Y-22456376D01*
X108793216Y-22388456D01*
X108645646Y-22289853D01*
X108520147Y-22164354D01*
X108421544Y-22016784D01*
X108353624Y-21852812D01*
X108319000Y-21678741D01*
X108319000Y-21501259D01*
X108353624Y-21327188D01*
X108421544Y-21163216D01*
X108520147Y-21015646D01*
X108645646Y-20890147D01*
X108793216Y-20791544D01*
X108957188Y-20723624D01*
X109106488Y-20693927D01*
X109131258Y-20689000D01*
X109308742Y-20689000D01*
X109333512Y-20693927D01*
G37*
G36*
X106793512Y-20693927D02*
G01*
X106942812Y-20723624D01*
X107106784Y-20791544D01*
X107254354Y-20890147D01*
X107379853Y-21015646D01*
X107478456Y-21163216D01*
X107546376Y-21327188D01*
X107581000Y-21501259D01*
X107581000Y-21678741D01*
X107546376Y-21852812D01*
X107478456Y-22016784D01*
X107379853Y-22164354D01*
X107254354Y-22289853D01*
X107106784Y-22388456D01*
X106942812Y-22456376D01*
X106793512Y-22486073D01*
X106768742Y-22491000D01*
X106591258Y-22491000D01*
X106566488Y-22486073D01*
X106417188Y-22456376D01*
X106253216Y-22388456D01*
X106105646Y-22289853D01*
X105980147Y-22164354D01*
X105881544Y-22016784D01*
X105813624Y-21852812D01*
X105779000Y-21678741D01*
X105779000Y-21501259D01*
X105813624Y-21327188D01*
X105881544Y-21163216D01*
X105980147Y-21015646D01*
X106105646Y-20890147D01*
X106253216Y-20791544D01*
X106417188Y-20723624D01*
X106566488Y-20693927D01*
X106591258Y-20689000D01*
X106768742Y-20689000D01*
X106793512Y-20693927D01*
G37*
G36*
X65671000Y-22491000D02*
G01*
X63869000Y-22491000D01*
X63869000Y-20689000D01*
X65671000Y-20689000D01*
X65671000Y-22491000D01*
G37*
G36*
X67423512Y-20693927D02*
G01*
X67572812Y-20723624D01*
X67736784Y-20791544D01*
X67884354Y-20890147D01*
X68009853Y-21015646D01*
X68108456Y-21163216D01*
X68176376Y-21327188D01*
X68211000Y-21501259D01*
X68211000Y-21678741D01*
X68176376Y-21852812D01*
X68108456Y-22016784D01*
X68009853Y-22164354D01*
X67884354Y-22289853D01*
X67736784Y-22388456D01*
X67572812Y-22456376D01*
X67423512Y-22486073D01*
X67398742Y-22491000D01*
X67221258Y-22491000D01*
X67196488Y-22486073D01*
X67047188Y-22456376D01*
X66883216Y-22388456D01*
X66735646Y-22289853D01*
X66610147Y-22164354D01*
X66511544Y-22016784D01*
X66443624Y-21852812D01*
X66409000Y-21678741D01*
X66409000Y-21501259D01*
X66443624Y-21327188D01*
X66511544Y-21163216D01*
X66610147Y-21015646D01*
X66735646Y-20890147D01*
X66883216Y-20791544D01*
X67047188Y-20723624D01*
X67196488Y-20693927D01*
X67221258Y-20689000D01*
X67398742Y-20689000D01*
X67423512Y-20693927D01*
G37*
G36*
X72503512Y-20693927D02*
G01*
X72652812Y-20723624D01*
X72816784Y-20791544D01*
X72964354Y-20890147D01*
X73089853Y-21015646D01*
X73188456Y-21163216D01*
X73256376Y-21327188D01*
X73291000Y-21501259D01*
X73291000Y-21678741D01*
X73256376Y-21852812D01*
X73188456Y-22016784D01*
X73089853Y-22164354D01*
X72964354Y-22289853D01*
X72816784Y-22388456D01*
X72652812Y-22456376D01*
X72503512Y-22486073D01*
X72478742Y-22491000D01*
X72301258Y-22491000D01*
X72276488Y-22486073D01*
X72127188Y-22456376D01*
X71963216Y-22388456D01*
X71815646Y-22289853D01*
X71690147Y-22164354D01*
X71591544Y-22016784D01*
X71523624Y-21852812D01*
X71489000Y-21678741D01*
X71489000Y-21501259D01*
X71523624Y-21327188D01*
X71591544Y-21163216D01*
X71690147Y-21015646D01*
X71815646Y-20890147D01*
X71963216Y-20791544D01*
X72127188Y-20723624D01*
X72276488Y-20693927D01*
X72301258Y-20689000D01*
X72478742Y-20689000D01*
X72503512Y-20693927D01*
G37*
G36*
X69963512Y-20693927D02*
G01*
X70112812Y-20723624D01*
X70276784Y-20791544D01*
X70424354Y-20890147D01*
X70549853Y-21015646D01*
X70648456Y-21163216D01*
X70716376Y-21327188D01*
X70751000Y-21501259D01*
X70751000Y-21678741D01*
X70716376Y-21852812D01*
X70648456Y-22016784D01*
X70549853Y-22164354D01*
X70424354Y-22289853D01*
X70276784Y-22388456D01*
X70112812Y-22456376D01*
X69963512Y-22486073D01*
X69938742Y-22491000D01*
X69761258Y-22491000D01*
X69736488Y-22486073D01*
X69587188Y-22456376D01*
X69423216Y-22388456D01*
X69275646Y-22289853D01*
X69150147Y-22164354D01*
X69051544Y-22016784D01*
X68983624Y-21852812D01*
X68949000Y-21678741D01*
X68949000Y-21501259D01*
X68983624Y-21327188D01*
X69051544Y-21163216D01*
X69150147Y-21015646D01*
X69275646Y-20890147D01*
X69423216Y-20791544D01*
X69587188Y-20723624D01*
X69736488Y-20693927D01*
X69761258Y-20689000D01*
X69938742Y-20689000D01*
X69963512Y-20693927D01*
G37*
G36*
X75043512Y-20693927D02*
G01*
X75192812Y-20723624D01*
X75356784Y-20791544D01*
X75504354Y-20890147D01*
X75629853Y-21015646D01*
X75728456Y-21163216D01*
X75796376Y-21327188D01*
X75831000Y-21501259D01*
X75831000Y-21678741D01*
X75796376Y-21852812D01*
X75728456Y-22016784D01*
X75629853Y-22164354D01*
X75504354Y-22289853D01*
X75356784Y-22388456D01*
X75192812Y-22456376D01*
X75043512Y-22486073D01*
X75018742Y-22491000D01*
X74841258Y-22491000D01*
X74816488Y-22486073D01*
X74667188Y-22456376D01*
X74503216Y-22388456D01*
X74355646Y-22289853D01*
X74230147Y-22164354D01*
X74131544Y-22016784D01*
X74063624Y-21852812D01*
X74029000Y-21678741D01*
X74029000Y-21501259D01*
X74063624Y-21327188D01*
X74131544Y-21163216D01*
X74230147Y-21015646D01*
X74355646Y-20890147D01*
X74503216Y-20791544D01*
X74667188Y-20723624D01*
X74816488Y-20693927D01*
X74841258Y-20689000D01*
X75018742Y-20689000D01*
X75043512Y-20693927D01*
G37*
G36*
X92341000Y-22491000D02*
G01*
X90539000Y-22491000D01*
X90539000Y-20689000D01*
X92341000Y-20689000D01*
X92341000Y-22491000D01*
G37*
G36*
X77583512Y-20693927D02*
G01*
X77732812Y-20723624D01*
X77896784Y-20791544D01*
X78044354Y-20890147D01*
X78169853Y-21015646D01*
X78268456Y-21163216D01*
X78336376Y-21327188D01*
X78371000Y-21501259D01*
X78371000Y-21678741D01*
X78336376Y-21852812D01*
X78268456Y-22016784D01*
X78169853Y-22164354D01*
X78044354Y-22289853D01*
X77896784Y-22388456D01*
X77732812Y-22456376D01*
X77583512Y-22486073D01*
X77558742Y-22491000D01*
X77381258Y-22491000D01*
X77356488Y-22486073D01*
X77207188Y-22456376D01*
X77043216Y-22388456D01*
X76895646Y-22289853D01*
X76770147Y-22164354D01*
X76671544Y-22016784D01*
X76603624Y-21852812D01*
X76569000Y-21678741D01*
X76569000Y-21501259D01*
X76603624Y-21327188D01*
X76671544Y-21163216D01*
X76770147Y-21015646D01*
X76895646Y-20890147D01*
X77043216Y-20791544D01*
X77207188Y-20723624D01*
X77356488Y-20693927D01*
X77381258Y-20689000D01*
X77558742Y-20689000D01*
X77583512Y-20693927D01*
G37*
G36*
X96633512Y-20693927D02*
G01*
X96782812Y-20723624D01*
X96946784Y-20791544D01*
X97094354Y-20890147D01*
X97219853Y-21015646D01*
X97318456Y-21163216D01*
X97386376Y-21327188D01*
X97421000Y-21501259D01*
X97421000Y-21678741D01*
X97386376Y-21852812D01*
X97318456Y-22016784D01*
X97219853Y-22164354D01*
X97094354Y-22289853D01*
X96946784Y-22388456D01*
X96782812Y-22456376D01*
X96633512Y-22486073D01*
X96608742Y-22491000D01*
X96431258Y-22491000D01*
X96406488Y-22486073D01*
X96257188Y-22456376D01*
X96093216Y-22388456D01*
X95945646Y-22289853D01*
X95820147Y-22164354D01*
X95721544Y-22016784D01*
X95653624Y-21852812D01*
X95619000Y-21678741D01*
X95619000Y-21501259D01*
X95653624Y-21327188D01*
X95721544Y-21163216D01*
X95820147Y-21015646D01*
X95945646Y-20890147D01*
X96093216Y-20791544D01*
X96257188Y-20723624D01*
X96406488Y-20693927D01*
X96431258Y-20689000D01*
X96608742Y-20689000D01*
X96633512Y-20693927D01*
G37*
G36*
X94093512Y-20693927D02*
G01*
X94242812Y-20723624D01*
X94406784Y-20791544D01*
X94554354Y-20890147D01*
X94679853Y-21015646D01*
X94778456Y-21163216D01*
X94846376Y-21327188D01*
X94881000Y-21501259D01*
X94881000Y-21678741D01*
X94846376Y-21852812D01*
X94778456Y-22016784D01*
X94679853Y-22164354D01*
X94554354Y-22289853D01*
X94406784Y-22388456D01*
X94242812Y-22456376D01*
X94093512Y-22486073D01*
X94068742Y-22491000D01*
X93891258Y-22491000D01*
X93866488Y-22486073D01*
X93717188Y-22456376D01*
X93553216Y-22388456D01*
X93405646Y-22289853D01*
X93280147Y-22164354D01*
X93181544Y-22016784D01*
X93113624Y-21852812D01*
X93079000Y-21678741D01*
X93079000Y-21501259D01*
X93113624Y-21327188D01*
X93181544Y-21163216D01*
X93280147Y-21015646D01*
X93405646Y-20890147D01*
X93553216Y-20791544D01*
X93717188Y-20723624D01*
X93866488Y-20693927D01*
X93891258Y-20689000D01*
X94068742Y-20689000D01*
X94093512Y-20693927D01*
G37*
G36*
X99173512Y-20693927D02*
G01*
X99322812Y-20723624D01*
X99486784Y-20791544D01*
X99634354Y-20890147D01*
X99759853Y-21015646D01*
X99858456Y-21163216D01*
X99926376Y-21327188D01*
X99961000Y-21501259D01*
X99961000Y-21678741D01*
X99926376Y-21852812D01*
X99858456Y-22016784D01*
X99759853Y-22164354D01*
X99634354Y-22289853D01*
X99486784Y-22388456D01*
X99322812Y-22456376D01*
X99173512Y-22486073D01*
X99148742Y-22491000D01*
X98971258Y-22491000D01*
X98946488Y-22486073D01*
X98797188Y-22456376D01*
X98633216Y-22388456D01*
X98485646Y-22289853D01*
X98360147Y-22164354D01*
X98261544Y-22016784D01*
X98193624Y-21852812D01*
X98159000Y-21678741D01*
X98159000Y-21501259D01*
X98193624Y-21327188D01*
X98261544Y-21163216D01*
X98360147Y-21015646D01*
X98485646Y-20890147D01*
X98633216Y-20791544D01*
X98797188Y-20723624D01*
X98946488Y-20693927D01*
X98971258Y-20689000D01*
X99148742Y-20689000D01*
X99173512Y-20693927D01*
G37*
G36*
X101713512Y-20693927D02*
G01*
X101862812Y-20723624D01*
X102026784Y-20791544D01*
X102174354Y-20890147D01*
X102299853Y-21015646D01*
X102398456Y-21163216D01*
X102466376Y-21327188D01*
X102501000Y-21501259D01*
X102501000Y-21678741D01*
X102466376Y-21852812D01*
X102398456Y-22016784D01*
X102299853Y-22164354D01*
X102174354Y-22289853D01*
X102026784Y-22388456D01*
X101862812Y-22456376D01*
X101713512Y-22486073D01*
X101688742Y-22491000D01*
X101511258Y-22491000D01*
X101486488Y-22486073D01*
X101337188Y-22456376D01*
X101173216Y-22388456D01*
X101025646Y-22289853D01*
X100900147Y-22164354D01*
X100801544Y-22016784D01*
X100733624Y-21852812D01*
X100699000Y-21678741D01*
X100699000Y-21501259D01*
X100733624Y-21327188D01*
X100801544Y-21163216D01*
X100900147Y-21015646D01*
X101025646Y-20890147D01*
X101173216Y-20791544D01*
X101337188Y-20723624D01*
X101486488Y-20693927D01*
X101511258Y-20689000D01*
X101688742Y-20689000D01*
X101713512Y-20693927D01*
G37*
G36*
X104253512Y-20693927D02*
G01*
X104402812Y-20723624D01*
X104566784Y-20791544D01*
X104714354Y-20890147D01*
X104839853Y-21015646D01*
X104938456Y-21163216D01*
X105006376Y-21327188D01*
X105041000Y-21501259D01*
X105041000Y-21678741D01*
X105006376Y-21852812D01*
X104938456Y-22016784D01*
X104839853Y-22164354D01*
X104714354Y-22289853D01*
X104566784Y-22388456D01*
X104402812Y-22456376D01*
X104253512Y-22486073D01*
X104228742Y-22491000D01*
X104051258Y-22491000D01*
X104026488Y-22486073D01*
X103877188Y-22456376D01*
X103713216Y-22388456D01*
X103565646Y-22289853D01*
X103440147Y-22164354D01*
X103341544Y-22016784D01*
X103273624Y-21852812D01*
X103239000Y-21678741D01*
X103239000Y-21501259D01*
X103273624Y-21327188D01*
X103341544Y-21163216D01*
X103440147Y-21015646D01*
X103565646Y-20890147D01*
X103713216Y-20791544D01*
X103877188Y-20723624D01*
X104026488Y-20693927D01*
X104051258Y-20689000D01*
X104228742Y-20689000D01*
X104253512Y-20693927D01*
G37*
G36*
X128383512Y-20693927D02*
G01*
X128532812Y-20723624D01*
X128696784Y-20791544D01*
X128844354Y-20890147D01*
X128969853Y-21015646D01*
X129068456Y-21163216D01*
X129136376Y-21327188D01*
X129171000Y-21501259D01*
X129171000Y-21678741D01*
X129136376Y-21852812D01*
X129068456Y-22016784D01*
X128969853Y-22164354D01*
X128844354Y-22289853D01*
X128696784Y-22388456D01*
X128532812Y-22456376D01*
X128383512Y-22486073D01*
X128358742Y-22491000D01*
X128181258Y-22491000D01*
X128156488Y-22486073D01*
X128007188Y-22456376D01*
X127843216Y-22388456D01*
X127695646Y-22289853D01*
X127570147Y-22164354D01*
X127471544Y-22016784D01*
X127403624Y-21852812D01*
X127369000Y-21678741D01*
X127369000Y-21501259D01*
X127403624Y-21327188D01*
X127471544Y-21163216D01*
X127570147Y-21015646D01*
X127695646Y-20890147D01*
X127843216Y-20791544D01*
X128007188Y-20723624D01*
X128156488Y-20693927D01*
X128181258Y-20689000D01*
X128358742Y-20689000D01*
X128383512Y-20693927D01*
G37*
G36*
X202178228Y-20771703D02*
G01*
X202333100Y-20835853D01*
X202472481Y-20928985D01*
X202591015Y-21047519D01*
X202684147Y-21186900D01*
X202748297Y-21341772D01*
X202781000Y-21506184D01*
X202781000Y-21673816D01*
X202748297Y-21838228D01*
X202684147Y-21993100D01*
X202591015Y-22132481D01*
X202472481Y-22251015D01*
X202333100Y-22344147D01*
X202178228Y-22408297D01*
X202013816Y-22441000D01*
X201846184Y-22441000D01*
X201681772Y-22408297D01*
X201526900Y-22344147D01*
X201387519Y-22251015D01*
X201268985Y-22132481D01*
X201175853Y-21993100D01*
X201111703Y-21838228D01*
X201079000Y-21673816D01*
X201079000Y-21506184D01*
X201111703Y-21341772D01*
X201175853Y-21186900D01*
X201268985Y-21047519D01*
X201387519Y-20928985D01*
X201526900Y-20835853D01*
X201681772Y-20771703D01*
X201846184Y-20739000D01*
X202013816Y-20739000D01*
X202178228Y-20771703D01*
G37*
G36*
X207258228Y-20771703D02*
G01*
X207413100Y-20835853D01*
X207552481Y-20928985D01*
X207671015Y-21047519D01*
X207764147Y-21186900D01*
X207828297Y-21341772D01*
X207861000Y-21506184D01*
X207861000Y-21673816D01*
X207828297Y-21838228D01*
X207764147Y-21993100D01*
X207671015Y-22132481D01*
X207552481Y-22251015D01*
X207413100Y-22344147D01*
X207258228Y-22408297D01*
X207093816Y-22441000D01*
X206926184Y-22441000D01*
X206761772Y-22408297D01*
X206606900Y-22344147D01*
X206467519Y-22251015D01*
X206348985Y-22132481D01*
X206255853Y-21993100D01*
X206191703Y-21838228D01*
X206159000Y-21673816D01*
X206159000Y-21506184D01*
X206191703Y-21341772D01*
X206255853Y-21186900D01*
X206348985Y-21047519D01*
X206467519Y-20928985D01*
X206606900Y-20835853D01*
X206761772Y-20771703D01*
X206926184Y-20739000D01*
X207093816Y-20739000D01*
X207258228Y-20771703D01*
G37*
G36*
X124091000Y-13601000D02*
G01*
X122289000Y-13601000D01*
X122289000Y-11799000D01*
X124091000Y-11799000D01*
X124091000Y-13601000D01*
G37*
G36*
X130923512Y-11803927D02*
G01*
X131072812Y-11833624D01*
X131236784Y-11901544D01*
X131384354Y-12000147D01*
X131509853Y-12125646D01*
X131608456Y-12273216D01*
X131676376Y-12437188D01*
X131711000Y-12611259D01*
X131711000Y-12788741D01*
X131676376Y-12962812D01*
X131608456Y-13126784D01*
X131509853Y-13274354D01*
X131384354Y-13399853D01*
X131236784Y-13498456D01*
X131072812Y-13566376D01*
X130923512Y-13596073D01*
X130898742Y-13601000D01*
X130721258Y-13601000D01*
X130696488Y-13596073D01*
X130547188Y-13566376D01*
X130383216Y-13498456D01*
X130235646Y-13399853D01*
X130110147Y-13274354D01*
X130011544Y-13126784D01*
X129943624Y-12962812D01*
X129909000Y-12788741D01*
X129909000Y-12611259D01*
X129943624Y-12437188D01*
X130011544Y-12273216D01*
X130110147Y-12125646D01*
X130235646Y-12000147D01*
X130383216Y-11901544D01*
X130547188Y-11833624D01*
X130696488Y-11803927D01*
X130721258Y-11799000D01*
X130898742Y-11799000D01*
X130923512Y-11803927D01*
G37*
G36*
X207123512Y-11803927D02*
G01*
X207272812Y-11833624D01*
X207436784Y-11901544D01*
X207584354Y-12000147D01*
X207709853Y-12125646D01*
X207808456Y-12273216D01*
X207876376Y-12437188D01*
X207911000Y-12611259D01*
X207911000Y-12788741D01*
X207876376Y-12962812D01*
X207808456Y-13126784D01*
X207709853Y-13274354D01*
X207584354Y-13399853D01*
X207436784Y-13498456D01*
X207272812Y-13566376D01*
X207123512Y-13596073D01*
X207098742Y-13601000D01*
X206921258Y-13601000D01*
X206896488Y-13596073D01*
X206747188Y-13566376D01*
X206583216Y-13498456D01*
X206435646Y-13399853D01*
X206310147Y-13274354D01*
X206211544Y-13126784D01*
X206143624Y-12962812D01*
X206109000Y-12788741D01*
X206109000Y-12611259D01*
X206143624Y-12437188D01*
X206211544Y-12273216D01*
X206310147Y-12125646D01*
X206435646Y-12000147D01*
X206583216Y-11901544D01*
X206747188Y-11833624D01*
X206896488Y-11803927D01*
X206921258Y-11799000D01*
X207098742Y-11799000D01*
X207123512Y-11803927D01*
G37*
G36*
X204583512Y-11803927D02*
G01*
X204732812Y-11833624D01*
X204896784Y-11901544D01*
X205044354Y-12000147D01*
X205169853Y-12125646D01*
X205268456Y-12273216D01*
X205336376Y-12437188D01*
X205371000Y-12611259D01*
X205371000Y-12788741D01*
X205336376Y-12962812D01*
X205268456Y-13126784D01*
X205169853Y-13274354D01*
X205044354Y-13399853D01*
X204896784Y-13498456D01*
X204732812Y-13566376D01*
X204583512Y-13596073D01*
X204558742Y-13601000D01*
X204381258Y-13601000D01*
X204356488Y-13596073D01*
X204207188Y-13566376D01*
X204043216Y-13498456D01*
X203895646Y-13399853D01*
X203770147Y-13274354D01*
X203671544Y-13126784D01*
X203603624Y-12962812D01*
X203569000Y-12788741D01*
X203569000Y-12611259D01*
X203603624Y-12437188D01*
X203671544Y-12273216D01*
X203770147Y-12125646D01*
X203895646Y-12000147D01*
X204043216Y-11901544D01*
X204207188Y-11833624D01*
X204356488Y-11803927D01*
X204381258Y-11799000D01*
X204558742Y-11799000D01*
X204583512Y-11803927D01*
G37*
G36*
X202831000Y-13601000D02*
G01*
X201029000Y-13601000D01*
X201029000Y-11799000D01*
X202831000Y-11799000D01*
X202831000Y-13601000D01*
G37*
G36*
X192671000Y-13601000D02*
G01*
X190869000Y-13601000D01*
X190869000Y-11799000D01*
X192671000Y-11799000D01*
X192671000Y-13601000D01*
G37*
G36*
X189343512Y-11803927D02*
G01*
X189492812Y-11833624D01*
X189656784Y-11901544D01*
X189804354Y-12000147D01*
X189929853Y-12125646D01*
X190028456Y-12273216D01*
X190096376Y-12437188D01*
X190131000Y-12611259D01*
X190131000Y-12788741D01*
X190096376Y-12962812D01*
X190028456Y-13126784D01*
X189929853Y-13274354D01*
X189804354Y-13399853D01*
X189656784Y-13498456D01*
X189492812Y-13566376D01*
X189343512Y-13596073D01*
X189318742Y-13601000D01*
X189141258Y-13601000D01*
X189116488Y-13596073D01*
X188967188Y-13566376D01*
X188803216Y-13498456D01*
X188655646Y-13399853D01*
X188530147Y-13274354D01*
X188431544Y-13126784D01*
X188363624Y-12962812D01*
X188329000Y-12788741D01*
X188329000Y-12611259D01*
X188363624Y-12437188D01*
X188431544Y-12273216D01*
X188530147Y-12125646D01*
X188655646Y-12000147D01*
X188803216Y-11901544D01*
X188967188Y-11833624D01*
X189116488Y-11803927D01*
X189141258Y-11799000D01*
X189318742Y-11799000D01*
X189343512Y-11803927D01*
G37*
G36*
X177431000Y-13601000D02*
G01*
X175629000Y-13601000D01*
X175629000Y-11799000D01*
X177431000Y-11799000D01*
X177431000Y-13601000D01*
G37*
G36*
X167118512Y-11803927D02*
G01*
X167267812Y-11833624D01*
X167431784Y-11901544D01*
X167579354Y-12000147D01*
X167704853Y-12125646D01*
X167803456Y-12273216D01*
X167871376Y-12437188D01*
X167906000Y-12611259D01*
X167906000Y-12788741D01*
X167871376Y-12962812D01*
X167803456Y-13126784D01*
X167704853Y-13274354D01*
X167579354Y-13399853D01*
X167431784Y-13498456D01*
X167267812Y-13566376D01*
X167118512Y-13596073D01*
X167093742Y-13601000D01*
X166916258Y-13601000D01*
X166891488Y-13596073D01*
X166742188Y-13566376D01*
X166578216Y-13498456D01*
X166430646Y-13399853D01*
X166305147Y-13274354D01*
X166206544Y-13126784D01*
X166138624Y-12962812D01*
X166104000Y-12788741D01*
X166104000Y-12611259D01*
X166138624Y-12437188D01*
X166206544Y-12273216D01*
X166305147Y-12125646D01*
X166430646Y-12000147D01*
X166578216Y-11901544D01*
X166742188Y-11833624D01*
X166891488Y-11803927D01*
X166916258Y-11799000D01*
X167093742Y-11799000D01*
X167118512Y-11803927D01*
G37*
G36*
X164578512Y-11803927D02*
G01*
X164727812Y-11833624D01*
X164891784Y-11901544D01*
X165039354Y-12000147D01*
X165164853Y-12125646D01*
X165263456Y-12273216D01*
X165331376Y-12437188D01*
X165366000Y-12611259D01*
X165366000Y-12788741D01*
X165331376Y-12962812D01*
X165263456Y-13126784D01*
X165164853Y-13274354D01*
X165039354Y-13399853D01*
X164891784Y-13498456D01*
X164727812Y-13566376D01*
X164578512Y-13596073D01*
X164553742Y-13601000D01*
X164376258Y-13601000D01*
X164351488Y-13596073D01*
X164202188Y-13566376D01*
X164038216Y-13498456D01*
X163890646Y-13399853D01*
X163765147Y-13274354D01*
X163666544Y-13126784D01*
X163598624Y-12962812D01*
X163564000Y-12788741D01*
X163564000Y-12611259D01*
X163598624Y-12437188D01*
X163666544Y-12273216D01*
X163765147Y-12125646D01*
X163890646Y-12000147D01*
X164038216Y-11901544D01*
X164202188Y-11833624D01*
X164351488Y-11803927D01*
X164376258Y-11799000D01*
X164553742Y-11799000D01*
X164578512Y-11803927D01*
G37*
G36*
X162826000Y-13601000D02*
G01*
X161024000Y-13601000D01*
X161024000Y-11799000D01*
X162826000Y-11799000D01*
X162826000Y-13601000D01*
G37*
G36*
X138543512Y-11803927D02*
G01*
X138692812Y-11833624D01*
X138856784Y-11901544D01*
X139004354Y-12000147D01*
X139129853Y-12125646D01*
X139228456Y-12273216D01*
X139296376Y-12437188D01*
X139331000Y-12611259D01*
X139331000Y-12788741D01*
X139296376Y-12962812D01*
X139228456Y-13126784D01*
X139129853Y-13274354D01*
X139004354Y-13399853D01*
X138856784Y-13498456D01*
X138692812Y-13566376D01*
X138543512Y-13596073D01*
X138518742Y-13601000D01*
X138341258Y-13601000D01*
X138316488Y-13596073D01*
X138167188Y-13566376D01*
X138003216Y-13498456D01*
X137855646Y-13399853D01*
X137730147Y-13274354D01*
X137631544Y-13126784D01*
X137563624Y-12962812D01*
X137529000Y-12788741D01*
X137529000Y-12611259D01*
X137563624Y-12437188D01*
X137631544Y-12273216D01*
X137730147Y-12125646D01*
X137855646Y-12000147D01*
X138003216Y-11901544D01*
X138167188Y-11833624D01*
X138316488Y-11803927D01*
X138341258Y-11799000D01*
X138518742Y-11799000D01*
X138543512Y-11803927D01*
G37*
G36*
X136003512Y-11803927D02*
G01*
X136152812Y-11833624D01*
X136316784Y-11901544D01*
X136464354Y-12000147D01*
X136589853Y-12125646D01*
X136688456Y-12273216D01*
X136756376Y-12437188D01*
X136791000Y-12611259D01*
X136791000Y-12788741D01*
X136756376Y-12962812D01*
X136688456Y-13126784D01*
X136589853Y-13274354D01*
X136464354Y-13399853D01*
X136316784Y-13498456D01*
X136152812Y-13566376D01*
X136003512Y-13596073D01*
X135978742Y-13601000D01*
X135801258Y-13601000D01*
X135776488Y-13596073D01*
X135627188Y-13566376D01*
X135463216Y-13498456D01*
X135315646Y-13399853D01*
X135190147Y-13274354D01*
X135091544Y-13126784D01*
X135023624Y-12962812D01*
X134989000Y-12788741D01*
X134989000Y-12611259D01*
X135023624Y-12437188D01*
X135091544Y-12273216D01*
X135190147Y-12125646D01*
X135315646Y-12000147D01*
X135463216Y-11901544D01*
X135627188Y-11833624D01*
X135776488Y-11803927D01*
X135801258Y-11799000D01*
X135978742Y-11799000D01*
X136003512Y-11803927D01*
G37*
G36*
X125843512Y-11803927D02*
G01*
X125992812Y-11833624D01*
X126156784Y-11901544D01*
X126304354Y-12000147D01*
X126429853Y-12125646D01*
X126528456Y-12273216D01*
X126596376Y-12437188D01*
X126631000Y-12611259D01*
X126631000Y-12788741D01*
X126596376Y-12962812D01*
X126528456Y-13126784D01*
X126429853Y-13274354D01*
X126304354Y-13399853D01*
X126156784Y-13498456D01*
X125992812Y-13566376D01*
X125843512Y-13596073D01*
X125818742Y-13601000D01*
X125641258Y-13601000D01*
X125616488Y-13596073D01*
X125467188Y-13566376D01*
X125303216Y-13498456D01*
X125155646Y-13399853D01*
X125030147Y-13274354D01*
X124931544Y-13126784D01*
X124863624Y-12962812D01*
X124829000Y-12788741D01*
X124829000Y-12611259D01*
X124863624Y-12437188D01*
X124931544Y-12273216D01*
X125030147Y-12125646D01*
X125155646Y-12000147D01*
X125303216Y-11901544D01*
X125467188Y-11833624D01*
X125616488Y-11803927D01*
X125641258Y-11799000D01*
X125818742Y-11799000D01*
X125843512Y-11803927D01*
G37*
G36*
X128383512Y-11803927D02*
G01*
X128532812Y-11833624D01*
X128696784Y-11901544D01*
X128844354Y-12000147D01*
X128969853Y-12125646D01*
X129068456Y-12273216D01*
X129136376Y-12437188D01*
X129171000Y-12611259D01*
X129171000Y-12788741D01*
X129136376Y-12962812D01*
X129068456Y-13126784D01*
X128969853Y-13274354D01*
X128844354Y-13399853D01*
X128696784Y-13498456D01*
X128532812Y-13566376D01*
X128383512Y-13596073D01*
X128358742Y-13601000D01*
X128181258Y-13601000D01*
X128156488Y-13596073D01*
X128007188Y-13566376D01*
X127843216Y-13498456D01*
X127695646Y-13399853D01*
X127570147Y-13274354D01*
X127471544Y-13126784D01*
X127403624Y-12962812D01*
X127369000Y-12788741D01*
X127369000Y-12611259D01*
X127403624Y-12437188D01*
X127471544Y-12273216D01*
X127570147Y-12125646D01*
X127695646Y-12000147D01*
X127843216Y-11901544D01*
X128007188Y-11833624D01*
X128156488Y-11803927D01*
X128181258Y-11799000D01*
X128358742Y-11799000D01*
X128383512Y-11803927D01*
G37*
G36*
X133463512Y-11803927D02*
G01*
X133612812Y-11833624D01*
X133776784Y-11901544D01*
X133924354Y-12000147D01*
X134049853Y-12125646D01*
X134148456Y-12273216D01*
X134216376Y-12437188D01*
X134251000Y-12611259D01*
X134251000Y-12788741D01*
X134216376Y-12962812D01*
X134148456Y-13126784D01*
X134049853Y-13274354D01*
X133924354Y-13399853D01*
X133776784Y-13498456D01*
X133612812Y-13566376D01*
X133463512Y-13596073D01*
X133438742Y-13601000D01*
X133261258Y-13601000D01*
X133236488Y-13596073D01*
X133087188Y-13566376D01*
X132923216Y-13498456D01*
X132775646Y-13399853D01*
X132650147Y-13274354D01*
X132551544Y-13126784D01*
X132483624Y-12962812D01*
X132449000Y-12788741D01*
X132449000Y-12611259D01*
X132483624Y-12437188D01*
X132551544Y-12273216D01*
X132650147Y-12125646D01*
X132775646Y-12000147D01*
X132923216Y-11901544D01*
X133087188Y-11833624D01*
X133236488Y-11803927D01*
X133261258Y-11799000D01*
X133438742Y-11799000D01*
X133463512Y-11803927D01*
G37*
G36*
X179183512Y-11803927D02*
G01*
X179332812Y-11833624D01*
X179496784Y-11901544D01*
X179644354Y-12000147D01*
X179769853Y-12125646D01*
X179868456Y-12273216D01*
X179936376Y-12437188D01*
X179971000Y-12611259D01*
X179971000Y-12788741D01*
X179936376Y-12962812D01*
X179868456Y-13126784D01*
X179769853Y-13274354D01*
X179644354Y-13399853D01*
X179496784Y-13498456D01*
X179332812Y-13566376D01*
X179183512Y-13596073D01*
X179158742Y-13601000D01*
X178981258Y-13601000D01*
X178956488Y-13596073D01*
X178807188Y-13566376D01*
X178643216Y-13498456D01*
X178495646Y-13399853D01*
X178370147Y-13274354D01*
X178271544Y-13126784D01*
X178203624Y-12962812D01*
X178169000Y-12788741D01*
X178169000Y-12611259D01*
X178203624Y-12437188D01*
X178271544Y-12273216D01*
X178370147Y-12125646D01*
X178495646Y-12000147D01*
X178643216Y-11901544D01*
X178807188Y-11833624D01*
X178956488Y-11803927D01*
X178981258Y-11799000D01*
X179158742Y-11799000D01*
X179183512Y-11803927D01*
G37*
G36*
X77583512Y-11803927D02*
G01*
X77732812Y-11833624D01*
X77896784Y-11901544D01*
X78044354Y-12000147D01*
X78169853Y-12125646D01*
X78268456Y-12273216D01*
X78336376Y-12437188D01*
X78371000Y-12611259D01*
X78371000Y-12788741D01*
X78336376Y-12962812D01*
X78268456Y-13126784D01*
X78169853Y-13274354D01*
X78044354Y-13399853D01*
X77896784Y-13498456D01*
X77732812Y-13566376D01*
X77583512Y-13596073D01*
X77558742Y-13601000D01*
X77381258Y-13601000D01*
X77356488Y-13596073D01*
X77207188Y-13566376D01*
X77043216Y-13498456D01*
X76895646Y-13399853D01*
X76770147Y-13274354D01*
X76671544Y-13126784D01*
X76603624Y-12962812D01*
X76569000Y-12788741D01*
X76569000Y-12611259D01*
X76603624Y-12437188D01*
X76671544Y-12273216D01*
X76770147Y-12125646D01*
X76895646Y-12000147D01*
X77043216Y-11901544D01*
X77207188Y-11833624D01*
X77356488Y-11803927D01*
X77381258Y-11799000D01*
X77558742Y-11799000D01*
X77583512Y-11803927D01*
G37*
G36*
X75043512Y-11803927D02*
G01*
X75192812Y-11833624D01*
X75356784Y-11901544D01*
X75504354Y-12000147D01*
X75629853Y-12125646D01*
X75728456Y-12273216D01*
X75796376Y-12437188D01*
X75831000Y-12611259D01*
X75831000Y-12788741D01*
X75796376Y-12962812D01*
X75728456Y-13126784D01*
X75629853Y-13274354D01*
X75504354Y-13399853D01*
X75356784Y-13498456D01*
X75192812Y-13566376D01*
X75043512Y-13596073D01*
X75018742Y-13601000D01*
X74841258Y-13601000D01*
X74816488Y-13596073D01*
X74667188Y-13566376D01*
X74503216Y-13498456D01*
X74355646Y-13399853D01*
X74230147Y-13274354D01*
X74131544Y-13126784D01*
X74063624Y-12962812D01*
X74029000Y-12788741D01*
X74029000Y-12611259D01*
X74063624Y-12437188D01*
X74131544Y-12273216D01*
X74230147Y-12125646D01*
X74355646Y-12000147D01*
X74503216Y-11901544D01*
X74667188Y-11833624D01*
X74816488Y-11803927D01*
X74841258Y-11799000D01*
X75018742Y-11799000D01*
X75043512Y-11803927D01*
G37*
G36*
X72503512Y-11803927D02*
G01*
X72652812Y-11833624D01*
X72816784Y-11901544D01*
X72964354Y-12000147D01*
X73089853Y-12125646D01*
X73188456Y-12273216D01*
X73256376Y-12437188D01*
X73291000Y-12611259D01*
X73291000Y-12788741D01*
X73256376Y-12962812D01*
X73188456Y-13126784D01*
X73089853Y-13274354D01*
X72964354Y-13399853D01*
X72816784Y-13498456D01*
X72652812Y-13566376D01*
X72503512Y-13596073D01*
X72478742Y-13601000D01*
X72301258Y-13601000D01*
X72276488Y-13596073D01*
X72127188Y-13566376D01*
X71963216Y-13498456D01*
X71815646Y-13399853D01*
X71690147Y-13274354D01*
X71591544Y-13126784D01*
X71523624Y-12962812D01*
X71489000Y-12788741D01*
X71489000Y-12611259D01*
X71523624Y-12437188D01*
X71591544Y-12273216D01*
X71690147Y-12125646D01*
X71815646Y-12000147D01*
X71963216Y-11901544D01*
X72127188Y-11833624D01*
X72276488Y-11803927D01*
X72301258Y-11799000D01*
X72478742Y-11799000D01*
X72503512Y-11803927D01*
G37*
G36*
X69963512Y-11803927D02*
G01*
X70112812Y-11833624D01*
X70276784Y-11901544D01*
X70424354Y-12000147D01*
X70549853Y-12125646D01*
X70648456Y-12273216D01*
X70716376Y-12437188D01*
X70751000Y-12611259D01*
X70751000Y-12788741D01*
X70716376Y-12962812D01*
X70648456Y-13126784D01*
X70549853Y-13274354D01*
X70424354Y-13399853D01*
X70276784Y-13498456D01*
X70112812Y-13566376D01*
X69963512Y-13596073D01*
X69938742Y-13601000D01*
X69761258Y-13601000D01*
X69736488Y-13596073D01*
X69587188Y-13566376D01*
X69423216Y-13498456D01*
X69275646Y-13399853D01*
X69150147Y-13274354D01*
X69051544Y-13126784D01*
X68983624Y-12962812D01*
X68949000Y-12788741D01*
X68949000Y-12611259D01*
X68983624Y-12437188D01*
X69051544Y-12273216D01*
X69150147Y-12125646D01*
X69275646Y-12000147D01*
X69423216Y-11901544D01*
X69587188Y-11833624D01*
X69736488Y-11803927D01*
X69761258Y-11799000D01*
X69938742Y-11799000D01*
X69963512Y-11803927D01*
G37*
G36*
X92341000Y-13601000D02*
G01*
X90539000Y-13601000D01*
X90539000Y-11799000D01*
X92341000Y-11799000D01*
X92341000Y-13601000D01*
G37*
G36*
X101713512Y-11803927D02*
G01*
X101862812Y-11833624D01*
X102026784Y-11901544D01*
X102174354Y-12000147D01*
X102299853Y-12125646D01*
X102398456Y-12273216D01*
X102466376Y-12437188D01*
X102501000Y-12611259D01*
X102501000Y-12788741D01*
X102466376Y-12962812D01*
X102398456Y-13126784D01*
X102299853Y-13274354D01*
X102174354Y-13399853D01*
X102026784Y-13498456D01*
X101862812Y-13566376D01*
X101713512Y-13596073D01*
X101688742Y-13601000D01*
X101511258Y-13601000D01*
X101486488Y-13596073D01*
X101337188Y-13566376D01*
X101173216Y-13498456D01*
X101025646Y-13399853D01*
X100900147Y-13274354D01*
X100801544Y-13126784D01*
X100733624Y-12962812D01*
X100699000Y-12788741D01*
X100699000Y-12611259D01*
X100733624Y-12437188D01*
X100801544Y-12273216D01*
X100900147Y-12125646D01*
X101025646Y-12000147D01*
X101173216Y-11901544D01*
X101337188Y-11833624D01*
X101486488Y-11803927D01*
X101511258Y-11799000D01*
X101688742Y-11799000D01*
X101713512Y-11803927D01*
G37*
G36*
X104253512Y-11803927D02*
G01*
X104402812Y-11833624D01*
X104566784Y-11901544D01*
X104714354Y-12000147D01*
X104839853Y-12125646D01*
X104938456Y-12273216D01*
X105006376Y-12437188D01*
X105041000Y-12611259D01*
X105041000Y-12788741D01*
X105006376Y-12962812D01*
X104938456Y-13126784D01*
X104839853Y-13274354D01*
X104714354Y-13399853D01*
X104566784Y-13498456D01*
X104402812Y-13566376D01*
X104253512Y-13596073D01*
X104228742Y-13601000D01*
X104051258Y-13601000D01*
X104026488Y-13596073D01*
X103877188Y-13566376D01*
X103713216Y-13498456D01*
X103565646Y-13399853D01*
X103440147Y-13274354D01*
X103341544Y-13126784D01*
X103273624Y-12962812D01*
X103239000Y-12788741D01*
X103239000Y-12611259D01*
X103273624Y-12437188D01*
X103341544Y-12273216D01*
X103440147Y-12125646D01*
X103565646Y-12000147D01*
X103713216Y-11901544D01*
X103877188Y-11833624D01*
X104026488Y-11803927D01*
X104051258Y-11799000D01*
X104228742Y-11799000D01*
X104253512Y-11803927D01*
G37*
G36*
X106793512Y-11803927D02*
G01*
X106942812Y-11833624D01*
X107106784Y-11901544D01*
X107254354Y-12000147D01*
X107379853Y-12125646D01*
X107478456Y-12273216D01*
X107546376Y-12437188D01*
X107581000Y-12611259D01*
X107581000Y-12788741D01*
X107546376Y-12962812D01*
X107478456Y-13126784D01*
X107379853Y-13274354D01*
X107254354Y-13399853D01*
X107106784Y-13498456D01*
X106942812Y-13566376D01*
X106793512Y-13596073D01*
X106768742Y-13601000D01*
X106591258Y-13601000D01*
X106566488Y-13596073D01*
X106417188Y-13566376D01*
X106253216Y-13498456D01*
X106105646Y-13399853D01*
X105980147Y-13274354D01*
X105881544Y-13126784D01*
X105813624Y-12962812D01*
X105779000Y-12788741D01*
X105779000Y-12611259D01*
X105813624Y-12437188D01*
X105881544Y-12273216D01*
X105980147Y-12125646D01*
X106105646Y-12000147D01*
X106253216Y-11901544D01*
X106417188Y-11833624D01*
X106566488Y-11803927D01*
X106591258Y-11799000D01*
X106768742Y-11799000D01*
X106793512Y-11803927D01*
G37*
G36*
X109333512Y-11803927D02*
G01*
X109482812Y-11833624D01*
X109646784Y-11901544D01*
X109794354Y-12000147D01*
X109919853Y-12125646D01*
X110018456Y-12273216D01*
X110086376Y-12437188D01*
X110121000Y-12611259D01*
X110121000Y-12788741D01*
X110086376Y-12962812D01*
X110018456Y-13126784D01*
X109919853Y-13274354D01*
X109794354Y-13399853D01*
X109646784Y-13498456D01*
X109482812Y-13566376D01*
X109333512Y-13596073D01*
X109308742Y-13601000D01*
X109131258Y-13601000D01*
X109106488Y-13596073D01*
X108957188Y-13566376D01*
X108793216Y-13498456D01*
X108645646Y-13399853D01*
X108520147Y-13274354D01*
X108421544Y-13126784D01*
X108353624Y-12962812D01*
X108319000Y-12788741D01*
X108319000Y-12611259D01*
X108353624Y-12437188D01*
X108421544Y-12273216D01*
X108520147Y-12125646D01*
X108645646Y-12000147D01*
X108793216Y-11901544D01*
X108957188Y-11833624D01*
X109106488Y-11803927D01*
X109131258Y-11799000D01*
X109308742Y-11799000D01*
X109333512Y-11803927D01*
G37*
G36*
X99173512Y-11803927D02*
G01*
X99322812Y-11833624D01*
X99486784Y-11901544D01*
X99634354Y-12000147D01*
X99759853Y-12125646D01*
X99858456Y-12273216D01*
X99926376Y-12437188D01*
X99961000Y-12611259D01*
X99961000Y-12788741D01*
X99926376Y-12962812D01*
X99858456Y-13126784D01*
X99759853Y-13274354D01*
X99634354Y-13399853D01*
X99486784Y-13498456D01*
X99322812Y-13566376D01*
X99173512Y-13596073D01*
X99148742Y-13601000D01*
X98971258Y-13601000D01*
X98946488Y-13596073D01*
X98797188Y-13566376D01*
X98633216Y-13498456D01*
X98485646Y-13399853D01*
X98360147Y-13274354D01*
X98261544Y-13126784D01*
X98193624Y-12962812D01*
X98159000Y-12788741D01*
X98159000Y-12611259D01*
X98193624Y-12437188D01*
X98261544Y-12273216D01*
X98360147Y-12125646D01*
X98485646Y-12000147D01*
X98633216Y-11901544D01*
X98797188Y-11833624D01*
X98946488Y-11803927D01*
X98971258Y-11799000D01*
X99148742Y-11799000D01*
X99173512Y-11803927D01*
G37*
G36*
X141083512Y-11803927D02*
G01*
X141232812Y-11833624D01*
X141396784Y-11901544D01*
X141544354Y-12000147D01*
X141669853Y-12125646D01*
X141768456Y-12273216D01*
X141836376Y-12437188D01*
X141871000Y-12611259D01*
X141871000Y-12788741D01*
X141836376Y-12962812D01*
X141768456Y-13126784D01*
X141669853Y-13274354D01*
X141544354Y-13399853D01*
X141396784Y-13498456D01*
X141232812Y-13566376D01*
X141083512Y-13596073D01*
X141058742Y-13601000D01*
X140881258Y-13601000D01*
X140856488Y-13596073D01*
X140707188Y-13566376D01*
X140543216Y-13498456D01*
X140395646Y-13399853D01*
X140270147Y-13274354D01*
X140171544Y-13126784D01*
X140103624Y-12962812D01*
X140069000Y-12788741D01*
X140069000Y-12611259D01*
X140103624Y-12437188D01*
X140171544Y-12273216D01*
X140270147Y-12125646D01*
X140395646Y-12000147D01*
X140543216Y-11901544D01*
X140707188Y-11833624D01*
X140856488Y-11803927D01*
X140881258Y-11799000D01*
X141058742Y-11799000D01*
X141083512Y-11803927D01*
G37*
G36*
X67423512Y-11803927D02*
G01*
X67572812Y-11833624D01*
X67736784Y-11901544D01*
X67884354Y-12000147D01*
X68009853Y-12125646D01*
X68108456Y-12273216D01*
X68176376Y-12437188D01*
X68211000Y-12611259D01*
X68211000Y-12788741D01*
X68176376Y-12962812D01*
X68108456Y-13126784D01*
X68009853Y-13274354D01*
X67884354Y-13399853D01*
X67736784Y-13498456D01*
X67572812Y-13566376D01*
X67423512Y-13596073D01*
X67398742Y-13601000D01*
X67221258Y-13601000D01*
X67196488Y-13596073D01*
X67047188Y-13566376D01*
X66883216Y-13498456D01*
X66735646Y-13399853D01*
X66610147Y-13274354D01*
X66511544Y-13126784D01*
X66443624Y-12962812D01*
X66409000Y-12788741D01*
X66409000Y-12611259D01*
X66443624Y-12437188D01*
X66511544Y-12273216D01*
X66610147Y-12125646D01*
X66735646Y-12000147D01*
X66883216Y-11901544D01*
X67047188Y-11833624D01*
X67196488Y-11803927D01*
X67221258Y-11799000D01*
X67398742Y-11799000D01*
X67423512Y-11803927D01*
G37*
G36*
X65671000Y-13601000D02*
G01*
X63869000Y-13601000D01*
X63869000Y-11799000D01*
X65671000Y-11799000D01*
X65671000Y-13601000D01*
G37*
G36*
X96633512Y-11803927D02*
G01*
X96782812Y-11833624D01*
X96946784Y-11901544D01*
X97094354Y-12000147D01*
X97219853Y-12125646D01*
X97318456Y-12273216D01*
X97386376Y-12437188D01*
X97421000Y-12611259D01*
X97421000Y-12788741D01*
X97386376Y-12962812D01*
X97318456Y-13126784D01*
X97219853Y-13274354D01*
X97094354Y-13399853D01*
X96946784Y-13498456D01*
X96782812Y-13566376D01*
X96633512Y-13596073D01*
X96608742Y-13601000D01*
X96431258Y-13601000D01*
X96406488Y-13596073D01*
X96257188Y-13566376D01*
X96093216Y-13498456D01*
X95945646Y-13399853D01*
X95820147Y-13274354D01*
X95721544Y-13126784D01*
X95653624Y-12962812D01*
X95619000Y-12788741D01*
X95619000Y-12611259D01*
X95653624Y-12437188D01*
X95721544Y-12273216D01*
X95820147Y-12125646D01*
X95945646Y-12000147D01*
X96093216Y-11901544D01*
X96257188Y-11833624D01*
X96406488Y-11803927D01*
X96431258Y-11799000D01*
X96608742Y-11799000D01*
X96633512Y-11803927D01*
G37*
G36*
X94093512Y-11803927D02*
G01*
X94242812Y-11833624D01*
X94406784Y-11901544D01*
X94554354Y-12000147D01*
X94679853Y-12125646D01*
X94778456Y-12273216D01*
X94846376Y-12437188D01*
X94881000Y-12611259D01*
X94881000Y-12788741D01*
X94846376Y-12962812D01*
X94778456Y-13126784D01*
X94679853Y-13274354D01*
X94554354Y-13399853D01*
X94406784Y-13498456D01*
X94242812Y-13566376D01*
X94093512Y-13596073D01*
X94068742Y-13601000D01*
X93891258Y-13601000D01*
X93866488Y-13596073D01*
X93717188Y-13566376D01*
X93553216Y-13498456D01*
X93405646Y-13399853D01*
X93280147Y-13274354D01*
X93181544Y-13126784D01*
X93113624Y-12962812D01*
X93079000Y-12788741D01*
X93079000Y-12611259D01*
X93113624Y-12437188D01*
X93181544Y-12273216D01*
X93280147Y-12125646D01*
X93405646Y-12000147D01*
X93553216Y-11901544D01*
X93717188Y-11833624D01*
X93866488Y-11803927D01*
X93891258Y-11799000D01*
X94068742Y-11799000D01*
X94093512Y-11803927D01*
G37*
M02*
