G04 #@! TF.GenerationSoftware,KiCad,Pcbnew,(5.1.5)-3*
G04 #@! TF.CreationDate,2020-04-18T11:13:35+02:00*
G04 #@! TF.ProjectId,KorgPoly61_TeensyMidi,4b6f7267-506f-46c7-9936-315f5465656e,rev?*
G04 #@! TF.SameCoordinates,Original*
G04 #@! TF.FileFunction,Legend,Bot*
G04 #@! TF.FilePolarity,Positive*
%FSLAX46Y46*%
G04 Gerber Fmt 4.6, Leading zero omitted, Abs format (unit mm)*
G04 Created by KiCad (PCBNEW (5.1.5)-3) date 2020-04-18 11:13:35*
%MOMM*%
%LPD*%
G04 APERTURE LIST*
%ADD10C,0.150000*%
%ADD11C,0.120000*%
G04 APERTURE END LIST*
D10*
X132234148Y-106819286D02*
X131662724Y-106821536D01*
X131948436Y-106820411D02*
X131944499Y-105820419D01*
X131849824Y-105963650D01*
X131754961Y-106059262D01*
X131659912Y-106107256D01*
X133087347Y-105815920D02*
X132896872Y-105816669D01*
X132801822Y-105864663D01*
X132754391Y-105912469D01*
X132659716Y-106055700D01*
X132612848Y-106246362D01*
X132614347Y-106627312D01*
X132662341Y-106722362D01*
X132710147Y-106769793D01*
X132805572Y-106817037D01*
X132996047Y-106816287D01*
X133091097Y-106768293D01*
X133138528Y-106720487D01*
X133185772Y-106625062D01*
X133184834Y-106386969D01*
X133136841Y-106291919D01*
X133089034Y-106244488D01*
X132993610Y-106197244D01*
X132803135Y-106197994D01*
X132708085Y-106245987D01*
X132660654Y-106293794D01*
X132613410Y-106389218D01*
X134138895Y-106811787D02*
X133567471Y-106814037D01*
X133853183Y-106812912D02*
X133849246Y-105812920D01*
X133754571Y-105956151D01*
X133659709Y-106051763D01*
X133564659Y-106099757D01*
X134614894Y-106762294D02*
X134615082Y-106809913D01*
X134567838Y-106905337D01*
X134520407Y-106953144D01*
X134992469Y-105903658D02*
X135039900Y-105855852D01*
X135134950Y-105807858D01*
X135373044Y-105806921D01*
X135468468Y-105854164D01*
X135516275Y-105901596D01*
X135564268Y-105996646D01*
X135564643Y-106091883D01*
X135517587Y-106234926D01*
X134948413Y-106808600D01*
X135567455Y-106806163D01*
X136043642Y-106804288D02*
X136234117Y-106803538D01*
X136329167Y-106755545D01*
X136376598Y-106707739D01*
X136471273Y-106564508D01*
X136518142Y-106373845D01*
X136516642Y-105992896D01*
X136468648Y-105897846D01*
X136420842Y-105850415D01*
X136325417Y-105803171D01*
X136134943Y-105803921D01*
X136039893Y-105851915D01*
X135992461Y-105899721D01*
X135945218Y-105995146D01*
X135946155Y-106233239D01*
X135994149Y-106328289D01*
X136041955Y-106375720D01*
X136137380Y-106422964D01*
X136327854Y-106422214D01*
X136422904Y-106374220D01*
X136470335Y-106326414D01*
X136517579Y-106230989D01*
X137472202Y-106798664D02*
X136900778Y-106800914D01*
X137186490Y-106799789D02*
X137182553Y-105799797D01*
X137087878Y-105943028D01*
X136993016Y-106038640D01*
X136897966Y-106086634D01*
X138662669Y-106793977D02*
X138660045Y-106127316D01*
X138660420Y-106222553D02*
X138707851Y-106174747D01*
X138802901Y-106126753D01*
X138945757Y-106126191D01*
X139041182Y-106173435D01*
X139089175Y-106268484D01*
X139091238Y-106792290D01*
X139089175Y-106268484D02*
X139136419Y-106173060D01*
X139231469Y-106125066D01*
X139374325Y-106124504D01*
X139469750Y-106171747D01*
X139517743Y-106266797D01*
X139519806Y-106790603D01*
X139995992Y-106788728D02*
X139993368Y-106122066D01*
X139993743Y-106217304D02*
X140041174Y-106169498D01*
X140136224Y-106121504D01*
X140279080Y-106120942D01*
X140374505Y-106168185D01*
X140422498Y-106263235D01*
X140424561Y-106787041D01*
X140422498Y-106263235D02*
X140469742Y-106167810D01*
X140564792Y-106119817D01*
X140707648Y-106119254D01*
X140803073Y-106166498D01*
X140851066Y-106261548D01*
X140853129Y-106785353D01*
D11*
X216919955Y-104763484D02*
X55629955Y-105398484D01*
X216535000Y-6985000D02*
X216922263Y-105349900D01*
X55245000Y-7620000D02*
X55632263Y-105984900D01*
X55629955Y-105398484D02*
X56754141Y-104807633D01*
X55629955Y-105398484D02*
X56758759Y-105980465D01*
X216919955Y-104763484D02*
X215791151Y-104181503D01*
X216919955Y-104763484D02*
X215795769Y-105354335D01*
M02*
