G04 #@! TF.GenerationSoftware,KiCad,Pcbnew,(5.1.5)-3*
G04 #@! TF.CreationDate,2020-04-18T11:13:35+02:00*
G04 #@! TF.ProjectId,KorgPoly61_TeensyMidi,4b6f7267-506f-46c7-9936-315f5465656e,rev?*
G04 #@! TF.SameCoordinates,Original*
G04 #@! TF.FileFunction,Copper,L2,Bot*
G04 #@! TF.FilePolarity,Positive*
%FSLAX46Y46*%
G04 Gerber Fmt 4.6, Leading zero omitted, Abs format (unit mm)*
G04 Created by KiCad (PCBNEW (5.1.5)-3) date 2020-04-18 11:13:35*
%MOMM*%
%LPD*%
G04 APERTURE LIST*
%ADD10C,1.900000*%
%ADD11R,1.600000X1.600000*%
%ADD12C,1.600000*%
%ADD13O,1.600000X1.600000*%
%ADD14O,1.700000X1.700000*%
%ADD15R,1.700000X1.700000*%
%ADD16O,2.400000X2.400000*%
%ADD17R,2.400000X2.400000*%
%ADD18C,0.800000*%
%ADD19C,0.250000*%
G04 APERTURE END LIST*
D10*
X101600000Y-82550000D03*
X101600000Y-78740000D03*
D11*
X109220000Y-88900000D03*
D12*
X109220000Y-86360000D03*
X109220000Y-83820000D03*
X109220000Y-81280000D03*
X109220000Y-78740000D03*
X109220000Y-76200000D03*
X109220000Y-73660000D03*
X109220000Y-71120000D03*
X109220000Y-68580000D03*
X109220000Y-66040000D03*
X109220000Y-63500000D03*
X109220000Y-60960000D03*
X109220000Y-58420000D03*
X96520000Y-76200000D03*
X96520000Y-78740000D03*
X96520000Y-81280000D03*
X96520000Y-86360000D03*
X93980000Y-88900000D03*
X93980000Y-86360000D03*
X93980000Y-83820000D03*
X93980000Y-81280000D03*
X93980000Y-78740000D03*
X93980000Y-76200000D03*
X93980000Y-73660000D03*
X93980000Y-71120000D03*
X93980000Y-68580000D03*
X93980000Y-66040000D03*
X93980000Y-63500000D03*
X93980000Y-60960000D03*
X93980000Y-58420000D03*
X109220000Y-55880000D03*
X106680000Y-55880000D03*
X104140000Y-55880000D03*
X93980000Y-55880000D03*
X96520000Y-55880000D03*
X99060000Y-55880000D03*
X101600000Y-55880000D03*
D13*
X143510000Y-63500000D03*
X151130000Y-55880000D03*
X143510000Y-60960000D03*
X151130000Y-58420000D03*
X143510000Y-58420000D03*
X151130000Y-60960000D03*
X143510000Y-55880000D03*
D11*
X151130000Y-63500000D03*
D13*
X167005000Y-22225000D03*
D12*
X167005000Y-29845000D03*
D13*
X161925000Y-22225000D03*
D12*
X161925000Y-29845000D03*
D13*
X207010000Y-29210000D03*
D12*
X207010000Y-21590000D03*
D13*
X201930000Y-21590000D03*
D12*
X201930000Y-29210000D03*
D13*
X147320000Y-48895000D03*
D12*
X154940000Y-48895000D03*
D13*
X88265000Y-83820000D03*
D12*
X88265000Y-91440000D03*
D13*
X191770000Y-22225000D03*
D12*
X191770000Y-29845000D03*
D13*
X143510000Y-91440000D03*
X151130000Y-76200000D03*
X143510000Y-88900000D03*
X151130000Y-78740000D03*
X143510000Y-86360000D03*
X151130000Y-81280000D03*
X143510000Y-83820000D03*
X151130000Y-83820000D03*
X143510000Y-81280000D03*
X151130000Y-86360000D03*
X143510000Y-78740000D03*
X151130000Y-88900000D03*
X143510000Y-76200000D03*
D11*
X151130000Y-91440000D03*
D13*
X133350000Y-33020000D03*
X151130000Y-40640000D03*
X135890000Y-33020000D03*
X148590000Y-40640000D03*
X138430000Y-33020000D03*
X146050000Y-40640000D03*
X140970000Y-33020000D03*
X143510000Y-40640000D03*
X143510000Y-33020000D03*
X140970000Y-40640000D03*
X146050000Y-33020000D03*
X138430000Y-40640000D03*
X148590000Y-33020000D03*
X135890000Y-40640000D03*
X151130000Y-33020000D03*
D11*
X133350000Y-40640000D03*
D14*
X179070000Y-12700000D03*
D15*
X176530000Y-12700000D03*
D14*
X167005000Y-12700000D03*
X164465000Y-12700000D03*
D15*
X161925000Y-12700000D03*
D14*
X207010000Y-12700000D03*
X204470000Y-12700000D03*
D15*
X201930000Y-12700000D03*
D14*
X189230000Y-12700000D03*
D15*
X191770000Y-12700000D03*
D14*
X71120000Y-96520000D03*
D15*
X68580000Y-96520000D03*
D14*
X77470000Y-21590000D03*
X74930000Y-21590000D03*
X72390000Y-21590000D03*
X69850000Y-21590000D03*
X67310000Y-21590000D03*
D15*
X64770000Y-21590000D03*
D14*
X77470000Y-12700000D03*
X74930000Y-12700000D03*
X72390000Y-12700000D03*
X69850000Y-12700000D03*
X67310000Y-12700000D03*
D15*
X64770000Y-12700000D03*
D14*
X140970000Y-12700000D03*
X138430000Y-12700000D03*
X135890000Y-12700000D03*
X133350000Y-12700000D03*
X130810000Y-12700000D03*
X128270000Y-12700000D03*
X125730000Y-12700000D03*
D15*
X123190000Y-12700000D03*
D14*
X140970000Y-21590000D03*
X138430000Y-21590000D03*
X135890000Y-21590000D03*
X133350000Y-21590000D03*
X130810000Y-21590000D03*
X128270000Y-21590000D03*
X125730000Y-21590000D03*
D15*
X123190000Y-21590000D03*
D14*
X109220000Y-12700000D03*
X106680000Y-12700000D03*
X104140000Y-12700000D03*
X101600000Y-12700000D03*
X99060000Y-12700000D03*
X96520000Y-12700000D03*
X93980000Y-12700000D03*
D15*
X91440000Y-12700000D03*
D14*
X109220000Y-21590000D03*
X106680000Y-21590000D03*
X104140000Y-21590000D03*
X101600000Y-21590000D03*
X99060000Y-21590000D03*
X96520000Y-21590000D03*
X93980000Y-21590000D03*
D15*
X91440000Y-21590000D03*
D16*
X167640000Y-53975000D03*
D17*
X167640000Y-64135000D03*
D16*
X116840000Y-30480000D03*
D17*
X116840000Y-40640000D03*
D16*
X111760000Y-30480000D03*
D17*
X111760000Y-40640000D03*
D16*
X106680000Y-30480000D03*
D17*
X106680000Y-40640000D03*
D16*
X101600000Y-30480000D03*
D17*
X101600000Y-40640000D03*
D16*
X96520000Y-30480000D03*
D17*
X96520000Y-40640000D03*
D16*
X91440000Y-30480000D03*
D17*
X91440000Y-40640000D03*
D16*
X86360000Y-30480000D03*
D17*
X86360000Y-40640000D03*
D16*
X81280000Y-30480000D03*
D17*
X81280000Y-40640000D03*
D12*
X144860000Y-97155000D03*
X149860000Y-97155000D03*
X138430000Y-62785000D03*
X138430000Y-57785000D03*
X128270000Y-34370000D03*
X128270000Y-39370000D03*
X104060000Y-96520000D03*
X99060000Y-96520000D03*
D18*
X147320000Y-85090000D03*
X154940000Y-57150000D03*
X154940000Y-57150000D03*
X142384999Y-69994999D03*
X92075000Y-51435000D03*
X81280000Y-47625000D03*
X82550000Y-15240000D03*
D19*
X142240000Y-39370000D02*
X143510000Y-40640000D01*
X128270000Y-39370000D02*
X142240000Y-39370000D01*
X143510000Y-39508630D02*
X145415000Y-37603630D01*
X143510000Y-40640000D02*
X143510000Y-39508630D01*
X145415000Y-37603630D02*
X149086370Y-37603630D01*
X149086370Y-37603630D02*
X149582740Y-38100000D01*
X149582740Y-39092740D02*
X151130000Y-40640000D01*
X149582740Y-38100000D02*
X149582740Y-39092740D01*
X140335000Y-55880000D02*
X143510000Y-55880000D01*
X138430000Y-57785000D02*
X140335000Y-55880000D01*
X143510000Y-54748630D02*
X143510000Y-40640000D01*
X143510000Y-55880000D02*
X143510000Y-54748630D01*
X110270000Y-88900000D02*
X109220000Y-88900000D01*
X144635001Y-64040001D02*
X119775002Y-88900000D01*
X144050001Y-62374999D02*
X144635001Y-62959999D01*
X119775002Y-88900000D02*
X110270000Y-88900000D01*
X143021409Y-62374999D02*
X144050001Y-62374999D01*
X138431410Y-57785000D02*
X143021409Y-62374999D01*
X144635001Y-62959999D02*
X144635001Y-64040001D01*
X138430000Y-57785000D02*
X138431410Y-57785000D01*
X103260001Y-97319999D02*
X104060000Y-96520000D01*
X73447082Y-97645001D02*
X102934999Y-97645001D01*
X72322081Y-96520000D02*
X73447082Y-97645001D01*
X102934999Y-97645001D02*
X103260001Y-97319999D01*
X71120000Y-96520000D02*
X72322081Y-96520000D01*
X152261370Y-40640000D02*
X151130000Y-40640000D01*
X152795002Y-40640000D02*
X152261370Y-40640000D01*
X164465000Y-28970002D02*
X152795002Y-40640000D01*
X164465000Y-12700000D02*
X164465000Y-28970002D01*
X178220001Y-11850001D02*
X179070000Y-12700000D01*
X177894999Y-11524999D02*
X178220001Y-11850001D01*
X165640001Y-11524999D02*
X177894999Y-11524999D01*
X164465000Y-12700000D02*
X165640001Y-11524999D01*
X203620001Y-11850001D02*
X204470000Y-12700000D01*
X203294999Y-11524999D02*
X203620001Y-11850001D01*
X180245001Y-11524999D02*
X203294999Y-11524999D01*
X179070000Y-12700000D02*
X180245001Y-11524999D01*
X147320000Y-94615000D02*
X149860000Y-97155000D01*
X147320000Y-85090000D02*
X147320000Y-94615000D01*
X154940000Y-48895000D02*
X154940000Y-57150000D01*
X154940000Y-57150000D02*
X154940000Y-57150000D01*
X154940000Y-57150000D02*
X154940000Y-57150000D01*
X132000000Y-34370000D02*
X133350000Y-33020000D01*
X128270000Y-34370000D02*
X132000000Y-34370000D01*
X142795000Y-62785000D02*
X143510000Y-63500000D01*
X138430000Y-62785000D02*
X142795000Y-62785000D01*
X127470001Y-35169999D02*
X128270000Y-34370000D01*
X127144999Y-51499999D02*
X127144999Y-35495001D01*
X127144999Y-35495001D02*
X127470001Y-35169999D01*
X138430000Y-62785000D02*
X127144999Y-51499999D01*
X144860000Y-92790000D02*
X143510000Y-91440000D01*
X144860000Y-97155000D02*
X144860000Y-92790000D01*
X99859999Y-95720001D02*
X99060000Y-96520000D01*
X103340001Y-92239999D02*
X99859999Y-95720001D01*
X142710001Y-92239999D02*
X103340001Y-92239999D01*
X143510000Y-91440000D02*
X142710001Y-92239999D01*
X68580000Y-95420000D02*
X68580000Y-96520000D01*
X75100000Y-88900000D02*
X68580000Y-95420000D01*
X93980000Y-88900000D02*
X75100000Y-88900000D01*
X160793630Y-29845000D02*
X161925000Y-29845000D01*
X135393630Y-29845000D02*
X160793630Y-29845000D01*
X133350000Y-31888630D02*
X135393630Y-29845000D01*
X133350000Y-33020000D02*
X133350000Y-31888630D01*
X142384999Y-90314999D02*
X142384999Y-69994999D01*
X143510000Y-91440000D02*
X142384999Y-90314999D01*
X142384999Y-69994999D02*
X142384999Y-69994999D01*
X107805001Y-43144999D02*
X107805001Y-57929999D01*
X111760000Y-40640000D02*
X110310000Y-40640000D01*
X110310000Y-40640000D02*
X107805001Y-43144999D01*
X108420001Y-57620001D02*
X109220000Y-58420000D01*
X108114999Y-57620001D02*
X108420001Y-57620001D01*
X107805001Y-57929999D02*
X108114999Y-57620001D01*
X116840000Y-48260000D02*
X109220000Y-55880000D01*
X116840000Y-40640000D02*
X116840000Y-48260000D01*
X163195000Y-58420000D02*
X167640000Y-53975000D01*
X151130000Y-58420000D02*
X163195000Y-58420000D01*
X167640000Y-52277944D02*
X167640000Y-53975000D01*
X167640000Y-33087919D02*
X167640000Y-52277944D01*
X188027919Y-12700000D02*
X167640000Y-33087919D01*
X189230000Y-12700000D02*
X188027919Y-12700000D01*
X167640000Y-62685000D02*
X167640000Y-64135000D01*
X165915000Y-60960000D02*
X167640000Y-62685000D01*
X151130000Y-60960000D02*
X165915000Y-60960000D01*
X169090000Y-64135000D02*
X167640000Y-64135000D01*
X191770000Y-41455000D02*
X169090000Y-64135000D01*
X191770000Y-29845000D02*
X191770000Y-41455000D01*
X109220000Y-12700000D02*
X108044999Y-13875001D01*
X71214999Y-15778591D02*
X73754999Y-13238591D01*
X108370001Y-11850001D02*
X109220000Y-12700000D01*
X73754999Y-13238591D02*
X73754999Y-12135999D01*
X73754999Y-12135999D02*
X75266018Y-10624980D01*
X75266018Y-10624980D02*
X107144980Y-10624980D01*
X107144980Y-10624980D02*
X108370001Y-11850001D01*
X71214999Y-65499999D02*
X71214999Y-15778591D01*
X71214999Y-65896411D02*
X71214999Y-65499999D01*
X110795010Y-75235010D02*
X109220000Y-73660000D01*
X71120000Y-69215000D02*
X87630000Y-85725000D01*
X71120000Y-66029948D02*
X71120000Y-69215000D01*
X71214999Y-65934949D02*
X71120000Y-66029948D01*
X71214999Y-65499999D02*
X71214999Y-65934949D01*
X88504998Y-85725000D02*
X90264999Y-87485001D01*
X87630000Y-85725000D02*
X88504998Y-85725000D01*
X90264999Y-87485001D02*
X103599999Y-87485001D01*
X109760001Y-82405001D02*
X110795010Y-81369992D01*
X108679999Y-82405001D02*
X109760001Y-82405001D01*
X103599999Y-87485001D02*
X108679999Y-82405001D01*
X110795010Y-81369992D02*
X110795010Y-75235010D01*
X89014979Y-12203609D02*
X89014979Y-71234979D01*
X89014979Y-71234979D02*
X93180001Y-75400001D01*
X90143598Y-11074990D02*
X89014979Y-12203609D01*
X93180001Y-75400001D02*
X93980000Y-76200000D01*
X105054990Y-11074990D02*
X90143598Y-11074990D01*
X106680000Y-12700000D02*
X105054990Y-11074990D01*
X89464989Y-69144989D02*
X93180001Y-72860001D01*
X89464989Y-12390009D02*
X89464989Y-69144989D01*
X90329999Y-11524999D02*
X89464989Y-12390009D01*
X93180001Y-72860001D02*
X93980000Y-73660000D01*
X102964999Y-11524999D02*
X90329999Y-11524999D01*
X104140000Y-12700000D02*
X102964999Y-11524999D01*
X105154999Y-22314003D02*
X105410000Y-22059002D01*
X105154999Y-42100001D02*
X105154999Y-22314003D01*
X105219999Y-42165001D02*
X105154999Y-42100001D01*
X110123599Y-39291399D02*
X110123599Y-40189991D01*
X110299999Y-39114999D02*
X110123599Y-39291399D01*
X118365001Y-39179999D02*
X118300001Y-39114999D01*
X118365001Y-50940001D02*
X118365001Y-39179999D01*
X109760001Y-59545001D02*
X118365001Y-50940001D01*
X105410000Y-22059002D02*
X105410000Y-16510000D01*
X108679999Y-59545001D02*
X109760001Y-59545001D01*
X105410000Y-16510000D02*
X102449999Y-13549999D01*
X108148589Y-42165001D02*
X105219999Y-42165001D01*
X106045000Y-62180000D02*
X108679999Y-59545001D01*
X102449999Y-13549999D02*
X101600000Y-12700000D01*
X106045000Y-64530002D02*
X106045000Y-62180000D01*
X109470003Y-67165001D02*
X108679999Y-67165001D01*
X118300001Y-39114999D02*
X110299999Y-39114999D01*
X110345001Y-68039999D02*
X109470003Y-67165001D01*
X108679999Y-67165001D02*
X106045000Y-64530002D01*
X110345001Y-69994999D02*
X110345001Y-68039999D01*
X110123599Y-40189991D02*
X108148589Y-42165001D01*
X109220000Y-71120000D02*
X110345001Y-69994999D01*
X92854999Y-71660001D02*
X92854999Y-69705001D01*
X93439999Y-72245001D02*
X92854999Y-71660001D01*
X94520001Y-72245001D02*
X93439999Y-72245001D01*
X105265001Y-61500001D02*
X94520001Y-72245001D01*
X105265001Y-55339999D02*
X105265001Y-61500001D01*
X104680001Y-54754999D02*
X105265001Y-55339999D01*
X104680001Y-36382999D02*
X104680001Y-54754999D01*
X93180001Y-69379999D02*
X93980000Y-68580000D01*
X92854999Y-69705001D02*
X93180001Y-69379999D01*
X97884999Y-29587997D02*
X104680001Y-36382999D01*
X97884999Y-13875001D02*
X97884999Y-29587997D01*
X99060000Y-12700000D02*
X97884999Y-13875001D01*
X94779999Y-70320001D02*
X93980000Y-71120000D01*
X102725001Y-55339999D02*
X102725001Y-62374999D01*
X103125001Y-54939999D02*
X102725001Y-55339999D01*
X103125001Y-39271589D02*
X103125001Y-54939999D01*
X102725001Y-62374999D02*
X94779999Y-70320001D01*
X94156706Y-30303294D02*
X103125001Y-39271589D01*
X95155001Y-29304999D02*
X94156706Y-30303294D01*
X95155001Y-14064999D02*
X95155001Y-29304999D01*
X96520000Y-12700000D02*
X95155001Y-14064999D01*
X94779999Y-65240001D02*
X93980000Y-66040000D01*
X100074999Y-53769999D02*
X100185001Y-53880001D01*
X92615001Y-29397999D02*
X100074999Y-36857997D01*
X100185001Y-53880001D02*
X100185001Y-59834999D01*
X92615001Y-15267080D02*
X92615001Y-29397999D01*
X100074999Y-36857997D02*
X100074999Y-53769999D01*
X93980000Y-13902081D02*
X92615001Y-15267080D01*
X100185001Y-59834999D02*
X94779999Y-65240001D01*
X93980000Y-12700000D02*
X93980000Y-13902081D01*
X93180001Y-62700001D02*
X93980000Y-63500000D01*
X89914999Y-59434999D02*
X93180001Y-62700001D01*
X91440000Y-13800000D02*
X89914999Y-15325001D01*
X89914999Y-15325001D02*
X89914999Y-59434999D01*
X91440000Y-12700000D02*
X91440000Y-13800000D01*
X74930000Y-12700000D02*
X73754999Y-13875001D01*
X110345001Y-79280001D02*
X109760001Y-79865001D01*
X110345001Y-77325001D02*
X110345001Y-79280001D01*
X73660000Y-67310000D02*
X73754999Y-67800001D01*
X109220000Y-76200000D02*
X110345001Y-77325001D01*
X73754999Y-13875001D02*
X73660000Y-67310000D01*
X90899999Y-84945001D02*
X90899999Y-82009999D01*
X109760001Y-79865001D02*
X108729999Y-79865001D01*
X75565000Y-69215000D02*
X73660000Y-67310000D01*
X103649999Y-84945001D02*
X90899999Y-84945001D01*
X90899999Y-82009999D02*
X78105000Y-69215000D01*
X108729999Y-79865001D02*
X103649999Y-84945001D01*
X78105000Y-69215000D02*
X75565000Y-69215000D01*
X108420001Y-77940001D02*
X109220000Y-78740000D01*
X105554999Y-75074999D02*
X108420001Y-77940001D01*
X95690001Y-75074999D02*
X105554999Y-75074999D01*
X94520001Y-77325001D02*
X95105001Y-76740001D01*
X95105001Y-76740001D02*
X95105001Y-75659999D01*
X93439999Y-77325001D02*
X94520001Y-77325001D01*
X74930000Y-58815002D02*
X93439999Y-77325001D01*
X95105001Y-75659999D02*
X95690001Y-75074999D01*
X74930000Y-21590000D02*
X74930000Y-58815002D01*
X191770000Y-12700000D02*
X191770000Y-22225000D01*
X207010000Y-13902081D02*
X207010000Y-21590000D01*
X207010000Y-12700000D02*
X207010000Y-13902081D01*
X201930000Y-12700000D02*
X201930000Y-21590000D01*
X167005000Y-13902081D02*
X167005000Y-22225000D01*
X167005000Y-12700000D02*
X167005000Y-13902081D01*
X161925000Y-12700000D02*
X161925000Y-22225000D01*
X192895001Y-41865001D02*
X156020002Y-78740000D01*
X192895001Y-29304999D02*
X192895001Y-41865001D01*
X192310001Y-28719999D02*
X192895001Y-29304999D01*
X191229999Y-28719999D02*
X192310001Y-28719999D01*
X169165001Y-50784997D02*
X191229999Y-28719999D01*
X169165001Y-54707001D02*
X169165001Y-50784997D01*
X164327001Y-59545001D02*
X169165001Y-54707001D01*
X150589999Y-59545001D02*
X164327001Y-59545001D01*
X156020002Y-78740000D02*
X152261370Y-78740000D01*
X150004999Y-58960001D02*
X150589999Y-59545001D01*
X150004999Y-50086510D02*
X150004999Y-58960001D01*
X176530000Y-23561509D02*
X150004999Y-50086510D01*
X152261370Y-78740000D02*
X151130000Y-78740000D01*
X176530000Y-12700000D02*
X176530000Y-23561509D01*
X104140000Y-91440000D02*
X109220000Y-86360000D01*
X88265000Y-91440000D02*
X104140000Y-91440000D01*
X150330001Y-85560001D02*
X151130000Y-86360000D01*
X150004999Y-83279999D02*
X150004999Y-85234999D01*
X150589999Y-82694999D02*
X150004999Y-83279999D01*
X151380003Y-82694999D02*
X150589999Y-82694999D01*
X152255001Y-81820001D02*
X151380003Y-82694999D01*
X152255001Y-80739999D02*
X152255001Y-81820001D01*
X150641409Y-80154999D02*
X151670001Y-80154999D01*
X151670001Y-80154999D02*
X152255001Y-80739999D01*
X148590000Y-48499998D02*
X148590000Y-78103590D01*
X147860001Y-47769999D02*
X148590000Y-48499998D01*
X148590000Y-78103590D02*
X150641409Y-80154999D01*
X146779999Y-47769999D02*
X147860001Y-47769999D01*
X150004999Y-85234999D02*
X150330001Y-85560001D01*
X146194999Y-48354999D02*
X146779999Y-47769999D01*
X146194999Y-55735001D02*
X146194999Y-48354999D01*
X143510000Y-58420000D02*
X146194999Y-55735001D01*
X147320000Y-57150000D02*
X143510000Y-60960000D01*
X147320000Y-48895000D02*
X147320000Y-57150000D01*
X95105001Y-57294999D02*
X95105001Y-54465001D01*
X93980000Y-58420000D02*
X95105001Y-57294999D01*
X95105001Y-54465001D02*
X92075000Y-51435000D01*
X92075000Y-51435000D02*
X92075000Y-51435000D01*
X82805001Y-46099999D02*
X82805001Y-15495001D01*
X81280000Y-47625000D02*
X82805001Y-46099999D01*
X82805001Y-15495001D02*
X82550000Y-15240000D01*
X82550000Y-15240000D02*
X82550000Y-15240000D01*
X146050000Y-76200000D02*
X151130000Y-81280000D01*
X143510000Y-76200000D02*
X146050000Y-76200000D01*
M02*
