G04 #@! TF.GenerationSoftware,KiCad,Pcbnew,(5.0.2)-1*
G04 #@! TF.CreationDate,2020-04-20T21:26:40+02:00*
G04 #@! TF.ProjectId,KorgPoly61_TeensyMidi,4b6f7267-506f-46c7-9936-315f5465656e,rev?*
G04 #@! TF.SameCoordinates,Original*
G04 #@! TF.FileFunction,Copper,L1,Top*
G04 #@! TF.FilePolarity,Positive*
%FSLAX46Y46*%
G04 Gerber Fmt 4.6, Leading zero omitted, Abs format (unit mm)*
G04 Created by KiCad (PCBNEW (5.0.2)-1) date 20-4-2020 21:26:40*
%MOMM*%
%LPD*%
G01*
G04 APERTURE LIST*
G04 #@! TA.AperFunction,ComponentPad*
%ADD10C,1.900000*%
G04 #@! TD*
G04 #@! TA.AperFunction,ComponentPad*
%ADD11R,1.600000X1.600000*%
G04 #@! TD*
G04 #@! TA.AperFunction,ComponentPad*
%ADD12C,1.600000*%
G04 #@! TD*
G04 #@! TA.AperFunction,ComponentPad*
%ADD13O,1.600000X1.600000*%
G04 #@! TD*
G04 #@! TA.AperFunction,ComponentPad*
%ADD14O,1.700000X1.700000*%
G04 #@! TD*
G04 #@! TA.AperFunction,ComponentPad*
%ADD15R,1.700000X1.700000*%
G04 #@! TD*
G04 #@! TA.AperFunction,ComponentPad*
%ADD16O,2.400000X2.400000*%
G04 #@! TD*
G04 #@! TA.AperFunction,ComponentPad*
%ADD17R,2.400000X2.400000*%
G04 #@! TD*
G04 #@! TA.AperFunction,ViaPad*
%ADD18C,0.800000*%
G04 #@! TD*
G04 #@! TA.AperFunction,Conductor*
%ADD19C,0.250000*%
G04 #@! TD*
G04 APERTURE END LIST*
D10*
G04 #@! TO.P,U1,52*
G04 #@! TO.N,N/C*
X89535000Y-100965000D03*
X85725000Y-100965000D03*
D11*
G04 #@! TO.P,U1,1*
G04 #@! TO.N,GND*
X95885000Y-93345000D03*
D12*
G04 #@! TO.P,U1,2*
G04 #@! TO.N,MIDI_IN*
X93345000Y-93345000D03*
G04 #@! TO.P,U1,3*
G04 #@! TO.N,MIDI_OUT*
X90805000Y-93345000D03*
G04 #@! TO.P,U1,4*
G04 #@! TO.N,A0*
X88265000Y-93345000D03*
G04 #@! TO.P,U1,5*
G04 #@! TO.N,ARP_IN*
X85725000Y-93345000D03*
G04 #@! TO.P,U1,6*
G04 #@! TO.N,ARP_OUT*
X83185000Y-93345000D03*
G04 #@! TO.P,U1,7*
G04 #@! TO.N,CN29KB_8*
X80645000Y-93345000D03*
G04 #@! TO.P,U1,8*
G04 #@! TO.N,CN29KB_5*
X78105000Y-93345000D03*
G04 #@! TO.P,U1,9*
G04 #@! TO.N,A2*
X75565000Y-93345000D03*
G04 #@! TO.P,U1,10*
G04 #@! TO.N,EO*
X73025000Y-93345000D03*
G04 #@! TO.P,U1,11*
G04 #@! TO.N,CN29_4*
X70485000Y-93345000D03*
G04 #@! TO.P,U1,12*
G04 #@! TO.N,CN29_5*
X67945000Y-93345000D03*
G04 #@! TO.P,U1,13*
G04 #@! TO.N,CN29_7*
X65405000Y-93345000D03*
G04 #@! TO.P,U1,37*
G04 #@! TO.N,N/C*
X83185000Y-106045000D03*
G04 #@! TO.P,U1,36*
X85725000Y-106045000D03*
G04 #@! TO.P,U1,35*
X88265000Y-106045000D03*
G04 #@! TO.P,U1,34*
X93345000Y-106045000D03*
G04 #@! TO.P,U1,33*
G04 #@! TO.N,+5V*
X95885000Y-108585000D03*
G04 #@! TO.P,U1,32*
G04 #@! TO.N,N/C*
X93345000Y-108585000D03*
G04 #@! TO.P,U1,31*
G04 #@! TO.N,+3V3*
X90805000Y-108585000D03*
G04 #@! TO.P,U1,30*
G04 #@! TO.N,CN29_3*
X88265000Y-108585000D03*
G04 #@! TO.P,U1,29*
G04 #@! TO.N,CN29_2*
X85725000Y-108585000D03*
G04 #@! TO.P,U1,28*
G04 #@! TO.N,CN29KB_7*
X83185000Y-108585000D03*
G04 #@! TO.P,U1,27*
G04 #@! TO.N,CN29KB_6*
X80645000Y-108585000D03*
G04 #@! TO.P,U1,26*
G04 #@! TO.N,CN29KB_3*
X78105000Y-108585000D03*
G04 #@! TO.P,U1,25*
G04 #@! TO.N,CN29KB_4*
X75565000Y-108585000D03*
G04 #@! TO.P,U1,24*
G04 #@! TO.N,CN29KB_2*
X73025000Y-108585000D03*
G04 #@! TO.P,U1,23*
G04 #@! TO.N,CN29KB_1*
X70485000Y-108585000D03*
G04 #@! TO.P,U1,22*
G04 #@! TO.N,CN29_1*
X67945000Y-108585000D03*
G04 #@! TO.P,U1,21*
G04 #@! TO.N,A1*
X65405000Y-108585000D03*
G04 #@! TO.P,U1,14*
G04 #@! TO.N,CN29_8*
X62865000Y-93345000D03*
G04 #@! TO.P,U1,15*
G04 #@! TO.N,N/C*
X62865000Y-95885000D03*
G04 #@! TO.P,U1,16*
X62865000Y-98425000D03*
G04 #@! TO.P,U1,20*
G04 #@! TO.N,CN29_6*
X62865000Y-108585000D03*
G04 #@! TO.P,U1,19*
G04 #@! TO.N,N/C*
X62865000Y-106045000D03*
G04 #@! TO.P,U1,18*
X62865000Y-103505000D03*
G04 #@! TO.P,U1,17*
X62865000Y-100965000D03*
G04 #@! TD*
D13*
G04 #@! TO.P,U3,8*
G04 #@! TO.N,+5V*
X127635000Y-125730000D03*
G04 #@! TO.P,U3,4*
G04 #@! TO.N,N/C*
X135255000Y-118110000D03*
G04 #@! TO.P,U3,7*
G04 #@! TO.N,Net-(R3-Pad2)*
X127635000Y-123190000D03*
G04 #@! TO.P,U3,3*
G04 #@! TO.N,Net-(D9-Pad2)*
X135255000Y-120650000D03*
G04 #@! TO.P,U3,6*
G04 #@! TO.N,MIDI_IN*
X127635000Y-120650000D03*
G04 #@! TO.P,U3,2*
G04 #@! TO.N,Net-(D9-Pad1)*
X135255000Y-123190000D03*
G04 #@! TO.P,U3,5*
G04 #@! TO.N,GND*
X127635000Y-118110000D03*
D11*
G04 #@! TO.P,U3,1*
G04 #@! TO.N,N/C*
X135255000Y-125730000D03*
G04 #@! TD*
D13*
G04 #@! TO.P,R7,2*
G04 #@! TO.N,Net-(J10-Pad3)*
X146380170Y-90335537D03*
D12*
G04 #@! TO.P,R7,1*
G04 #@! TO.N,Net-(R7-Pad1)*
X138760170Y-90335537D03*
G04 #@! TD*
D13*
G04 #@! TO.P,R6,2*
G04 #@! TO.N,Net-(J10-Pad1)*
X146380170Y-85255537D03*
D12*
G04 #@! TO.P,R6,1*
G04 #@! TO.N,+5V*
X138760170Y-85255537D03*
G04 #@! TD*
D13*
G04 #@! TO.P,R5,2*
G04 #@! TO.N,MIDI_OUT*
X138760170Y-103035537D03*
D12*
G04 #@! TO.P,R5,1*
G04 #@! TO.N,Net-(J9-Pad3)*
X146380170Y-103035537D03*
G04 #@! TD*
D13*
G04 #@! TO.P,R4,2*
G04 #@! TO.N,Net-(J9-Pad1)*
X146380170Y-97955537D03*
D12*
G04 #@! TO.P,R4,1*
G04 #@! TO.N,+3V3*
X138760170Y-97955537D03*
G04 #@! TD*
D13*
G04 #@! TO.P,R3,2*
G04 #@! TO.N,Net-(R3-Pad2)*
X116205000Y-125095000D03*
D12*
G04 #@! TO.P,R3,1*
G04 #@! TO.N,GND*
X116205000Y-117475000D03*
G04 #@! TD*
D13*
G04 #@! TO.P,R2,2*
G04 #@! TO.N,+3V3*
X104140000Y-104775000D03*
D12*
G04 #@! TO.P,R2,1*
G04 #@! TO.N,MIDI_IN*
X104140000Y-97155000D03*
G04 #@! TD*
D13*
G04 #@! TO.P,R1,2*
G04 #@! TO.N,Net-(J8-Pad1)*
X149860000Y-118745000D03*
D12*
G04 #@! TO.P,R1,1*
G04 #@! TO.N,Net-(D9-Pad1)*
X149860000Y-126365000D03*
G04 #@! TD*
D13*
G04 #@! TO.P,U4,14*
G04 #@! TO.N,+5V*
X120015000Y-101600000D03*
G04 #@! TO.P,U4,7*
G04 #@! TO.N,GND*
X127635000Y-86360000D03*
G04 #@! TO.P,U4,13*
G04 #@! TO.N,N/C*
X120015000Y-99060000D03*
G04 #@! TO.P,U4,6*
G04 #@! TO.N,Net-(J11-Pad1)*
X127635000Y-88900000D03*
G04 #@! TO.P,U4,12*
G04 #@! TO.N,N/C*
X120015000Y-96520000D03*
G04 #@! TO.P,U4,5*
G04 #@! TO.N,Net-(U4-Pad5)*
X127635000Y-91440000D03*
G04 #@! TO.P,U4,11*
G04 #@! TO.N,N/C*
X120015000Y-93980000D03*
G04 #@! TO.P,U4,4*
G04 #@! TO.N,Net-(U4-Pad1)*
X127635000Y-93980000D03*
G04 #@! TO.P,U4,10*
G04 #@! TO.N,N/C*
X120015000Y-91440000D03*
G04 #@! TO.P,U4,3*
G04 #@! TO.N,MIDI_IN*
X127635000Y-96520000D03*
G04 #@! TO.P,U4,9*
G04 #@! TO.N,ARP_OUT*
X120015000Y-88900000D03*
G04 #@! TO.P,U4,2*
G04 #@! TO.N,Net-(R7-Pad1)*
X127635000Y-99060000D03*
G04 #@! TO.P,U4,8*
G04 #@! TO.N,Net-(U4-Pad5)*
X120015000Y-86360000D03*
D11*
G04 #@! TO.P,U4,1*
G04 #@! TO.N,Net-(U4-Pad1)*
X127635000Y-101600000D03*
G04 #@! TD*
D13*
G04 #@! TO.P,U2,16*
G04 #@! TO.N,+5V*
X106680000Y-81915000D03*
G04 #@! TO.P,U2,8*
G04 #@! TO.N,GND*
X88900000Y-74295000D03*
G04 #@! TO.P,U2,15*
G04 #@! TO.N,EO*
X104140000Y-81915000D03*
G04 #@! TO.P,U2,7*
G04 #@! TO.N,A1*
X91440000Y-74295000D03*
G04 #@! TO.P,U2,14*
G04 #@! TO.N,N/C*
X101600000Y-81915000D03*
G04 #@! TO.P,U2,6*
G04 #@! TO.N,A2*
X93980000Y-74295000D03*
G04 #@! TO.P,U2,13*
G04 #@! TO.N,Net-(J3-Pad4)*
X99060000Y-81915000D03*
G04 #@! TO.P,U2,5*
G04 #@! TO.N,GND*
X96520000Y-74295000D03*
G04 #@! TO.P,U2,12*
G04 #@! TO.N,Net-(J3-Pad3)*
X96520000Y-81915000D03*
G04 #@! TO.P,U2,4*
G04 #@! TO.N,Net-(J3-Pad8)*
X99060000Y-74295000D03*
G04 #@! TO.P,U2,11*
G04 #@! TO.N,Net-(J3-Pad2)*
X93980000Y-81915000D03*
G04 #@! TO.P,U2,3*
G04 #@! TO.N,Net-(J3-Pad7)*
X101600000Y-74295000D03*
G04 #@! TO.P,U2,10*
G04 #@! TO.N,Net-(J3-Pad1)*
X91440000Y-81915000D03*
G04 #@! TO.P,U2,2*
G04 #@! TO.N,Net-(J3-Pad6)*
X104140000Y-74295000D03*
G04 #@! TO.P,U2,9*
G04 #@! TO.N,A0*
X88900000Y-81915000D03*
D11*
G04 #@! TO.P,U2,1*
G04 #@! TO.N,Net-(J3-Pad5)*
X106680000Y-74295000D03*
G04 #@! TD*
D14*
G04 #@! TO.P,J11,2*
G04 #@! TO.N,GND*
X155575000Y-76835000D03*
D15*
G04 #@! TO.P,J11,1*
G04 #@! TO.N,Net-(J11-Pad1)*
X155575000Y-74295000D03*
G04 #@! TD*
D14*
G04 #@! TO.P,J10,3*
G04 #@! TO.N,Net-(J10-Pad3)*
X155270170Y-90335537D03*
G04 #@! TO.P,J10,2*
G04 #@! TO.N,GND*
X155270170Y-87795537D03*
D15*
G04 #@! TO.P,J10,1*
G04 #@! TO.N,Net-(J10-Pad1)*
X155270170Y-85255537D03*
G04 #@! TD*
D14*
G04 #@! TO.P,J9,3*
G04 #@! TO.N,Net-(J9-Pad3)*
X155270170Y-103035537D03*
G04 #@! TO.P,J9,2*
G04 #@! TO.N,GND*
X155270170Y-100495537D03*
D15*
G04 #@! TO.P,J9,1*
G04 #@! TO.N,Net-(J9-Pad1)*
X155270170Y-97955537D03*
G04 #@! TD*
D14*
G04 #@! TO.P,J8,2*
G04 #@! TO.N,Net-(D9-Pad2)*
X155575000Y-110490000D03*
D15*
G04 #@! TO.P,J8,1*
G04 #@! TO.N,Net-(J8-Pad1)*
X155575000Y-113030000D03*
G04 #@! TD*
D14*
G04 #@! TO.P,J7,2*
G04 #@! TO.N,GND*
X132715000Y-133350000D03*
D15*
G04 #@! TO.P,J7,1*
G04 #@! TO.N,+5V*
X130175000Y-133350000D03*
G04 #@! TD*
D14*
G04 #@! TO.P,J6,6*
G04 #@! TO.N,Net-(J5-Pad6)*
X136525000Y-57785000D03*
G04 #@! TO.P,J6,5*
G04 #@! TO.N,ARP_IN*
X139065000Y-57785000D03*
G04 #@! TO.P,J6,4*
G04 #@! TO.N,Net-(J5-Pad4)*
X141605000Y-57785000D03*
G04 #@! TO.P,J6,3*
G04 #@! TO.N,Net-(J5-Pad3)*
X144145000Y-57785000D03*
G04 #@! TO.P,J6,2*
G04 #@! TO.N,Net-(J5-Pad2)*
X146685000Y-57785000D03*
D15*
G04 #@! TO.P,J6,1*
G04 #@! TO.N,Net-(J5-Pad1)*
X149225000Y-57785000D03*
G04 #@! TD*
D14*
G04 #@! TO.P,J5,6*
G04 #@! TO.N,Net-(J5-Pad6)*
X136525000Y-66675000D03*
G04 #@! TO.P,J5,5*
G04 #@! TO.N,ARP_OUT*
X139065000Y-66675000D03*
G04 #@! TO.P,J5,4*
G04 #@! TO.N,Net-(J5-Pad4)*
X141605000Y-66675000D03*
G04 #@! TO.P,J5,3*
G04 #@! TO.N,Net-(J5-Pad3)*
X144145000Y-66675000D03*
G04 #@! TO.P,J5,2*
G04 #@! TO.N,Net-(J5-Pad2)*
X146685000Y-66675000D03*
D15*
G04 #@! TO.P,J5,1*
G04 #@! TO.N,Net-(J5-Pad1)*
X149225000Y-66675000D03*
G04 #@! TD*
D14*
G04 #@! TO.P,J4,8*
G04 #@! TO.N,Net-(J3-Pad8)*
X127635000Y-47625000D03*
G04 #@! TO.P,J4,7*
G04 #@! TO.N,Net-(J3-Pad7)*
X125095000Y-47625000D03*
G04 #@! TO.P,J4,6*
G04 #@! TO.N,Net-(J3-Pad6)*
X122555000Y-47625000D03*
G04 #@! TO.P,J4,5*
G04 #@! TO.N,Net-(J3-Pad5)*
X120015000Y-47625000D03*
G04 #@! TO.P,J4,4*
G04 #@! TO.N,Net-(J3-Pad4)*
X117475000Y-47625000D03*
G04 #@! TO.P,J4,3*
G04 #@! TO.N,Net-(J3-Pad3)*
X114935000Y-47625000D03*
G04 #@! TO.P,J4,2*
G04 #@! TO.N,Net-(J3-Pad2)*
X112395000Y-47625000D03*
D15*
G04 #@! TO.P,J4,1*
G04 #@! TO.N,Net-(J3-Pad1)*
X109855000Y-47625000D03*
G04 #@! TD*
D14*
G04 #@! TO.P,J3,8*
G04 #@! TO.N,Net-(J3-Pad8)*
X151765000Y-47625000D03*
G04 #@! TO.P,J3,7*
G04 #@! TO.N,Net-(J3-Pad7)*
X149225000Y-47625000D03*
G04 #@! TO.P,J3,6*
G04 #@! TO.N,Net-(J3-Pad6)*
X146685000Y-47625000D03*
G04 #@! TO.P,J3,5*
G04 #@! TO.N,Net-(J3-Pad5)*
X144145000Y-47625000D03*
G04 #@! TO.P,J3,4*
G04 #@! TO.N,Net-(J3-Pad4)*
X141605000Y-47625000D03*
G04 #@! TO.P,J3,3*
G04 #@! TO.N,Net-(J3-Pad3)*
X139065000Y-47625000D03*
G04 #@! TO.P,J3,2*
G04 #@! TO.N,Net-(J3-Pad2)*
X136525000Y-47625000D03*
D15*
G04 #@! TO.P,J3,1*
G04 #@! TO.N,Net-(J3-Pad1)*
X133985000Y-47625000D03*
G04 #@! TD*
D14*
G04 #@! TO.P,J2,8*
G04 #@! TO.N,CN29KB_8*
X54610000Y-47625000D03*
G04 #@! TO.P,J2,7*
G04 #@! TO.N,CN29KB_7*
X57150000Y-47625000D03*
G04 #@! TO.P,J2,6*
G04 #@! TO.N,CN29KB_6*
X59690000Y-47625000D03*
G04 #@! TO.P,J2,5*
G04 #@! TO.N,CN29KB_5*
X62230000Y-47625000D03*
G04 #@! TO.P,J2,4*
G04 #@! TO.N,CN29KB_4*
X64770000Y-47625000D03*
G04 #@! TO.P,J2,3*
G04 #@! TO.N,CN29KB_3*
X67310000Y-47625000D03*
G04 #@! TO.P,J2,2*
G04 #@! TO.N,CN29KB_2*
X69850000Y-47625000D03*
D15*
G04 #@! TO.P,J2,1*
G04 #@! TO.N,CN29KB_1*
X72390000Y-47625000D03*
G04 #@! TD*
D14*
G04 #@! TO.P,J1,8*
G04 #@! TO.N,Net-(D8-Pad2)*
X98425000Y-47625000D03*
G04 #@! TO.P,J1,7*
G04 #@! TO.N,Net-(D7-Pad2)*
X95885000Y-47625000D03*
G04 #@! TO.P,J1,6*
G04 #@! TO.N,Net-(D6-Pad2)*
X93345000Y-47625000D03*
G04 #@! TO.P,J1,5*
G04 #@! TO.N,Net-(D5-Pad2)*
X90805000Y-47625000D03*
G04 #@! TO.P,J1,4*
G04 #@! TO.N,Net-(D4-Pad2)*
X88265000Y-47625000D03*
G04 #@! TO.P,J1,3*
G04 #@! TO.N,Net-(D3-Pad2)*
X85725000Y-47625000D03*
G04 #@! TO.P,J1,2*
G04 #@! TO.N,Net-(D2-Pad2)*
X83185000Y-47625000D03*
D15*
G04 #@! TO.P,J1,1*
G04 #@! TO.N,Net-(D1-Pad2)*
X80645000Y-47625000D03*
G04 #@! TD*
D16*
G04 #@! TO.P,D9,2*
G04 #@! TO.N,Net-(D9-Pad2)*
X143510000Y-116205000D03*
D17*
G04 #@! TO.P,D9,1*
G04 #@! TO.N,Net-(D9-Pad1)*
X143510000Y-126365000D03*
G04 #@! TD*
D16*
G04 #@! TO.P,D8,2*
G04 #@! TO.N,Net-(D8-Pad2)*
X55245000Y-74930000D03*
D17*
G04 #@! TO.P,D8,1*
G04 #@! TO.N,CN29_8*
X55245000Y-85090000D03*
G04 #@! TD*
D16*
G04 #@! TO.P,D7,2*
G04 #@! TO.N,Net-(D7-Pad2)*
X60325000Y-74930000D03*
D17*
G04 #@! TO.P,D7,1*
G04 #@! TO.N,CN29_7*
X60325000Y-85090000D03*
G04 #@! TD*
D16*
G04 #@! TO.P,D6,2*
G04 #@! TO.N,Net-(D6-Pad2)*
X60960000Y-125095000D03*
D17*
G04 #@! TO.P,D6,1*
G04 #@! TO.N,CN29_6*
X60960000Y-114935000D03*
G04 #@! TD*
D16*
G04 #@! TO.P,D5,2*
G04 #@! TO.N,Net-(D5-Pad2)*
X65405000Y-74930000D03*
D17*
G04 #@! TO.P,D5,1*
G04 #@! TO.N,CN29_5*
X65405000Y-85090000D03*
G04 #@! TD*
D16*
G04 #@! TO.P,D4,2*
G04 #@! TO.N,Net-(D4-Pad2)*
X70485000Y-74930000D03*
D17*
G04 #@! TO.P,D4,1*
G04 #@! TO.N,CN29_4*
X70485000Y-85090000D03*
G04 #@! TD*
D16*
G04 #@! TO.P,D3,2*
G04 #@! TO.N,Net-(D3-Pad2)*
X92710000Y-125095000D03*
D17*
G04 #@! TO.P,D3,1*
G04 #@! TO.N,CN29_3*
X92710000Y-114935000D03*
G04 #@! TD*
D16*
G04 #@! TO.P,D2,2*
G04 #@! TO.N,Net-(D2-Pad2)*
X85725000Y-125095000D03*
D17*
G04 #@! TO.P,D2,1*
G04 #@! TO.N,CN29_2*
X85725000Y-114935000D03*
G04 #@! TD*
D16*
G04 #@! TO.P,D1,2*
G04 #@! TO.N,Net-(D1-Pad2)*
X67945000Y-125095000D03*
D17*
G04 #@! TO.P,D1,1*
G04 #@! TO.N,CN29_1*
X67945000Y-114935000D03*
G04 #@! TD*
D12*
G04 #@! TO.P,C4,2*
G04 #@! TO.N,+5V*
X120570000Y-111125000D03*
G04 #@! TO.P,C4,1*
G04 #@! TO.N,GND*
X115570000Y-111125000D03*
G04 #@! TD*
G04 #@! TO.P,C3,2*
G04 #@! TO.N,+5V*
X135810000Y-80010000D03*
G04 #@! TO.P,C3,1*
G04 #@! TO.N,GND*
X130810000Y-80010000D03*
G04 #@! TD*
G04 #@! TO.P,C2,2*
G04 #@! TO.N,+5V*
X113030000Y-80565000D03*
G04 #@! TO.P,C2,1*
G04 #@! TO.N,GND*
X113030000Y-75565000D03*
G04 #@! TD*
G04 #@! TO.P,C1,2*
G04 #@! TO.N,GND*
X109220000Y-99140000D03*
G04 #@! TO.P,C1,1*
G04 #@! TO.N,+5V*
X109220000Y-104140000D03*
G04 #@! TD*
D18*
G04 #@! TO.N,+5V*
X109358630Y-78105000D03*
X114935000Y-76835000D03*
G04 #@! TO.N,CN29KB_8*
X78740000Y-88265000D03*
X71120000Y-51435000D03*
G04 #@! TO.N,CN29KB_7*
X51435000Y-55245000D03*
G04 #@! TO.N,CN29KB_6*
X62865000Y-69850000D03*
G04 #@! TO.N,CN29KB_5*
X75565000Y-96520000D03*
G04 #@! TO.N,EO*
X82550000Y-75565000D03*
X94524999Y-71845001D03*
X115570000Y-80010000D03*
X118745000Y-76835000D03*
X118745000Y-70485000D03*
G04 #@! TD*
D19*
G04 #@! TO.N,+5V*
X120570000Y-102155000D02*
X120015000Y-101600000D01*
X120570000Y-111125000D02*
X120570000Y-102155000D01*
X111760000Y-101600000D02*
X109220000Y-104140000D01*
X120015000Y-101600000D02*
X111760000Y-101600000D01*
X97016370Y-108585000D02*
X95885000Y-108585000D01*
X101995002Y-108585000D02*
X97016370Y-108585000D01*
X106440002Y-104140000D02*
X101995002Y-108585000D01*
X109220000Y-104140000D02*
X106440002Y-104140000D01*
X106680000Y-80783630D02*
X109358630Y-78105000D01*
X106680000Y-81915000D02*
X106680000Y-80783630D01*
X109358630Y-78105000D02*
X109358630Y-78105000D01*
X105345001Y-100265001D02*
X108420001Y-103340001D01*
X98599999Y-100265001D02*
X105345001Y-100265001D01*
X108420001Y-103340001D02*
X109220000Y-104140000D01*
X92219999Y-93885001D02*
X98599999Y-100265001D01*
X92219999Y-92804999D02*
X92219999Y-93885001D01*
X94709999Y-90314999D02*
X92219999Y-92804999D01*
X120265003Y-90314999D02*
X94709999Y-90314999D01*
X121140001Y-89440001D02*
X120265003Y-90314999D01*
X121140001Y-83040001D02*
X121140001Y-89440001D01*
X114935000Y-76835000D02*
X121140001Y-83040001D01*
G04 #@! TO.N,Net-(D1-Pad2)*
X80645000Y-46525000D02*
X78570000Y-44450000D01*
X80645000Y-47625000D02*
X80645000Y-46525000D01*
X78570000Y-44450000D02*
X50165000Y-44450000D01*
X50165000Y-44450000D02*
X50165000Y-130810000D01*
X50165000Y-130810000D02*
X52070000Y-132715000D01*
X66745001Y-126294999D02*
X67945000Y-125095000D01*
X60325000Y-132715000D02*
X66745001Y-126294999D01*
X52070000Y-132715000D02*
X60325000Y-132715000D01*
G04 #@! TO.N,CN29_1*
X67945000Y-114935000D02*
X67945000Y-109220000D01*
X67945000Y-109220000D02*
X67945000Y-108585000D01*
G04 #@! TO.N,Net-(D2-Pad2)*
X49978600Y-43999990D02*
X49530000Y-44448590D01*
X80762071Y-43999990D02*
X49978600Y-43999990D01*
X83185000Y-47625000D02*
X83185000Y-46422919D01*
X83185000Y-46422919D02*
X80762071Y-43999990D01*
X84525001Y-126294999D02*
X85725000Y-125095000D01*
X77654990Y-133165010D02*
X84525001Y-126294999D01*
X51883600Y-133165010D02*
X77654990Y-133165010D01*
X49530000Y-130811410D02*
X51883600Y-133165010D01*
X49530000Y-44448590D02*
X49530000Y-130811410D01*
G04 #@! TO.N,CN29_2*
X85725000Y-114935000D02*
X85725000Y-108585000D01*
G04 #@! TO.N,Net-(D3-Pad2)*
X49792199Y-43549981D02*
X48260000Y-45082180D01*
X85725000Y-47625000D02*
X81649981Y-43549981D01*
X81649981Y-43549981D02*
X49792199Y-43549981D01*
X91510001Y-126294999D02*
X92710000Y-125095000D01*
X84189980Y-133615020D02*
X91510001Y-126294999D01*
X51697200Y-133615020D02*
X84189980Y-133615020D01*
X48260000Y-130177820D02*
X51697200Y-133615020D01*
X48260000Y-45082180D02*
X48260000Y-130177820D01*
G04 #@! TO.N,CN29_3*
X92710000Y-113030000D02*
X88265000Y-108585000D01*
X92710000Y-114935000D02*
X92710000Y-113030000D01*
G04 #@! TO.N,Net-(D4-Pad2)*
X70485000Y-65405000D02*
X70485000Y-74930000D01*
X88265000Y-47625000D02*
X70485000Y-65405000D01*
G04 #@! TO.N,CN29_4*
X70485000Y-85090000D02*
X70485000Y-93345000D01*
G04 #@! TO.N,Net-(D5-Pad2)*
X66604999Y-76129999D02*
X65405000Y-74930000D01*
X66930001Y-76455001D02*
X66604999Y-76129999D01*
X71217001Y-76455001D02*
X66930001Y-76455001D01*
X90805000Y-56867002D02*
X71217001Y-76455001D01*
X90805000Y-47625000D02*
X90805000Y-56867002D01*
G04 #@! TO.N,CN29_5*
X65405000Y-90805000D02*
X67945000Y-93345000D01*
X65405000Y-85090000D02*
X65405000Y-90805000D01*
G04 #@! TO.N,Net-(D6-Pad2)*
X93345000Y-47625000D02*
X88265000Y-42545000D01*
X50160770Y-42545000D02*
X46990000Y-45715770D01*
X88265000Y-42545000D02*
X50160770Y-42545000D01*
X94235001Y-124362999D02*
X93442001Y-123569999D01*
X94235001Y-125827001D02*
X94235001Y-124362999D01*
X93442001Y-123569999D02*
X62485001Y-123569999D01*
X85996972Y-134065030D02*
X94235001Y-125827001D01*
X62159999Y-123895001D02*
X60960000Y-125095000D01*
X62485001Y-123569999D02*
X62159999Y-123895001D01*
X51510800Y-134065030D02*
X85996972Y-134065030D01*
X46990000Y-129544230D02*
X51510800Y-134065030D01*
X46990000Y-45715770D02*
X46990000Y-129544230D01*
G04 #@! TO.N,CN29_6*
X62865000Y-109716370D02*
X62865000Y-108585000D01*
X62865000Y-111580000D02*
X62865000Y-109716370D01*
X60960000Y-113485000D02*
X62865000Y-111580000D01*
X60960000Y-114935000D02*
X60960000Y-113485000D01*
G04 #@! TO.N,Net-(D7-Pad2)*
X59125001Y-76129999D02*
X60325000Y-74930000D01*
X52256400Y-82998600D02*
X59125001Y-76129999D01*
X52256400Y-113077790D02*
X52256400Y-82998600D01*
X93628401Y-123119989D02*
X62298600Y-123119990D01*
X94685010Y-124176598D02*
X93628401Y-123119989D01*
X94685011Y-126013401D02*
X94685010Y-124176598D01*
X86183373Y-134515039D02*
X94685011Y-126013401D01*
X51324400Y-134515040D02*
X86183373Y-134515039D01*
X46539991Y-129730631D02*
X51324400Y-134515040D01*
X62298600Y-123119990D02*
X52256400Y-113077790D01*
X49974369Y-42094991D02*
X46539990Y-45529370D01*
X90354991Y-42094991D02*
X49974369Y-42094991D01*
X46539990Y-45529370D02*
X46539991Y-129730631D01*
X95885000Y-47625000D02*
X90354991Y-42094991D01*
G04 #@! TO.N,CN29_7*
X60325000Y-88265000D02*
X65405000Y-93345000D01*
X60325000Y-85090000D02*
X60325000Y-88265000D01*
G04 #@! TO.N,Net-(D8-Pad2)*
X64956400Y-65218600D02*
X56444999Y-73730001D01*
X70034990Y-65218600D02*
X64956400Y-65218600D01*
X87089999Y-48163591D02*
X70034990Y-65218600D01*
X87700999Y-46449999D02*
X87089999Y-47060999D01*
X88829001Y-46449999D02*
X87700999Y-46449999D01*
X89629999Y-47250997D02*
X88829001Y-46449999D01*
X89629999Y-47060999D02*
X89629999Y-47250997D01*
X90240999Y-46449999D02*
X89629999Y-47060999D01*
X56444999Y-73730001D02*
X55245000Y-74930000D01*
X91369001Y-46449999D02*
X90240999Y-46449999D01*
X87089999Y-47060999D02*
X87089999Y-48163591D01*
X91980001Y-47060999D02*
X91369001Y-46449999D01*
X91980001Y-48189001D02*
X91980001Y-47060999D01*
X92591001Y-48800001D02*
X91980001Y-48189001D01*
X97249999Y-48800001D02*
X92591001Y-48800001D01*
X98425000Y-47625000D02*
X97249999Y-48800001D01*
G04 #@! TO.N,CN29_8*
X62050000Y-93345000D02*
X62865000Y-93345000D01*
X55245000Y-86540000D02*
X62050000Y-93345000D01*
X55245000Y-85090000D02*
X55245000Y-86540000D01*
G04 #@! TO.N,CN29KB_8*
X80645000Y-93345000D02*
X80645000Y-90170000D01*
X80645000Y-90170000D02*
X78740000Y-88265000D01*
X78740000Y-88265000D02*
X78740000Y-88265000D01*
X62959999Y-46449999D02*
X55785001Y-46449999D01*
X55785001Y-46449999D02*
X55459999Y-46775001D01*
X63594999Y-47084999D02*
X62959999Y-46449999D01*
X63594999Y-48189001D02*
X63594999Y-47084999D01*
X55459999Y-46775001D02*
X54610000Y-47625000D01*
X66840998Y-51435000D02*
X63594999Y-48189001D01*
X71120000Y-51435000D02*
X66840998Y-51435000D01*
G04 #@! TO.N,CN29KB_7*
X51435000Y-55245000D02*
X55880000Y-55245000D01*
X57150000Y-53975000D02*
X57150000Y-47625000D01*
X55880000Y-55245000D02*
X57150000Y-53975000D01*
G04 #@! TO.N,CN29KB_6*
X81770001Y-107459999D02*
X81770001Y-86850001D01*
X80645000Y-108585000D02*
X81770001Y-107459999D01*
X65123009Y-76905011D02*
X62865000Y-74647002D01*
X92565001Y-76055001D02*
X92565001Y-73754999D01*
X92565001Y-73754999D02*
X91980001Y-73169999D01*
X91980001Y-73169999D02*
X75138413Y-73169999D01*
X75138413Y-73169999D02*
X71403401Y-76905011D01*
X81770001Y-86850001D02*
X92565001Y-76055001D01*
X71403401Y-76905011D02*
X65123009Y-76905011D01*
X62865000Y-74647002D02*
X62865000Y-69850000D01*
X62865000Y-69850000D02*
X62865000Y-69850000D01*
G04 #@! TO.N,CN29KB_5*
X69359999Y-93094997D02*
X69359999Y-95394999D01*
X67310000Y-91044998D02*
X69359999Y-93094997D01*
X67310000Y-79728412D02*
X67310000Y-91044998D01*
X60986587Y-73404999D02*
X67310000Y-79728412D01*
X59027003Y-73404999D02*
X60986587Y-73404999D01*
X62230000Y-65687998D02*
X53719999Y-74197999D01*
X62230000Y-47625000D02*
X62230000Y-65687998D01*
X53719999Y-74197999D02*
X53719999Y-75662001D01*
X53719999Y-75662001D02*
X54512999Y-76455001D01*
X54512999Y-76455001D02*
X55977001Y-76455001D01*
X55977001Y-76455001D02*
X59027003Y-73404999D01*
X69359999Y-95394999D02*
X70485000Y-96520000D01*
X70485000Y-96520000D02*
X75565000Y-96520000D01*
X75565000Y-96520000D02*
X75565000Y-96520000D01*
G04 #@! TO.N,Net-(J3-Pad4)*
X99859999Y-82714999D02*
X99060000Y-81915000D01*
X100185001Y-83040001D02*
X99859999Y-82714999D01*
X107220001Y-83040001D02*
X100185001Y-83040001D01*
X117475000Y-72785002D02*
X107220001Y-83040001D01*
X117475000Y-47625000D02*
X117475000Y-72785002D01*
G04 #@! TO.N,Net-(J3-Pad3)*
X114085001Y-48474999D02*
X114935000Y-47625000D01*
X103014999Y-59545001D02*
X114085001Y-48474999D01*
X103014999Y-75420001D02*
X103014999Y-59545001D01*
X96520000Y-81915000D02*
X103014999Y-75420001D01*
G04 #@! TO.N,Net-(J3-Pad2)*
X94779999Y-82714999D02*
X93980000Y-81915000D01*
X95105001Y-83040001D02*
X94779999Y-82714999D01*
X97060001Y-83040001D02*
X95105001Y-83040001D01*
X97645001Y-82455001D02*
X97060001Y-83040001D01*
X97645001Y-81664997D02*
X97645001Y-82455001D01*
X105265001Y-74835001D02*
X102630002Y-77470000D01*
X105265001Y-73524997D02*
X105265001Y-74835001D01*
X116110001Y-62679997D02*
X105265001Y-73524997D01*
X101839998Y-77470000D02*
X97645001Y-81664997D01*
X116110001Y-47060999D02*
X116110001Y-62679997D01*
X102630002Y-77470000D02*
X101839998Y-77470000D01*
X115499001Y-46449999D02*
X116110001Y-47060999D01*
X113570001Y-46449999D02*
X115499001Y-46449999D01*
X112395000Y-47625000D02*
X113570001Y-46449999D01*
G04 #@! TO.N,Net-(J3-Pad1)*
X92565001Y-80789999D02*
X92239999Y-81115001D01*
X94230003Y-80789999D02*
X92565001Y-80789999D01*
X100185001Y-74835001D02*
X94230003Y-80789999D01*
X92239999Y-81115001D02*
X91440000Y-81915000D01*
X109855000Y-48725000D02*
X100185001Y-58394999D01*
X100185001Y-58394999D02*
X100185001Y-74835001D01*
X109855000Y-47625000D02*
X109855000Y-48725000D01*
G04 #@! TO.N,ARP_OUT*
X84310001Y-92219999D02*
X83984999Y-92545001D01*
X86265001Y-92219999D02*
X84310001Y-92219999D01*
X86850001Y-92804999D02*
X86265001Y-92219999D01*
X87724999Y-94470001D02*
X86850001Y-93595003D01*
X88805001Y-94470001D02*
X87724999Y-94470001D01*
X89390001Y-93885001D02*
X88805001Y-94470001D01*
X86850001Y-93595003D02*
X86850001Y-92804999D01*
X89390001Y-92804999D02*
X89390001Y-93885001D01*
X93295000Y-88900000D02*
X89390001Y-92804999D01*
X83984999Y-92545001D02*
X83185000Y-93345000D01*
X120015000Y-88900000D02*
X93295000Y-88900000D01*
G04 #@! TO.N,+3V3*
X91604999Y-107785001D02*
X90805000Y-108585000D01*
X92219999Y-107170001D02*
X91604999Y-107785001D01*
X101744999Y-107170001D02*
X92219999Y-107170001D01*
X104140000Y-104775000D02*
X101744999Y-107170001D01*
G04 #@! TO.N,MIDI_IN*
X128434999Y-97319999D02*
X127635000Y-96520000D01*
X128760001Y-97645001D02*
X128434999Y-97319999D01*
X128760001Y-119524999D02*
X128760001Y-97645001D01*
X127635000Y-120650000D02*
X128760001Y-119524999D01*
X104939999Y-96355001D02*
X104140000Y-97155000D01*
X106045000Y-95250000D02*
X104939999Y-96355001D01*
X126365000Y-95250000D02*
X106045000Y-95250000D01*
X127635000Y-96520000D02*
X126365000Y-95250000D01*
X97155000Y-97155000D02*
X93345000Y-93345000D01*
X104140000Y-97155000D02*
X97155000Y-97155000D01*
G04 #@! TO.N,A0*
X88900000Y-92710000D02*
X88265000Y-93345000D01*
X88900000Y-81915000D02*
X88900000Y-92710000D01*
G04 #@! TO.N,EO*
X73025000Y-93345000D02*
X73025000Y-85090000D01*
X73025000Y-85090000D02*
X82550000Y-75565000D01*
X82550000Y-75565000D02*
X82550000Y-75565000D01*
X90314999Y-81374999D02*
X90314999Y-84599999D01*
X95250000Y-76439998D02*
X90314999Y-81374999D01*
X94524999Y-71845001D02*
X95250000Y-72570002D01*
X95250000Y-72570002D02*
X95250000Y-76439998D01*
X90314999Y-84599999D02*
X114155001Y-84599999D01*
X114155001Y-84599999D02*
X115570000Y-83185000D01*
X115570000Y-83185000D02*
X115570000Y-80010000D01*
X115570000Y-80010000D02*
X115570000Y-80010000D01*
X118745000Y-76835000D02*
X118745000Y-70485000D01*
X118745000Y-70485000D02*
X118745000Y-70485000D01*
G04 #@! TO.N,A1*
X66204999Y-107785001D02*
X65405000Y-108585000D01*
X76690001Y-97299999D02*
X66204999Y-107785001D01*
X76690001Y-89044999D02*
X76690001Y-97299999D01*
X91440000Y-74295000D02*
X76690001Y-89044999D01*
G04 #@! TO.N,Net-(U4-Pad1)*
X127635000Y-102650000D02*
X127635000Y-101600000D01*
X126509999Y-103775001D02*
X127635000Y-102650000D01*
X126509999Y-121190001D02*
X126509999Y-103775001D01*
X127094999Y-121775001D02*
X126509999Y-121190001D01*
X128175001Y-121775001D02*
X127094999Y-121775001D01*
X129210011Y-120739991D02*
X128175001Y-121775001D01*
X129210011Y-95555011D02*
X129210011Y-120739991D01*
X127635000Y-93980000D02*
X129210011Y-95555011D01*
G04 #@! TD*
M02*
