G04 #@! TF.GenerationSoftware,KiCad,Pcbnew,(5.1.5)-3*
G04 #@! TF.CreationDate,2020-04-18T11:13:35+02:00*
G04 #@! TF.ProjectId,KorgPoly61_TeensyMidi,4b6f7267-506f-46c7-9936-315f5465656e,rev?*
G04 #@! TF.SameCoordinates,Original*
G04 #@! TF.FileFunction,Copper,L1,Top*
G04 #@! TF.FilePolarity,Positive*
%FSLAX46Y46*%
G04 Gerber Fmt 4.6, Leading zero omitted, Abs format (unit mm)*
G04 Created by KiCad (PCBNEW (5.1.5)-3) date 2020-04-18 11:13:35*
%MOMM*%
%LPD*%
G04 APERTURE LIST*
%ADD10C,1.900000*%
%ADD11R,1.600000X1.600000*%
%ADD12C,1.600000*%
%ADD13O,1.600000X1.600000*%
%ADD14O,1.700000X1.700000*%
%ADD15R,1.700000X1.700000*%
%ADD16O,2.400000X2.400000*%
%ADD17R,2.400000X2.400000*%
%ADD18C,0.800000*%
%ADD19C,0.250000*%
G04 APERTURE END LIST*
D10*
X101600000Y-82550000D03*
X101600000Y-78740000D03*
D11*
X109220000Y-88900000D03*
D12*
X109220000Y-86360000D03*
X109220000Y-83820000D03*
X109220000Y-81280000D03*
X109220000Y-78740000D03*
X109220000Y-76200000D03*
X109220000Y-73660000D03*
X109220000Y-71120000D03*
X109220000Y-68580000D03*
X109220000Y-66040000D03*
X109220000Y-63500000D03*
X109220000Y-60960000D03*
X109220000Y-58420000D03*
X96520000Y-76200000D03*
X96520000Y-78740000D03*
X96520000Y-81280000D03*
X96520000Y-86360000D03*
X93980000Y-88900000D03*
X93980000Y-86360000D03*
X93980000Y-83820000D03*
X93980000Y-81280000D03*
X93980000Y-78740000D03*
X93980000Y-76200000D03*
X93980000Y-73660000D03*
X93980000Y-71120000D03*
X93980000Y-68580000D03*
X93980000Y-66040000D03*
X93980000Y-63500000D03*
X93980000Y-60960000D03*
X93980000Y-58420000D03*
X109220000Y-55880000D03*
X106680000Y-55880000D03*
X104140000Y-55880000D03*
X93980000Y-55880000D03*
X96520000Y-55880000D03*
X99060000Y-55880000D03*
X101600000Y-55880000D03*
D13*
X143510000Y-63500000D03*
X151130000Y-55880000D03*
X143510000Y-60960000D03*
X151130000Y-58420000D03*
X143510000Y-58420000D03*
X151130000Y-60960000D03*
X143510000Y-55880000D03*
D11*
X151130000Y-63500000D03*
D13*
X167005000Y-22225000D03*
D12*
X167005000Y-29845000D03*
D13*
X161925000Y-22225000D03*
D12*
X161925000Y-29845000D03*
D13*
X207010000Y-29210000D03*
D12*
X207010000Y-21590000D03*
D13*
X201930000Y-21590000D03*
D12*
X201930000Y-29210000D03*
D13*
X147320000Y-48895000D03*
D12*
X154940000Y-48895000D03*
D13*
X88265000Y-83820000D03*
D12*
X88265000Y-91440000D03*
D13*
X191770000Y-22225000D03*
D12*
X191770000Y-29845000D03*
D13*
X143510000Y-91440000D03*
X151130000Y-76200000D03*
X143510000Y-88900000D03*
X151130000Y-78740000D03*
X143510000Y-86360000D03*
X151130000Y-81280000D03*
X143510000Y-83820000D03*
X151130000Y-83820000D03*
X143510000Y-81280000D03*
X151130000Y-86360000D03*
X143510000Y-78740000D03*
X151130000Y-88900000D03*
X143510000Y-76200000D03*
D11*
X151130000Y-91440000D03*
D13*
X133350000Y-33020000D03*
X151130000Y-40640000D03*
X135890000Y-33020000D03*
X148590000Y-40640000D03*
X138430000Y-33020000D03*
X146050000Y-40640000D03*
X140970000Y-33020000D03*
X143510000Y-40640000D03*
X143510000Y-33020000D03*
X140970000Y-40640000D03*
X146050000Y-33020000D03*
X138430000Y-40640000D03*
X148590000Y-33020000D03*
X135890000Y-40640000D03*
X151130000Y-33020000D03*
D11*
X133350000Y-40640000D03*
D14*
X179070000Y-12700000D03*
D15*
X176530000Y-12700000D03*
D14*
X167005000Y-12700000D03*
X164465000Y-12700000D03*
D15*
X161925000Y-12700000D03*
D14*
X207010000Y-12700000D03*
X204470000Y-12700000D03*
D15*
X201930000Y-12700000D03*
D14*
X189230000Y-12700000D03*
D15*
X191770000Y-12700000D03*
D14*
X71120000Y-96520000D03*
D15*
X68580000Y-96520000D03*
D14*
X77470000Y-21590000D03*
X74930000Y-21590000D03*
X72390000Y-21590000D03*
X69850000Y-21590000D03*
X67310000Y-21590000D03*
D15*
X64770000Y-21590000D03*
D14*
X77470000Y-12700000D03*
X74930000Y-12700000D03*
X72390000Y-12700000D03*
X69850000Y-12700000D03*
X67310000Y-12700000D03*
D15*
X64770000Y-12700000D03*
D14*
X140970000Y-12700000D03*
X138430000Y-12700000D03*
X135890000Y-12700000D03*
X133350000Y-12700000D03*
X130810000Y-12700000D03*
X128270000Y-12700000D03*
X125730000Y-12700000D03*
D15*
X123190000Y-12700000D03*
D14*
X140970000Y-21590000D03*
X138430000Y-21590000D03*
X135890000Y-21590000D03*
X133350000Y-21590000D03*
X130810000Y-21590000D03*
X128270000Y-21590000D03*
X125730000Y-21590000D03*
D15*
X123190000Y-21590000D03*
D14*
X109220000Y-12700000D03*
X106680000Y-12700000D03*
X104140000Y-12700000D03*
X101600000Y-12700000D03*
X99060000Y-12700000D03*
X96520000Y-12700000D03*
X93980000Y-12700000D03*
D15*
X91440000Y-12700000D03*
D14*
X109220000Y-21590000D03*
X106680000Y-21590000D03*
X104140000Y-21590000D03*
X101600000Y-21590000D03*
X99060000Y-21590000D03*
X96520000Y-21590000D03*
X93980000Y-21590000D03*
D15*
X91440000Y-21590000D03*
D16*
X167640000Y-53975000D03*
D17*
X167640000Y-64135000D03*
D16*
X116840000Y-30480000D03*
D17*
X116840000Y-40640000D03*
D16*
X111760000Y-30480000D03*
D17*
X111760000Y-40640000D03*
D16*
X106680000Y-30480000D03*
D17*
X106680000Y-40640000D03*
D16*
X101600000Y-30480000D03*
D17*
X101600000Y-40640000D03*
D16*
X96520000Y-30480000D03*
D17*
X96520000Y-40640000D03*
D16*
X91440000Y-30480000D03*
D17*
X91440000Y-40640000D03*
D16*
X86360000Y-30480000D03*
D17*
X86360000Y-40640000D03*
D16*
X81280000Y-30480000D03*
D17*
X81280000Y-40640000D03*
D12*
X144860000Y-97155000D03*
X149860000Y-97155000D03*
X138430000Y-62785000D03*
X138430000Y-57785000D03*
X128270000Y-34370000D03*
X128270000Y-39370000D03*
X104060000Y-96520000D03*
X99060000Y-96520000D03*
D18*
X147320000Y-85090000D03*
X154940000Y-57150000D03*
X154940000Y-57150000D03*
X142384999Y-69994999D03*
X92075000Y-51435000D03*
X81280000Y-47625000D03*
X82550000Y-15240000D03*
D19*
X109220000Y-91360000D02*
X104060000Y-96520000D01*
X109220000Y-88900000D02*
X109220000Y-91360000D01*
X104859999Y-95720001D02*
X104060000Y-96520000D01*
X145090003Y-95720001D02*
X104859999Y-95720001D01*
X146525002Y-97155000D02*
X145090003Y-95720001D01*
X149860000Y-97155000D02*
X146525002Y-97155000D01*
X150004999Y-77325001D02*
X150004999Y-82405001D01*
X151130000Y-76200000D02*
X150004999Y-77325001D01*
X150004999Y-82405001D02*
X147320000Y-85090000D01*
X147320000Y-85090000D02*
X147320000Y-85090000D01*
X155339999Y-91675001D02*
X150659999Y-96355001D01*
X150659999Y-96355001D02*
X149860000Y-97155000D01*
X155339999Y-57549999D02*
X155339999Y-91675001D01*
X154940000Y-57150000D02*
X155339999Y-57549999D01*
X95111370Y-88900000D02*
X99060000Y-92848630D01*
X99060000Y-92848630D02*
X99060000Y-95388630D01*
X93980000Y-88900000D02*
X95111370Y-88900000D01*
X99060000Y-95388630D02*
X99060000Y-96520000D01*
X142384999Y-64625001D02*
X143510000Y-63500000D01*
X142384999Y-69994999D02*
X142384999Y-64625001D01*
X90170000Y-21590000D02*
X81280000Y-30480000D01*
X91440000Y-21590000D02*
X90170000Y-21590000D01*
X92854999Y-59834999D02*
X93180001Y-60160001D01*
X93439999Y-57294999D02*
X92854999Y-57879999D01*
X94520001Y-57294999D02*
X93439999Y-57294999D01*
X95105001Y-56709999D02*
X94520001Y-57294999D01*
X93180001Y-60160001D02*
X93980000Y-60960000D01*
X95105001Y-53015001D02*
X95105001Y-56709999D01*
X82730000Y-40640000D02*
X95105001Y-53015001D01*
X92854999Y-57879999D02*
X92854999Y-59834999D01*
X81280000Y-40640000D02*
X82730000Y-40640000D01*
X93980000Y-22860000D02*
X86360000Y-30480000D01*
X93980000Y-21590000D02*
X93980000Y-22860000D01*
X93180001Y-77940001D02*
X93980000Y-78740000D01*
X92854999Y-65499999D02*
X92854999Y-77614999D01*
X93439999Y-64914999D02*
X92854999Y-65499999D01*
X92854999Y-77614999D02*
X93180001Y-77940001D01*
X94230003Y-64914999D02*
X93439999Y-64914999D01*
X97645001Y-61500001D02*
X94230003Y-64914999D01*
X97645001Y-50475001D02*
X97645001Y-61500001D01*
X87810000Y-40640000D02*
X97645001Y-50475001D01*
X86360000Y-40640000D02*
X87810000Y-40640000D01*
X96520000Y-25400000D02*
X91440000Y-30480000D01*
X96520000Y-21590000D02*
X96520000Y-25400000D01*
X93180001Y-80480001D02*
X93980000Y-81280000D01*
X79754999Y-67054999D02*
X93180001Y-80480001D01*
X79819999Y-39114999D02*
X79754999Y-39179999D01*
X91364999Y-39114999D02*
X79819999Y-39114999D01*
X91440000Y-39190000D02*
X91364999Y-39114999D01*
X79754999Y-39179999D02*
X79754999Y-67054999D01*
X91440000Y-40640000D02*
X91440000Y-39190000D01*
X99060000Y-27940000D02*
X96520000Y-30480000D01*
X99060000Y-21590000D02*
X99060000Y-27940000D01*
X108094999Y-53880001D02*
X108094999Y-62374999D01*
X108205001Y-53769999D02*
X108094999Y-53880001D01*
X108420001Y-62700001D02*
X109220000Y-63500000D01*
X108205001Y-39179999D02*
X108205001Y-53769999D01*
X108094999Y-62374999D02*
X108420001Y-62700001D01*
X108140001Y-39114999D02*
X108205001Y-39179999D01*
X105154999Y-39179999D02*
X105219999Y-39114999D01*
X105154999Y-42100001D02*
X105154999Y-39179999D01*
X100965000Y-43635000D02*
X103620000Y-43635000D01*
X103620000Y-43635000D02*
X105154999Y-42100001D01*
X97970000Y-40640000D02*
X100965000Y-43635000D01*
X105219999Y-39114999D02*
X108140001Y-39114999D01*
X96520000Y-40640000D02*
X97970000Y-40640000D01*
X101600000Y-21590000D02*
X101600000Y-30480000D01*
X110019999Y-60160001D02*
X109220000Y-60960000D01*
X118365001Y-51814999D02*
X110019999Y-60160001D01*
X118365001Y-39179999D02*
X118365001Y-51814999D01*
X117849991Y-38664989D02*
X118365001Y-39179999D01*
X102125011Y-38664989D02*
X117849991Y-38664989D01*
X101600000Y-39190000D02*
X102125011Y-38664989D01*
X101600000Y-40640000D02*
X101600000Y-39190000D01*
X104140000Y-27940000D02*
X106680000Y-30480000D01*
X104140000Y-21590000D02*
X104140000Y-27940000D01*
X92404990Y-61049992D02*
X92404990Y-57455010D01*
X93729997Y-62374999D02*
X92404990Y-61049992D01*
X93180001Y-56679999D02*
X93980000Y-55880000D01*
X93439999Y-62374999D02*
X93729997Y-62374999D01*
X92404989Y-63410009D02*
X93439999Y-62374999D01*
X92404989Y-78829991D02*
X92404989Y-63410009D01*
X93439999Y-79865001D02*
X92404989Y-78829991D01*
X95105001Y-79280001D02*
X94520001Y-79865001D01*
X95105001Y-64676411D02*
X95105001Y-79280001D01*
X92404990Y-57455010D02*
X93180001Y-56679999D01*
X100185001Y-59596411D02*
X95105001Y-64676411D01*
X100185001Y-48584999D02*
X100185001Y-59596411D01*
X106680000Y-42090000D02*
X100185001Y-48584999D01*
X94520001Y-79865001D02*
X93439999Y-79865001D01*
X106680000Y-40640000D02*
X106680000Y-42090000D01*
X106680000Y-25400000D02*
X111760000Y-30480000D01*
X106680000Y-21590000D02*
X106680000Y-25400000D01*
X109220000Y-22860000D02*
X116840000Y-30480000D01*
X109220000Y-21590000D02*
X109220000Y-22860000D01*
X140970000Y-12700000D02*
X140970000Y-21590000D01*
X140170001Y-39840001D02*
X140970000Y-40640000D01*
X139844999Y-39514999D02*
X140170001Y-39840001D01*
X139844999Y-22715001D02*
X139844999Y-39514999D01*
X140970000Y-21590000D02*
X139844999Y-22715001D01*
X138430000Y-12700000D02*
X138430000Y-21590000D01*
X137630001Y-39840001D02*
X138430000Y-40640000D01*
X137304999Y-39514999D02*
X137630001Y-39840001D01*
X137304999Y-22715001D02*
X137304999Y-39514999D01*
X138430000Y-21590000D02*
X137304999Y-22715001D01*
X135890000Y-12700000D02*
X135890000Y-21590000D01*
X135090001Y-39840001D02*
X135890000Y-40640000D01*
X134764999Y-22715001D02*
X134764999Y-39514999D01*
X134764999Y-39514999D02*
X135090001Y-39840001D01*
X135890000Y-21590000D02*
X134764999Y-22715001D01*
X133350000Y-12700000D02*
X133350000Y-21590000D01*
X133350000Y-21590000D02*
X133350000Y-31894999D01*
X132224999Y-32479999D02*
X132224999Y-40564999D01*
X132809999Y-31894999D02*
X132224999Y-32479999D01*
X132300000Y-40640000D02*
X133350000Y-40640000D01*
X132224999Y-40564999D02*
X132300000Y-40640000D01*
X133350000Y-31894999D02*
X132809999Y-31894999D01*
X130810000Y-12700000D02*
X130810000Y-21590000D01*
X142145001Y-12135999D02*
X142145001Y-31844999D01*
X141534001Y-11524999D02*
X142145001Y-12135999D01*
X140405999Y-11524999D02*
X141534001Y-11524999D01*
X139616296Y-12314702D02*
X140405999Y-11524999D01*
X142145001Y-31844999D02*
X141769999Y-32220001D01*
X138994001Y-11524999D02*
X139616296Y-12147294D01*
X141769999Y-32220001D02*
X140970000Y-33020000D01*
X132785999Y-11524999D02*
X138994001Y-11524999D01*
X130810000Y-13500998D02*
X132785999Y-11524999D01*
X139616296Y-12147294D02*
X139616296Y-12314702D01*
X130810000Y-21590000D02*
X130810000Y-13500998D01*
X128270000Y-12700000D02*
X128270000Y-21590000D01*
X143510000Y-31888630D02*
X143510000Y-33020000D01*
X143510000Y-12864588D02*
X143510000Y-31888630D01*
X141720402Y-11074990D02*
X143510000Y-12864588D01*
X130696008Y-11074990D02*
X141720402Y-11074990D01*
X128270000Y-13500998D02*
X130696008Y-11074990D01*
X128270000Y-21590000D02*
X128270000Y-13500998D01*
X125730000Y-12700000D02*
X125730000Y-21590000D01*
X146050000Y-14768178D02*
X146050000Y-31888630D01*
X146050000Y-31888630D02*
X146050000Y-33020000D01*
X141906803Y-10624981D02*
X146050000Y-14768178D01*
X128606017Y-10624981D02*
X141906803Y-10624981D01*
X125730000Y-13500998D02*
X128606017Y-10624981D01*
X125730000Y-21590000D02*
X125730000Y-13500998D01*
X123190000Y-12700000D02*
X123190000Y-21590000D01*
X148590000Y-31888630D02*
X148590000Y-33020000D01*
X148590000Y-16671768D02*
X148590000Y-31888630D01*
X126516026Y-10174972D02*
X142093204Y-10174972D01*
X123190000Y-13500998D02*
X126516026Y-10174972D01*
X142093204Y-10174972D02*
X148590000Y-16671768D01*
X123190000Y-21590000D02*
X123190000Y-13500998D01*
X77470000Y-12700000D02*
X77470000Y-21590000D01*
X108094999Y-77325001D02*
X108420001Y-76999999D01*
X108094999Y-81820001D02*
X108094999Y-77325001D01*
X108420001Y-76999999D02*
X109220000Y-76200000D01*
X108679999Y-82405001D02*
X108094999Y-81820001D01*
X138713629Y-82405001D02*
X108679999Y-82405001D01*
X142378630Y-78740000D02*
X138713629Y-82405001D01*
X143510000Y-78740000D02*
X142378630Y-78740000D01*
X72390000Y-12700000D02*
X72390000Y-21590000D01*
X69850000Y-12700000D02*
X69850000Y-21590000D01*
X67310000Y-12700000D02*
X67310000Y-21590000D01*
X64770000Y-12700000D02*
X64770000Y-21590000D01*
X93980000Y-83820000D02*
X88265000Y-83820000D01*
X95111370Y-83820000D02*
X93980000Y-83820000D01*
X97645001Y-85819999D02*
X95645002Y-83820000D01*
X97645001Y-86900001D02*
X97645001Y-85819999D01*
X93729997Y-87485001D02*
X97060001Y-87485001D01*
X92854999Y-91980001D02*
X92854999Y-88359999D01*
X97060001Y-87485001D02*
X97645001Y-86900001D01*
X99154999Y-98280001D02*
X92854999Y-91980001D01*
X150400001Y-98280001D02*
X99154999Y-98280001D01*
X92854999Y-88359999D02*
X93729997Y-87485001D01*
X208135001Y-40545001D02*
X150400001Y-98280001D01*
X95645002Y-83820000D02*
X95111370Y-83820000D01*
X208135001Y-28669999D02*
X208135001Y-40545001D01*
X207550001Y-28084999D02*
X208135001Y-28669999D01*
X203055001Y-28084999D02*
X207550001Y-28084999D01*
X201930000Y-29210000D02*
X203055001Y-28084999D01*
X150330001Y-87159999D02*
X151130000Y-86360000D01*
X150004999Y-87485001D02*
X150330001Y-87159999D01*
X110345001Y-87485001D02*
X150004999Y-87485001D01*
X109220000Y-86360000D02*
X110345001Y-87485001D01*
X144050001Y-84945001D02*
X110345001Y-84945001D01*
X148445001Y-46739997D02*
X148445001Y-80550001D01*
X166464999Y-28719999D02*
X148445001Y-46739997D01*
X169795003Y-30970001D02*
X167545001Y-28719999D01*
X204118629Y-30970001D02*
X169795003Y-30970001D01*
X148445001Y-80550001D02*
X144050001Y-84945001D01*
X205878630Y-29210000D02*
X204118629Y-30970001D01*
X110019999Y-84619999D02*
X109220000Y-83820000D01*
X110345001Y-84945001D02*
X110019999Y-84619999D01*
X167545001Y-28719999D02*
X166464999Y-28719999D01*
X207010000Y-29210000D02*
X205878630Y-29210000D01*
X152255001Y-53245001D02*
X152255001Y-87774999D01*
X167005000Y-38495002D02*
X152255001Y-53245001D01*
X151929999Y-88100001D02*
X151130000Y-88900000D01*
X152255001Y-87774999D02*
X151929999Y-88100001D01*
X167005000Y-29845000D02*
X167005000Y-38495002D01*
X110351370Y-81280000D02*
X109220000Y-81280000D01*
X149715001Y-35566369D02*
X149715001Y-41916369D01*
X149715001Y-41916369D02*
X110351370Y-81280000D01*
X151130000Y-34151370D02*
X149715001Y-35566369D01*
X151130000Y-33020000D02*
X151130000Y-34151370D01*
X118110000Y-68580000D02*
X109220000Y-68580000D01*
X146050000Y-40640000D02*
X118110000Y-68580000D01*
X110351370Y-66040000D02*
X109220000Y-66040000D01*
X112155002Y-66040000D02*
X110351370Y-66040000D01*
X137015001Y-41180001D02*
X112155002Y-66040000D01*
X137015001Y-40099999D02*
X137015001Y-41180001D01*
X135890000Y-38974998D02*
X137015001Y-40099999D01*
X135890000Y-33020000D02*
X135890000Y-38974998D01*
X92075000Y-51435000D02*
X88265000Y-47625000D01*
X88265000Y-47625000D02*
X81280000Y-47625000D01*
X81280000Y-47625000D02*
X81280000Y-47625000D01*
X147790001Y-39840001D02*
X148590000Y-40640000D01*
X147464999Y-39514999D02*
X147790001Y-39840001D01*
X145509999Y-39514999D02*
X147464999Y-39514999D01*
X144924999Y-40099999D02*
X145509999Y-39514999D01*
X144924999Y-41128591D02*
X144924999Y-40099999D01*
X118888589Y-67165001D02*
X144924999Y-41128591D01*
X108094999Y-65499999D02*
X108094999Y-66580001D01*
X108094999Y-66580001D02*
X108679999Y-67165001D01*
X108679999Y-64914999D02*
X108094999Y-65499999D01*
X109760001Y-64914999D02*
X108679999Y-64914999D01*
X127144999Y-47530001D02*
X109760001Y-64914999D01*
X127144999Y-37775997D02*
X127144999Y-47530001D01*
X104609002Y-15240000D02*
X127144999Y-37775997D01*
X108679999Y-67165001D02*
X118888589Y-67165001D01*
X82550000Y-15240000D02*
X104609002Y-15240000D01*
M02*
