M48
;DRILL file {KiCad (5.0.2)-1} date 20-4-2020 21:26:47
;FORMAT={-:-/ absolute / inch / decimal}
FMAT,2
INCH,TZ
T1C0.0157
T2C0.0197
T3C0.0315
T4C0.0394
T5C0.0433
T6C0.0472
%
G90
G05
T1
X2.025Y-2.175
X2.475Y-2.75
X2.8Y-2.025
X2.975Y-3.8
X3.1Y-3.475
X3.25Y-2.975
X3.7215Y-2.8285
X4.3055Y-3.075
X4.525Y-3.025
X4.55Y-3.15
X4.675Y-2.775
X4.675Y-3.025
T2
X3.375Y-3.975
X3.525Y-3.975
T3
X5.15Y-3.15
X5.3469Y-3.15
X4.575Y-4.625
X4.575Y-4.925
X5.025Y-4.65
X5.025Y-4.75
X5.025Y-4.85
X5.025Y-4.95
X5.325Y-4.65
X5.325Y-4.75
X5.325Y-4.85
X5.325Y-4.95
X4.55Y-4.375
X4.7469Y-4.375
X5.463Y-4.0565
X5.763Y-4.0565
X3.5Y-2.925
X3.5Y-3.225
X3.6Y-2.925
X3.6Y-3.225
X3.7Y-2.925
X3.7Y-3.225
X3.8Y-2.925
X3.8Y-3.225
X3.9Y-2.925
X3.9Y-3.225
X4.Y-2.925
X4.Y-3.225
X4.1Y-2.925
X4.1Y-3.225
X4.2Y-2.925
X4.2Y-3.225
X5.463Y-3.5565
X5.763Y-3.5565
X5.463Y-3.3565
X5.763Y-3.3565
X4.1Y-3.825
X4.1Y-4.125
X5.9Y-4.675
X5.9Y-4.975
X4.45Y-2.975
X4.45Y-3.1719
X4.725Y-3.4
X4.725Y-3.5
X4.725Y-3.6
X4.725Y-3.7
X4.725Y-3.8
X4.725Y-3.9
X4.725Y-4.
X5.025Y-3.4
X5.025Y-3.5
X5.025Y-3.6
X5.025Y-3.7
X5.025Y-3.8
X5.025Y-3.9
X5.025Y-4.
X4.3Y-3.9031
X4.3Y-4.1
X5.463Y-3.8565
X5.763Y-3.8565
T4
X5.125Y-5.25
X5.225Y-5.25
X5.375Y-2.275
X5.475Y-2.275
X5.575Y-2.275
X5.675Y-2.275
X5.775Y-2.275
X5.875Y-2.275
X2.15Y-1.875
X2.25Y-1.875
X2.35Y-1.875
X2.45Y-1.875
X2.55Y-1.875
X2.65Y-1.875
X2.75Y-1.875
X2.85Y-1.875
X3.175Y-1.875
X3.275Y-1.875
X3.375Y-1.875
X3.475Y-1.875
X3.575Y-1.875
X3.675Y-1.875
X3.775Y-1.875
X3.875Y-1.875
X4.325Y-1.875
X4.425Y-1.875
X4.525Y-1.875
X4.625Y-1.875
X4.725Y-1.875
X4.825Y-1.875
X4.925Y-1.875
X5.025Y-1.875
X5.275Y-1.875
X5.375Y-1.875
X5.475Y-1.875
X5.575Y-1.875
X5.675Y-1.875
X5.775Y-1.875
X5.875Y-1.875
X5.975Y-1.875
X6.113Y-3.8565
X6.113Y-3.9565
X6.113Y-4.0565
X5.375Y-2.625
X5.475Y-2.625
X5.575Y-2.625
X5.675Y-2.625
X5.775Y-2.625
X5.875Y-2.625
X6.125Y-4.35
X6.125Y-4.45
X6.125Y-2.925
X6.125Y-3.025
X6.113Y-3.3565
X6.113Y-3.4565
X6.113Y-3.5565
T5
X2.475Y-3.675
X2.475Y-3.775
X2.475Y-3.875
X2.475Y-3.975
X2.475Y-4.075
X2.475Y-4.175
X2.475Y-4.275
X2.575Y-3.675
X2.575Y-4.275
X2.675Y-3.675
X2.675Y-4.275
X2.775Y-3.675
X2.775Y-4.275
X2.875Y-3.675
X2.875Y-4.275
X2.975Y-3.675
X2.975Y-4.275
X3.075Y-3.675
X3.075Y-4.275
X3.175Y-3.675
X3.175Y-4.275
X3.275Y-3.675
X3.275Y-4.175
X3.275Y-4.275
X3.375Y-3.675
X3.375Y-4.175
X3.375Y-4.275
X3.475Y-3.675
X3.475Y-4.175
X3.475Y-4.275
X3.575Y-3.675
X3.575Y-4.275
X3.675Y-3.675
X3.675Y-4.175
X3.675Y-4.275
X3.775Y-3.675
X3.775Y-4.275
T6
X3.65Y-4.525
X3.65Y-4.925
X2.575Y-2.95
X2.575Y-3.35
X3.375Y-4.525
X3.375Y-4.925
X2.775Y-2.95
X2.775Y-3.35
X2.4Y-4.525
X2.4Y-4.925
X2.675Y-4.525
X2.675Y-4.925
X2.375Y-2.95
X2.375Y-3.35
X2.175Y-2.95
X2.175Y-3.35
X5.65Y-4.575
X5.65Y-4.975
T0
M30
