G04 #@! TF.GenerationSoftware,KiCad,Pcbnew,(5.0.2)-1*
G04 #@! TF.CreationDate,2020-04-20T21:26:40+02:00*
G04 #@! TF.ProjectId,KorgPoly61_TeensyMidi,4b6f7267-506f-46c7-9936-315f5465656e,rev?*
G04 #@! TF.SameCoordinates,Original*
G04 #@! TF.FileFunction,Soldermask,Bot*
G04 #@! TF.FilePolarity,Negative*
%FSLAX46Y46*%
G04 Gerber Fmt 4.6, Leading zero omitted, Abs format (unit mm)*
G04 Created by KiCad (PCBNEW (5.0.2)-1) date 20-4-2020 21:26:40*
%MOMM*%
%LPD*%
G01*
G04 APERTURE LIST*
%ADD10C,0.100000*%
G04 APERTURE END LIST*
D10*
G36*
X132825442Y-132455518D02*
X132891627Y-132462037D01*
X133004853Y-132496384D01*
X133061467Y-132513557D01*
X133200087Y-132587652D01*
X133217991Y-132597222D01*
X133253729Y-132626552D01*
X133355186Y-132709814D01*
X133438448Y-132811271D01*
X133467778Y-132847009D01*
X133467779Y-132847011D01*
X133551443Y-133003533D01*
X133551443Y-133003534D01*
X133602963Y-133173373D01*
X133620359Y-133350000D01*
X133602963Y-133526627D01*
X133568616Y-133639853D01*
X133551443Y-133696467D01*
X133477348Y-133835087D01*
X133467778Y-133852991D01*
X133438448Y-133888729D01*
X133355186Y-133990186D01*
X133253729Y-134073448D01*
X133217991Y-134102778D01*
X133217989Y-134102779D01*
X133061467Y-134186443D01*
X133004853Y-134203616D01*
X132891627Y-134237963D01*
X132825443Y-134244481D01*
X132759260Y-134251000D01*
X132670740Y-134251000D01*
X132604557Y-134244481D01*
X132538373Y-134237963D01*
X132425147Y-134203616D01*
X132368533Y-134186443D01*
X132212011Y-134102779D01*
X132212009Y-134102778D01*
X132176271Y-134073448D01*
X132074814Y-133990186D01*
X131991552Y-133888729D01*
X131962222Y-133852991D01*
X131952652Y-133835087D01*
X131878557Y-133696467D01*
X131861384Y-133639853D01*
X131827037Y-133526627D01*
X131809641Y-133350000D01*
X131827037Y-133173373D01*
X131878557Y-133003534D01*
X131878557Y-133003533D01*
X131962221Y-132847011D01*
X131962222Y-132847009D01*
X131991552Y-132811271D01*
X132074814Y-132709814D01*
X132176271Y-132626552D01*
X132212009Y-132597222D01*
X132229913Y-132587652D01*
X132368533Y-132513557D01*
X132425147Y-132496384D01*
X132538373Y-132462037D01*
X132604558Y-132455518D01*
X132670740Y-132449000D01*
X132759260Y-132449000D01*
X132825442Y-132455518D01*
X132825442Y-132455518D01*
G37*
G36*
X131076000Y-134251000D02*
X129274000Y-134251000D01*
X129274000Y-132449000D01*
X131076000Y-132449000D01*
X131076000Y-134251000D01*
X131076000Y-134251000D01*
G37*
G36*
X144761000Y-127616000D02*
X142259000Y-127616000D01*
X142259000Y-125114000D01*
X144761000Y-125114000D01*
X144761000Y-127616000D01*
X144761000Y-127616000D01*
G37*
G36*
X150108228Y-125546703D02*
X150263100Y-125610853D01*
X150402481Y-125703985D01*
X150521015Y-125822519D01*
X150614147Y-125961900D01*
X150678297Y-126116772D01*
X150711000Y-126281184D01*
X150711000Y-126448816D01*
X150678297Y-126613228D01*
X150614147Y-126768100D01*
X150521015Y-126907481D01*
X150402481Y-127026015D01*
X150263100Y-127119147D01*
X150108228Y-127183297D01*
X149943816Y-127216000D01*
X149776184Y-127216000D01*
X149611772Y-127183297D01*
X149456900Y-127119147D01*
X149317519Y-127026015D01*
X149198985Y-126907481D01*
X149105853Y-126768100D01*
X149041703Y-126613228D01*
X149009000Y-126448816D01*
X149009000Y-126281184D01*
X149041703Y-126116772D01*
X149105853Y-125961900D01*
X149198985Y-125822519D01*
X149317519Y-125703985D01*
X149456900Y-125610853D01*
X149611772Y-125546703D01*
X149776184Y-125514000D01*
X149943816Y-125514000D01*
X150108228Y-125546703D01*
X150108228Y-125546703D01*
G37*
G36*
X136106000Y-126581000D02*
X134404000Y-126581000D01*
X134404000Y-124879000D01*
X136106000Y-124879000D01*
X136106000Y-126581000D01*
X136106000Y-126581000D01*
G37*
G36*
X127801821Y-124891313D02*
X127801824Y-124891314D01*
X127801825Y-124891314D01*
X127962239Y-124939975D01*
X127962241Y-124939976D01*
X127962244Y-124939977D01*
X128110078Y-125018995D01*
X128239659Y-125125341D01*
X128346005Y-125254922D01*
X128425023Y-125402756D01*
X128425024Y-125402759D01*
X128425025Y-125402761D01*
X128473686Y-125563175D01*
X128473687Y-125563179D01*
X128490117Y-125730000D01*
X128473687Y-125896821D01*
X128473686Y-125896824D01*
X128473686Y-125896825D01*
X128453946Y-125961900D01*
X128425023Y-126057244D01*
X128346005Y-126205078D01*
X128239659Y-126334659D01*
X128110078Y-126441005D01*
X127962244Y-126520023D01*
X127962241Y-126520024D01*
X127962239Y-126520025D01*
X127801825Y-126568686D01*
X127801824Y-126568686D01*
X127801821Y-126568687D01*
X127676804Y-126581000D01*
X127593196Y-126581000D01*
X127468179Y-126568687D01*
X127468176Y-126568686D01*
X127468175Y-126568686D01*
X127307761Y-126520025D01*
X127307759Y-126520024D01*
X127307756Y-126520023D01*
X127159922Y-126441005D01*
X127030341Y-126334659D01*
X126923995Y-126205078D01*
X126844977Y-126057244D01*
X126816055Y-125961900D01*
X126796314Y-125896825D01*
X126796314Y-125896824D01*
X126796313Y-125896821D01*
X126779883Y-125730000D01*
X126796313Y-125563179D01*
X126796314Y-125563175D01*
X126844975Y-125402761D01*
X126844976Y-125402759D01*
X126844977Y-125402756D01*
X126923995Y-125254922D01*
X127030341Y-125125341D01*
X127159922Y-125018995D01*
X127307756Y-124939977D01*
X127307759Y-124939976D01*
X127307761Y-124939975D01*
X127468175Y-124891314D01*
X127468176Y-124891314D01*
X127468179Y-124891313D01*
X127593196Y-124879000D01*
X127676804Y-124879000D01*
X127801821Y-124891313D01*
X127801821Y-124891313D01*
G37*
G36*
X68190239Y-123862101D02*
X68426053Y-123933634D01*
X68643381Y-124049799D01*
X68833871Y-124206129D01*
X68990201Y-124396619D01*
X69106366Y-124613947D01*
X69177899Y-124849761D01*
X69202053Y-125095000D01*
X69177899Y-125340239D01*
X69106366Y-125576053D01*
X68990201Y-125793381D01*
X68833871Y-125983871D01*
X68643381Y-126140201D01*
X68426053Y-126256366D01*
X68190239Y-126327899D01*
X68006457Y-126346000D01*
X67883543Y-126346000D01*
X67699761Y-126327899D01*
X67463947Y-126256366D01*
X67246619Y-126140201D01*
X67056129Y-125983871D01*
X66899799Y-125793381D01*
X66783634Y-125576053D01*
X66712101Y-125340239D01*
X66687947Y-125095000D01*
X66712101Y-124849761D01*
X66783634Y-124613947D01*
X66899799Y-124396619D01*
X67056129Y-124206129D01*
X67246619Y-124049799D01*
X67463947Y-123933634D01*
X67699761Y-123862101D01*
X67883543Y-123844000D01*
X68006457Y-123844000D01*
X68190239Y-123862101D01*
X68190239Y-123862101D01*
G37*
G36*
X92955239Y-123862101D02*
X93191053Y-123933634D01*
X93408381Y-124049799D01*
X93598871Y-124206129D01*
X93755201Y-124396619D01*
X93871366Y-124613947D01*
X93942899Y-124849761D01*
X93967053Y-125095000D01*
X93942899Y-125340239D01*
X93871366Y-125576053D01*
X93755201Y-125793381D01*
X93598871Y-125983871D01*
X93408381Y-126140201D01*
X93191053Y-126256366D01*
X92955239Y-126327899D01*
X92771457Y-126346000D01*
X92648543Y-126346000D01*
X92464761Y-126327899D01*
X92228947Y-126256366D01*
X92011619Y-126140201D01*
X91821129Y-125983871D01*
X91664799Y-125793381D01*
X91548634Y-125576053D01*
X91477101Y-125340239D01*
X91452947Y-125095000D01*
X91477101Y-124849761D01*
X91548634Y-124613947D01*
X91664799Y-124396619D01*
X91821129Y-124206129D01*
X92011619Y-124049799D01*
X92228947Y-123933634D01*
X92464761Y-123862101D01*
X92648543Y-123844000D01*
X92771457Y-123844000D01*
X92955239Y-123862101D01*
X92955239Y-123862101D01*
G37*
G36*
X85970239Y-123862101D02*
X86206053Y-123933634D01*
X86423381Y-124049799D01*
X86613871Y-124206129D01*
X86770201Y-124396619D01*
X86886366Y-124613947D01*
X86957899Y-124849761D01*
X86982053Y-125095000D01*
X86957899Y-125340239D01*
X86886366Y-125576053D01*
X86770201Y-125793381D01*
X86613871Y-125983871D01*
X86423381Y-126140201D01*
X86206053Y-126256366D01*
X85970239Y-126327899D01*
X85786457Y-126346000D01*
X85663543Y-126346000D01*
X85479761Y-126327899D01*
X85243947Y-126256366D01*
X85026619Y-126140201D01*
X84836129Y-125983871D01*
X84679799Y-125793381D01*
X84563634Y-125576053D01*
X84492101Y-125340239D01*
X84467947Y-125095000D01*
X84492101Y-124849761D01*
X84563634Y-124613947D01*
X84679799Y-124396619D01*
X84836129Y-124206129D01*
X85026619Y-124049799D01*
X85243947Y-123933634D01*
X85479761Y-123862101D01*
X85663543Y-123844000D01*
X85786457Y-123844000D01*
X85970239Y-123862101D01*
X85970239Y-123862101D01*
G37*
G36*
X61205239Y-123862101D02*
X61441053Y-123933634D01*
X61658381Y-124049799D01*
X61848871Y-124206129D01*
X62005201Y-124396619D01*
X62121366Y-124613947D01*
X62192899Y-124849761D01*
X62217053Y-125095000D01*
X62192899Y-125340239D01*
X62121366Y-125576053D01*
X62005201Y-125793381D01*
X61848871Y-125983871D01*
X61658381Y-126140201D01*
X61441053Y-126256366D01*
X61205239Y-126327899D01*
X61021457Y-126346000D01*
X60898543Y-126346000D01*
X60714761Y-126327899D01*
X60478947Y-126256366D01*
X60261619Y-126140201D01*
X60071129Y-125983871D01*
X59914799Y-125793381D01*
X59798634Y-125576053D01*
X59727101Y-125340239D01*
X59702947Y-125095000D01*
X59727101Y-124849761D01*
X59798634Y-124613947D01*
X59914799Y-124396619D01*
X60071129Y-124206129D01*
X60261619Y-124049799D01*
X60478947Y-123933634D01*
X60714761Y-123862101D01*
X60898543Y-123844000D01*
X61021457Y-123844000D01*
X61205239Y-123862101D01*
X61205239Y-123862101D01*
G37*
G36*
X116371821Y-124256313D02*
X116371824Y-124256314D01*
X116371825Y-124256314D01*
X116532239Y-124304975D01*
X116532241Y-124304976D01*
X116532244Y-124304977D01*
X116680078Y-124383995D01*
X116809659Y-124490341D01*
X116916005Y-124619922D01*
X116995023Y-124767756D01*
X116995024Y-124767759D01*
X116995025Y-124767761D01*
X117028769Y-124879000D01*
X117043687Y-124928179D01*
X117060117Y-125095000D01*
X117043687Y-125261821D01*
X117043686Y-125261824D01*
X117043686Y-125261825D01*
X117000934Y-125402761D01*
X116995023Y-125422244D01*
X116916005Y-125570078D01*
X116809659Y-125699659D01*
X116680078Y-125806005D01*
X116532244Y-125885023D01*
X116532241Y-125885024D01*
X116532239Y-125885025D01*
X116371825Y-125933686D01*
X116371824Y-125933686D01*
X116371821Y-125933687D01*
X116246804Y-125946000D01*
X116163196Y-125946000D01*
X116038179Y-125933687D01*
X116038176Y-125933686D01*
X116038175Y-125933686D01*
X115877761Y-125885025D01*
X115877759Y-125885024D01*
X115877756Y-125885023D01*
X115729922Y-125806005D01*
X115600341Y-125699659D01*
X115493995Y-125570078D01*
X115414977Y-125422244D01*
X115409067Y-125402761D01*
X115366314Y-125261825D01*
X115366314Y-125261824D01*
X115366313Y-125261821D01*
X115349883Y-125095000D01*
X115366313Y-124928179D01*
X115381231Y-124879000D01*
X115414975Y-124767761D01*
X115414976Y-124767759D01*
X115414977Y-124767756D01*
X115493995Y-124619922D01*
X115600341Y-124490341D01*
X115729922Y-124383995D01*
X115877756Y-124304977D01*
X115877759Y-124304976D01*
X115877761Y-124304975D01*
X116038175Y-124256314D01*
X116038176Y-124256314D01*
X116038179Y-124256313D01*
X116163196Y-124244000D01*
X116246804Y-124244000D01*
X116371821Y-124256313D01*
X116371821Y-124256313D01*
G37*
G36*
X135421821Y-122351313D02*
X135421824Y-122351314D01*
X135421825Y-122351314D01*
X135582239Y-122399975D01*
X135582241Y-122399976D01*
X135582244Y-122399977D01*
X135730078Y-122478995D01*
X135859659Y-122585341D01*
X135966005Y-122714922D01*
X136045023Y-122862756D01*
X136093687Y-123023179D01*
X136110117Y-123190000D01*
X136093687Y-123356821D01*
X136045023Y-123517244D01*
X135966005Y-123665078D01*
X135859659Y-123794659D01*
X135730078Y-123901005D01*
X135582244Y-123980023D01*
X135582241Y-123980024D01*
X135582239Y-123980025D01*
X135421825Y-124028686D01*
X135421824Y-124028686D01*
X135421821Y-124028687D01*
X135296804Y-124041000D01*
X135213196Y-124041000D01*
X135088179Y-124028687D01*
X135088176Y-124028686D01*
X135088175Y-124028686D01*
X134927761Y-123980025D01*
X134927759Y-123980024D01*
X134927756Y-123980023D01*
X134779922Y-123901005D01*
X134650341Y-123794659D01*
X134543995Y-123665078D01*
X134464977Y-123517244D01*
X134416313Y-123356821D01*
X134399883Y-123190000D01*
X134416313Y-123023179D01*
X134464977Y-122862756D01*
X134543995Y-122714922D01*
X134650341Y-122585341D01*
X134779922Y-122478995D01*
X134927756Y-122399977D01*
X134927759Y-122399976D01*
X134927761Y-122399975D01*
X135088175Y-122351314D01*
X135088176Y-122351314D01*
X135088179Y-122351313D01*
X135213196Y-122339000D01*
X135296804Y-122339000D01*
X135421821Y-122351313D01*
X135421821Y-122351313D01*
G37*
G36*
X127801821Y-122351313D02*
X127801824Y-122351314D01*
X127801825Y-122351314D01*
X127962239Y-122399975D01*
X127962241Y-122399976D01*
X127962244Y-122399977D01*
X128110078Y-122478995D01*
X128239659Y-122585341D01*
X128346005Y-122714922D01*
X128425023Y-122862756D01*
X128473687Y-123023179D01*
X128490117Y-123190000D01*
X128473687Y-123356821D01*
X128425023Y-123517244D01*
X128346005Y-123665078D01*
X128239659Y-123794659D01*
X128110078Y-123901005D01*
X127962244Y-123980023D01*
X127962241Y-123980024D01*
X127962239Y-123980025D01*
X127801825Y-124028686D01*
X127801824Y-124028686D01*
X127801821Y-124028687D01*
X127676804Y-124041000D01*
X127593196Y-124041000D01*
X127468179Y-124028687D01*
X127468176Y-124028686D01*
X127468175Y-124028686D01*
X127307761Y-123980025D01*
X127307759Y-123980024D01*
X127307756Y-123980023D01*
X127159922Y-123901005D01*
X127030341Y-123794659D01*
X126923995Y-123665078D01*
X126844977Y-123517244D01*
X126796313Y-123356821D01*
X126779883Y-123190000D01*
X126796313Y-123023179D01*
X126844977Y-122862756D01*
X126923995Y-122714922D01*
X127030341Y-122585341D01*
X127159922Y-122478995D01*
X127307756Y-122399977D01*
X127307759Y-122399976D01*
X127307761Y-122399975D01*
X127468175Y-122351314D01*
X127468176Y-122351314D01*
X127468179Y-122351313D01*
X127593196Y-122339000D01*
X127676804Y-122339000D01*
X127801821Y-122351313D01*
X127801821Y-122351313D01*
G37*
G36*
X127801821Y-119811313D02*
X127801824Y-119811314D01*
X127801825Y-119811314D01*
X127962239Y-119859975D01*
X127962241Y-119859976D01*
X127962244Y-119859977D01*
X128110078Y-119938995D01*
X128239659Y-120045341D01*
X128346005Y-120174922D01*
X128425023Y-120322756D01*
X128473687Y-120483179D01*
X128490117Y-120650000D01*
X128473687Y-120816821D01*
X128425023Y-120977244D01*
X128346005Y-121125078D01*
X128239659Y-121254659D01*
X128110078Y-121361005D01*
X127962244Y-121440023D01*
X127962241Y-121440024D01*
X127962239Y-121440025D01*
X127801825Y-121488686D01*
X127801824Y-121488686D01*
X127801821Y-121488687D01*
X127676804Y-121501000D01*
X127593196Y-121501000D01*
X127468179Y-121488687D01*
X127468176Y-121488686D01*
X127468175Y-121488686D01*
X127307761Y-121440025D01*
X127307759Y-121440024D01*
X127307756Y-121440023D01*
X127159922Y-121361005D01*
X127030341Y-121254659D01*
X126923995Y-121125078D01*
X126844977Y-120977244D01*
X126796313Y-120816821D01*
X126779883Y-120650000D01*
X126796313Y-120483179D01*
X126844977Y-120322756D01*
X126923995Y-120174922D01*
X127030341Y-120045341D01*
X127159922Y-119938995D01*
X127307756Y-119859977D01*
X127307759Y-119859976D01*
X127307761Y-119859975D01*
X127468175Y-119811314D01*
X127468176Y-119811314D01*
X127468179Y-119811313D01*
X127593196Y-119799000D01*
X127676804Y-119799000D01*
X127801821Y-119811313D01*
X127801821Y-119811313D01*
G37*
G36*
X135421821Y-119811313D02*
X135421824Y-119811314D01*
X135421825Y-119811314D01*
X135582239Y-119859975D01*
X135582241Y-119859976D01*
X135582244Y-119859977D01*
X135730078Y-119938995D01*
X135859659Y-120045341D01*
X135966005Y-120174922D01*
X136045023Y-120322756D01*
X136093687Y-120483179D01*
X136110117Y-120650000D01*
X136093687Y-120816821D01*
X136045023Y-120977244D01*
X135966005Y-121125078D01*
X135859659Y-121254659D01*
X135730078Y-121361005D01*
X135582244Y-121440023D01*
X135582241Y-121440024D01*
X135582239Y-121440025D01*
X135421825Y-121488686D01*
X135421824Y-121488686D01*
X135421821Y-121488687D01*
X135296804Y-121501000D01*
X135213196Y-121501000D01*
X135088179Y-121488687D01*
X135088176Y-121488686D01*
X135088175Y-121488686D01*
X134927761Y-121440025D01*
X134927759Y-121440024D01*
X134927756Y-121440023D01*
X134779922Y-121361005D01*
X134650341Y-121254659D01*
X134543995Y-121125078D01*
X134464977Y-120977244D01*
X134416313Y-120816821D01*
X134399883Y-120650000D01*
X134416313Y-120483179D01*
X134464977Y-120322756D01*
X134543995Y-120174922D01*
X134650341Y-120045341D01*
X134779922Y-119938995D01*
X134927756Y-119859977D01*
X134927759Y-119859976D01*
X134927761Y-119859975D01*
X135088175Y-119811314D01*
X135088176Y-119811314D01*
X135088179Y-119811313D01*
X135213196Y-119799000D01*
X135296804Y-119799000D01*
X135421821Y-119811313D01*
X135421821Y-119811313D01*
G37*
G36*
X150026821Y-117906313D02*
X150026824Y-117906314D01*
X150026825Y-117906314D01*
X150187239Y-117954975D01*
X150187241Y-117954976D01*
X150187244Y-117954977D01*
X150335078Y-118033995D01*
X150464659Y-118140341D01*
X150571005Y-118269922D01*
X150650023Y-118417756D01*
X150650024Y-118417759D01*
X150650025Y-118417761D01*
X150655935Y-118437244D01*
X150698687Y-118578179D01*
X150715117Y-118745000D01*
X150698687Y-118911821D01*
X150650023Y-119072244D01*
X150571005Y-119220078D01*
X150464659Y-119349659D01*
X150335078Y-119456005D01*
X150187244Y-119535023D01*
X150187241Y-119535024D01*
X150187239Y-119535025D01*
X150026825Y-119583686D01*
X150026824Y-119583686D01*
X150026821Y-119583687D01*
X149901804Y-119596000D01*
X149818196Y-119596000D01*
X149693179Y-119583687D01*
X149693176Y-119583686D01*
X149693175Y-119583686D01*
X149532761Y-119535025D01*
X149532759Y-119535024D01*
X149532756Y-119535023D01*
X149384922Y-119456005D01*
X149255341Y-119349659D01*
X149148995Y-119220078D01*
X149069977Y-119072244D01*
X149021313Y-118911821D01*
X149004883Y-118745000D01*
X149021313Y-118578179D01*
X149064065Y-118437244D01*
X149069975Y-118417761D01*
X149069976Y-118417759D01*
X149069977Y-118417756D01*
X149148995Y-118269922D01*
X149255341Y-118140341D01*
X149384922Y-118033995D01*
X149532756Y-117954977D01*
X149532759Y-117954976D01*
X149532761Y-117954975D01*
X149693175Y-117906314D01*
X149693176Y-117906314D01*
X149693179Y-117906313D01*
X149818196Y-117894000D01*
X149901804Y-117894000D01*
X150026821Y-117906313D01*
X150026821Y-117906313D01*
G37*
G36*
X127801821Y-117271313D02*
X127801824Y-117271314D01*
X127801825Y-117271314D01*
X127962239Y-117319975D01*
X127962241Y-117319976D01*
X127962244Y-117319977D01*
X128110078Y-117398995D01*
X128239659Y-117505341D01*
X128346005Y-117634922D01*
X128425023Y-117782756D01*
X128425024Y-117782759D01*
X128425025Y-117782761D01*
X128458769Y-117894000D01*
X128473687Y-117943179D01*
X128490117Y-118110000D01*
X128473687Y-118276821D01*
X128473686Y-118276824D01*
X128473686Y-118276825D01*
X128430934Y-118417761D01*
X128425023Y-118437244D01*
X128346005Y-118585078D01*
X128239659Y-118714659D01*
X128110078Y-118821005D01*
X127962244Y-118900023D01*
X127962241Y-118900024D01*
X127962239Y-118900025D01*
X127801825Y-118948686D01*
X127801824Y-118948686D01*
X127801821Y-118948687D01*
X127676804Y-118961000D01*
X127593196Y-118961000D01*
X127468179Y-118948687D01*
X127468176Y-118948686D01*
X127468175Y-118948686D01*
X127307761Y-118900025D01*
X127307759Y-118900024D01*
X127307756Y-118900023D01*
X127159922Y-118821005D01*
X127030341Y-118714659D01*
X126923995Y-118585078D01*
X126844977Y-118437244D01*
X126839067Y-118417761D01*
X126796314Y-118276825D01*
X126796314Y-118276824D01*
X126796313Y-118276821D01*
X126779883Y-118110000D01*
X126796313Y-117943179D01*
X126811231Y-117894000D01*
X126844975Y-117782761D01*
X126844976Y-117782759D01*
X126844977Y-117782756D01*
X126923995Y-117634922D01*
X127030341Y-117505341D01*
X127159922Y-117398995D01*
X127307756Y-117319977D01*
X127307759Y-117319976D01*
X127307761Y-117319975D01*
X127468175Y-117271314D01*
X127468176Y-117271314D01*
X127468179Y-117271313D01*
X127593196Y-117259000D01*
X127676804Y-117259000D01*
X127801821Y-117271313D01*
X127801821Y-117271313D01*
G37*
G36*
X135421821Y-117271313D02*
X135421824Y-117271314D01*
X135421825Y-117271314D01*
X135582239Y-117319975D01*
X135582241Y-117319976D01*
X135582244Y-117319977D01*
X135730078Y-117398995D01*
X135859659Y-117505341D01*
X135966005Y-117634922D01*
X136045023Y-117782756D01*
X136045024Y-117782759D01*
X136045025Y-117782761D01*
X136078769Y-117894000D01*
X136093687Y-117943179D01*
X136110117Y-118110000D01*
X136093687Y-118276821D01*
X136093686Y-118276824D01*
X136093686Y-118276825D01*
X136050934Y-118417761D01*
X136045023Y-118437244D01*
X135966005Y-118585078D01*
X135859659Y-118714659D01*
X135730078Y-118821005D01*
X135582244Y-118900023D01*
X135582241Y-118900024D01*
X135582239Y-118900025D01*
X135421825Y-118948686D01*
X135421824Y-118948686D01*
X135421821Y-118948687D01*
X135296804Y-118961000D01*
X135213196Y-118961000D01*
X135088179Y-118948687D01*
X135088176Y-118948686D01*
X135088175Y-118948686D01*
X134927761Y-118900025D01*
X134927759Y-118900024D01*
X134927756Y-118900023D01*
X134779922Y-118821005D01*
X134650341Y-118714659D01*
X134543995Y-118585078D01*
X134464977Y-118437244D01*
X134459067Y-118417761D01*
X134416314Y-118276825D01*
X134416314Y-118276824D01*
X134416313Y-118276821D01*
X134399883Y-118110000D01*
X134416313Y-117943179D01*
X134431231Y-117894000D01*
X134464975Y-117782761D01*
X134464976Y-117782759D01*
X134464977Y-117782756D01*
X134543995Y-117634922D01*
X134650341Y-117505341D01*
X134779922Y-117398995D01*
X134927756Y-117319977D01*
X134927759Y-117319976D01*
X134927761Y-117319975D01*
X135088175Y-117271314D01*
X135088176Y-117271314D01*
X135088179Y-117271313D01*
X135213196Y-117259000D01*
X135296804Y-117259000D01*
X135421821Y-117271313D01*
X135421821Y-117271313D01*
G37*
G36*
X116453228Y-116656703D02*
X116608100Y-116720853D01*
X116747481Y-116813985D01*
X116866015Y-116932519D01*
X116959147Y-117071900D01*
X117023297Y-117226772D01*
X117056000Y-117391184D01*
X117056000Y-117558816D01*
X117023297Y-117723228D01*
X116959147Y-117878100D01*
X116866015Y-118017481D01*
X116747481Y-118136015D01*
X116608100Y-118229147D01*
X116453228Y-118293297D01*
X116288816Y-118326000D01*
X116121184Y-118326000D01*
X115956772Y-118293297D01*
X115801900Y-118229147D01*
X115662519Y-118136015D01*
X115543985Y-118017481D01*
X115450853Y-117878100D01*
X115386703Y-117723228D01*
X115354000Y-117558816D01*
X115354000Y-117391184D01*
X115386703Y-117226772D01*
X115450853Y-117071900D01*
X115543985Y-116932519D01*
X115662519Y-116813985D01*
X115801900Y-116720853D01*
X115956772Y-116656703D01*
X116121184Y-116624000D01*
X116288816Y-116624000D01*
X116453228Y-116656703D01*
X116453228Y-116656703D01*
G37*
G36*
X143755239Y-114972101D02*
X143991053Y-115043634D01*
X144208381Y-115159799D01*
X144398871Y-115316129D01*
X144555201Y-115506619D01*
X144671366Y-115723947D01*
X144742899Y-115959761D01*
X144767053Y-116205000D01*
X144742899Y-116450239D01*
X144671366Y-116686053D01*
X144555201Y-116903381D01*
X144398871Y-117093871D01*
X144208381Y-117250201D01*
X143991053Y-117366366D01*
X143755239Y-117437899D01*
X143571457Y-117456000D01*
X143448543Y-117456000D01*
X143264761Y-117437899D01*
X143028947Y-117366366D01*
X142811619Y-117250201D01*
X142621129Y-117093871D01*
X142464799Y-116903381D01*
X142348634Y-116686053D01*
X142277101Y-116450239D01*
X142252947Y-116205000D01*
X142277101Y-115959761D01*
X142348634Y-115723947D01*
X142464799Y-115506619D01*
X142621129Y-115316129D01*
X142811619Y-115159799D01*
X143028947Y-115043634D01*
X143264761Y-114972101D01*
X143448543Y-114954000D01*
X143571457Y-114954000D01*
X143755239Y-114972101D01*
X143755239Y-114972101D01*
G37*
G36*
X62211000Y-116186000D02*
X59709000Y-116186000D01*
X59709000Y-113684000D01*
X62211000Y-113684000D01*
X62211000Y-116186000D01*
X62211000Y-116186000D01*
G37*
G36*
X69196000Y-116186000D02*
X66694000Y-116186000D01*
X66694000Y-113684000D01*
X69196000Y-113684000D01*
X69196000Y-116186000D01*
X69196000Y-116186000D01*
G37*
G36*
X86976000Y-116186000D02*
X84474000Y-116186000D01*
X84474000Y-113684000D01*
X86976000Y-113684000D01*
X86976000Y-116186000D01*
X86976000Y-116186000D01*
G37*
G36*
X93961000Y-116186000D02*
X91459000Y-116186000D01*
X91459000Y-113684000D01*
X93961000Y-113684000D01*
X93961000Y-116186000D01*
X93961000Y-116186000D01*
G37*
G36*
X156476000Y-113931000D02*
X154674000Y-113931000D01*
X154674000Y-112129000D01*
X156476000Y-112129000D01*
X156476000Y-113931000D01*
X156476000Y-113931000D01*
G37*
G36*
X115818228Y-110306703D02*
X115973100Y-110370853D01*
X116112481Y-110463985D01*
X116231015Y-110582519D01*
X116324147Y-110721900D01*
X116388297Y-110876772D01*
X116421000Y-111041184D01*
X116421000Y-111208816D01*
X116388297Y-111373228D01*
X116324147Y-111528100D01*
X116231015Y-111667481D01*
X116112481Y-111786015D01*
X115973100Y-111879147D01*
X115818228Y-111943297D01*
X115653816Y-111976000D01*
X115486184Y-111976000D01*
X115321772Y-111943297D01*
X115166900Y-111879147D01*
X115027519Y-111786015D01*
X114908985Y-111667481D01*
X114815853Y-111528100D01*
X114751703Y-111373228D01*
X114719000Y-111208816D01*
X114719000Y-111041184D01*
X114751703Y-110876772D01*
X114815853Y-110721900D01*
X114908985Y-110582519D01*
X115027519Y-110463985D01*
X115166900Y-110370853D01*
X115321772Y-110306703D01*
X115486184Y-110274000D01*
X115653816Y-110274000D01*
X115818228Y-110306703D01*
X115818228Y-110306703D01*
G37*
G36*
X120818228Y-110306703D02*
X120973100Y-110370853D01*
X121112481Y-110463985D01*
X121231015Y-110582519D01*
X121324147Y-110721900D01*
X121388297Y-110876772D01*
X121421000Y-111041184D01*
X121421000Y-111208816D01*
X121388297Y-111373228D01*
X121324147Y-111528100D01*
X121231015Y-111667481D01*
X121112481Y-111786015D01*
X120973100Y-111879147D01*
X120818228Y-111943297D01*
X120653816Y-111976000D01*
X120486184Y-111976000D01*
X120321772Y-111943297D01*
X120166900Y-111879147D01*
X120027519Y-111786015D01*
X119908985Y-111667481D01*
X119815853Y-111528100D01*
X119751703Y-111373228D01*
X119719000Y-111208816D01*
X119719000Y-111041184D01*
X119751703Y-110876772D01*
X119815853Y-110721900D01*
X119908985Y-110582519D01*
X120027519Y-110463985D01*
X120166900Y-110370853D01*
X120321772Y-110306703D01*
X120486184Y-110274000D01*
X120653816Y-110274000D01*
X120818228Y-110306703D01*
X120818228Y-110306703D01*
G37*
G36*
X155685442Y-109595518D02*
X155751627Y-109602037D01*
X155864853Y-109636384D01*
X155921467Y-109653557D01*
X156060087Y-109727652D01*
X156077991Y-109737222D01*
X156113729Y-109766552D01*
X156215186Y-109849814D01*
X156298448Y-109951271D01*
X156327778Y-109987009D01*
X156327779Y-109987011D01*
X156411443Y-110143533D01*
X156411443Y-110143534D01*
X156462963Y-110313373D01*
X156480359Y-110490000D01*
X156462963Y-110666627D01*
X156446196Y-110721900D01*
X156411443Y-110836467D01*
X156389899Y-110876772D01*
X156327778Y-110992991D01*
X156298448Y-111028729D01*
X156215186Y-111130186D01*
X156119374Y-111208816D01*
X156077991Y-111242778D01*
X156077989Y-111242779D01*
X155921467Y-111326443D01*
X155864853Y-111343616D01*
X155751627Y-111377963D01*
X155685443Y-111384481D01*
X155619260Y-111391000D01*
X155530740Y-111391000D01*
X155464557Y-111384481D01*
X155398373Y-111377963D01*
X155285147Y-111343616D01*
X155228533Y-111326443D01*
X155072011Y-111242779D01*
X155072009Y-111242778D01*
X155030626Y-111208816D01*
X154934814Y-111130186D01*
X154851552Y-111028729D01*
X154822222Y-110992991D01*
X154760101Y-110876772D01*
X154738557Y-110836467D01*
X154703804Y-110721900D01*
X154687037Y-110666627D01*
X154669641Y-110490000D01*
X154687037Y-110313373D01*
X154738557Y-110143534D01*
X154738557Y-110143533D01*
X154822221Y-109987011D01*
X154822222Y-109987009D01*
X154851552Y-109951271D01*
X154934814Y-109849814D01*
X155036271Y-109766552D01*
X155072009Y-109737222D01*
X155089913Y-109727652D01*
X155228533Y-109653557D01*
X155285147Y-109636384D01*
X155398373Y-109602037D01*
X155464558Y-109595518D01*
X155530740Y-109589000D01*
X155619260Y-109589000D01*
X155685442Y-109595518D01*
X155685442Y-109595518D01*
G37*
G36*
X65653228Y-107766703D02*
X65808100Y-107830853D01*
X65947481Y-107923985D01*
X66066015Y-108042519D01*
X66159147Y-108181900D01*
X66223297Y-108336772D01*
X66256000Y-108501184D01*
X66256000Y-108668816D01*
X66223297Y-108833228D01*
X66159147Y-108988100D01*
X66066015Y-109127481D01*
X65947481Y-109246015D01*
X65808100Y-109339147D01*
X65653228Y-109403297D01*
X65488816Y-109436000D01*
X65321184Y-109436000D01*
X65156772Y-109403297D01*
X65001900Y-109339147D01*
X64862519Y-109246015D01*
X64743985Y-109127481D01*
X64650853Y-108988100D01*
X64586703Y-108833228D01*
X64554000Y-108668816D01*
X64554000Y-108501184D01*
X64586703Y-108336772D01*
X64650853Y-108181900D01*
X64743985Y-108042519D01*
X64862519Y-107923985D01*
X65001900Y-107830853D01*
X65156772Y-107766703D01*
X65321184Y-107734000D01*
X65488816Y-107734000D01*
X65653228Y-107766703D01*
X65653228Y-107766703D01*
G37*
G36*
X80893228Y-107766703D02*
X81048100Y-107830853D01*
X81187481Y-107923985D01*
X81306015Y-108042519D01*
X81399147Y-108181900D01*
X81463297Y-108336772D01*
X81496000Y-108501184D01*
X81496000Y-108668816D01*
X81463297Y-108833228D01*
X81399147Y-108988100D01*
X81306015Y-109127481D01*
X81187481Y-109246015D01*
X81048100Y-109339147D01*
X80893228Y-109403297D01*
X80728816Y-109436000D01*
X80561184Y-109436000D01*
X80396772Y-109403297D01*
X80241900Y-109339147D01*
X80102519Y-109246015D01*
X79983985Y-109127481D01*
X79890853Y-108988100D01*
X79826703Y-108833228D01*
X79794000Y-108668816D01*
X79794000Y-108501184D01*
X79826703Y-108336772D01*
X79890853Y-108181900D01*
X79983985Y-108042519D01*
X80102519Y-107923985D01*
X80241900Y-107830853D01*
X80396772Y-107766703D01*
X80561184Y-107734000D01*
X80728816Y-107734000D01*
X80893228Y-107766703D01*
X80893228Y-107766703D01*
G37*
G36*
X78353228Y-107766703D02*
X78508100Y-107830853D01*
X78647481Y-107923985D01*
X78766015Y-108042519D01*
X78859147Y-108181900D01*
X78923297Y-108336772D01*
X78956000Y-108501184D01*
X78956000Y-108668816D01*
X78923297Y-108833228D01*
X78859147Y-108988100D01*
X78766015Y-109127481D01*
X78647481Y-109246015D01*
X78508100Y-109339147D01*
X78353228Y-109403297D01*
X78188816Y-109436000D01*
X78021184Y-109436000D01*
X77856772Y-109403297D01*
X77701900Y-109339147D01*
X77562519Y-109246015D01*
X77443985Y-109127481D01*
X77350853Y-108988100D01*
X77286703Y-108833228D01*
X77254000Y-108668816D01*
X77254000Y-108501184D01*
X77286703Y-108336772D01*
X77350853Y-108181900D01*
X77443985Y-108042519D01*
X77562519Y-107923985D01*
X77701900Y-107830853D01*
X77856772Y-107766703D01*
X78021184Y-107734000D01*
X78188816Y-107734000D01*
X78353228Y-107766703D01*
X78353228Y-107766703D01*
G37*
G36*
X75813228Y-107766703D02*
X75968100Y-107830853D01*
X76107481Y-107923985D01*
X76226015Y-108042519D01*
X76319147Y-108181900D01*
X76383297Y-108336772D01*
X76416000Y-108501184D01*
X76416000Y-108668816D01*
X76383297Y-108833228D01*
X76319147Y-108988100D01*
X76226015Y-109127481D01*
X76107481Y-109246015D01*
X75968100Y-109339147D01*
X75813228Y-109403297D01*
X75648816Y-109436000D01*
X75481184Y-109436000D01*
X75316772Y-109403297D01*
X75161900Y-109339147D01*
X75022519Y-109246015D01*
X74903985Y-109127481D01*
X74810853Y-108988100D01*
X74746703Y-108833228D01*
X74714000Y-108668816D01*
X74714000Y-108501184D01*
X74746703Y-108336772D01*
X74810853Y-108181900D01*
X74903985Y-108042519D01*
X75022519Y-107923985D01*
X75161900Y-107830853D01*
X75316772Y-107766703D01*
X75481184Y-107734000D01*
X75648816Y-107734000D01*
X75813228Y-107766703D01*
X75813228Y-107766703D01*
G37*
G36*
X73273228Y-107766703D02*
X73428100Y-107830853D01*
X73567481Y-107923985D01*
X73686015Y-108042519D01*
X73779147Y-108181900D01*
X73843297Y-108336772D01*
X73876000Y-108501184D01*
X73876000Y-108668816D01*
X73843297Y-108833228D01*
X73779147Y-108988100D01*
X73686015Y-109127481D01*
X73567481Y-109246015D01*
X73428100Y-109339147D01*
X73273228Y-109403297D01*
X73108816Y-109436000D01*
X72941184Y-109436000D01*
X72776772Y-109403297D01*
X72621900Y-109339147D01*
X72482519Y-109246015D01*
X72363985Y-109127481D01*
X72270853Y-108988100D01*
X72206703Y-108833228D01*
X72174000Y-108668816D01*
X72174000Y-108501184D01*
X72206703Y-108336772D01*
X72270853Y-108181900D01*
X72363985Y-108042519D01*
X72482519Y-107923985D01*
X72621900Y-107830853D01*
X72776772Y-107766703D01*
X72941184Y-107734000D01*
X73108816Y-107734000D01*
X73273228Y-107766703D01*
X73273228Y-107766703D01*
G37*
G36*
X70733228Y-107766703D02*
X70888100Y-107830853D01*
X71027481Y-107923985D01*
X71146015Y-108042519D01*
X71239147Y-108181900D01*
X71303297Y-108336772D01*
X71336000Y-108501184D01*
X71336000Y-108668816D01*
X71303297Y-108833228D01*
X71239147Y-108988100D01*
X71146015Y-109127481D01*
X71027481Y-109246015D01*
X70888100Y-109339147D01*
X70733228Y-109403297D01*
X70568816Y-109436000D01*
X70401184Y-109436000D01*
X70236772Y-109403297D01*
X70081900Y-109339147D01*
X69942519Y-109246015D01*
X69823985Y-109127481D01*
X69730853Y-108988100D01*
X69666703Y-108833228D01*
X69634000Y-108668816D01*
X69634000Y-108501184D01*
X69666703Y-108336772D01*
X69730853Y-108181900D01*
X69823985Y-108042519D01*
X69942519Y-107923985D01*
X70081900Y-107830853D01*
X70236772Y-107766703D01*
X70401184Y-107734000D01*
X70568816Y-107734000D01*
X70733228Y-107766703D01*
X70733228Y-107766703D01*
G37*
G36*
X68193228Y-107766703D02*
X68348100Y-107830853D01*
X68487481Y-107923985D01*
X68606015Y-108042519D01*
X68699147Y-108181900D01*
X68763297Y-108336772D01*
X68796000Y-108501184D01*
X68796000Y-108668816D01*
X68763297Y-108833228D01*
X68699147Y-108988100D01*
X68606015Y-109127481D01*
X68487481Y-109246015D01*
X68348100Y-109339147D01*
X68193228Y-109403297D01*
X68028816Y-109436000D01*
X67861184Y-109436000D01*
X67696772Y-109403297D01*
X67541900Y-109339147D01*
X67402519Y-109246015D01*
X67283985Y-109127481D01*
X67190853Y-108988100D01*
X67126703Y-108833228D01*
X67094000Y-108668816D01*
X67094000Y-108501184D01*
X67126703Y-108336772D01*
X67190853Y-108181900D01*
X67283985Y-108042519D01*
X67402519Y-107923985D01*
X67541900Y-107830853D01*
X67696772Y-107766703D01*
X67861184Y-107734000D01*
X68028816Y-107734000D01*
X68193228Y-107766703D01*
X68193228Y-107766703D01*
G37*
G36*
X63113228Y-107766703D02*
X63268100Y-107830853D01*
X63407481Y-107923985D01*
X63526015Y-108042519D01*
X63619147Y-108181900D01*
X63683297Y-108336772D01*
X63716000Y-108501184D01*
X63716000Y-108668816D01*
X63683297Y-108833228D01*
X63619147Y-108988100D01*
X63526015Y-109127481D01*
X63407481Y-109246015D01*
X63268100Y-109339147D01*
X63113228Y-109403297D01*
X62948816Y-109436000D01*
X62781184Y-109436000D01*
X62616772Y-109403297D01*
X62461900Y-109339147D01*
X62322519Y-109246015D01*
X62203985Y-109127481D01*
X62110853Y-108988100D01*
X62046703Y-108833228D01*
X62014000Y-108668816D01*
X62014000Y-108501184D01*
X62046703Y-108336772D01*
X62110853Y-108181900D01*
X62203985Y-108042519D01*
X62322519Y-107923985D01*
X62461900Y-107830853D01*
X62616772Y-107766703D01*
X62781184Y-107734000D01*
X62948816Y-107734000D01*
X63113228Y-107766703D01*
X63113228Y-107766703D01*
G37*
G36*
X85973228Y-107766703D02*
X86128100Y-107830853D01*
X86267481Y-107923985D01*
X86386015Y-108042519D01*
X86479147Y-108181900D01*
X86543297Y-108336772D01*
X86576000Y-108501184D01*
X86576000Y-108668816D01*
X86543297Y-108833228D01*
X86479147Y-108988100D01*
X86386015Y-109127481D01*
X86267481Y-109246015D01*
X86128100Y-109339147D01*
X85973228Y-109403297D01*
X85808816Y-109436000D01*
X85641184Y-109436000D01*
X85476772Y-109403297D01*
X85321900Y-109339147D01*
X85182519Y-109246015D01*
X85063985Y-109127481D01*
X84970853Y-108988100D01*
X84906703Y-108833228D01*
X84874000Y-108668816D01*
X84874000Y-108501184D01*
X84906703Y-108336772D01*
X84970853Y-108181900D01*
X85063985Y-108042519D01*
X85182519Y-107923985D01*
X85321900Y-107830853D01*
X85476772Y-107766703D01*
X85641184Y-107734000D01*
X85808816Y-107734000D01*
X85973228Y-107766703D01*
X85973228Y-107766703D01*
G37*
G36*
X96133228Y-107766703D02*
X96288100Y-107830853D01*
X96427481Y-107923985D01*
X96546015Y-108042519D01*
X96639147Y-108181900D01*
X96703297Y-108336772D01*
X96736000Y-108501184D01*
X96736000Y-108668816D01*
X96703297Y-108833228D01*
X96639147Y-108988100D01*
X96546015Y-109127481D01*
X96427481Y-109246015D01*
X96288100Y-109339147D01*
X96133228Y-109403297D01*
X95968816Y-109436000D01*
X95801184Y-109436000D01*
X95636772Y-109403297D01*
X95481900Y-109339147D01*
X95342519Y-109246015D01*
X95223985Y-109127481D01*
X95130853Y-108988100D01*
X95066703Y-108833228D01*
X95034000Y-108668816D01*
X95034000Y-108501184D01*
X95066703Y-108336772D01*
X95130853Y-108181900D01*
X95223985Y-108042519D01*
X95342519Y-107923985D01*
X95481900Y-107830853D01*
X95636772Y-107766703D01*
X95801184Y-107734000D01*
X95968816Y-107734000D01*
X96133228Y-107766703D01*
X96133228Y-107766703D01*
G37*
G36*
X93593228Y-107766703D02*
X93748100Y-107830853D01*
X93887481Y-107923985D01*
X94006015Y-108042519D01*
X94099147Y-108181900D01*
X94163297Y-108336772D01*
X94196000Y-108501184D01*
X94196000Y-108668816D01*
X94163297Y-108833228D01*
X94099147Y-108988100D01*
X94006015Y-109127481D01*
X93887481Y-109246015D01*
X93748100Y-109339147D01*
X93593228Y-109403297D01*
X93428816Y-109436000D01*
X93261184Y-109436000D01*
X93096772Y-109403297D01*
X92941900Y-109339147D01*
X92802519Y-109246015D01*
X92683985Y-109127481D01*
X92590853Y-108988100D01*
X92526703Y-108833228D01*
X92494000Y-108668816D01*
X92494000Y-108501184D01*
X92526703Y-108336772D01*
X92590853Y-108181900D01*
X92683985Y-108042519D01*
X92802519Y-107923985D01*
X92941900Y-107830853D01*
X93096772Y-107766703D01*
X93261184Y-107734000D01*
X93428816Y-107734000D01*
X93593228Y-107766703D01*
X93593228Y-107766703D01*
G37*
G36*
X91053228Y-107766703D02*
X91208100Y-107830853D01*
X91347481Y-107923985D01*
X91466015Y-108042519D01*
X91559147Y-108181900D01*
X91623297Y-108336772D01*
X91656000Y-108501184D01*
X91656000Y-108668816D01*
X91623297Y-108833228D01*
X91559147Y-108988100D01*
X91466015Y-109127481D01*
X91347481Y-109246015D01*
X91208100Y-109339147D01*
X91053228Y-109403297D01*
X90888816Y-109436000D01*
X90721184Y-109436000D01*
X90556772Y-109403297D01*
X90401900Y-109339147D01*
X90262519Y-109246015D01*
X90143985Y-109127481D01*
X90050853Y-108988100D01*
X89986703Y-108833228D01*
X89954000Y-108668816D01*
X89954000Y-108501184D01*
X89986703Y-108336772D01*
X90050853Y-108181900D01*
X90143985Y-108042519D01*
X90262519Y-107923985D01*
X90401900Y-107830853D01*
X90556772Y-107766703D01*
X90721184Y-107734000D01*
X90888816Y-107734000D01*
X91053228Y-107766703D01*
X91053228Y-107766703D01*
G37*
G36*
X83433228Y-107766703D02*
X83588100Y-107830853D01*
X83727481Y-107923985D01*
X83846015Y-108042519D01*
X83939147Y-108181900D01*
X84003297Y-108336772D01*
X84036000Y-108501184D01*
X84036000Y-108668816D01*
X84003297Y-108833228D01*
X83939147Y-108988100D01*
X83846015Y-109127481D01*
X83727481Y-109246015D01*
X83588100Y-109339147D01*
X83433228Y-109403297D01*
X83268816Y-109436000D01*
X83101184Y-109436000D01*
X82936772Y-109403297D01*
X82781900Y-109339147D01*
X82642519Y-109246015D01*
X82523985Y-109127481D01*
X82430853Y-108988100D01*
X82366703Y-108833228D01*
X82334000Y-108668816D01*
X82334000Y-108501184D01*
X82366703Y-108336772D01*
X82430853Y-108181900D01*
X82523985Y-108042519D01*
X82642519Y-107923985D01*
X82781900Y-107830853D01*
X82936772Y-107766703D01*
X83101184Y-107734000D01*
X83268816Y-107734000D01*
X83433228Y-107766703D01*
X83433228Y-107766703D01*
G37*
G36*
X88513228Y-107766703D02*
X88668100Y-107830853D01*
X88807481Y-107923985D01*
X88926015Y-108042519D01*
X89019147Y-108181900D01*
X89083297Y-108336772D01*
X89116000Y-108501184D01*
X89116000Y-108668816D01*
X89083297Y-108833228D01*
X89019147Y-108988100D01*
X88926015Y-109127481D01*
X88807481Y-109246015D01*
X88668100Y-109339147D01*
X88513228Y-109403297D01*
X88348816Y-109436000D01*
X88181184Y-109436000D01*
X88016772Y-109403297D01*
X87861900Y-109339147D01*
X87722519Y-109246015D01*
X87603985Y-109127481D01*
X87510853Y-108988100D01*
X87446703Y-108833228D01*
X87414000Y-108668816D01*
X87414000Y-108501184D01*
X87446703Y-108336772D01*
X87510853Y-108181900D01*
X87603985Y-108042519D01*
X87722519Y-107923985D01*
X87861900Y-107830853D01*
X88016772Y-107766703D01*
X88181184Y-107734000D01*
X88348816Y-107734000D01*
X88513228Y-107766703D01*
X88513228Y-107766703D01*
G37*
G36*
X63113228Y-105226703D02*
X63268100Y-105290853D01*
X63407481Y-105383985D01*
X63526015Y-105502519D01*
X63619147Y-105641900D01*
X63683297Y-105796772D01*
X63716000Y-105961184D01*
X63716000Y-106128816D01*
X63683297Y-106293228D01*
X63619147Y-106448100D01*
X63526015Y-106587481D01*
X63407481Y-106706015D01*
X63268100Y-106799147D01*
X63113228Y-106863297D01*
X62948816Y-106896000D01*
X62781184Y-106896000D01*
X62616772Y-106863297D01*
X62461900Y-106799147D01*
X62322519Y-106706015D01*
X62203985Y-106587481D01*
X62110853Y-106448100D01*
X62046703Y-106293228D01*
X62014000Y-106128816D01*
X62014000Y-105961184D01*
X62046703Y-105796772D01*
X62110853Y-105641900D01*
X62203985Y-105502519D01*
X62322519Y-105383985D01*
X62461900Y-105290853D01*
X62616772Y-105226703D01*
X62781184Y-105194000D01*
X62948816Y-105194000D01*
X63113228Y-105226703D01*
X63113228Y-105226703D01*
G37*
G36*
X83433228Y-105226703D02*
X83588100Y-105290853D01*
X83727481Y-105383985D01*
X83846015Y-105502519D01*
X83939147Y-105641900D01*
X84003297Y-105796772D01*
X84036000Y-105961184D01*
X84036000Y-106128816D01*
X84003297Y-106293228D01*
X83939147Y-106448100D01*
X83846015Y-106587481D01*
X83727481Y-106706015D01*
X83588100Y-106799147D01*
X83433228Y-106863297D01*
X83268816Y-106896000D01*
X83101184Y-106896000D01*
X82936772Y-106863297D01*
X82781900Y-106799147D01*
X82642519Y-106706015D01*
X82523985Y-106587481D01*
X82430853Y-106448100D01*
X82366703Y-106293228D01*
X82334000Y-106128816D01*
X82334000Y-105961184D01*
X82366703Y-105796772D01*
X82430853Y-105641900D01*
X82523985Y-105502519D01*
X82642519Y-105383985D01*
X82781900Y-105290853D01*
X82936772Y-105226703D01*
X83101184Y-105194000D01*
X83268816Y-105194000D01*
X83433228Y-105226703D01*
X83433228Y-105226703D01*
G37*
G36*
X85973228Y-105226703D02*
X86128100Y-105290853D01*
X86267481Y-105383985D01*
X86386015Y-105502519D01*
X86479147Y-105641900D01*
X86543297Y-105796772D01*
X86576000Y-105961184D01*
X86576000Y-106128816D01*
X86543297Y-106293228D01*
X86479147Y-106448100D01*
X86386015Y-106587481D01*
X86267481Y-106706015D01*
X86128100Y-106799147D01*
X85973228Y-106863297D01*
X85808816Y-106896000D01*
X85641184Y-106896000D01*
X85476772Y-106863297D01*
X85321900Y-106799147D01*
X85182519Y-106706015D01*
X85063985Y-106587481D01*
X84970853Y-106448100D01*
X84906703Y-106293228D01*
X84874000Y-106128816D01*
X84874000Y-105961184D01*
X84906703Y-105796772D01*
X84970853Y-105641900D01*
X85063985Y-105502519D01*
X85182519Y-105383985D01*
X85321900Y-105290853D01*
X85476772Y-105226703D01*
X85641184Y-105194000D01*
X85808816Y-105194000D01*
X85973228Y-105226703D01*
X85973228Y-105226703D01*
G37*
G36*
X93593228Y-105226703D02*
X93748100Y-105290853D01*
X93887481Y-105383985D01*
X94006015Y-105502519D01*
X94099147Y-105641900D01*
X94163297Y-105796772D01*
X94196000Y-105961184D01*
X94196000Y-106128816D01*
X94163297Y-106293228D01*
X94099147Y-106448100D01*
X94006015Y-106587481D01*
X93887481Y-106706015D01*
X93748100Y-106799147D01*
X93593228Y-106863297D01*
X93428816Y-106896000D01*
X93261184Y-106896000D01*
X93096772Y-106863297D01*
X92941900Y-106799147D01*
X92802519Y-106706015D01*
X92683985Y-106587481D01*
X92590853Y-106448100D01*
X92526703Y-106293228D01*
X92494000Y-106128816D01*
X92494000Y-105961184D01*
X92526703Y-105796772D01*
X92590853Y-105641900D01*
X92683985Y-105502519D01*
X92802519Y-105383985D01*
X92941900Y-105290853D01*
X93096772Y-105226703D01*
X93261184Y-105194000D01*
X93428816Y-105194000D01*
X93593228Y-105226703D01*
X93593228Y-105226703D01*
G37*
G36*
X88513228Y-105226703D02*
X88668100Y-105290853D01*
X88807481Y-105383985D01*
X88926015Y-105502519D01*
X89019147Y-105641900D01*
X89083297Y-105796772D01*
X89116000Y-105961184D01*
X89116000Y-106128816D01*
X89083297Y-106293228D01*
X89019147Y-106448100D01*
X88926015Y-106587481D01*
X88807481Y-106706015D01*
X88668100Y-106799147D01*
X88513228Y-106863297D01*
X88348816Y-106896000D01*
X88181184Y-106896000D01*
X88016772Y-106863297D01*
X87861900Y-106799147D01*
X87722519Y-106706015D01*
X87603985Y-106587481D01*
X87510853Y-106448100D01*
X87446703Y-106293228D01*
X87414000Y-106128816D01*
X87414000Y-105961184D01*
X87446703Y-105796772D01*
X87510853Y-105641900D01*
X87603985Y-105502519D01*
X87722519Y-105383985D01*
X87861900Y-105290853D01*
X88016772Y-105226703D01*
X88181184Y-105194000D01*
X88348816Y-105194000D01*
X88513228Y-105226703D01*
X88513228Y-105226703D01*
G37*
G36*
X104306821Y-103936313D02*
X104306824Y-103936314D01*
X104306825Y-103936314D01*
X104467239Y-103984975D01*
X104467241Y-103984976D01*
X104467244Y-103984977D01*
X104615078Y-104063995D01*
X104744659Y-104170341D01*
X104851005Y-104299922D01*
X104930023Y-104447756D01*
X104930024Y-104447759D01*
X104930025Y-104447761D01*
X104978686Y-104608175D01*
X104978687Y-104608179D01*
X104995117Y-104775000D01*
X104978687Y-104941821D01*
X104978686Y-104941824D01*
X104978686Y-104941825D01*
X104973690Y-104958296D01*
X104930023Y-105102244D01*
X104851005Y-105250078D01*
X104744659Y-105379659D01*
X104615078Y-105486005D01*
X104467244Y-105565023D01*
X104467241Y-105565024D01*
X104467239Y-105565025D01*
X104306825Y-105613686D01*
X104306824Y-105613686D01*
X104306821Y-105613687D01*
X104181804Y-105626000D01*
X104098196Y-105626000D01*
X103973179Y-105613687D01*
X103973176Y-105613686D01*
X103973175Y-105613686D01*
X103812761Y-105565025D01*
X103812759Y-105565024D01*
X103812756Y-105565023D01*
X103664922Y-105486005D01*
X103535341Y-105379659D01*
X103428995Y-105250078D01*
X103349977Y-105102244D01*
X103306311Y-104958296D01*
X103301314Y-104941825D01*
X103301314Y-104941824D01*
X103301313Y-104941821D01*
X103284883Y-104775000D01*
X103301313Y-104608179D01*
X103301314Y-104608175D01*
X103349975Y-104447761D01*
X103349976Y-104447759D01*
X103349977Y-104447756D01*
X103428995Y-104299922D01*
X103535341Y-104170341D01*
X103664922Y-104063995D01*
X103812756Y-103984977D01*
X103812759Y-103984976D01*
X103812761Y-103984975D01*
X103973175Y-103936314D01*
X103973176Y-103936314D01*
X103973179Y-103936313D01*
X104098196Y-103924000D01*
X104181804Y-103924000D01*
X104306821Y-103936313D01*
X104306821Y-103936313D01*
G37*
G36*
X109468228Y-103321703D02*
X109623100Y-103385853D01*
X109762481Y-103478985D01*
X109881015Y-103597519D01*
X109974147Y-103736900D01*
X110038297Y-103891772D01*
X110071000Y-104056184D01*
X110071000Y-104223816D01*
X110038297Y-104388228D01*
X109974147Y-104543100D01*
X109881015Y-104682481D01*
X109762481Y-104801015D01*
X109623100Y-104894147D01*
X109468228Y-104958297D01*
X109303816Y-104991000D01*
X109136184Y-104991000D01*
X108971772Y-104958297D01*
X108816900Y-104894147D01*
X108677519Y-104801015D01*
X108558985Y-104682481D01*
X108465853Y-104543100D01*
X108401703Y-104388228D01*
X108369000Y-104223816D01*
X108369000Y-104056184D01*
X108401703Y-103891772D01*
X108465853Y-103736900D01*
X108558985Y-103597519D01*
X108677519Y-103478985D01*
X108816900Y-103385853D01*
X108971772Y-103321703D01*
X109136184Y-103289000D01*
X109303816Y-103289000D01*
X109468228Y-103321703D01*
X109468228Y-103321703D01*
G37*
G36*
X63113228Y-102686703D02*
X63268100Y-102750853D01*
X63407481Y-102843985D01*
X63526015Y-102962519D01*
X63619147Y-103101900D01*
X63683297Y-103256772D01*
X63716000Y-103421184D01*
X63716000Y-103588816D01*
X63683297Y-103753228D01*
X63619147Y-103908100D01*
X63526015Y-104047481D01*
X63407481Y-104166015D01*
X63268100Y-104259147D01*
X63113228Y-104323297D01*
X62948816Y-104356000D01*
X62781184Y-104356000D01*
X62616772Y-104323297D01*
X62461900Y-104259147D01*
X62322519Y-104166015D01*
X62203985Y-104047481D01*
X62110853Y-103908100D01*
X62046703Y-103753228D01*
X62014000Y-103588816D01*
X62014000Y-103421184D01*
X62046703Y-103256772D01*
X62110853Y-103101900D01*
X62203985Y-102962519D01*
X62322519Y-102843985D01*
X62461900Y-102750853D01*
X62616772Y-102686703D01*
X62781184Y-102654000D01*
X62948816Y-102654000D01*
X63113228Y-102686703D01*
X63113228Y-102686703D01*
G37*
G36*
X155380612Y-102141055D02*
X155446797Y-102147574D01*
X155560023Y-102181921D01*
X155616637Y-102199094D01*
X155703481Y-102245514D01*
X155773161Y-102282759D01*
X155807577Y-102311004D01*
X155910356Y-102395351D01*
X155990539Y-102493056D01*
X156022948Y-102532546D01*
X156022949Y-102532548D01*
X156106613Y-102689070D01*
X156123786Y-102745684D01*
X156158133Y-102858910D01*
X156175529Y-103035537D01*
X156158133Y-103212164D01*
X156144601Y-103256772D01*
X156106613Y-103382004D01*
X156054775Y-103478985D01*
X156022948Y-103538528D01*
X155993618Y-103574266D01*
X155910356Y-103675723D01*
X155815914Y-103753228D01*
X155773161Y-103788315D01*
X155773159Y-103788316D01*
X155616637Y-103871980D01*
X155609239Y-103874224D01*
X155446797Y-103923500D01*
X155380613Y-103930018D01*
X155314430Y-103936537D01*
X155225910Y-103936537D01*
X155159727Y-103930018D01*
X155093543Y-103923500D01*
X154931101Y-103874224D01*
X154923703Y-103871980D01*
X154767181Y-103788316D01*
X154767179Y-103788315D01*
X154724426Y-103753228D01*
X154629984Y-103675723D01*
X154546722Y-103574266D01*
X154517392Y-103538528D01*
X154485565Y-103478985D01*
X154433727Y-103382004D01*
X154395739Y-103256772D01*
X154382207Y-103212164D01*
X154364811Y-103035537D01*
X154382207Y-102858910D01*
X154416554Y-102745684D01*
X154433727Y-102689070D01*
X154517391Y-102532548D01*
X154517392Y-102532546D01*
X154549801Y-102493056D01*
X154629984Y-102395351D01*
X154732763Y-102311004D01*
X154767179Y-102282759D01*
X154836859Y-102245514D01*
X154923703Y-102199094D01*
X154980317Y-102181921D01*
X155093543Y-102147574D01*
X155159728Y-102141055D01*
X155225910Y-102134537D01*
X155314430Y-102134537D01*
X155380612Y-102141055D01*
X155380612Y-102141055D01*
G37*
G36*
X138926991Y-102196850D02*
X138926994Y-102196851D01*
X138926995Y-102196851D01*
X139087409Y-102245512D01*
X139087411Y-102245513D01*
X139087414Y-102245514D01*
X139235248Y-102324532D01*
X139364829Y-102430878D01*
X139471175Y-102560459D01*
X139550193Y-102708293D01*
X139550194Y-102708296D01*
X139550195Y-102708298D01*
X139595883Y-102858912D01*
X139598857Y-102868716D01*
X139615287Y-103035537D01*
X139598857Y-103202358D01*
X139598856Y-103202361D01*
X139598856Y-103202362D01*
X139572575Y-103289000D01*
X139550193Y-103362781D01*
X139471175Y-103510615D01*
X139364829Y-103640196D01*
X139235248Y-103746542D01*
X139087414Y-103825560D01*
X139087411Y-103825561D01*
X139087409Y-103825562D01*
X138926995Y-103874223D01*
X138926994Y-103874223D01*
X138926991Y-103874224D01*
X138801974Y-103886537D01*
X138718366Y-103886537D01*
X138593349Y-103874224D01*
X138593346Y-103874223D01*
X138593345Y-103874223D01*
X138432931Y-103825562D01*
X138432929Y-103825561D01*
X138432926Y-103825560D01*
X138285092Y-103746542D01*
X138155511Y-103640196D01*
X138049165Y-103510615D01*
X137970147Y-103362781D01*
X137947766Y-103289000D01*
X137921484Y-103202362D01*
X137921484Y-103202361D01*
X137921483Y-103202358D01*
X137905053Y-103035537D01*
X137921483Y-102868716D01*
X137924457Y-102858912D01*
X137970145Y-102708298D01*
X137970146Y-102708296D01*
X137970147Y-102708293D01*
X138049165Y-102560459D01*
X138155511Y-102430878D01*
X138285092Y-102324532D01*
X138432926Y-102245514D01*
X138432929Y-102245513D01*
X138432931Y-102245512D01*
X138593345Y-102196851D01*
X138593346Y-102196851D01*
X138593349Y-102196850D01*
X138718366Y-102184537D01*
X138801974Y-102184537D01*
X138926991Y-102196850D01*
X138926991Y-102196850D01*
G37*
G36*
X146628398Y-102217240D02*
X146783270Y-102281390D01*
X146922651Y-102374522D01*
X147041185Y-102493056D01*
X147134317Y-102632437D01*
X147198467Y-102787309D01*
X147231170Y-102951721D01*
X147231170Y-103119353D01*
X147198467Y-103283765D01*
X147134317Y-103438637D01*
X147041185Y-103578018D01*
X146922651Y-103696552D01*
X146783270Y-103789684D01*
X146628398Y-103853834D01*
X146463986Y-103886537D01*
X146296354Y-103886537D01*
X146131942Y-103853834D01*
X145977070Y-103789684D01*
X145837689Y-103696552D01*
X145719155Y-103578018D01*
X145626023Y-103438637D01*
X145561873Y-103283765D01*
X145529170Y-103119353D01*
X145529170Y-102951721D01*
X145561873Y-102787309D01*
X145626023Y-102632437D01*
X145719155Y-102493056D01*
X145837689Y-102374522D01*
X145977070Y-102281390D01*
X146131942Y-102217240D01*
X146296354Y-102184537D01*
X146463986Y-102184537D01*
X146628398Y-102217240D01*
X146628398Y-102217240D01*
G37*
G36*
X120181821Y-100761313D02*
X120181824Y-100761314D01*
X120181825Y-100761314D01*
X120342239Y-100809975D01*
X120342241Y-100809976D01*
X120342244Y-100809977D01*
X120490078Y-100888995D01*
X120619659Y-100995341D01*
X120726005Y-101124922D01*
X120805023Y-101272756D01*
X120805024Y-101272759D01*
X120805025Y-101272761D01*
X120838617Y-101383500D01*
X120853687Y-101433179D01*
X120870117Y-101600000D01*
X120853687Y-101766821D01*
X120853686Y-101766824D01*
X120853686Y-101766825D01*
X120827826Y-101852075D01*
X120805023Y-101927244D01*
X120726005Y-102075078D01*
X120619659Y-102204659D01*
X120490078Y-102311005D01*
X120342244Y-102390023D01*
X120342241Y-102390024D01*
X120342239Y-102390025D01*
X120181825Y-102438686D01*
X120181824Y-102438686D01*
X120181821Y-102438687D01*
X120056804Y-102451000D01*
X119973196Y-102451000D01*
X119848179Y-102438687D01*
X119848176Y-102438686D01*
X119848175Y-102438686D01*
X119687761Y-102390025D01*
X119687759Y-102390024D01*
X119687756Y-102390023D01*
X119539922Y-102311005D01*
X119410341Y-102204659D01*
X119303995Y-102075078D01*
X119224977Y-101927244D01*
X119202175Y-101852075D01*
X119176314Y-101766825D01*
X119176314Y-101766824D01*
X119176313Y-101766821D01*
X119159883Y-101600000D01*
X119176313Y-101433179D01*
X119191383Y-101383500D01*
X119224975Y-101272761D01*
X119224976Y-101272759D01*
X119224977Y-101272756D01*
X119303995Y-101124922D01*
X119410341Y-100995341D01*
X119539922Y-100888995D01*
X119687756Y-100809977D01*
X119687759Y-100809976D01*
X119687761Y-100809975D01*
X119848175Y-100761314D01*
X119848176Y-100761314D01*
X119848179Y-100761313D01*
X119973196Y-100749000D01*
X120056804Y-100749000D01*
X120181821Y-100761313D01*
X120181821Y-100761313D01*
G37*
G36*
X128486000Y-102451000D02*
X126784000Y-102451000D01*
X126784000Y-100749000D01*
X128486000Y-100749000D01*
X128486000Y-102451000D01*
X128486000Y-102451000D01*
G37*
G36*
X89826981Y-100002468D02*
X90009150Y-100077925D01*
X90173103Y-100187475D01*
X90312525Y-100326897D01*
X90422075Y-100490850D01*
X90497532Y-100673019D01*
X90536000Y-100866410D01*
X90536000Y-101063590D01*
X90497532Y-101256981D01*
X90422075Y-101439150D01*
X90312525Y-101603103D01*
X90173103Y-101742525D01*
X90009150Y-101852075D01*
X89826981Y-101927532D01*
X89633590Y-101966000D01*
X89436410Y-101966000D01*
X89243019Y-101927532D01*
X89060850Y-101852075D01*
X88896897Y-101742525D01*
X88757475Y-101603103D01*
X88647925Y-101439150D01*
X88572468Y-101256981D01*
X88534000Y-101063590D01*
X88534000Y-100866410D01*
X88572468Y-100673019D01*
X88647925Y-100490850D01*
X88757475Y-100326897D01*
X88896897Y-100187475D01*
X89060850Y-100077925D01*
X89243019Y-100002468D01*
X89436410Y-99964000D01*
X89633590Y-99964000D01*
X89826981Y-100002468D01*
X89826981Y-100002468D01*
G37*
G36*
X86016981Y-100002468D02*
X86199150Y-100077925D01*
X86363103Y-100187475D01*
X86502525Y-100326897D01*
X86612075Y-100490850D01*
X86687532Y-100673019D01*
X86726000Y-100866410D01*
X86726000Y-101063590D01*
X86687532Y-101256981D01*
X86612075Y-101439150D01*
X86502525Y-101603103D01*
X86363103Y-101742525D01*
X86199150Y-101852075D01*
X86017688Y-101927239D01*
X86016981Y-101927532D01*
X85823590Y-101966000D01*
X85626410Y-101966000D01*
X85433019Y-101927532D01*
X85432312Y-101927239D01*
X85250850Y-101852075D01*
X85086897Y-101742525D01*
X84947475Y-101603103D01*
X84837925Y-101439150D01*
X84762468Y-101256981D01*
X84724000Y-101063590D01*
X84724000Y-100866410D01*
X84762468Y-100673019D01*
X84837925Y-100490850D01*
X84947475Y-100326897D01*
X85086897Y-100187475D01*
X85250850Y-100077925D01*
X85433019Y-100002468D01*
X85626410Y-99964000D01*
X85823590Y-99964000D01*
X86016981Y-100002468D01*
X86016981Y-100002468D01*
G37*
G36*
X63113228Y-100146703D02*
X63268100Y-100210853D01*
X63407481Y-100303985D01*
X63526015Y-100422519D01*
X63619147Y-100561900D01*
X63683297Y-100716772D01*
X63716000Y-100881184D01*
X63716000Y-101048816D01*
X63683297Y-101213228D01*
X63619147Y-101368100D01*
X63526015Y-101507481D01*
X63407481Y-101626015D01*
X63268100Y-101719147D01*
X63113228Y-101783297D01*
X62948816Y-101816000D01*
X62781184Y-101816000D01*
X62616772Y-101783297D01*
X62461900Y-101719147D01*
X62322519Y-101626015D01*
X62203985Y-101507481D01*
X62110853Y-101368100D01*
X62046703Y-101213228D01*
X62014000Y-101048816D01*
X62014000Y-100881184D01*
X62046703Y-100716772D01*
X62110853Y-100561900D01*
X62203985Y-100422519D01*
X62322519Y-100303985D01*
X62461900Y-100210853D01*
X62616772Y-100146703D01*
X62781184Y-100114000D01*
X62948816Y-100114000D01*
X63113228Y-100146703D01*
X63113228Y-100146703D01*
G37*
G36*
X155380612Y-99601055D02*
X155446797Y-99607574D01*
X155560023Y-99641921D01*
X155616637Y-99659094D01*
X155660390Y-99682481D01*
X155773161Y-99742759D01*
X155807577Y-99771004D01*
X155910356Y-99855351D01*
X155993618Y-99956808D01*
X156022948Y-99992546D01*
X156022949Y-99992548D01*
X156106613Y-100149070D01*
X156106613Y-100149071D01*
X156158133Y-100318910D01*
X156175529Y-100495537D01*
X156158133Y-100672164D01*
X156144601Y-100716772D01*
X156106613Y-100842004D01*
X156081495Y-100888995D01*
X156022948Y-100998528D01*
X155993618Y-101034266D01*
X155910356Y-101135723D01*
X155815914Y-101213228D01*
X155773161Y-101248315D01*
X155773159Y-101248316D01*
X155616637Y-101331980D01*
X155560023Y-101349153D01*
X155446797Y-101383500D01*
X155380613Y-101390018D01*
X155314430Y-101396537D01*
X155225910Y-101396537D01*
X155159727Y-101390018D01*
X155093543Y-101383500D01*
X154980317Y-101349153D01*
X154923703Y-101331980D01*
X154767181Y-101248316D01*
X154767179Y-101248315D01*
X154724426Y-101213228D01*
X154629984Y-101135723D01*
X154546722Y-101034266D01*
X154517392Y-100998528D01*
X154458845Y-100888995D01*
X154433727Y-100842004D01*
X154395739Y-100716772D01*
X154382207Y-100672164D01*
X154364811Y-100495537D01*
X154382207Y-100318910D01*
X154433727Y-100149071D01*
X154433727Y-100149070D01*
X154517391Y-99992548D01*
X154517392Y-99992546D01*
X154546722Y-99956808D01*
X154629984Y-99855351D01*
X154732763Y-99771004D01*
X154767179Y-99742759D01*
X154879950Y-99682481D01*
X154923703Y-99659094D01*
X154980317Y-99641921D01*
X155093543Y-99607574D01*
X155159728Y-99601055D01*
X155225910Y-99594537D01*
X155314430Y-99594537D01*
X155380612Y-99601055D01*
X155380612Y-99601055D01*
G37*
G36*
X109468228Y-98321703D02*
X109623100Y-98385853D01*
X109762481Y-98478985D01*
X109881015Y-98597519D01*
X109974147Y-98736900D01*
X110038297Y-98891772D01*
X110071000Y-99056184D01*
X110071000Y-99223816D01*
X110038297Y-99388228D01*
X109974147Y-99543100D01*
X109881015Y-99682481D01*
X109762481Y-99801015D01*
X109623100Y-99894147D01*
X109468228Y-99958297D01*
X109303816Y-99991000D01*
X109136184Y-99991000D01*
X108971772Y-99958297D01*
X108816900Y-99894147D01*
X108677519Y-99801015D01*
X108558985Y-99682481D01*
X108465853Y-99543100D01*
X108401703Y-99388228D01*
X108369000Y-99223816D01*
X108369000Y-99056184D01*
X108401703Y-98891772D01*
X108465853Y-98736900D01*
X108558985Y-98597519D01*
X108677519Y-98478985D01*
X108816900Y-98385853D01*
X108971772Y-98321703D01*
X109136184Y-98289000D01*
X109303816Y-98289000D01*
X109468228Y-98321703D01*
X109468228Y-98321703D01*
G37*
G36*
X127801821Y-98221313D02*
X127801824Y-98221314D01*
X127801825Y-98221314D01*
X127962239Y-98269975D01*
X127962241Y-98269976D01*
X127962244Y-98269977D01*
X128110078Y-98348995D01*
X128239659Y-98455341D01*
X128346005Y-98584922D01*
X128425023Y-98732756D01*
X128425024Y-98732759D01*
X128425025Y-98732761D01*
X128462572Y-98856537D01*
X128473687Y-98893179D01*
X128490117Y-99060000D01*
X128473687Y-99226821D01*
X128473686Y-99226824D01*
X128473686Y-99226825D01*
X128468690Y-99243296D01*
X128425023Y-99387244D01*
X128346005Y-99535078D01*
X128239659Y-99664659D01*
X128110078Y-99771005D01*
X127962244Y-99850023D01*
X127962241Y-99850024D01*
X127962239Y-99850025D01*
X127801825Y-99898686D01*
X127801824Y-99898686D01*
X127801821Y-99898687D01*
X127676804Y-99911000D01*
X127593196Y-99911000D01*
X127468179Y-99898687D01*
X127468176Y-99898686D01*
X127468175Y-99898686D01*
X127307761Y-99850025D01*
X127307759Y-99850024D01*
X127307756Y-99850023D01*
X127159922Y-99771005D01*
X127030341Y-99664659D01*
X126923995Y-99535078D01*
X126844977Y-99387244D01*
X126801311Y-99243296D01*
X126796314Y-99226825D01*
X126796314Y-99226824D01*
X126796313Y-99226821D01*
X126779883Y-99060000D01*
X126796313Y-98893179D01*
X126807428Y-98856537D01*
X126844975Y-98732761D01*
X126844976Y-98732759D01*
X126844977Y-98732756D01*
X126923995Y-98584922D01*
X127030341Y-98455341D01*
X127159922Y-98348995D01*
X127307756Y-98269977D01*
X127307759Y-98269976D01*
X127307761Y-98269975D01*
X127468175Y-98221314D01*
X127468176Y-98221314D01*
X127468179Y-98221313D01*
X127593196Y-98209000D01*
X127676804Y-98209000D01*
X127801821Y-98221313D01*
X127801821Y-98221313D01*
G37*
G36*
X120181821Y-98221313D02*
X120181824Y-98221314D01*
X120181825Y-98221314D01*
X120342239Y-98269975D01*
X120342241Y-98269976D01*
X120342244Y-98269977D01*
X120490078Y-98348995D01*
X120619659Y-98455341D01*
X120726005Y-98584922D01*
X120805023Y-98732756D01*
X120805024Y-98732759D01*
X120805025Y-98732761D01*
X120842572Y-98856537D01*
X120853687Y-98893179D01*
X120870117Y-99060000D01*
X120853687Y-99226821D01*
X120853686Y-99226824D01*
X120853686Y-99226825D01*
X120848690Y-99243296D01*
X120805023Y-99387244D01*
X120726005Y-99535078D01*
X120619659Y-99664659D01*
X120490078Y-99771005D01*
X120342244Y-99850023D01*
X120342241Y-99850024D01*
X120342239Y-99850025D01*
X120181825Y-99898686D01*
X120181824Y-99898686D01*
X120181821Y-99898687D01*
X120056804Y-99911000D01*
X119973196Y-99911000D01*
X119848179Y-99898687D01*
X119848176Y-99898686D01*
X119848175Y-99898686D01*
X119687761Y-99850025D01*
X119687759Y-99850024D01*
X119687756Y-99850023D01*
X119539922Y-99771005D01*
X119410341Y-99664659D01*
X119303995Y-99535078D01*
X119224977Y-99387244D01*
X119181311Y-99243296D01*
X119176314Y-99226825D01*
X119176314Y-99226824D01*
X119176313Y-99226821D01*
X119159883Y-99060000D01*
X119176313Y-98893179D01*
X119187428Y-98856537D01*
X119224975Y-98732761D01*
X119224976Y-98732759D01*
X119224977Y-98732756D01*
X119303995Y-98584922D01*
X119410341Y-98455341D01*
X119539922Y-98348995D01*
X119687756Y-98269977D01*
X119687759Y-98269976D01*
X119687761Y-98269975D01*
X119848175Y-98221314D01*
X119848176Y-98221314D01*
X119848179Y-98221313D01*
X119973196Y-98209000D01*
X120056804Y-98209000D01*
X120181821Y-98221313D01*
X120181821Y-98221313D01*
G37*
G36*
X63113228Y-97606703D02*
X63268100Y-97670853D01*
X63407481Y-97763985D01*
X63526015Y-97882519D01*
X63619147Y-98021900D01*
X63683297Y-98176772D01*
X63716000Y-98341184D01*
X63716000Y-98508816D01*
X63683297Y-98673228D01*
X63619147Y-98828100D01*
X63526015Y-98967481D01*
X63407481Y-99086015D01*
X63268100Y-99179147D01*
X63113228Y-99243297D01*
X62948816Y-99276000D01*
X62781184Y-99276000D01*
X62616772Y-99243297D01*
X62461900Y-99179147D01*
X62322519Y-99086015D01*
X62203985Y-98967481D01*
X62110853Y-98828100D01*
X62046703Y-98673228D01*
X62014000Y-98508816D01*
X62014000Y-98341184D01*
X62046703Y-98176772D01*
X62110853Y-98021900D01*
X62203985Y-97882519D01*
X62322519Y-97763985D01*
X62461900Y-97670853D01*
X62616772Y-97606703D01*
X62781184Y-97574000D01*
X62948816Y-97574000D01*
X63113228Y-97606703D01*
X63113228Y-97606703D01*
G37*
G36*
X156171170Y-98856537D02*
X154369170Y-98856537D01*
X154369170Y-97054537D01*
X156171170Y-97054537D01*
X156171170Y-98856537D01*
X156171170Y-98856537D01*
G37*
G36*
X146546991Y-97116850D02*
X146546994Y-97116851D01*
X146546995Y-97116851D01*
X146707409Y-97165512D01*
X146707411Y-97165513D01*
X146707414Y-97165514D01*
X146855248Y-97244532D01*
X146984829Y-97350878D01*
X147091175Y-97480459D01*
X147170193Y-97628293D01*
X147170194Y-97628296D01*
X147170195Y-97628298D01*
X147211355Y-97763985D01*
X147218857Y-97788716D01*
X147235287Y-97955537D01*
X147218857Y-98122358D01*
X147218856Y-98122361D01*
X147218856Y-98122362D01*
X147174078Y-98269977D01*
X147170193Y-98282781D01*
X147091175Y-98430615D01*
X146984829Y-98560196D01*
X146855248Y-98666542D01*
X146707414Y-98745560D01*
X146707411Y-98745561D01*
X146707409Y-98745562D01*
X146546995Y-98794223D01*
X146546994Y-98794223D01*
X146546991Y-98794224D01*
X146421974Y-98806537D01*
X146338366Y-98806537D01*
X146213349Y-98794224D01*
X146213346Y-98794223D01*
X146213345Y-98794223D01*
X146052931Y-98745562D01*
X146052929Y-98745561D01*
X146052926Y-98745560D01*
X145905092Y-98666542D01*
X145775511Y-98560196D01*
X145669165Y-98430615D01*
X145590147Y-98282781D01*
X145586263Y-98269977D01*
X145541484Y-98122362D01*
X145541484Y-98122361D01*
X145541483Y-98122358D01*
X145525053Y-97955537D01*
X145541483Y-97788716D01*
X145548985Y-97763985D01*
X145590145Y-97628298D01*
X145590146Y-97628296D01*
X145590147Y-97628293D01*
X145669165Y-97480459D01*
X145775511Y-97350878D01*
X145905092Y-97244532D01*
X146052926Y-97165514D01*
X146052929Y-97165513D01*
X146052931Y-97165512D01*
X146213345Y-97116851D01*
X146213346Y-97116851D01*
X146213349Y-97116850D01*
X146338366Y-97104537D01*
X146421974Y-97104537D01*
X146546991Y-97116850D01*
X146546991Y-97116850D01*
G37*
G36*
X139008398Y-97137240D02*
X139163270Y-97201390D01*
X139302651Y-97294522D01*
X139421185Y-97413056D01*
X139514317Y-97552437D01*
X139578467Y-97707309D01*
X139611170Y-97871721D01*
X139611170Y-98039353D01*
X139578467Y-98203765D01*
X139514317Y-98358637D01*
X139421185Y-98498018D01*
X139302651Y-98616552D01*
X139163270Y-98709684D01*
X139008398Y-98773834D01*
X138843986Y-98806537D01*
X138676354Y-98806537D01*
X138511942Y-98773834D01*
X138357070Y-98709684D01*
X138217689Y-98616552D01*
X138099155Y-98498018D01*
X138006023Y-98358637D01*
X137941873Y-98203765D01*
X137909170Y-98039353D01*
X137909170Y-97871721D01*
X137941873Y-97707309D01*
X138006023Y-97552437D01*
X138099155Y-97413056D01*
X138217689Y-97294522D01*
X138357070Y-97201390D01*
X138511942Y-97137240D01*
X138676354Y-97104537D01*
X138843986Y-97104537D01*
X139008398Y-97137240D01*
X139008398Y-97137240D01*
G37*
G36*
X104388228Y-96336703D02*
X104543100Y-96400853D01*
X104682481Y-96493985D01*
X104801015Y-96612519D01*
X104894147Y-96751900D01*
X104958297Y-96906772D01*
X104991000Y-97071184D01*
X104991000Y-97238816D01*
X104958297Y-97403228D01*
X104894147Y-97558100D01*
X104801015Y-97697481D01*
X104682481Y-97816015D01*
X104543100Y-97909147D01*
X104388228Y-97973297D01*
X104223816Y-98006000D01*
X104056184Y-98006000D01*
X103891772Y-97973297D01*
X103736900Y-97909147D01*
X103597519Y-97816015D01*
X103478985Y-97697481D01*
X103385853Y-97558100D01*
X103321703Y-97403228D01*
X103289000Y-97238816D01*
X103289000Y-97071184D01*
X103321703Y-96906772D01*
X103385853Y-96751900D01*
X103478985Y-96612519D01*
X103597519Y-96493985D01*
X103736900Y-96400853D01*
X103891772Y-96336703D01*
X104056184Y-96304000D01*
X104223816Y-96304000D01*
X104388228Y-96336703D01*
X104388228Y-96336703D01*
G37*
G36*
X127801821Y-95681313D02*
X127801824Y-95681314D01*
X127801825Y-95681314D01*
X127962239Y-95729975D01*
X127962241Y-95729976D01*
X127962244Y-95729977D01*
X128110078Y-95808995D01*
X128239659Y-95915341D01*
X128346005Y-96044922D01*
X128425023Y-96192756D01*
X128425024Y-96192759D01*
X128425025Y-96192761D01*
X128473686Y-96353175D01*
X128473687Y-96353179D01*
X128490117Y-96520000D01*
X128473687Y-96686821D01*
X128473686Y-96686824D01*
X128473686Y-96686825D01*
X128453946Y-96751900D01*
X128425023Y-96847244D01*
X128346005Y-96995078D01*
X128239659Y-97124659D01*
X128110078Y-97231005D01*
X127962244Y-97310023D01*
X127962241Y-97310024D01*
X127962239Y-97310025D01*
X127801825Y-97358686D01*
X127801824Y-97358686D01*
X127801821Y-97358687D01*
X127676804Y-97371000D01*
X127593196Y-97371000D01*
X127468179Y-97358687D01*
X127468176Y-97358686D01*
X127468175Y-97358686D01*
X127307761Y-97310025D01*
X127307759Y-97310024D01*
X127307756Y-97310023D01*
X127159922Y-97231005D01*
X127030341Y-97124659D01*
X126923995Y-96995078D01*
X126844977Y-96847244D01*
X126816055Y-96751900D01*
X126796314Y-96686825D01*
X126796314Y-96686824D01*
X126796313Y-96686821D01*
X126779883Y-96520000D01*
X126796313Y-96353179D01*
X126796314Y-96353175D01*
X126844975Y-96192761D01*
X126844976Y-96192759D01*
X126844977Y-96192756D01*
X126923995Y-96044922D01*
X127030341Y-95915341D01*
X127159922Y-95808995D01*
X127307756Y-95729977D01*
X127307759Y-95729976D01*
X127307761Y-95729975D01*
X127468175Y-95681314D01*
X127468176Y-95681314D01*
X127468179Y-95681313D01*
X127593196Y-95669000D01*
X127676804Y-95669000D01*
X127801821Y-95681313D01*
X127801821Y-95681313D01*
G37*
G36*
X120181821Y-95681313D02*
X120181824Y-95681314D01*
X120181825Y-95681314D01*
X120342239Y-95729975D01*
X120342241Y-95729976D01*
X120342244Y-95729977D01*
X120490078Y-95808995D01*
X120619659Y-95915341D01*
X120726005Y-96044922D01*
X120805023Y-96192756D01*
X120805024Y-96192759D01*
X120805025Y-96192761D01*
X120853686Y-96353175D01*
X120853687Y-96353179D01*
X120870117Y-96520000D01*
X120853687Y-96686821D01*
X120853686Y-96686824D01*
X120853686Y-96686825D01*
X120833946Y-96751900D01*
X120805023Y-96847244D01*
X120726005Y-96995078D01*
X120619659Y-97124659D01*
X120490078Y-97231005D01*
X120342244Y-97310023D01*
X120342241Y-97310024D01*
X120342239Y-97310025D01*
X120181825Y-97358686D01*
X120181824Y-97358686D01*
X120181821Y-97358687D01*
X120056804Y-97371000D01*
X119973196Y-97371000D01*
X119848179Y-97358687D01*
X119848176Y-97358686D01*
X119848175Y-97358686D01*
X119687761Y-97310025D01*
X119687759Y-97310024D01*
X119687756Y-97310023D01*
X119539922Y-97231005D01*
X119410341Y-97124659D01*
X119303995Y-96995078D01*
X119224977Y-96847244D01*
X119196055Y-96751900D01*
X119176314Y-96686825D01*
X119176314Y-96686824D01*
X119176313Y-96686821D01*
X119159883Y-96520000D01*
X119176313Y-96353179D01*
X119176314Y-96353175D01*
X119224975Y-96192761D01*
X119224976Y-96192759D01*
X119224977Y-96192756D01*
X119303995Y-96044922D01*
X119410341Y-95915341D01*
X119539922Y-95808995D01*
X119687756Y-95729977D01*
X119687759Y-95729976D01*
X119687761Y-95729975D01*
X119848175Y-95681314D01*
X119848176Y-95681314D01*
X119848179Y-95681313D01*
X119973196Y-95669000D01*
X120056804Y-95669000D01*
X120181821Y-95681313D01*
X120181821Y-95681313D01*
G37*
G36*
X63113228Y-95066703D02*
X63268100Y-95130853D01*
X63407481Y-95223985D01*
X63526015Y-95342519D01*
X63619147Y-95481900D01*
X63683297Y-95636772D01*
X63716000Y-95801184D01*
X63716000Y-95968816D01*
X63683297Y-96133228D01*
X63619147Y-96288100D01*
X63526015Y-96427481D01*
X63407481Y-96546015D01*
X63268100Y-96639147D01*
X63113228Y-96703297D01*
X62948816Y-96736000D01*
X62781184Y-96736000D01*
X62616772Y-96703297D01*
X62461900Y-96639147D01*
X62322519Y-96546015D01*
X62203985Y-96427481D01*
X62110853Y-96288100D01*
X62046703Y-96133228D01*
X62014000Y-95968816D01*
X62014000Y-95801184D01*
X62046703Y-95636772D01*
X62110853Y-95481900D01*
X62203985Y-95342519D01*
X62322519Y-95223985D01*
X62461900Y-95130853D01*
X62616772Y-95066703D01*
X62781184Y-95034000D01*
X62948816Y-95034000D01*
X63113228Y-95066703D01*
X63113228Y-95066703D01*
G37*
G36*
X120181821Y-93141313D02*
X120181824Y-93141314D01*
X120181825Y-93141314D01*
X120342239Y-93189975D01*
X120342241Y-93189976D01*
X120342244Y-93189977D01*
X120490078Y-93268995D01*
X120619659Y-93375341D01*
X120726005Y-93504922D01*
X120805023Y-93652756D01*
X120805024Y-93652759D01*
X120805025Y-93652761D01*
X120853686Y-93813175D01*
X120853687Y-93813179D01*
X120870117Y-93980000D01*
X120853687Y-94146821D01*
X120853686Y-94146824D01*
X120853686Y-94146825D01*
X120848690Y-94163296D01*
X120805023Y-94307244D01*
X120726005Y-94455078D01*
X120619659Y-94584659D01*
X120490078Y-94691005D01*
X120342244Y-94770023D01*
X120342241Y-94770024D01*
X120342239Y-94770025D01*
X120181825Y-94818686D01*
X120181824Y-94818686D01*
X120181821Y-94818687D01*
X120056804Y-94831000D01*
X119973196Y-94831000D01*
X119848179Y-94818687D01*
X119848176Y-94818686D01*
X119848175Y-94818686D01*
X119687761Y-94770025D01*
X119687759Y-94770024D01*
X119687756Y-94770023D01*
X119539922Y-94691005D01*
X119410341Y-94584659D01*
X119303995Y-94455078D01*
X119224977Y-94307244D01*
X119181311Y-94163296D01*
X119176314Y-94146825D01*
X119176314Y-94146824D01*
X119176313Y-94146821D01*
X119159883Y-93980000D01*
X119176313Y-93813179D01*
X119176314Y-93813175D01*
X119224975Y-93652761D01*
X119224976Y-93652759D01*
X119224977Y-93652756D01*
X119303995Y-93504922D01*
X119410341Y-93375341D01*
X119539922Y-93268995D01*
X119687756Y-93189977D01*
X119687759Y-93189976D01*
X119687761Y-93189975D01*
X119848175Y-93141314D01*
X119848176Y-93141314D01*
X119848179Y-93141313D01*
X119973196Y-93129000D01*
X120056804Y-93129000D01*
X120181821Y-93141313D01*
X120181821Y-93141313D01*
G37*
G36*
X127801821Y-93141313D02*
X127801824Y-93141314D01*
X127801825Y-93141314D01*
X127962239Y-93189975D01*
X127962241Y-93189976D01*
X127962244Y-93189977D01*
X128110078Y-93268995D01*
X128239659Y-93375341D01*
X128346005Y-93504922D01*
X128425023Y-93652756D01*
X128425024Y-93652759D01*
X128425025Y-93652761D01*
X128473686Y-93813175D01*
X128473687Y-93813179D01*
X128490117Y-93980000D01*
X128473687Y-94146821D01*
X128473686Y-94146824D01*
X128473686Y-94146825D01*
X128468690Y-94163296D01*
X128425023Y-94307244D01*
X128346005Y-94455078D01*
X128239659Y-94584659D01*
X128110078Y-94691005D01*
X127962244Y-94770023D01*
X127962241Y-94770024D01*
X127962239Y-94770025D01*
X127801825Y-94818686D01*
X127801824Y-94818686D01*
X127801821Y-94818687D01*
X127676804Y-94831000D01*
X127593196Y-94831000D01*
X127468179Y-94818687D01*
X127468176Y-94818686D01*
X127468175Y-94818686D01*
X127307761Y-94770025D01*
X127307759Y-94770024D01*
X127307756Y-94770023D01*
X127159922Y-94691005D01*
X127030341Y-94584659D01*
X126923995Y-94455078D01*
X126844977Y-94307244D01*
X126801311Y-94163296D01*
X126796314Y-94146825D01*
X126796314Y-94146824D01*
X126796313Y-94146821D01*
X126779883Y-93980000D01*
X126796313Y-93813179D01*
X126796314Y-93813175D01*
X126844975Y-93652761D01*
X126844976Y-93652759D01*
X126844977Y-93652756D01*
X126923995Y-93504922D01*
X127030341Y-93375341D01*
X127159922Y-93268995D01*
X127307756Y-93189977D01*
X127307759Y-93189976D01*
X127307761Y-93189975D01*
X127468175Y-93141314D01*
X127468176Y-93141314D01*
X127468179Y-93141313D01*
X127593196Y-93129000D01*
X127676804Y-93129000D01*
X127801821Y-93141313D01*
X127801821Y-93141313D01*
G37*
G36*
X88513228Y-92526703D02*
X88668100Y-92590853D01*
X88807481Y-92683985D01*
X88926015Y-92802519D01*
X89019147Y-92941900D01*
X89083297Y-93096772D01*
X89116000Y-93261184D01*
X89116000Y-93428816D01*
X89083297Y-93593228D01*
X89019147Y-93748100D01*
X88926015Y-93887481D01*
X88807481Y-94006015D01*
X88668100Y-94099147D01*
X88513228Y-94163297D01*
X88348816Y-94196000D01*
X88181184Y-94196000D01*
X88016772Y-94163297D01*
X87861900Y-94099147D01*
X87722519Y-94006015D01*
X87603985Y-93887481D01*
X87510853Y-93748100D01*
X87446703Y-93593228D01*
X87414000Y-93428816D01*
X87414000Y-93261184D01*
X87446703Y-93096772D01*
X87510853Y-92941900D01*
X87603985Y-92802519D01*
X87722519Y-92683985D01*
X87861900Y-92590853D01*
X88016772Y-92526703D01*
X88181184Y-92494000D01*
X88348816Y-92494000D01*
X88513228Y-92526703D01*
X88513228Y-92526703D01*
G37*
G36*
X93593228Y-92526703D02*
X93748100Y-92590853D01*
X93887481Y-92683985D01*
X94006015Y-92802519D01*
X94099147Y-92941900D01*
X94163297Y-93096772D01*
X94196000Y-93261184D01*
X94196000Y-93428816D01*
X94163297Y-93593228D01*
X94099147Y-93748100D01*
X94006015Y-93887481D01*
X93887481Y-94006015D01*
X93748100Y-94099147D01*
X93593228Y-94163297D01*
X93428816Y-94196000D01*
X93261184Y-94196000D01*
X93096772Y-94163297D01*
X92941900Y-94099147D01*
X92802519Y-94006015D01*
X92683985Y-93887481D01*
X92590853Y-93748100D01*
X92526703Y-93593228D01*
X92494000Y-93428816D01*
X92494000Y-93261184D01*
X92526703Y-93096772D01*
X92590853Y-92941900D01*
X92683985Y-92802519D01*
X92802519Y-92683985D01*
X92941900Y-92590853D01*
X93096772Y-92526703D01*
X93261184Y-92494000D01*
X93428816Y-92494000D01*
X93593228Y-92526703D01*
X93593228Y-92526703D01*
G37*
G36*
X96736000Y-94196000D02*
X95034000Y-94196000D01*
X95034000Y-92494000D01*
X96736000Y-92494000D01*
X96736000Y-94196000D01*
X96736000Y-94196000D01*
G37*
G36*
X85973228Y-92526703D02*
X86128100Y-92590853D01*
X86267481Y-92683985D01*
X86386015Y-92802519D01*
X86479147Y-92941900D01*
X86543297Y-93096772D01*
X86576000Y-93261184D01*
X86576000Y-93428816D01*
X86543297Y-93593228D01*
X86479147Y-93748100D01*
X86386015Y-93887481D01*
X86267481Y-94006015D01*
X86128100Y-94099147D01*
X85973228Y-94163297D01*
X85808816Y-94196000D01*
X85641184Y-94196000D01*
X85476772Y-94163297D01*
X85321900Y-94099147D01*
X85182519Y-94006015D01*
X85063985Y-93887481D01*
X84970853Y-93748100D01*
X84906703Y-93593228D01*
X84874000Y-93428816D01*
X84874000Y-93261184D01*
X84906703Y-93096772D01*
X84970853Y-92941900D01*
X85063985Y-92802519D01*
X85182519Y-92683985D01*
X85321900Y-92590853D01*
X85476772Y-92526703D01*
X85641184Y-92494000D01*
X85808816Y-92494000D01*
X85973228Y-92526703D01*
X85973228Y-92526703D01*
G37*
G36*
X78353228Y-92526703D02*
X78508100Y-92590853D01*
X78647481Y-92683985D01*
X78766015Y-92802519D01*
X78859147Y-92941900D01*
X78923297Y-93096772D01*
X78956000Y-93261184D01*
X78956000Y-93428816D01*
X78923297Y-93593228D01*
X78859147Y-93748100D01*
X78766015Y-93887481D01*
X78647481Y-94006015D01*
X78508100Y-94099147D01*
X78353228Y-94163297D01*
X78188816Y-94196000D01*
X78021184Y-94196000D01*
X77856772Y-94163297D01*
X77701900Y-94099147D01*
X77562519Y-94006015D01*
X77443985Y-93887481D01*
X77350853Y-93748100D01*
X77286703Y-93593228D01*
X77254000Y-93428816D01*
X77254000Y-93261184D01*
X77286703Y-93096772D01*
X77350853Y-92941900D01*
X77443985Y-92802519D01*
X77562519Y-92683985D01*
X77701900Y-92590853D01*
X77856772Y-92526703D01*
X78021184Y-92494000D01*
X78188816Y-92494000D01*
X78353228Y-92526703D01*
X78353228Y-92526703D01*
G37*
G36*
X75813228Y-92526703D02*
X75968100Y-92590853D01*
X76107481Y-92683985D01*
X76226015Y-92802519D01*
X76319147Y-92941900D01*
X76383297Y-93096772D01*
X76416000Y-93261184D01*
X76416000Y-93428816D01*
X76383297Y-93593228D01*
X76319147Y-93748100D01*
X76226015Y-93887481D01*
X76107481Y-94006015D01*
X75968100Y-94099147D01*
X75813228Y-94163297D01*
X75648816Y-94196000D01*
X75481184Y-94196000D01*
X75316772Y-94163297D01*
X75161900Y-94099147D01*
X75022519Y-94006015D01*
X74903985Y-93887481D01*
X74810853Y-93748100D01*
X74746703Y-93593228D01*
X74714000Y-93428816D01*
X74714000Y-93261184D01*
X74746703Y-93096772D01*
X74810853Y-92941900D01*
X74903985Y-92802519D01*
X75022519Y-92683985D01*
X75161900Y-92590853D01*
X75316772Y-92526703D01*
X75481184Y-92494000D01*
X75648816Y-92494000D01*
X75813228Y-92526703D01*
X75813228Y-92526703D01*
G37*
G36*
X91053228Y-92526703D02*
X91208100Y-92590853D01*
X91347481Y-92683985D01*
X91466015Y-92802519D01*
X91559147Y-92941900D01*
X91623297Y-93096772D01*
X91656000Y-93261184D01*
X91656000Y-93428816D01*
X91623297Y-93593228D01*
X91559147Y-93748100D01*
X91466015Y-93887481D01*
X91347481Y-94006015D01*
X91208100Y-94099147D01*
X91053228Y-94163297D01*
X90888816Y-94196000D01*
X90721184Y-94196000D01*
X90556772Y-94163297D01*
X90401900Y-94099147D01*
X90262519Y-94006015D01*
X90143985Y-93887481D01*
X90050853Y-93748100D01*
X89986703Y-93593228D01*
X89954000Y-93428816D01*
X89954000Y-93261184D01*
X89986703Y-93096772D01*
X90050853Y-92941900D01*
X90143985Y-92802519D01*
X90262519Y-92683985D01*
X90401900Y-92590853D01*
X90556772Y-92526703D01*
X90721184Y-92494000D01*
X90888816Y-92494000D01*
X91053228Y-92526703D01*
X91053228Y-92526703D01*
G37*
G36*
X73273228Y-92526703D02*
X73428100Y-92590853D01*
X73567481Y-92683985D01*
X73686015Y-92802519D01*
X73779147Y-92941900D01*
X73843297Y-93096772D01*
X73876000Y-93261184D01*
X73876000Y-93428816D01*
X73843297Y-93593228D01*
X73779147Y-93748100D01*
X73686015Y-93887481D01*
X73567481Y-94006015D01*
X73428100Y-94099147D01*
X73273228Y-94163297D01*
X73108816Y-94196000D01*
X72941184Y-94196000D01*
X72776772Y-94163297D01*
X72621900Y-94099147D01*
X72482519Y-94006015D01*
X72363985Y-93887481D01*
X72270853Y-93748100D01*
X72206703Y-93593228D01*
X72174000Y-93428816D01*
X72174000Y-93261184D01*
X72206703Y-93096772D01*
X72270853Y-92941900D01*
X72363985Y-92802519D01*
X72482519Y-92683985D01*
X72621900Y-92590853D01*
X72776772Y-92526703D01*
X72941184Y-92494000D01*
X73108816Y-92494000D01*
X73273228Y-92526703D01*
X73273228Y-92526703D01*
G37*
G36*
X70733228Y-92526703D02*
X70888100Y-92590853D01*
X71027481Y-92683985D01*
X71146015Y-92802519D01*
X71239147Y-92941900D01*
X71303297Y-93096772D01*
X71336000Y-93261184D01*
X71336000Y-93428816D01*
X71303297Y-93593228D01*
X71239147Y-93748100D01*
X71146015Y-93887481D01*
X71027481Y-94006015D01*
X70888100Y-94099147D01*
X70733228Y-94163297D01*
X70568816Y-94196000D01*
X70401184Y-94196000D01*
X70236772Y-94163297D01*
X70081900Y-94099147D01*
X69942519Y-94006015D01*
X69823985Y-93887481D01*
X69730853Y-93748100D01*
X69666703Y-93593228D01*
X69634000Y-93428816D01*
X69634000Y-93261184D01*
X69666703Y-93096772D01*
X69730853Y-92941900D01*
X69823985Y-92802519D01*
X69942519Y-92683985D01*
X70081900Y-92590853D01*
X70236772Y-92526703D01*
X70401184Y-92494000D01*
X70568816Y-92494000D01*
X70733228Y-92526703D01*
X70733228Y-92526703D01*
G37*
G36*
X80893228Y-92526703D02*
X81048100Y-92590853D01*
X81187481Y-92683985D01*
X81306015Y-92802519D01*
X81399147Y-92941900D01*
X81463297Y-93096772D01*
X81496000Y-93261184D01*
X81496000Y-93428816D01*
X81463297Y-93593228D01*
X81399147Y-93748100D01*
X81306015Y-93887481D01*
X81187481Y-94006015D01*
X81048100Y-94099147D01*
X80893228Y-94163297D01*
X80728816Y-94196000D01*
X80561184Y-94196000D01*
X80396772Y-94163297D01*
X80241900Y-94099147D01*
X80102519Y-94006015D01*
X79983985Y-93887481D01*
X79890853Y-93748100D01*
X79826703Y-93593228D01*
X79794000Y-93428816D01*
X79794000Y-93261184D01*
X79826703Y-93096772D01*
X79890853Y-92941900D01*
X79983985Y-92802519D01*
X80102519Y-92683985D01*
X80241900Y-92590853D01*
X80396772Y-92526703D01*
X80561184Y-92494000D01*
X80728816Y-92494000D01*
X80893228Y-92526703D01*
X80893228Y-92526703D01*
G37*
G36*
X68193228Y-92526703D02*
X68348100Y-92590853D01*
X68487481Y-92683985D01*
X68606015Y-92802519D01*
X68699147Y-92941900D01*
X68763297Y-93096772D01*
X68796000Y-93261184D01*
X68796000Y-93428816D01*
X68763297Y-93593228D01*
X68699147Y-93748100D01*
X68606015Y-93887481D01*
X68487481Y-94006015D01*
X68348100Y-94099147D01*
X68193228Y-94163297D01*
X68028816Y-94196000D01*
X67861184Y-94196000D01*
X67696772Y-94163297D01*
X67541900Y-94099147D01*
X67402519Y-94006015D01*
X67283985Y-93887481D01*
X67190853Y-93748100D01*
X67126703Y-93593228D01*
X67094000Y-93428816D01*
X67094000Y-93261184D01*
X67126703Y-93096772D01*
X67190853Y-92941900D01*
X67283985Y-92802519D01*
X67402519Y-92683985D01*
X67541900Y-92590853D01*
X67696772Y-92526703D01*
X67861184Y-92494000D01*
X68028816Y-92494000D01*
X68193228Y-92526703D01*
X68193228Y-92526703D01*
G37*
G36*
X63113228Y-92526703D02*
X63268100Y-92590853D01*
X63407481Y-92683985D01*
X63526015Y-92802519D01*
X63619147Y-92941900D01*
X63683297Y-93096772D01*
X63716000Y-93261184D01*
X63716000Y-93428816D01*
X63683297Y-93593228D01*
X63619147Y-93748100D01*
X63526015Y-93887481D01*
X63407481Y-94006015D01*
X63268100Y-94099147D01*
X63113228Y-94163297D01*
X62948816Y-94196000D01*
X62781184Y-94196000D01*
X62616772Y-94163297D01*
X62461900Y-94099147D01*
X62322519Y-94006015D01*
X62203985Y-93887481D01*
X62110853Y-93748100D01*
X62046703Y-93593228D01*
X62014000Y-93428816D01*
X62014000Y-93261184D01*
X62046703Y-93096772D01*
X62110853Y-92941900D01*
X62203985Y-92802519D01*
X62322519Y-92683985D01*
X62461900Y-92590853D01*
X62616772Y-92526703D01*
X62781184Y-92494000D01*
X62948816Y-92494000D01*
X63113228Y-92526703D01*
X63113228Y-92526703D01*
G37*
G36*
X65653228Y-92526703D02*
X65808100Y-92590853D01*
X65947481Y-92683985D01*
X66066015Y-92802519D01*
X66159147Y-92941900D01*
X66223297Y-93096772D01*
X66256000Y-93261184D01*
X66256000Y-93428816D01*
X66223297Y-93593228D01*
X66159147Y-93748100D01*
X66066015Y-93887481D01*
X65947481Y-94006015D01*
X65808100Y-94099147D01*
X65653228Y-94163297D01*
X65488816Y-94196000D01*
X65321184Y-94196000D01*
X65156772Y-94163297D01*
X65001900Y-94099147D01*
X64862519Y-94006015D01*
X64743985Y-93887481D01*
X64650853Y-93748100D01*
X64586703Y-93593228D01*
X64554000Y-93428816D01*
X64554000Y-93261184D01*
X64586703Y-93096772D01*
X64650853Y-92941900D01*
X64743985Y-92802519D01*
X64862519Y-92683985D01*
X65001900Y-92590853D01*
X65156772Y-92526703D01*
X65321184Y-92494000D01*
X65488816Y-92494000D01*
X65653228Y-92526703D01*
X65653228Y-92526703D01*
G37*
G36*
X83433228Y-92526703D02*
X83588100Y-92590853D01*
X83727481Y-92683985D01*
X83846015Y-92802519D01*
X83939147Y-92941900D01*
X84003297Y-93096772D01*
X84036000Y-93261184D01*
X84036000Y-93428816D01*
X84003297Y-93593228D01*
X83939147Y-93748100D01*
X83846015Y-93887481D01*
X83727481Y-94006015D01*
X83588100Y-94099147D01*
X83433228Y-94163297D01*
X83268816Y-94196000D01*
X83101184Y-94196000D01*
X82936772Y-94163297D01*
X82781900Y-94099147D01*
X82642519Y-94006015D01*
X82523985Y-93887481D01*
X82430853Y-93748100D01*
X82366703Y-93593228D01*
X82334000Y-93428816D01*
X82334000Y-93261184D01*
X82366703Y-93096772D01*
X82430853Y-92941900D01*
X82523985Y-92802519D01*
X82642519Y-92683985D01*
X82781900Y-92590853D01*
X82936772Y-92526703D01*
X83101184Y-92494000D01*
X83268816Y-92494000D01*
X83433228Y-92526703D01*
X83433228Y-92526703D01*
G37*
G36*
X120181821Y-90601313D02*
X120181824Y-90601314D01*
X120181825Y-90601314D01*
X120342239Y-90649975D01*
X120342241Y-90649976D01*
X120342244Y-90649977D01*
X120490078Y-90728995D01*
X120619659Y-90835341D01*
X120726005Y-90964922D01*
X120805023Y-91112756D01*
X120805024Y-91112759D01*
X120805025Y-91112761D01*
X120838617Y-91223500D01*
X120853687Y-91273179D01*
X120870117Y-91440000D01*
X120853687Y-91606821D01*
X120805023Y-91767244D01*
X120726005Y-91915078D01*
X120619659Y-92044659D01*
X120490078Y-92151005D01*
X120342244Y-92230023D01*
X120342241Y-92230024D01*
X120342239Y-92230025D01*
X120181825Y-92278686D01*
X120181824Y-92278686D01*
X120181821Y-92278687D01*
X120056804Y-92291000D01*
X119973196Y-92291000D01*
X119848179Y-92278687D01*
X119848176Y-92278686D01*
X119848175Y-92278686D01*
X119687761Y-92230025D01*
X119687759Y-92230024D01*
X119687756Y-92230023D01*
X119539922Y-92151005D01*
X119410341Y-92044659D01*
X119303995Y-91915078D01*
X119224977Y-91767244D01*
X119176313Y-91606821D01*
X119159883Y-91440000D01*
X119176313Y-91273179D01*
X119191383Y-91223500D01*
X119224975Y-91112761D01*
X119224976Y-91112759D01*
X119224977Y-91112756D01*
X119303995Y-90964922D01*
X119410341Y-90835341D01*
X119539922Y-90728995D01*
X119687756Y-90649977D01*
X119687759Y-90649976D01*
X119687761Y-90649975D01*
X119848175Y-90601314D01*
X119848176Y-90601314D01*
X119848179Y-90601313D01*
X119973196Y-90589000D01*
X120056804Y-90589000D01*
X120181821Y-90601313D01*
X120181821Y-90601313D01*
G37*
G36*
X127801821Y-90601313D02*
X127801824Y-90601314D01*
X127801825Y-90601314D01*
X127962239Y-90649975D01*
X127962241Y-90649976D01*
X127962244Y-90649977D01*
X128110078Y-90728995D01*
X128239659Y-90835341D01*
X128346005Y-90964922D01*
X128425023Y-91112756D01*
X128425024Y-91112759D01*
X128425025Y-91112761D01*
X128458617Y-91223500D01*
X128473687Y-91273179D01*
X128490117Y-91440000D01*
X128473687Y-91606821D01*
X128425023Y-91767244D01*
X128346005Y-91915078D01*
X128239659Y-92044659D01*
X128110078Y-92151005D01*
X127962244Y-92230023D01*
X127962241Y-92230024D01*
X127962239Y-92230025D01*
X127801825Y-92278686D01*
X127801824Y-92278686D01*
X127801821Y-92278687D01*
X127676804Y-92291000D01*
X127593196Y-92291000D01*
X127468179Y-92278687D01*
X127468176Y-92278686D01*
X127468175Y-92278686D01*
X127307761Y-92230025D01*
X127307759Y-92230024D01*
X127307756Y-92230023D01*
X127159922Y-92151005D01*
X127030341Y-92044659D01*
X126923995Y-91915078D01*
X126844977Y-91767244D01*
X126796313Y-91606821D01*
X126779883Y-91440000D01*
X126796313Y-91273179D01*
X126811383Y-91223500D01*
X126844975Y-91112761D01*
X126844976Y-91112759D01*
X126844977Y-91112756D01*
X126923995Y-90964922D01*
X127030341Y-90835341D01*
X127159922Y-90728995D01*
X127307756Y-90649977D01*
X127307759Y-90649976D01*
X127307761Y-90649975D01*
X127468175Y-90601314D01*
X127468176Y-90601314D01*
X127468179Y-90601313D01*
X127593196Y-90589000D01*
X127676804Y-90589000D01*
X127801821Y-90601313D01*
X127801821Y-90601313D01*
G37*
G36*
X155380612Y-89441055D02*
X155446797Y-89447574D01*
X155560023Y-89481921D01*
X155616637Y-89499094D01*
X155703481Y-89545514D01*
X155773161Y-89582759D01*
X155807577Y-89611004D01*
X155910356Y-89695351D01*
X155990539Y-89793056D01*
X156022948Y-89832546D01*
X156022949Y-89832548D01*
X156106613Y-89989070D01*
X156123786Y-90045684D01*
X156158133Y-90158910D01*
X156175529Y-90335537D01*
X156158133Y-90512164D01*
X156136413Y-90583765D01*
X156106613Y-90682004D01*
X156037868Y-90810615D01*
X156022948Y-90838528D01*
X155993618Y-90874266D01*
X155910356Y-90975723D01*
X155808899Y-91058985D01*
X155773161Y-91088315D01*
X155773159Y-91088316D01*
X155616637Y-91171980D01*
X155609239Y-91174224D01*
X155446797Y-91223500D01*
X155380612Y-91230019D01*
X155314430Y-91236537D01*
X155225910Y-91236537D01*
X155159728Y-91230019D01*
X155093543Y-91223500D01*
X154931101Y-91174224D01*
X154923703Y-91171980D01*
X154767181Y-91088316D01*
X154767179Y-91088315D01*
X154731441Y-91058985D01*
X154629984Y-90975723D01*
X154546722Y-90874266D01*
X154517392Y-90838528D01*
X154502472Y-90810615D01*
X154433727Y-90682004D01*
X154403927Y-90583765D01*
X154382207Y-90512164D01*
X154364811Y-90335537D01*
X154382207Y-90158910D01*
X154416554Y-90045684D01*
X154433727Y-89989070D01*
X154517391Y-89832548D01*
X154517392Y-89832546D01*
X154549801Y-89793056D01*
X154629984Y-89695351D01*
X154732763Y-89611004D01*
X154767179Y-89582759D01*
X154836859Y-89545514D01*
X154923703Y-89499094D01*
X154980317Y-89481921D01*
X155093543Y-89447574D01*
X155159728Y-89441055D01*
X155225910Y-89434537D01*
X155314430Y-89434537D01*
X155380612Y-89441055D01*
X155380612Y-89441055D01*
G37*
G36*
X139008398Y-89517240D02*
X139163270Y-89581390D01*
X139302651Y-89674522D01*
X139421185Y-89793056D01*
X139514317Y-89932437D01*
X139578467Y-90087309D01*
X139611170Y-90251721D01*
X139611170Y-90419353D01*
X139578467Y-90583765D01*
X139514317Y-90738637D01*
X139421185Y-90878018D01*
X139302651Y-90996552D01*
X139163270Y-91089684D01*
X139008398Y-91153834D01*
X138843986Y-91186537D01*
X138676354Y-91186537D01*
X138511942Y-91153834D01*
X138357070Y-91089684D01*
X138217689Y-90996552D01*
X138099155Y-90878018D01*
X138006023Y-90738637D01*
X137941873Y-90583765D01*
X137909170Y-90419353D01*
X137909170Y-90251721D01*
X137941873Y-90087309D01*
X138006023Y-89932437D01*
X138099155Y-89793056D01*
X138217689Y-89674522D01*
X138357070Y-89581390D01*
X138511942Y-89517240D01*
X138676354Y-89484537D01*
X138843986Y-89484537D01*
X139008398Y-89517240D01*
X139008398Y-89517240D01*
G37*
G36*
X146546991Y-89496850D02*
X146546994Y-89496851D01*
X146546995Y-89496851D01*
X146707409Y-89545512D01*
X146707411Y-89545513D01*
X146707414Y-89545514D01*
X146855248Y-89624532D01*
X146984829Y-89730878D01*
X147091175Y-89860459D01*
X147170193Y-90008293D01*
X147170194Y-90008296D01*
X147170195Y-90008298D01*
X147215883Y-90158912D01*
X147218857Y-90168716D01*
X147235287Y-90335537D01*
X147218857Y-90502358D01*
X147218856Y-90502361D01*
X147218856Y-90502362D01*
X147174078Y-90649977D01*
X147170193Y-90662781D01*
X147091175Y-90810615D01*
X146984829Y-90940196D01*
X146855248Y-91046542D01*
X146707414Y-91125560D01*
X146707411Y-91125561D01*
X146707409Y-91125562D01*
X146546995Y-91174223D01*
X146546994Y-91174223D01*
X146546991Y-91174224D01*
X146421974Y-91186537D01*
X146338366Y-91186537D01*
X146213349Y-91174224D01*
X146213346Y-91174223D01*
X146213345Y-91174223D01*
X146052931Y-91125562D01*
X146052929Y-91125561D01*
X146052926Y-91125560D01*
X145905092Y-91046542D01*
X145775511Y-90940196D01*
X145669165Y-90810615D01*
X145590147Y-90662781D01*
X145586263Y-90649977D01*
X145541484Y-90502362D01*
X145541484Y-90502361D01*
X145541483Y-90502358D01*
X145525053Y-90335537D01*
X145541483Y-90168716D01*
X145544457Y-90158912D01*
X145590145Y-90008298D01*
X145590146Y-90008296D01*
X145590147Y-90008293D01*
X145669165Y-89860459D01*
X145775511Y-89730878D01*
X145905092Y-89624532D01*
X146052926Y-89545514D01*
X146052929Y-89545513D01*
X146052931Y-89545512D01*
X146213345Y-89496851D01*
X146213346Y-89496851D01*
X146213349Y-89496850D01*
X146338366Y-89484537D01*
X146421974Y-89484537D01*
X146546991Y-89496850D01*
X146546991Y-89496850D01*
G37*
G36*
X127801821Y-88061313D02*
X127801824Y-88061314D01*
X127801825Y-88061314D01*
X127962239Y-88109975D01*
X127962241Y-88109976D01*
X127962244Y-88109977D01*
X128110078Y-88188995D01*
X128239659Y-88295341D01*
X128346005Y-88424922D01*
X128425023Y-88572756D01*
X128425024Y-88572759D01*
X128425025Y-88572761D01*
X128458617Y-88683500D01*
X128473687Y-88733179D01*
X128490117Y-88900000D01*
X128473687Y-89066821D01*
X128425023Y-89227244D01*
X128346005Y-89375078D01*
X128239659Y-89504659D01*
X128110078Y-89611005D01*
X127962244Y-89690023D01*
X127962241Y-89690024D01*
X127962239Y-89690025D01*
X127801825Y-89738686D01*
X127801824Y-89738686D01*
X127801821Y-89738687D01*
X127676804Y-89751000D01*
X127593196Y-89751000D01*
X127468179Y-89738687D01*
X127468176Y-89738686D01*
X127468175Y-89738686D01*
X127307761Y-89690025D01*
X127307759Y-89690024D01*
X127307756Y-89690023D01*
X127159922Y-89611005D01*
X127030341Y-89504659D01*
X126923995Y-89375078D01*
X126844977Y-89227244D01*
X126796313Y-89066821D01*
X126779883Y-88900000D01*
X126796313Y-88733179D01*
X126811383Y-88683500D01*
X126844975Y-88572761D01*
X126844976Y-88572759D01*
X126844977Y-88572756D01*
X126923995Y-88424922D01*
X127030341Y-88295341D01*
X127159922Y-88188995D01*
X127307756Y-88109977D01*
X127307759Y-88109976D01*
X127307761Y-88109975D01*
X127468175Y-88061314D01*
X127468176Y-88061314D01*
X127468179Y-88061313D01*
X127593196Y-88049000D01*
X127676804Y-88049000D01*
X127801821Y-88061313D01*
X127801821Y-88061313D01*
G37*
G36*
X120181821Y-88061313D02*
X120181824Y-88061314D01*
X120181825Y-88061314D01*
X120342239Y-88109975D01*
X120342241Y-88109976D01*
X120342244Y-88109977D01*
X120490078Y-88188995D01*
X120619659Y-88295341D01*
X120726005Y-88424922D01*
X120805023Y-88572756D01*
X120805024Y-88572759D01*
X120805025Y-88572761D01*
X120838617Y-88683500D01*
X120853687Y-88733179D01*
X120870117Y-88900000D01*
X120853687Y-89066821D01*
X120805023Y-89227244D01*
X120726005Y-89375078D01*
X120619659Y-89504659D01*
X120490078Y-89611005D01*
X120342244Y-89690023D01*
X120342241Y-89690024D01*
X120342239Y-89690025D01*
X120181825Y-89738686D01*
X120181824Y-89738686D01*
X120181821Y-89738687D01*
X120056804Y-89751000D01*
X119973196Y-89751000D01*
X119848179Y-89738687D01*
X119848176Y-89738686D01*
X119848175Y-89738686D01*
X119687761Y-89690025D01*
X119687759Y-89690024D01*
X119687756Y-89690023D01*
X119539922Y-89611005D01*
X119410341Y-89504659D01*
X119303995Y-89375078D01*
X119224977Y-89227244D01*
X119176313Y-89066821D01*
X119159883Y-88900000D01*
X119176313Y-88733179D01*
X119191383Y-88683500D01*
X119224975Y-88572761D01*
X119224976Y-88572759D01*
X119224977Y-88572756D01*
X119303995Y-88424922D01*
X119410341Y-88295341D01*
X119539922Y-88188995D01*
X119687756Y-88109977D01*
X119687759Y-88109976D01*
X119687761Y-88109975D01*
X119848175Y-88061314D01*
X119848176Y-88061314D01*
X119848179Y-88061313D01*
X119973196Y-88049000D01*
X120056804Y-88049000D01*
X120181821Y-88061313D01*
X120181821Y-88061313D01*
G37*
G36*
X155380613Y-86901056D02*
X155446797Y-86907574D01*
X155560023Y-86941921D01*
X155616637Y-86959094D01*
X155755257Y-87033189D01*
X155773161Y-87042759D01*
X155807577Y-87071004D01*
X155910356Y-87155351D01*
X155993618Y-87256808D01*
X156022948Y-87292546D01*
X156022949Y-87292548D01*
X156106613Y-87449070D01*
X156106613Y-87449071D01*
X156158133Y-87618910D01*
X156175529Y-87795537D01*
X156158133Y-87972164D01*
X156134825Y-88049000D01*
X156106613Y-88142004D01*
X156081495Y-88188995D01*
X156022948Y-88298528D01*
X155993618Y-88334266D01*
X155910356Y-88435723D01*
X155808899Y-88518985D01*
X155773161Y-88548315D01*
X155773159Y-88548316D01*
X155616637Y-88631980D01*
X155560023Y-88649153D01*
X155446797Y-88683500D01*
X155380612Y-88690019D01*
X155314430Y-88696537D01*
X155225910Y-88696537D01*
X155159728Y-88690019D01*
X155093543Y-88683500D01*
X154980317Y-88649153D01*
X154923703Y-88631980D01*
X154767181Y-88548316D01*
X154767179Y-88548315D01*
X154731441Y-88518985D01*
X154629984Y-88435723D01*
X154546722Y-88334266D01*
X154517392Y-88298528D01*
X154458845Y-88188995D01*
X154433727Y-88142004D01*
X154405515Y-88049000D01*
X154382207Y-87972164D01*
X154364811Y-87795537D01*
X154382207Y-87618910D01*
X154433727Y-87449071D01*
X154433727Y-87449070D01*
X154517391Y-87292548D01*
X154517392Y-87292546D01*
X154546722Y-87256808D01*
X154629984Y-87155351D01*
X154732763Y-87071004D01*
X154767179Y-87042759D01*
X154785083Y-87033189D01*
X154923703Y-86959094D01*
X154980317Y-86941921D01*
X155093543Y-86907574D01*
X155159727Y-86901056D01*
X155225910Y-86894537D01*
X155314430Y-86894537D01*
X155380613Y-86901056D01*
X155380613Y-86901056D01*
G37*
G36*
X127801821Y-85521313D02*
X127801824Y-85521314D01*
X127801825Y-85521314D01*
X127962239Y-85569975D01*
X127962241Y-85569976D01*
X127962244Y-85569977D01*
X128110078Y-85648995D01*
X128239659Y-85755341D01*
X128346005Y-85884922D01*
X128425023Y-86032756D01*
X128425024Y-86032759D01*
X128425025Y-86032761D01*
X128462572Y-86156537D01*
X128473687Y-86193179D01*
X128490117Y-86360000D01*
X128473687Y-86526821D01*
X128425023Y-86687244D01*
X128346005Y-86835078D01*
X128239659Y-86964659D01*
X128110078Y-87071005D01*
X127962244Y-87150023D01*
X127962241Y-87150024D01*
X127962239Y-87150025D01*
X127801825Y-87198686D01*
X127801824Y-87198686D01*
X127801821Y-87198687D01*
X127676804Y-87211000D01*
X127593196Y-87211000D01*
X127468179Y-87198687D01*
X127468176Y-87198686D01*
X127468175Y-87198686D01*
X127307761Y-87150025D01*
X127307759Y-87150024D01*
X127307756Y-87150023D01*
X127159922Y-87071005D01*
X127030341Y-86964659D01*
X126923995Y-86835078D01*
X126844977Y-86687244D01*
X126796313Y-86526821D01*
X126779883Y-86360000D01*
X126796313Y-86193179D01*
X126807428Y-86156537D01*
X126844975Y-86032761D01*
X126844976Y-86032759D01*
X126844977Y-86032756D01*
X126923995Y-85884922D01*
X127030341Y-85755341D01*
X127159922Y-85648995D01*
X127307756Y-85569977D01*
X127307759Y-85569976D01*
X127307761Y-85569975D01*
X127468175Y-85521314D01*
X127468176Y-85521314D01*
X127468179Y-85521313D01*
X127593196Y-85509000D01*
X127676804Y-85509000D01*
X127801821Y-85521313D01*
X127801821Y-85521313D01*
G37*
G36*
X120181821Y-85521313D02*
X120181824Y-85521314D01*
X120181825Y-85521314D01*
X120342239Y-85569975D01*
X120342241Y-85569976D01*
X120342244Y-85569977D01*
X120490078Y-85648995D01*
X120619659Y-85755341D01*
X120726005Y-85884922D01*
X120805023Y-86032756D01*
X120805024Y-86032759D01*
X120805025Y-86032761D01*
X120842572Y-86156537D01*
X120853687Y-86193179D01*
X120870117Y-86360000D01*
X120853687Y-86526821D01*
X120805023Y-86687244D01*
X120726005Y-86835078D01*
X120619659Y-86964659D01*
X120490078Y-87071005D01*
X120342244Y-87150023D01*
X120342241Y-87150024D01*
X120342239Y-87150025D01*
X120181825Y-87198686D01*
X120181824Y-87198686D01*
X120181821Y-87198687D01*
X120056804Y-87211000D01*
X119973196Y-87211000D01*
X119848179Y-87198687D01*
X119848176Y-87198686D01*
X119848175Y-87198686D01*
X119687761Y-87150025D01*
X119687759Y-87150024D01*
X119687756Y-87150023D01*
X119539922Y-87071005D01*
X119410341Y-86964659D01*
X119303995Y-86835078D01*
X119224977Y-86687244D01*
X119176313Y-86526821D01*
X119159883Y-86360000D01*
X119176313Y-86193179D01*
X119187428Y-86156537D01*
X119224975Y-86032761D01*
X119224976Y-86032759D01*
X119224977Y-86032756D01*
X119303995Y-85884922D01*
X119410341Y-85755341D01*
X119539922Y-85648995D01*
X119687756Y-85569977D01*
X119687759Y-85569976D01*
X119687761Y-85569975D01*
X119848175Y-85521314D01*
X119848176Y-85521314D01*
X119848179Y-85521313D01*
X119973196Y-85509000D01*
X120056804Y-85509000D01*
X120181821Y-85521313D01*
X120181821Y-85521313D01*
G37*
G36*
X66656000Y-86341000D02*
X64154000Y-86341000D01*
X64154000Y-83839000D01*
X66656000Y-83839000D01*
X66656000Y-86341000D01*
X66656000Y-86341000D01*
G37*
G36*
X71736000Y-86341000D02*
X69234000Y-86341000D01*
X69234000Y-83839000D01*
X71736000Y-83839000D01*
X71736000Y-86341000D01*
X71736000Y-86341000D01*
G37*
G36*
X56496000Y-86341000D02*
X53994000Y-86341000D01*
X53994000Y-83839000D01*
X56496000Y-83839000D01*
X56496000Y-86341000D01*
X56496000Y-86341000D01*
G37*
G36*
X61576000Y-86341000D02*
X59074000Y-86341000D01*
X59074000Y-83839000D01*
X61576000Y-83839000D01*
X61576000Y-86341000D01*
X61576000Y-86341000D01*
G37*
G36*
X156171170Y-86156537D02*
X154369170Y-86156537D01*
X154369170Y-84354537D01*
X156171170Y-84354537D01*
X156171170Y-86156537D01*
X156171170Y-86156537D01*
G37*
G36*
X146546991Y-84416850D02*
X146546994Y-84416851D01*
X146546995Y-84416851D01*
X146707409Y-84465512D01*
X146707411Y-84465513D01*
X146707414Y-84465514D01*
X146855248Y-84544532D01*
X146984829Y-84650878D01*
X147091175Y-84780459D01*
X147170193Y-84928293D01*
X147170194Y-84928296D01*
X147170195Y-84928298D01*
X147218856Y-85088712D01*
X147218857Y-85088716D01*
X147235287Y-85255537D01*
X147218857Y-85422358D01*
X147218856Y-85422361D01*
X147218856Y-85422362D01*
X147174078Y-85569977D01*
X147170193Y-85582781D01*
X147091175Y-85730615D01*
X146984829Y-85860196D01*
X146855248Y-85966542D01*
X146707414Y-86045560D01*
X146707411Y-86045561D01*
X146707409Y-86045562D01*
X146546995Y-86094223D01*
X146546994Y-86094223D01*
X146546991Y-86094224D01*
X146421974Y-86106537D01*
X146338366Y-86106537D01*
X146213349Y-86094224D01*
X146213346Y-86094223D01*
X146213345Y-86094223D01*
X146052931Y-86045562D01*
X146052929Y-86045561D01*
X146052926Y-86045560D01*
X145905092Y-85966542D01*
X145775511Y-85860196D01*
X145669165Y-85730615D01*
X145590147Y-85582781D01*
X145586263Y-85569977D01*
X145541484Y-85422362D01*
X145541484Y-85422361D01*
X145541483Y-85422358D01*
X145525053Y-85255537D01*
X145541483Y-85088716D01*
X145541484Y-85088712D01*
X145590145Y-84928298D01*
X145590146Y-84928296D01*
X145590147Y-84928293D01*
X145669165Y-84780459D01*
X145775511Y-84650878D01*
X145905092Y-84544532D01*
X146052926Y-84465514D01*
X146052929Y-84465513D01*
X146052931Y-84465512D01*
X146213345Y-84416851D01*
X146213346Y-84416851D01*
X146213349Y-84416850D01*
X146338366Y-84404537D01*
X146421974Y-84404537D01*
X146546991Y-84416850D01*
X146546991Y-84416850D01*
G37*
G36*
X139008398Y-84437240D02*
X139163270Y-84501390D01*
X139302651Y-84594522D01*
X139421185Y-84713056D01*
X139514317Y-84852437D01*
X139578467Y-85007309D01*
X139611170Y-85171721D01*
X139611170Y-85339353D01*
X139578467Y-85503765D01*
X139514317Y-85658637D01*
X139421185Y-85798018D01*
X139302651Y-85916552D01*
X139163270Y-86009684D01*
X139008398Y-86073834D01*
X138843986Y-86106537D01*
X138676354Y-86106537D01*
X138511942Y-86073834D01*
X138357070Y-86009684D01*
X138217689Y-85916552D01*
X138099155Y-85798018D01*
X138006023Y-85658637D01*
X137941873Y-85503765D01*
X137909170Y-85339353D01*
X137909170Y-85171721D01*
X137941873Y-85007309D01*
X138006023Y-84852437D01*
X138099155Y-84713056D01*
X138217689Y-84594522D01*
X138357070Y-84501390D01*
X138511942Y-84437240D01*
X138676354Y-84404537D01*
X138843986Y-84404537D01*
X139008398Y-84437240D01*
X139008398Y-84437240D01*
G37*
G36*
X91606821Y-81076313D02*
X91606824Y-81076314D01*
X91606825Y-81076314D01*
X91767239Y-81124975D01*
X91767241Y-81124976D01*
X91767244Y-81124977D01*
X91915078Y-81203995D01*
X92044659Y-81310341D01*
X92151005Y-81439922D01*
X92230023Y-81587756D01*
X92278687Y-81748179D01*
X92295117Y-81915000D01*
X92278687Y-82081821D01*
X92230023Y-82242244D01*
X92151005Y-82390078D01*
X92044659Y-82519659D01*
X91915078Y-82626005D01*
X91767244Y-82705023D01*
X91767241Y-82705024D01*
X91767239Y-82705025D01*
X91606825Y-82753686D01*
X91606824Y-82753686D01*
X91606821Y-82753687D01*
X91481804Y-82766000D01*
X91398196Y-82766000D01*
X91273179Y-82753687D01*
X91273176Y-82753686D01*
X91273175Y-82753686D01*
X91112761Y-82705025D01*
X91112759Y-82705024D01*
X91112756Y-82705023D01*
X90964922Y-82626005D01*
X90835341Y-82519659D01*
X90728995Y-82390078D01*
X90649977Y-82242244D01*
X90601313Y-82081821D01*
X90584883Y-81915000D01*
X90601313Y-81748179D01*
X90649977Y-81587756D01*
X90728995Y-81439922D01*
X90835341Y-81310341D01*
X90964922Y-81203995D01*
X91112756Y-81124977D01*
X91112759Y-81124976D01*
X91112761Y-81124975D01*
X91273175Y-81076314D01*
X91273176Y-81076314D01*
X91273179Y-81076313D01*
X91398196Y-81064000D01*
X91481804Y-81064000D01*
X91606821Y-81076313D01*
X91606821Y-81076313D01*
G37*
G36*
X89066821Y-81076313D02*
X89066824Y-81076314D01*
X89066825Y-81076314D01*
X89227239Y-81124975D01*
X89227241Y-81124976D01*
X89227244Y-81124977D01*
X89375078Y-81203995D01*
X89504659Y-81310341D01*
X89611005Y-81439922D01*
X89690023Y-81587756D01*
X89738687Y-81748179D01*
X89755117Y-81915000D01*
X89738687Y-82081821D01*
X89690023Y-82242244D01*
X89611005Y-82390078D01*
X89504659Y-82519659D01*
X89375078Y-82626005D01*
X89227244Y-82705023D01*
X89227241Y-82705024D01*
X89227239Y-82705025D01*
X89066825Y-82753686D01*
X89066824Y-82753686D01*
X89066821Y-82753687D01*
X88941804Y-82766000D01*
X88858196Y-82766000D01*
X88733179Y-82753687D01*
X88733176Y-82753686D01*
X88733175Y-82753686D01*
X88572761Y-82705025D01*
X88572759Y-82705024D01*
X88572756Y-82705023D01*
X88424922Y-82626005D01*
X88295341Y-82519659D01*
X88188995Y-82390078D01*
X88109977Y-82242244D01*
X88061313Y-82081821D01*
X88044883Y-81915000D01*
X88061313Y-81748179D01*
X88109977Y-81587756D01*
X88188995Y-81439922D01*
X88295341Y-81310341D01*
X88424922Y-81203995D01*
X88572756Y-81124977D01*
X88572759Y-81124976D01*
X88572761Y-81124975D01*
X88733175Y-81076314D01*
X88733176Y-81076314D01*
X88733179Y-81076313D01*
X88858196Y-81064000D01*
X88941804Y-81064000D01*
X89066821Y-81076313D01*
X89066821Y-81076313D01*
G37*
G36*
X94146821Y-81076313D02*
X94146824Y-81076314D01*
X94146825Y-81076314D01*
X94307239Y-81124975D01*
X94307241Y-81124976D01*
X94307244Y-81124977D01*
X94455078Y-81203995D01*
X94584659Y-81310341D01*
X94691005Y-81439922D01*
X94770023Y-81587756D01*
X94818687Y-81748179D01*
X94835117Y-81915000D01*
X94818687Y-82081821D01*
X94770023Y-82242244D01*
X94691005Y-82390078D01*
X94584659Y-82519659D01*
X94455078Y-82626005D01*
X94307244Y-82705023D01*
X94307241Y-82705024D01*
X94307239Y-82705025D01*
X94146825Y-82753686D01*
X94146824Y-82753686D01*
X94146821Y-82753687D01*
X94021804Y-82766000D01*
X93938196Y-82766000D01*
X93813179Y-82753687D01*
X93813176Y-82753686D01*
X93813175Y-82753686D01*
X93652761Y-82705025D01*
X93652759Y-82705024D01*
X93652756Y-82705023D01*
X93504922Y-82626005D01*
X93375341Y-82519659D01*
X93268995Y-82390078D01*
X93189977Y-82242244D01*
X93141313Y-82081821D01*
X93124883Y-81915000D01*
X93141313Y-81748179D01*
X93189977Y-81587756D01*
X93268995Y-81439922D01*
X93375341Y-81310341D01*
X93504922Y-81203995D01*
X93652756Y-81124977D01*
X93652759Y-81124976D01*
X93652761Y-81124975D01*
X93813175Y-81076314D01*
X93813176Y-81076314D01*
X93813179Y-81076313D01*
X93938196Y-81064000D01*
X94021804Y-81064000D01*
X94146821Y-81076313D01*
X94146821Y-81076313D01*
G37*
G36*
X96686821Y-81076313D02*
X96686824Y-81076314D01*
X96686825Y-81076314D01*
X96847239Y-81124975D01*
X96847241Y-81124976D01*
X96847244Y-81124977D01*
X96995078Y-81203995D01*
X97124659Y-81310341D01*
X97231005Y-81439922D01*
X97310023Y-81587756D01*
X97358687Y-81748179D01*
X97375117Y-81915000D01*
X97358687Y-82081821D01*
X97310023Y-82242244D01*
X97231005Y-82390078D01*
X97124659Y-82519659D01*
X96995078Y-82626005D01*
X96847244Y-82705023D01*
X96847241Y-82705024D01*
X96847239Y-82705025D01*
X96686825Y-82753686D01*
X96686824Y-82753686D01*
X96686821Y-82753687D01*
X96561804Y-82766000D01*
X96478196Y-82766000D01*
X96353179Y-82753687D01*
X96353176Y-82753686D01*
X96353175Y-82753686D01*
X96192761Y-82705025D01*
X96192759Y-82705024D01*
X96192756Y-82705023D01*
X96044922Y-82626005D01*
X95915341Y-82519659D01*
X95808995Y-82390078D01*
X95729977Y-82242244D01*
X95681313Y-82081821D01*
X95664883Y-81915000D01*
X95681313Y-81748179D01*
X95729977Y-81587756D01*
X95808995Y-81439922D01*
X95915341Y-81310341D01*
X96044922Y-81203995D01*
X96192756Y-81124977D01*
X96192759Y-81124976D01*
X96192761Y-81124975D01*
X96353175Y-81076314D01*
X96353176Y-81076314D01*
X96353179Y-81076313D01*
X96478196Y-81064000D01*
X96561804Y-81064000D01*
X96686821Y-81076313D01*
X96686821Y-81076313D01*
G37*
G36*
X106846821Y-81076313D02*
X106846824Y-81076314D01*
X106846825Y-81076314D01*
X107007239Y-81124975D01*
X107007241Y-81124976D01*
X107007244Y-81124977D01*
X107155078Y-81203995D01*
X107284659Y-81310341D01*
X107391005Y-81439922D01*
X107470023Y-81587756D01*
X107518687Y-81748179D01*
X107535117Y-81915000D01*
X107518687Y-82081821D01*
X107470023Y-82242244D01*
X107391005Y-82390078D01*
X107284659Y-82519659D01*
X107155078Y-82626005D01*
X107007244Y-82705023D01*
X107007241Y-82705024D01*
X107007239Y-82705025D01*
X106846825Y-82753686D01*
X106846824Y-82753686D01*
X106846821Y-82753687D01*
X106721804Y-82766000D01*
X106638196Y-82766000D01*
X106513179Y-82753687D01*
X106513176Y-82753686D01*
X106513175Y-82753686D01*
X106352761Y-82705025D01*
X106352759Y-82705024D01*
X106352756Y-82705023D01*
X106204922Y-82626005D01*
X106075341Y-82519659D01*
X105968995Y-82390078D01*
X105889977Y-82242244D01*
X105841313Y-82081821D01*
X105824883Y-81915000D01*
X105841313Y-81748179D01*
X105889977Y-81587756D01*
X105968995Y-81439922D01*
X106075341Y-81310341D01*
X106204922Y-81203995D01*
X106352756Y-81124977D01*
X106352759Y-81124976D01*
X106352761Y-81124975D01*
X106513175Y-81076314D01*
X106513176Y-81076314D01*
X106513179Y-81076313D01*
X106638196Y-81064000D01*
X106721804Y-81064000D01*
X106846821Y-81076313D01*
X106846821Y-81076313D01*
G37*
G36*
X104306821Y-81076313D02*
X104306824Y-81076314D01*
X104306825Y-81076314D01*
X104467239Y-81124975D01*
X104467241Y-81124976D01*
X104467244Y-81124977D01*
X104615078Y-81203995D01*
X104744659Y-81310341D01*
X104851005Y-81439922D01*
X104930023Y-81587756D01*
X104978687Y-81748179D01*
X104995117Y-81915000D01*
X104978687Y-82081821D01*
X104930023Y-82242244D01*
X104851005Y-82390078D01*
X104744659Y-82519659D01*
X104615078Y-82626005D01*
X104467244Y-82705023D01*
X104467241Y-82705024D01*
X104467239Y-82705025D01*
X104306825Y-82753686D01*
X104306824Y-82753686D01*
X104306821Y-82753687D01*
X104181804Y-82766000D01*
X104098196Y-82766000D01*
X103973179Y-82753687D01*
X103973176Y-82753686D01*
X103973175Y-82753686D01*
X103812761Y-82705025D01*
X103812759Y-82705024D01*
X103812756Y-82705023D01*
X103664922Y-82626005D01*
X103535341Y-82519659D01*
X103428995Y-82390078D01*
X103349977Y-82242244D01*
X103301313Y-82081821D01*
X103284883Y-81915000D01*
X103301313Y-81748179D01*
X103349977Y-81587756D01*
X103428995Y-81439922D01*
X103535341Y-81310341D01*
X103664922Y-81203995D01*
X103812756Y-81124977D01*
X103812759Y-81124976D01*
X103812761Y-81124975D01*
X103973175Y-81076314D01*
X103973176Y-81076314D01*
X103973179Y-81076313D01*
X104098196Y-81064000D01*
X104181804Y-81064000D01*
X104306821Y-81076313D01*
X104306821Y-81076313D01*
G37*
G36*
X101766821Y-81076313D02*
X101766824Y-81076314D01*
X101766825Y-81076314D01*
X101927239Y-81124975D01*
X101927241Y-81124976D01*
X101927244Y-81124977D01*
X102075078Y-81203995D01*
X102204659Y-81310341D01*
X102311005Y-81439922D01*
X102390023Y-81587756D01*
X102438687Y-81748179D01*
X102455117Y-81915000D01*
X102438687Y-82081821D01*
X102390023Y-82242244D01*
X102311005Y-82390078D01*
X102204659Y-82519659D01*
X102075078Y-82626005D01*
X101927244Y-82705023D01*
X101927241Y-82705024D01*
X101927239Y-82705025D01*
X101766825Y-82753686D01*
X101766824Y-82753686D01*
X101766821Y-82753687D01*
X101641804Y-82766000D01*
X101558196Y-82766000D01*
X101433179Y-82753687D01*
X101433176Y-82753686D01*
X101433175Y-82753686D01*
X101272761Y-82705025D01*
X101272759Y-82705024D01*
X101272756Y-82705023D01*
X101124922Y-82626005D01*
X100995341Y-82519659D01*
X100888995Y-82390078D01*
X100809977Y-82242244D01*
X100761313Y-82081821D01*
X100744883Y-81915000D01*
X100761313Y-81748179D01*
X100809977Y-81587756D01*
X100888995Y-81439922D01*
X100995341Y-81310341D01*
X101124922Y-81203995D01*
X101272756Y-81124977D01*
X101272759Y-81124976D01*
X101272761Y-81124975D01*
X101433175Y-81076314D01*
X101433176Y-81076314D01*
X101433179Y-81076313D01*
X101558196Y-81064000D01*
X101641804Y-81064000D01*
X101766821Y-81076313D01*
X101766821Y-81076313D01*
G37*
G36*
X99226821Y-81076313D02*
X99226824Y-81076314D01*
X99226825Y-81076314D01*
X99387239Y-81124975D01*
X99387241Y-81124976D01*
X99387244Y-81124977D01*
X99535078Y-81203995D01*
X99664659Y-81310341D01*
X99771005Y-81439922D01*
X99850023Y-81587756D01*
X99898687Y-81748179D01*
X99915117Y-81915000D01*
X99898687Y-82081821D01*
X99850023Y-82242244D01*
X99771005Y-82390078D01*
X99664659Y-82519659D01*
X99535078Y-82626005D01*
X99387244Y-82705023D01*
X99387241Y-82705024D01*
X99387239Y-82705025D01*
X99226825Y-82753686D01*
X99226824Y-82753686D01*
X99226821Y-82753687D01*
X99101804Y-82766000D01*
X99018196Y-82766000D01*
X98893179Y-82753687D01*
X98893176Y-82753686D01*
X98893175Y-82753686D01*
X98732761Y-82705025D01*
X98732759Y-82705024D01*
X98732756Y-82705023D01*
X98584922Y-82626005D01*
X98455341Y-82519659D01*
X98348995Y-82390078D01*
X98269977Y-82242244D01*
X98221313Y-82081821D01*
X98204883Y-81915000D01*
X98221313Y-81748179D01*
X98269977Y-81587756D01*
X98348995Y-81439922D01*
X98455341Y-81310341D01*
X98584922Y-81203995D01*
X98732756Y-81124977D01*
X98732759Y-81124976D01*
X98732761Y-81124975D01*
X98893175Y-81076314D01*
X98893176Y-81076314D01*
X98893179Y-81076313D01*
X99018196Y-81064000D01*
X99101804Y-81064000D01*
X99226821Y-81076313D01*
X99226821Y-81076313D01*
G37*
G36*
X113278228Y-79746703D02*
X113433100Y-79810853D01*
X113572481Y-79903985D01*
X113691015Y-80022519D01*
X113784147Y-80161900D01*
X113848297Y-80316772D01*
X113881000Y-80481184D01*
X113881000Y-80648816D01*
X113848297Y-80813228D01*
X113784147Y-80968100D01*
X113691015Y-81107481D01*
X113572481Y-81226015D01*
X113433100Y-81319147D01*
X113278228Y-81383297D01*
X113113816Y-81416000D01*
X112946184Y-81416000D01*
X112781772Y-81383297D01*
X112626900Y-81319147D01*
X112487519Y-81226015D01*
X112368985Y-81107481D01*
X112275853Y-80968100D01*
X112211703Y-80813228D01*
X112179000Y-80648816D01*
X112179000Y-80481184D01*
X112211703Y-80316772D01*
X112275853Y-80161900D01*
X112368985Y-80022519D01*
X112487519Y-79903985D01*
X112626900Y-79810853D01*
X112781772Y-79746703D01*
X112946184Y-79714000D01*
X113113816Y-79714000D01*
X113278228Y-79746703D01*
X113278228Y-79746703D01*
G37*
G36*
X131058228Y-79191703D02*
X131213100Y-79255853D01*
X131352481Y-79348985D01*
X131471015Y-79467519D01*
X131564147Y-79606900D01*
X131628297Y-79761772D01*
X131661000Y-79926184D01*
X131661000Y-80093816D01*
X131628297Y-80258228D01*
X131564147Y-80413100D01*
X131471015Y-80552481D01*
X131352481Y-80671015D01*
X131213100Y-80764147D01*
X131058228Y-80828297D01*
X130893816Y-80861000D01*
X130726184Y-80861000D01*
X130561772Y-80828297D01*
X130406900Y-80764147D01*
X130267519Y-80671015D01*
X130148985Y-80552481D01*
X130055853Y-80413100D01*
X129991703Y-80258228D01*
X129959000Y-80093816D01*
X129959000Y-79926184D01*
X129991703Y-79761772D01*
X130055853Y-79606900D01*
X130148985Y-79467519D01*
X130267519Y-79348985D01*
X130406900Y-79255853D01*
X130561772Y-79191703D01*
X130726184Y-79159000D01*
X130893816Y-79159000D01*
X131058228Y-79191703D01*
X131058228Y-79191703D01*
G37*
G36*
X136058228Y-79191703D02*
X136213100Y-79255853D01*
X136352481Y-79348985D01*
X136471015Y-79467519D01*
X136564147Y-79606900D01*
X136628297Y-79761772D01*
X136661000Y-79926184D01*
X136661000Y-80093816D01*
X136628297Y-80258228D01*
X136564147Y-80413100D01*
X136471015Y-80552481D01*
X136352481Y-80671015D01*
X136213100Y-80764147D01*
X136058228Y-80828297D01*
X135893816Y-80861000D01*
X135726184Y-80861000D01*
X135561772Y-80828297D01*
X135406900Y-80764147D01*
X135267519Y-80671015D01*
X135148985Y-80552481D01*
X135055853Y-80413100D01*
X134991703Y-80258228D01*
X134959000Y-80093816D01*
X134959000Y-79926184D01*
X134991703Y-79761772D01*
X135055853Y-79606900D01*
X135148985Y-79467519D01*
X135267519Y-79348985D01*
X135406900Y-79255853D01*
X135561772Y-79191703D01*
X135726184Y-79159000D01*
X135893816Y-79159000D01*
X136058228Y-79191703D01*
X136058228Y-79191703D01*
G37*
G36*
X155685442Y-75940518D02*
X155751627Y-75947037D01*
X155844468Y-75975200D01*
X155921467Y-75998557D01*
X156060087Y-76072652D01*
X156077991Y-76082222D01*
X156108769Y-76107481D01*
X156215186Y-76194814D01*
X156298448Y-76296271D01*
X156327778Y-76332009D01*
X156327779Y-76332011D01*
X156411443Y-76488533D01*
X156411443Y-76488534D01*
X156462963Y-76658373D01*
X156480359Y-76835000D01*
X156462963Y-77011627D01*
X156428616Y-77124853D01*
X156411443Y-77181467D01*
X156337348Y-77320087D01*
X156327778Y-77337991D01*
X156298448Y-77373729D01*
X156215186Y-77475186D01*
X156113729Y-77558448D01*
X156077991Y-77587778D01*
X156077989Y-77587779D01*
X155921467Y-77671443D01*
X155864853Y-77688616D01*
X155751627Y-77722963D01*
X155685443Y-77729481D01*
X155619260Y-77736000D01*
X155530740Y-77736000D01*
X155464557Y-77729481D01*
X155398373Y-77722963D01*
X155285147Y-77688616D01*
X155228533Y-77671443D01*
X155072011Y-77587779D01*
X155072009Y-77587778D01*
X155036271Y-77558448D01*
X154934814Y-77475186D01*
X154851552Y-77373729D01*
X154822222Y-77337991D01*
X154812652Y-77320087D01*
X154738557Y-77181467D01*
X154721384Y-77124853D01*
X154687037Y-77011627D01*
X154669641Y-76835000D01*
X154687037Y-76658373D01*
X154738557Y-76488534D01*
X154738557Y-76488533D01*
X154822221Y-76332011D01*
X154822222Y-76332009D01*
X154851552Y-76296271D01*
X154934814Y-76194814D01*
X155041231Y-76107481D01*
X155072009Y-76082222D01*
X155089913Y-76072652D01*
X155228533Y-75998557D01*
X155305532Y-75975200D01*
X155398373Y-75947037D01*
X155464558Y-75940518D01*
X155530740Y-75934000D01*
X155619260Y-75934000D01*
X155685442Y-75940518D01*
X155685442Y-75940518D01*
G37*
G36*
X113278228Y-74746703D02*
X113433100Y-74810853D01*
X113572481Y-74903985D01*
X113691015Y-75022519D01*
X113784147Y-75161900D01*
X113848297Y-75316772D01*
X113881000Y-75481184D01*
X113881000Y-75648816D01*
X113848297Y-75813228D01*
X113784147Y-75968100D01*
X113691015Y-76107481D01*
X113572481Y-76226015D01*
X113433100Y-76319147D01*
X113278228Y-76383297D01*
X113113816Y-76416000D01*
X112946184Y-76416000D01*
X112781772Y-76383297D01*
X112626900Y-76319147D01*
X112487519Y-76226015D01*
X112368985Y-76107481D01*
X112275853Y-75968100D01*
X112211703Y-75813228D01*
X112179000Y-75648816D01*
X112179000Y-75481184D01*
X112211703Y-75316772D01*
X112275853Y-75161900D01*
X112368985Y-75022519D01*
X112487519Y-74903985D01*
X112626900Y-74810853D01*
X112781772Y-74746703D01*
X112946184Y-74714000D01*
X113113816Y-74714000D01*
X113278228Y-74746703D01*
X113278228Y-74746703D01*
G37*
G36*
X70730239Y-73697101D02*
X70966053Y-73768634D01*
X71183381Y-73884799D01*
X71373871Y-74041129D01*
X71530201Y-74231619D01*
X71646366Y-74448947D01*
X71717899Y-74684761D01*
X71742053Y-74930000D01*
X71717899Y-75175239D01*
X71646366Y-75411053D01*
X71530201Y-75628381D01*
X71373871Y-75818871D01*
X71183381Y-75975201D01*
X70966053Y-76091366D01*
X70730239Y-76162899D01*
X70546457Y-76181000D01*
X70423543Y-76181000D01*
X70239761Y-76162899D01*
X70003947Y-76091366D01*
X69786619Y-75975201D01*
X69596129Y-75818871D01*
X69439799Y-75628381D01*
X69323634Y-75411053D01*
X69252101Y-75175239D01*
X69227947Y-74930000D01*
X69252101Y-74684761D01*
X69323634Y-74448947D01*
X69439799Y-74231619D01*
X69596129Y-74041129D01*
X69786619Y-73884799D01*
X70003947Y-73768634D01*
X70239761Y-73697101D01*
X70423543Y-73679000D01*
X70546457Y-73679000D01*
X70730239Y-73697101D01*
X70730239Y-73697101D01*
G37*
G36*
X65650239Y-73697101D02*
X65886053Y-73768634D01*
X66103381Y-73884799D01*
X66293871Y-74041129D01*
X66450201Y-74231619D01*
X66566366Y-74448947D01*
X66637899Y-74684761D01*
X66662053Y-74930000D01*
X66637899Y-75175239D01*
X66566366Y-75411053D01*
X66450201Y-75628381D01*
X66293871Y-75818871D01*
X66103381Y-75975201D01*
X65886053Y-76091366D01*
X65650239Y-76162899D01*
X65466457Y-76181000D01*
X65343543Y-76181000D01*
X65159761Y-76162899D01*
X64923947Y-76091366D01*
X64706619Y-75975201D01*
X64516129Y-75818871D01*
X64359799Y-75628381D01*
X64243634Y-75411053D01*
X64172101Y-75175239D01*
X64147947Y-74930000D01*
X64172101Y-74684761D01*
X64243634Y-74448947D01*
X64359799Y-74231619D01*
X64516129Y-74041129D01*
X64706619Y-73884799D01*
X64923947Y-73768634D01*
X65159761Y-73697101D01*
X65343543Y-73679000D01*
X65466457Y-73679000D01*
X65650239Y-73697101D01*
X65650239Y-73697101D01*
G37*
G36*
X60570239Y-73697101D02*
X60806053Y-73768634D01*
X61023381Y-73884799D01*
X61213871Y-74041129D01*
X61370201Y-74231619D01*
X61486366Y-74448947D01*
X61557899Y-74684761D01*
X61582053Y-74930000D01*
X61557899Y-75175239D01*
X61486366Y-75411053D01*
X61370201Y-75628381D01*
X61213871Y-75818871D01*
X61023381Y-75975201D01*
X60806053Y-76091366D01*
X60570239Y-76162899D01*
X60386457Y-76181000D01*
X60263543Y-76181000D01*
X60079761Y-76162899D01*
X59843947Y-76091366D01*
X59626619Y-75975201D01*
X59436129Y-75818871D01*
X59279799Y-75628381D01*
X59163634Y-75411053D01*
X59092101Y-75175239D01*
X59067947Y-74930000D01*
X59092101Y-74684761D01*
X59163634Y-74448947D01*
X59279799Y-74231619D01*
X59436129Y-74041129D01*
X59626619Y-73884799D01*
X59843947Y-73768634D01*
X60079761Y-73697101D01*
X60263543Y-73679000D01*
X60386457Y-73679000D01*
X60570239Y-73697101D01*
X60570239Y-73697101D01*
G37*
G36*
X55490239Y-73697101D02*
X55726053Y-73768634D01*
X55943381Y-73884799D01*
X56133871Y-74041129D01*
X56290201Y-74231619D01*
X56406366Y-74448947D01*
X56477899Y-74684761D01*
X56502053Y-74930000D01*
X56477899Y-75175239D01*
X56406366Y-75411053D01*
X56290201Y-75628381D01*
X56133871Y-75818871D01*
X55943381Y-75975201D01*
X55726053Y-76091366D01*
X55490239Y-76162899D01*
X55306457Y-76181000D01*
X55183543Y-76181000D01*
X54999761Y-76162899D01*
X54763947Y-76091366D01*
X54546619Y-75975201D01*
X54356129Y-75818871D01*
X54199799Y-75628381D01*
X54083634Y-75411053D01*
X54012101Y-75175239D01*
X53987947Y-74930000D01*
X54012101Y-74684761D01*
X54083634Y-74448947D01*
X54199799Y-74231619D01*
X54356129Y-74041129D01*
X54546619Y-73884799D01*
X54763947Y-73768634D01*
X54999761Y-73697101D01*
X55183543Y-73679000D01*
X55306457Y-73679000D01*
X55490239Y-73697101D01*
X55490239Y-73697101D01*
G37*
G36*
X156476000Y-75196000D02*
X154674000Y-75196000D01*
X154674000Y-73394000D01*
X156476000Y-73394000D01*
X156476000Y-75196000D01*
X156476000Y-75196000D01*
G37*
G36*
X104306821Y-73456313D02*
X104306824Y-73456314D01*
X104306825Y-73456314D01*
X104467239Y-73504975D01*
X104467241Y-73504976D01*
X104467244Y-73504977D01*
X104615078Y-73583995D01*
X104744659Y-73690341D01*
X104851005Y-73819922D01*
X104930023Y-73967756D01*
X104978687Y-74128179D01*
X104995117Y-74295000D01*
X104978687Y-74461821D01*
X104930023Y-74622244D01*
X104851005Y-74770078D01*
X104744659Y-74899659D01*
X104615078Y-75006005D01*
X104467244Y-75085023D01*
X104467241Y-75085024D01*
X104467239Y-75085025D01*
X104306825Y-75133686D01*
X104306824Y-75133686D01*
X104306821Y-75133687D01*
X104181804Y-75146000D01*
X104098196Y-75146000D01*
X103973179Y-75133687D01*
X103973176Y-75133686D01*
X103973175Y-75133686D01*
X103812761Y-75085025D01*
X103812759Y-75085024D01*
X103812756Y-75085023D01*
X103664922Y-75006005D01*
X103535341Y-74899659D01*
X103428995Y-74770078D01*
X103349977Y-74622244D01*
X103301313Y-74461821D01*
X103284883Y-74295000D01*
X103301313Y-74128179D01*
X103349977Y-73967756D01*
X103428995Y-73819922D01*
X103535341Y-73690341D01*
X103664922Y-73583995D01*
X103812756Y-73504977D01*
X103812759Y-73504976D01*
X103812761Y-73504975D01*
X103973175Y-73456314D01*
X103973176Y-73456314D01*
X103973179Y-73456313D01*
X104098196Y-73444000D01*
X104181804Y-73444000D01*
X104306821Y-73456313D01*
X104306821Y-73456313D01*
G37*
G36*
X107531000Y-75146000D02*
X105829000Y-75146000D01*
X105829000Y-73444000D01*
X107531000Y-73444000D01*
X107531000Y-75146000D01*
X107531000Y-75146000D01*
G37*
G36*
X89066821Y-73456313D02*
X89066824Y-73456314D01*
X89066825Y-73456314D01*
X89227239Y-73504975D01*
X89227241Y-73504976D01*
X89227244Y-73504977D01*
X89375078Y-73583995D01*
X89504659Y-73690341D01*
X89611005Y-73819922D01*
X89690023Y-73967756D01*
X89738687Y-74128179D01*
X89755117Y-74295000D01*
X89738687Y-74461821D01*
X89690023Y-74622244D01*
X89611005Y-74770078D01*
X89504659Y-74899659D01*
X89375078Y-75006005D01*
X89227244Y-75085023D01*
X89227241Y-75085024D01*
X89227239Y-75085025D01*
X89066825Y-75133686D01*
X89066824Y-75133686D01*
X89066821Y-75133687D01*
X88941804Y-75146000D01*
X88858196Y-75146000D01*
X88733179Y-75133687D01*
X88733176Y-75133686D01*
X88733175Y-75133686D01*
X88572761Y-75085025D01*
X88572759Y-75085024D01*
X88572756Y-75085023D01*
X88424922Y-75006005D01*
X88295341Y-74899659D01*
X88188995Y-74770078D01*
X88109977Y-74622244D01*
X88061313Y-74461821D01*
X88044883Y-74295000D01*
X88061313Y-74128179D01*
X88109977Y-73967756D01*
X88188995Y-73819922D01*
X88295341Y-73690341D01*
X88424922Y-73583995D01*
X88572756Y-73504977D01*
X88572759Y-73504976D01*
X88572761Y-73504975D01*
X88733175Y-73456314D01*
X88733176Y-73456314D01*
X88733179Y-73456313D01*
X88858196Y-73444000D01*
X88941804Y-73444000D01*
X89066821Y-73456313D01*
X89066821Y-73456313D01*
G37*
G36*
X101766821Y-73456313D02*
X101766824Y-73456314D01*
X101766825Y-73456314D01*
X101927239Y-73504975D01*
X101927241Y-73504976D01*
X101927244Y-73504977D01*
X102075078Y-73583995D01*
X102204659Y-73690341D01*
X102311005Y-73819922D01*
X102390023Y-73967756D01*
X102438687Y-74128179D01*
X102455117Y-74295000D01*
X102438687Y-74461821D01*
X102390023Y-74622244D01*
X102311005Y-74770078D01*
X102204659Y-74899659D01*
X102075078Y-75006005D01*
X101927244Y-75085023D01*
X101927241Y-75085024D01*
X101927239Y-75085025D01*
X101766825Y-75133686D01*
X101766824Y-75133686D01*
X101766821Y-75133687D01*
X101641804Y-75146000D01*
X101558196Y-75146000D01*
X101433179Y-75133687D01*
X101433176Y-75133686D01*
X101433175Y-75133686D01*
X101272761Y-75085025D01*
X101272759Y-75085024D01*
X101272756Y-75085023D01*
X101124922Y-75006005D01*
X100995341Y-74899659D01*
X100888995Y-74770078D01*
X100809977Y-74622244D01*
X100761313Y-74461821D01*
X100744883Y-74295000D01*
X100761313Y-74128179D01*
X100809977Y-73967756D01*
X100888995Y-73819922D01*
X100995341Y-73690341D01*
X101124922Y-73583995D01*
X101272756Y-73504977D01*
X101272759Y-73504976D01*
X101272761Y-73504975D01*
X101433175Y-73456314D01*
X101433176Y-73456314D01*
X101433179Y-73456313D01*
X101558196Y-73444000D01*
X101641804Y-73444000D01*
X101766821Y-73456313D01*
X101766821Y-73456313D01*
G37*
G36*
X99226821Y-73456313D02*
X99226824Y-73456314D01*
X99226825Y-73456314D01*
X99387239Y-73504975D01*
X99387241Y-73504976D01*
X99387244Y-73504977D01*
X99535078Y-73583995D01*
X99664659Y-73690341D01*
X99771005Y-73819922D01*
X99850023Y-73967756D01*
X99898687Y-74128179D01*
X99915117Y-74295000D01*
X99898687Y-74461821D01*
X99850023Y-74622244D01*
X99771005Y-74770078D01*
X99664659Y-74899659D01*
X99535078Y-75006005D01*
X99387244Y-75085023D01*
X99387241Y-75085024D01*
X99387239Y-75085025D01*
X99226825Y-75133686D01*
X99226824Y-75133686D01*
X99226821Y-75133687D01*
X99101804Y-75146000D01*
X99018196Y-75146000D01*
X98893179Y-75133687D01*
X98893176Y-75133686D01*
X98893175Y-75133686D01*
X98732761Y-75085025D01*
X98732759Y-75085024D01*
X98732756Y-75085023D01*
X98584922Y-75006005D01*
X98455341Y-74899659D01*
X98348995Y-74770078D01*
X98269977Y-74622244D01*
X98221313Y-74461821D01*
X98204883Y-74295000D01*
X98221313Y-74128179D01*
X98269977Y-73967756D01*
X98348995Y-73819922D01*
X98455341Y-73690341D01*
X98584922Y-73583995D01*
X98732756Y-73504977D01*
X98732759Y-73504976D01*
X98732761Y-73504975D01*
X98893175Y-73456314D01*
X98893176Y-73456314D01*
X98893179Y-73456313D01*
X99018196Y-73444000D01*
X99101804Y-73444000D01*
X99226821Y-73456313D01*
X99226821Y-73456313D01*
G37*
G36*
X91606821Y-73456313D02*
X91606824Y-73456314D01*
X91606825Y-73456314D01*
X91767239Y-73504975D01*
X91767241Y-73504976D01*
X91767244Y-73504977D01*
X91915078Y-73583995D01*
X92044659Y-73690341D01*
X92151005Y-73819922D01*
X92230023Y-73967756D01*
X92278687Y-74128179D01*
X92295117Y-74295000D01*
X92278687Y-74461821D01*
X92230023Y-74622244D01*
X92151005Y-74770078D01*
X92044659Y-74899659D01*
X91915078Y-75006005D01*
X91767244Y-75085023D01*
X91767241Y-75085024D01*
X91767239Y-75085025D01*
X91606825Y-75133686D01*
X91606824Y-75133686D01*
X91606821Y-75133687D01*
X91481804Y-75146000D01*
X91398196Y-75146000D01*
X91273179Y-75133687D01*
X91273176Y-75133686D01*
X91273175Y-75133686D01*
X91112761Y-75085025D01*
X91112759Y-75085024D01*
X91112756Y-75085023D01*
X90964922Y-75006005D01*
X90835341Y-74899659D01*
X90728995Y-74770078D01*
X90649977Y-74622244D01*
X90601313Y-74461821D01*
X90584883Y-74295000D01*
X90601313Y-74128179D01*
X90649977Y-73967756D01*
X90728995Y-73819922D01*
X90835341Y-73690341D01*
X90964922Y-73583995D01*
X91112756Y-73504977D01*
X91112759Y-73504976D01*
X91112761Y-73504975D01*
X91273175Y-73456314D01*
X91273176Y-73456314D01*
X91273179Y-73456313D01*
X91398196Y-73444000D01*
X91481804Y-73444000D01*
X91606821Y-73456313D01*
X91606821Y-73456313D01*
G37*
G36*
X96686821Y-73456313D02*
X96686824Y-73456314D01*
X96686825Y-73456314D01*
X96847239Y-73504975D01*
X96847241Y-73504976D01*
X96847244Y-73504977D01*
X96995078Y-73583995D01*
X97124659Y-73690341D01*
X97231005Y-73819922D01*
X97310023Y-73967756D01*
X97358687Y-74128179D01*
X97375117Y-74295000D01*
X97358687Y-74461821D01*
X97310023Y-74622244D01*
X97231005Y-74770078D01*
X97124659Y-74899659D01*
X96995078Y-75006005D01*
X96847244Y-75085023D01*
X96847241Y-75085024D01*
X96847239Y-75085025D01*
X96686825Y-75133686D01*
X96686824Y-75133686D01*
X96686821Y-75133687D01*
X96561804Y-75146000D01*
X96478196Y-75146000D01*
X96353179Y-75133687D01*
X96353176Y-75133686D01*
X96353175Y-75133686D01*
X96192761Y-75085025D01*
X96192759Y-75085024D01*
X96192756Y-75085023D01*
X96044922Y-75006005D01*
X95915341Y-74899659D01*
X95808995Y-74770078D01*
X95729977Y-74622244D01*
X95681313Y-74461821D01*
X95664883Y-74295000D01*
X95681313Y-74128179D01*
X95729977Y-73967756D01*
X95808995Y-73819922D01*
X95915341Y-73690341D01*
X96044922Y-73583995D01*
X96192756Y-73504977D01*
X96192759Y-73504976D01*
X96192761Y-73504975D01*
X96353175Y-73456314D01*
X96353176Y-73456314D01*
X96353179Y-73456313D01*
X96478196Y-73444000D01*
X96561804Y-73444000D01*
X96686821Y-73456313D01*
X96686821Y-73456313D01*
G37*
G36*
X94146821Y-73456313D02*
X94146824Y-73456314D01*
X94146825Y-73456314D01*
X94307239Y-73504975D01*
X94307241Y-73504976D01*
X94307244Y-73504977D01*
X94455078Y-73583995D01*
X94584659Y-73690341D01*
X94691005Y-73819922D01*
X94770023Y-73967756D01*
X94818687Y-74128179D01*
X94835117Y-74295000D01*
X94818687Y-74461821D01*
X94770023Y-74622244D01*
X94691005Y-74770078D01*
X94584659Y-74899659D01*
X94455078Y-75006005D01*
X94307244Y-75085023D01*
X94307241Y-75085024D01*
X94307239Y-75085025D01*
X94146825Y-75133686D01*
X94146824Y-75133686D01*
X94146821Y-75133687D01*
X94021804Y-75146000D01*
X93938196Y-75146000D01*
X93813179Y-75133687D01*
X93813176Y-75133686D01*
X93813175Y-75133686D01*
X93652761Y-75085025D01*
X93652759Y-75085024D01*
X93652756Y-75085023D01*
X93504922Y-75006005D01*
X93375341Y-74899659D01*
X93268995Y-74770078D01*
X93189977Y-74622244D01*
X93141313Y-74461821D01*
X93124883Y-74295000D01*
X93141313Y-74128179D01*
X93189977Y-73967756D01*
X93268995Y-73819922D01*
X93375341Y-73690341D01*
X93504922Y-73583995D01*
X93652756Y-73504977D01*
X93652759Y-73504976D01*
X93652761Y-73504975D01*
X93813175Y-73456314D01*
X93813176Y-73456314D01*
X93813179Y-73456313D01*
X93938196Y-73444000D01*
X94021804Y-73444000D01*
X94146821Y-73456313D01*
X94146821Y-73456313D01*
G37*
G36*
X150126000Y-67576000D02*
X148324000Y-67576000D01*
X148324000Y-65774000D01*
X150126000Y-65774000D01*
X150126000Y-67576000D01*
X150126000Y-67576000D01*
G37*
G36*
X139175443Y-65780519D02*
X139241627Y-65787037D01*
X139354853Y-65821384D01*
X139411467Y-65838557D01*
X139550087Y-65912652D01*
X139567991Y-65922222D01*
X139603729Y-65951552D01*
X139705186Y-66034814D01*
X139788448Y-66136271D01*
X139817778Y-66172009D01*
X139817779Y-66172011D01*
X139901443Y-66328533D01*
X139901443Y-66328534D01*
X139952963Y-66498373D01*
X139970359Y-66675000D01*
X139952963Y-66851627D01*
X139918616Y-66964853D01*
X139901443Y-67021467D01*
X139827348Y-67160087D01*
X139817778Y-67177991D01*
X139788448Y-67213729D01*
X139705186Y-67315186D01*
X139603729Y-67398448D01*
X139567991Y-67427778D01*
X139567989Y-67427779D01*
X139411467Y-67511443D01*
X139354853Y-67528616D01*
X139241627Y-67562963D01*
X139175443Y-67569481D01*
X139109260Y-67576000D01*
X139020740Y-67576000D01*
X138954557Y-67569481D01*
X138888373Y-67562963D01*
X138775147Y-67528616D01*
X138718533Y-67511443D01*
X138562011Y-67427779D01*
X138562009Y-67427778D01*
X138526271Y-67398448D01*
X138424814Y-67315186D01*
X138341552Y-67213729D01*
X138312222Y-67177991D01*
X138302652Y-67160087D01*
X138228557Y-67021467D01*
X138211384Y-66964853D01*
X138177037Y-66851627D01*
X138159641Y-66675000D01*
X138177037Y-66498373D01*
X138228557Y-66328534D01*
X138228557Y-66328533D01*
X138312221Y-66172011D01*
X138312222Y-66172009D01*
X138341552Y-66136271D01*
X138424814Y-66034814D01*
X138526271Y-65951552D01*
X138562009Y-65922222D01*
X138579913Y-65912652D01*
X138718533Y-65838557D01*
X138775147Y-65821384D01*
X138888373Y-65787037D01*
X138954557Y-65780519D01*
X139020740Y-65774000D01*
X139109260Y-65774000D01*
X139175443Y-65780519D01*
X139175443Y-65780519D01*
G37*
G36*
X144255443Y-65780519D02*
X144321627Y-65787037D01*
X144434853Y-65821384D01*
X144491467Y-65838557D01*
X144630087Y-65912652D01*
X144647991Y-65922222D01*
X144683729Y-65951552D01*
X144785186Y-66034814D01*
X144868448Y-66136271D01*
X144897778Y-66172009D01*
X144897779Y-66172011D01*
X144981443Y-66328533D01*
X144981443Y-66328534D01*
X145032963Y-66498373D01*
X145050359Y-66675000D01*
X145032963Y-66851627D01*
X144998616Y-66964853D01*
X144981443Y-67021467D01*
X144907348Y-67160087D01*
X144897778Y-67177991D01*
X144868448Y-67213729D01*
X144785186Y-67315186D01*
X144683729Y-67398448D01*
X144647991Y-67427778D01*
X144647989Y-67427779D01*
X144491467Y-67511443D01*
X144434853Y-67528616D01*
X144321627Y-67562963D01*
X144255443Y-67569481D01*
X144189260Y-67576000D01*
X144100740Y-67576000D01*
X144034557Y-67569481D01*
X143968373Y-67562963D01*
X143855147Y-67528616D01*
X143798533Y-67511443D01*
X143642011Y-67427779D01*
X143642009Y-67427778D01*
X143606271Y-67398448D01*
X143504814Y-67315186D01*
X143421552Y-67213729D01*
X143392222Y-67177991D01*
X143382652Y-67160087D01*
X143308557Y-67021467D01*
X143291384Y-66964853D01*
X143257037Y-66851627D01*
X143239641Y-66675000D01*
X143257037Y-66498373D01*
X143308557Y-66328534D01*
X143308557Y-66328533D01*
X143392221Y-66172011D01*
X143392222Y-66172009D01*
X143421552Y-66136271D01*
X143504814Y-66034814D01*
X143606271Y-65951552D01*
X143642009Y-65922222D01*
X143659913Y-65912652D01*
X143798533Y-65838557D01*
X143855147Y-65821384D01*
X143968373Y-65787037D01*
X144034557Y-65780519D01*
X144100740Y-65774000D01*
X144189260Y-65774000D01*
X144255443Y-65780519D01*
X144255443Y-65780519D01*
G37*
G36*
X146795443Y-65780519D02*
X146861627Y-65787037D01*
X146974853Y-65821384D01*
X147031467Y-65838557D01*
X147170087Y-65912652D01*
X147187991Y-65922222D01*
X147223729Y-65951552D01*
X147325186Y-66034814D01*
X147408448Y-66136271D01*
X147437778Y-66172009D01*
X147437779Y-66172011D01*
X147521443Y-66328533D01*
X147521443Y-66328534D01*
X147572963Y-66498373D01*
X147590359Y-66675000D01*
X147572963Y-66851627D01*
X147538616Y-66964853D01*
X147521443Y-67021467D01*
X147447348Y-67160087D01*
X147437778Y-67177991D01*
X147408448Y-67213729D01*
X147325186Y-67315186D01*
X147223729Y-67398448D01*
X147187991Y-67427778D01*
X147187989Y-67427779D01*
X147031467Y-67511443D01*
X146974853Y-67528616D01*
X146861627Y-67562963D01*
X146795443Y-67569481D01*
X146729260Y-67576000D01*
X146640740Y-67576000D01*
X146574557Y-67569481D01*
X146508373Y-67562963D01*
X146395147Y-67528616D01*
X146338533Y-67511443D01*
X146182011Y-67427779D01*
X146182009Y-67427778D01*
X146146271Y-67398448D01*
X146044814Y-67315186D01*
X145961552Y-67213729D01*
X145932222Y-67177991D01*
X145922652Y-67160087D01*
X145848557Y-67021467D01*
X145831384Y-66964853D01*
X145797037Y-66851627D01*
X145779641Y-66675000D01*
X145797037Y-66498373D01*
X145848557Y-66328534D01*
X145848557Y-66328533D01*
X145932221Y-66172011D01*
X145932222Y-66172009D01*
X145961552Y-66136271D01*
X146044814Y-66034814D01*
X146146271Y-65951552D01*
X146182009Y-65922222D01*
X146199913Y-65912652D01*
X146338533Y-65838557D01*
X146395147Y-65821384D01*
X146508373Y-65787037D01*
X146574557Y-65780519D01*
X146640740Y-65774000D01*
X146729260Y-65774000D01*
X146795443Y-65780519D01*
X146795443Y-65780519D01*
G37*
G36*
X136635443Y-65780519D02*
X136701627Y-65787037D01*
X136814853Y-65821384D01*
X136871467Y-65838557D01*
X137010087Y-65912652D01*
X137027991Y-65922222D01*
X137063729Y-65951552D01*
X137165186Y-66034814D01*
X137248448Y-66136271D01*
X137277778Y-66172009D01*
X137277779Y-66172011D01*
X137361443Y-66328533D01*
X137361443Y-66328534D01*
X137412963Y-66498373D01*
X137430359Y-66675000D01*
X137412963Y-66851627D01*
X137378616Y-66964853D01*
X137361443Y-67021467D01*
X137287348Y-67160087D01*
X137277778Y-67177991D01*
X137248448Y-67213729D01*
X137165186Y-67315186D01*
X137063729Y-67398448D01*
X137027991Y-67427778D01*
X137027989Y-67427779D01*
X136871467Y-67511443D01*
X136814853Y-67528616D01*
X136701627Y-67562963D01*
X136635443Y-67569481D01*
X136569260Y-67576000D01*
X136480740Y-67576000D01*
X136414557Y-67569481D01*
X136348373Y-67562963D01*
X136235147Y-67528616D01*
X136178533Y-67511443D01*
X136022011Y-67427779D01*
X136022009Y-67427778D01*
X135986271Y-67398448D01*
X135884814Y-67315186D01*
X135801552Y-67213729D01*
X135772222Y-67177991D01*
X135762652Y-67160087D01*
X135688557Y-67021467D01*
X135671384Y-66964853D01*
X135637037Y-66851627D01*
X135619641Y-66675000D01*
X135637037Y-66498373D01*
X135688557Y-66328534D01*
X135688557Y-66328533D01*
X135772221Y-66172011D01*
X135772222Y-66172009D01*
X135801552Y-66136271D01*
X135884814Y-66034814D01*
X135986271Y-65951552D01*
X136022009Y-65922222D01*
X136039913Y-65912652D01*
X136178533Y-65838557D01*
X136235147Y-65821384D01*
X136348373Y-65787037D01*
X136414557Y-65780519D01*
X136480740Y-65774000D01*
X136569260Y-65774000D01*
X136635443Y-65780519D01*
X136635443Y-65780519D01*
G37*
G36*
X141715443Y-65780519D02*
X141781627Y-65787037D01*
X141894853Y-65821384D01*
X141951467Y-65838557D01*
X142090087Y-65912652D01*
X142107991Y-65922222D01*
X142143729Y-65951552D01*
X142245186Y-66034814D01*
X142328448Y-66136271D01*
X142357778Y-66172009D01*
X142357779Y-66172011D01*
X142441443Y-66328533D01*
X142441443Y-66328534D01*
X142492963Y-66498373D01*
X142510359Y-66675000D01*
X142492963Y-66851627D01*
X142458616Y-66964853D01*
X142441443Y-67021467D01*
X142367348Y-67160087D01*
X142357778Y-67177991D01*
X142328448Y-67213729D01*
X142245186Y-67315186D01*
X142143729Y-67398448D01*
X142107991Y-67427778D01*
X142107989Y-67427779D01*
X141951467Y-67511443D01*
X141894853Y-67528616D01*
X141781627Y-67562963D01*
X141715443Y-67569481D01*
X141649260Y-67576000D01*
X141560740Y-67576000D01*
X141494557Y-67569481D01*
X141428373Y-67562963D01*
X141315147Y-67528616D01*
X141258533Y-67511443D01*
X141102011Y-67427779D01*
X141102009Y-67427778D01*
X141066271Y-67398448D01*
X140964814Y-67315186D01*
X140881552Y-67213729D01*
X140852222Y-67177991D01*
X140842652Y-67160087D01*
X140768557Y-67021467D01*
X140751384Y-66964853D01*
X140717037Y-66851627D01*
X140699641Y-66675000D01*
X140717037Y-66498373D01*
X140768557Y-66328534D01*
X140768557Y-66328533D01*
X140852221Y-66172011D01*
X140852222Y-66172009D01*
X140881552Y-66136271D01*
X140964814Y-66034814D01*
X141066271Y-65951552D01*
X141102009Y-65922222D01*
X141119913Y-65912652D01*
X141258533Y-65838557D01*
X141315147Y-65821384D01*
X141428373Y-65787037D01*
X141494557Y-65780519D01*
X141560740Y-65774000D01*
X141649260Y-65774000D01*
X141715443Y-65780519D01*
X141715443Y-65780519D01*
G37*
G36*
X139175442Y-56890518D02*
X139241627Y-56897037D01*
X139354853Y-56931384D01*
X139411467Y-56948557D01*
X139550087Y-57022652D01*
X139567991Y-57032222D01*
X139603729Y-57061552D01*
X139705186Y-57144814D01*
X139788448Y-57246271D01*
X139817778Y-57282009D01*
X139817779Y-57282011D01*
X139901443Y-57438533D01*
X139901443Y-57438534D01*
X139952963Y-57608373D01*
X139970359Y-57785000D01*
X139952963Y-57961627D01*
X139918616Y-58074853D01*
X139901443Y-58131467D01*
X139827348Y-58270087D01*
X139817778Y-58287991D01*
X139788448Y-58323729D01*
X139705186Y-58425186D01*
X139603729Y-58508448D01*
X139567991Y-58537778D01*
X139567989Y-58537779D01*
X139411467Y-58621443D01*
X139354853Y-58638616D01*
X139241627Y-58672963D01*
X139175442Y-58679482D01*
X139109260Y-58686000D01*
X139020740Y-58686000D01*
X138954558Y-58679482D01*
X138888373Y-58672963D01*
X138775147Y-58638616D01*
X138718533Y-58621443D01*
X138562011Y-58537779D01*
X138562009Y-58537778D01*
X138526271Y-58508448D01*
X138424814Y-58425186D01*
X138341552Y-58323729D01*
X138312222Y-58287991D01*
X138302652Y-58270087D01*
X138228557Y-58131467D01*
X138211384Y-58074853D01*
X138177037Y-57961627D01*
X138159641Y-57785000D01*
X138177037Y-57608373D01*
X138228557Y-57438534D01*
X138228557Y-57438533D01*
X138312221Y-57282011D01*
X138312222Y-57282009D01*
X138341552Y-57246271D01*
X138424814Y-57144814D01*
X138526271Y-57061552D01*
X138562009Y-57032222D01*
X138579913Y-57022652D01*
X138718533Y-56948557D01*
X138775147Y-56931384D01*
X138888373Y-56897037D01*
X138954558Y-56890518D01*
X139020740Y-56884000D01*
X139109260Y-56884000D01*
X139175442Y-56890518D01*
X139175442Y-56890518D01*
G37*
G36*
X141715442Y-56890518D02*
X141781627Y-56897037D01*
X141894853Y-56931384D01*
X141951467Y-56948557D01*
X142090087Y-57022652D01*
X142107991Y-57032222D01*
X142143729Y-57061552D01*
X142245186Y-57144814D01*
X142328448Y-57246271D01*
X142357778Y-57282009D01*
X142357779Y-57282011D01*
X142441443Y-57438533D01*
X142441443Y-57438534D01*
X142492963Y-57608373D01*
X142510359Y-57785000D01*
X142492963Y-57961627D01*
X142458616Y-58074853D01*
X142441443Y-58131467D01*
X142367348Y-58270087D01*
X142357778Y-58287991D01*
X142328448Y-58323729D01*
X142245186Y-58425186D01*
X142143729Y-58508448D01*
X142107991Y-58537778D01*
X142107989Y-58537779D01*
X141951467Y-58621443D01*
X141894853Y-58638616D01*
X141781627Y-58672963D01*
X141715442Y-58679482D01*
X141649260Y-58686000D01*
X141560740Y-58686000D01*
X141494558Y-58679482D01*
X141428373Y-58672963D01*
X141315147Y-58638616D01*
X141258533Y-58621443D01*
X141102011Y-58537779D01*
X141102009Y-58537778D01*
X141066271Y-58508448D01*
X140964814Y-58425186D01*
X140881552Y-58323729D01*
X140852222Y-58287991D01*
X140842652Y-58270087D01*
X140768557Y-58131467D01*
X140751384Y-58074853D01*
X140717037Y-57961627D01*
X140699641Y-57785000D01*
X140717037Y-57608373D01*
X140768557Y-57438534D01*
X140768557Y-57438533D01*
X140852221Y-57282011D01*
X140852222Y-57282009D01*
X140881552Y-57246271D01*
X140964814Y-57144814D01*
X141066271Y-57061552D01*
X141102009Y-57032222D01*
X141119913Y-57022652D01*
X141258533Y-56948557D01*
X141315147Y-56931384D01*
X141428373Y-56897037D01*
X141494558Y-56890518D01*
X141560740Y-56884000D01*
X141649260Y-56884000D01*
X141715442Y-56890518D01*
X141715442Y-56890518D01*
G37*
G36*
X144255442Y-56890518D02*
X144321627Y-56897037D01*
X144434853Y-56931384D01*
X144491467Y-56948557D01*
X144630087Y-57022652D01*
X144647991Y-57032222D01*
X144683729Y-57061552D01*
X144785186Y-57144814D01*
X144868448Y-57246271D01*
X144897778Y-57282009D01*
X144897779Y-57282011D01*
X144981443Y-57438533D01*
X144981443Y-57438534D01*
X145032963Y-57608373D01*
X145050359Y-57785000D01*
X145032963Y-57961627D01*
X144998616Y-58074853D01*
X144981443Y-58131467D01*
X144907348Y-58270087D01*
X144897778Y-58287991D01*
X144868448Y-58323729D01*
X144785186Y-58425186D01*
X144683729Y-58508448D01*
X144647991Y-58537778D01*
X144647989Y-58537779D01*
X144491467Y-58621443D01*
X144434853Y-58638616D01*
X144321627Y-58672963D01*
X144255442Y-58679482D01*
X144189260Y-58686000D01*
X144100740Y-58686000D01*
X144034558Y-58679482D01*
X143968373Y-58672963D01*
X143855147Y-58638616D01*
X143798533Y-58621443D01*
X143642011Y-58537779D01*
X143642009Y-58537778D01*
X143606271Y-58508448D01*
X143504814Y-58425186D01*
X143421552Y-58323729D01*
X143392222Y-58287991D01*
X143382652Y-58270087D01*
X143308557Y-58131467D01*
X143291384Y-58074853D01*
X143257037Y-57961627D01*
X143239641Y-57785000D01*
X143257037Y-57608373D01*
X143308557Y-57438534D01*
X143308557Y-57438533D01*
X143392221Y-57282011D01*
X143392222Y-57282009D01*
X143421552Y-57246271D01*
X143504814Y-57144814D01*
X143606271Y-57061552D01*
X143642009Y-57032222D01*
X143659913Y-57022652D01*
X143798533Y-56948557D01*
X143855147Y-56931384D01*
X143968373Y-56897037D01*
X144034558Y-56890518D01*
X144100740Y-56884000D01*
X144189260Y-56884000D01*
X144255442Y-56890518D01*
X144255442Y-56890518D01*
G37*
G36*
X146795442Y-56890518D02*
X146861627Y-56897037D01*
X146974853Y-56931384D01*
X147031467Y-56948557D01*
X147170087Y-57022652D01*
X147187991Y-57032222D01*
X147223729Y-57061552D01*
X147325186Y-57144814D01*
X147408448Y-57246271D01*
X147437778Y-57282009D01*
X147437779Y-57282011D01*
X147521443Y-57438533D01*
X147521443Y-57438534D01*
X147572963Y-57608373D01*
X147590359Y-57785000D01*
X147572963Y-57961627D01*
X147538616Y-58074853D01*
X147521443Y-58131467D01*
X147447348Y-58270087D01*
X147437778Y-58287991D01*
X147408448Y-58323729D01*
X147325186Y-58425186D01*
X147223729Y-58508448D01*
X147187991Y-58537778D01*
X147187989Y-58537779D01*
X147031467Y-58621443D01*
X146974853Y-58638616D01*
X146861627Y-58672963D01*
X146795442Y-58679482D01*
X146729260Y-58686000D01*
X146640740Y-58686000D01*
X146574558Y-58679482D01*
X146508373Y-58672963D01*
X146395147Y-58638616D01*
X146338533Y-58621443D01*
X146182011Y-58537779D01*
X146182009Y-58537778D01*
X146146271Y-58508448D01*
X146044814Y-58425186D01*
X145961552Y-58323729D01*
X145932222Y-58287991D01*
X145922652Y-58270087D01*
X145848557Y-58131467D01*
X145831384Y-58074853D01*
X145797037Y-57961627D01*
X145779641Y-57785000D01*
X145797037Y-57608373D01*
X145848557Y-57438534D01*
X145848557Y-57438533D01*
X145932221Y-57282011D01*
X145932222Y-57282009D01*
X145961552Y-57246271D01*
X146044814Y-57144814D01*
X146146271Y-57061552D01*
X146182009Y-57032222D01*
X146199913Y-57022652D01*
X146338533Y-56948557D01*
X146395147Y-56931384D01*
X146508373Y-56897037D01*
X146574558Y-56890518D01*
X146640740Y-56884000D01*
X146729260Y-56884000D01*
X146795442Y-56890518D01*
X146795442Y-56890518D01*
G37*
G36*
X150126000Y-58686000D02*
X148324000Y-58686000D01*
X148324000Y-56884000D01*
X150126000Y-56884000D01*
X150126000Y-58686000D01*
X150126000Y-58686000D01*
G37*
G36*
X136635442Y-56890518D02*
X136701627Y-56897037D01*
X136814853Y-56931384D01*
X136871467Y-56948557D01*
X137010087Y-57022652D01*
X137027991Y-57032222D01*
X137063729Y-57061552D01*
X137165186Y-57144814D01*
X137248448Y-57246271D01*
X137277778Y-57282009D01*
X137277779Y-57282011D01*
X137361443Y-57438533D01*
X137361443Y-57438534D01*
X137412963Y-57608373D01*
X137430359Y-57785000D01*
X137412963Y-57961627D01*
X137378616Y-58074853D01*
X137361443Y-58131467D01*
X137287348Y-58270087D01*
X137277778Y-58287991D01*
X137248448Y-58323729D01*
X137165186Y-58425186D01*
X137063729Y-58508448D01*
X137027991Y-58537778D01*
X137027989Y-58537779D01*
X136871467Y-58621443D01*
X136814853Y-58638616D01*
X136701627Y-58672963D01*
X136635442Y-58679482D01*
X136569260Y-58686000D01*
X136480740Y-58686000D01*
X136414558Y-58679482D01*
X136348373Y-58672963D01*
X136235147Y-58638616D01*
X136178533Y-58621443D01*
X136022011Y-58537779D01*
X136022009Y-58537778D01*
X135986271Y-58508448D01*
X135884814Y-58425186D01*
X135801552Y-58323729D01*
X135772222Y-58287991D01*
X135762652Y-58270087D01*
X135688557Y-58131467D01*
X135671384Y-58074853D01*
X135637037Y-57961627D01*
X135619641Y-57785000D01*
X135637037Y-57608373D01*
X135688557Y-57438534D01*
X135688557Y-57438533D01*
X135772221Y-57282011D01*
X135772222Y-57282009D01*
X135801552Y-57246271D01*
X135884814Y-57144814D01*
X135986271Y-57061552D01*
X136022009Y-57032222D01*
X136039913Y-57022652D01*
X136178533Y-56948557D01*
X136235147Y-56931384D01*
X136348373Y-56897037D01*
X136414558Y-56890518D01*
X136480740Y-56884000D01*
X136569260Y-56884000D01*
X136635442Y-56890518D01*
X136635442Y-56890518D01*
G37*
G36*
X59800442Y-46730518D02*
X59866627Y-46737037D01*
X59979853Y-46771384D01*
X60036467Y-46788557D01*
X60175087Y-46862652D01*
X60192991Y-46872222D01*
X60228729Y-46901552D01*
X60330186Y-46984814D01*
X60413448Y-47086271D01*
X60442778Y-47122009D01*
X60442779Y-47122011D01*
X60526443Y-47278533D01*
X60526443Y-47278534D01*
X60577963Y-47448373D01*
X60595359Y-47625000D01*
X60577963Y-47801627D01*
X60543616Y-47914853D01*
X60526443Y-47971467D01*
X60452348Y-48110087D01*
X60442778Y-48127991D01*
X60413448Y-48163729D01*
X60330186Y-48265186D01*
X60228729Y-48348448D01*
X60192991Y-48377778D01*
X60192989Y-48377779D01*
X60036467Y-48461443D01*
X59979853Y-48478616D01*
X59866627Y-48512963D01*
X59800442Y-48519482D01*
X59734260Y-48526000D01*
X59645740Y-48526000D01*
X59579557Y-48519481D01*
X59513373Y-48512963D01*
X59400147Y-48478616D01*
X59343533Y-48461443D01*
X59187011Y-48377779D01*
X59187009Y-48377778D01*
X59151271Y-48348448D01*
X59049814Y-48265186D01*
X58966552Y-48163729D01*
X58937222Y-48127991D01*
X58927652Y-48110087D01*
X58853557Y-47971467D01*
X58836384Y-47914853D01*
X58802037Y-47801627D01*
X58784641Y-47625000D01*
X58802037Y-47448373D01*
X58853557Y-47278534D01*
X58853557Y-47278533D01*
X58937221Y-47122011D01*
X58937222Y-47122009D01*
X58966552Y-47086271D01*
X59049814Y-46984814D01*
X59151271Y-46901552D01*
X59187009Y-46872222D01*
X59204913Y-46862652D01*
X59343533Y-46788557D01*
X59400147Y-46771384D01*
X59513373Y-46737037D01*
X59579558Y-46730518D01*
X59645740Y-46724000D01*
X59734260Y-46724000D01*
X59800442Y-46730518D01*
X59800442Y-46730518D01*
G37*
G36*
X151875442Y-46730518D02*
X151941627Y-46737037D01*
X152054853Y-46771384D01*
X152111467Y-46788557D01*
X152250087Y-46862652D01*
X152267991Y-46872222D01*
X152303729Y-46901552D01*
X152405186Y-46984814D01*
X152488448Y-47086271D01*
X152517778Y-47122009D01*
X152517779Y-47122011D01*
X152601443Y-47278533D01*
X152601443Y-47278534D01*
X152652963Y-47448373D01*
X152670359Y-47625000D01*
X152652963Y-47801627D01*
X152618616Y-47914853D01*
X152601443Y-47971467D01*
X152527348Y-48110087D01*
X152517778Y-48127991D01*
X152488448Y-48163729D01*
X152405186Y-48265186D01*
X152303729Y-48348448D01*
X152267991Y-48377778D01*
X152267989Y-48377779D01*
X152111467Y-48461443D01*
X152054853Y-48478616D01*
X151941627Y-48512963D01*
X151875442Y-48519482D01*
X151809260Y-48526000D01*
X151720740Y-48526000D01*
X151654557Y-48519481D01*
X151588373Y-48512963D01*
X151475147Y-48478616D01*
X151418533Y-48461443D01*
X151262011Y-48377779D01*
X151262009Y-48377778D01*
X151226271Y-48348448D01*
X151124814Y-48265186D01*
X151041552Y-48163729D01*
X151012222Y-48127991D01*
X151002652Y-48110087D01*
X150928557Y-47971467D01*
X150911384Y-47914853D01*
X150877037Y-47801627D01*
X150859641Y-47625000D01*
X150877037Y-47448373D01*
X150928557Y-47278534D01*
X150928557Y-47278533D01*
X151012221Y-47122011D01*
X151012222Y-47122009D01*
X151041552Y-47086271D01*
X151124814Y-46984814D01*
X151226271Y-46901552D01*
X151262009Y-46872222D01*
X151279913Y-46862652D01*
X151418533Y-46788557D01*
X151475147Y-46771384D01*
X151588373Y-46737037D01*
X151654558Y-46730518D01*
X151720740Y-46724000D01*
X151809260Y-46724000D01*
X151875442Y-46730518D01*
X151875442Y-46730518D01*
G37*
G36*
X62340442Y-46730518D02*
X62406627Y-46737037D01*
X62519853Y-46771384D01*
X62576467Y-46788557D01*
X62715087Y-46862652D01*
X62732991Y-46872222D01*
X62768729Y-46901552D01*
X62870186Y-46984814D01*
X62953448Y-47086271D01*
X62982778Y-47122009D01*
X62982779Y-47122011D01*
X63066443Y-47278533D01*
X63066443Y-47278534D01*
X63117963Y-47448373D01*
X63135359Y-47625000D01*
X63117963Y-47801627D01*
X63083616Y-47914853D01*
X63066443Y-47971467D01*
X62992348Y-48110087D01*
X62982778Y-48127991D01*
X62953448Y-48163729D01*
X62870186Y-48265186D01*
X62768729Y-48348448D01*
X62732991Y-48377778D01*
X62732989Y-48377779D01*
X62576467Y-48461443D01*
X62519853Y-48478616D01*
X62406627Y-48512963D01*
X62340442Y-48519482D01*
X62274260Y-48526000D01*
X62185740Y-48526000D01*
X62119557Y-48519481D01*
X62053373Y-48512963D01*
X61940147Y-48478616D01*
X61883533Y-48461443D01*
X61727011Y-48377779D01*
X61727009Y-48377778D01*
X61691271Y-48348448D01*
X61589814Y-48265186D01*
X61506552Y-48163729D01*
X61477222Y-48127991D01*
X61467652Y-48110087D01*
X61393557Y-47971467D01*
X61376384Y-47914853D01*
X61342037Y-47801627D01*
X61324641Y-47625000D01*
X61342037Y-47448373D01*
X61393557Y-47278534D01*
X61393557Y-47278533D01*
X61477221Y-47122011D01*
X61477222Y-47122009D01*
X61506552Y-47086271D01*
X61589814Y-46984814D01*
X61691271Y-46901552D01*
X61727009Y-46872222D01*
X61744913Y-46862652D01*
X61883533Y-46788557D01*
X61940147Y-46771384D01*
X62053373Y-46737037D01*
X62119558Y-46730518D01*
X62185740Y-46724000D01*
X62274260Y-46724000D01*
X62340442Y-46730518D01*
X62340442Y-46730518D01*
G37*
G36*
X73291000Y-48526000D02*
X71489000Y-48526000D01*
X71489000Y-46724000D01*
X73291000Y-46724000D01*
X73291000Y-48526000D01*
X73291000Y-48526000D01*
G37*
G36*
X69960442Y-46730518D02*
X70026627Y-46737037D01*
X70139853Y-46771384D01*
X70196467Y-46788557D01*
X70335087Y-46862652D01*
X70352991Y-46872222D01*
X70388729Y-46901552D01*
X70490186Y-46984814D01*
X70573448Y-47086271D01*
X70602778Y-47122009D01*
X70602779Y-47122011D01*
X70686443Y-47278533D01*
X70686443Y-47278534D01*
X70737963Y-47448373D01*
X70755359Y-47625000D01*
X70737963Y-47801627D01*
X70703616Y-47914853D01*
X70686443Y-47971467D01*
X70612348Y-48110087D01*
X70602778Y-48127991D01*
X70573448Y-48163729D01*
X70490186Y-48265186D01*
X70388729Y-48348448D01*
X70352991Y-48377778D01*
X70352989Y-48377779D01*
X70196467Y-48461443D01*
X70139853Y-48478616D01*
X70026627Y-48512963D01*
X69960442Y-48519482D01*
X69894260Y-48526000D01*
X69805740Y-48526000D01*
X69739557Y-48519481D01*
X69673373Y-48512963D01*
X69560147Y-48478616D01*
X69503533Y-48461443D01*
X69347011Y-48377779D01*
X69347009Y-48377778D01*
X69311271Y-48348448D01*
X69209814Y-48265186D01*
X69126552Y-48163729D01*
X69097222Y-48127991D01*
X69087652Y-48110087D01*
X69013557Y-47971467D01*
X68996384Y-47914853D01*
X68962037Y-47801627D01*
X68944641Y-47625000D01*
X68962037Y-47448373D01*
X69013557Y-47278534D01*
X69013557Y-47278533D01*
X69097221Y-47122011D01*
X69097222Y-47122009D01*
X69126552Y-47086271D01*
X69209814Y-46984814D01*
X69311271Y-46901552D01*
X69347009Y-46872222D01*
X69364913Y-46862652D01*
X69503533Y-46788557D01*
X69560147Y-46771384D01*
X69673373Y-46737037D01*
X69739558Y-46730518D01*
X69805740Y-46724000D01*
X69894260Y-46724000D01*
X69960442Y-46730518D01*
X69960442Y-46730518D01*
G37*
G36*
X64880442Y-46730518D02*
X64946627Y-46737037D01*
X65059853Y-46771384D01*
X65116467Y-46788557D01*
X65255087Y-46862652D01*
X65272991Y-46872222D01*
X65308729Y-46901552D01*
X65410186Y-46984814D01*
X65493448Y-47086271D01*
X65522778Y-47122009D01*
X65522779Y-47122011D01*
X65606443Y-47278533D01*
X65606443Y-47278534D01*
X65657963Y-47448373D01*
X65675359Y-47625000D01*
X65657963Y-47801627D01*
X65623616Y-47914853D01*
X65606443Y-47971467D01*
X65532348Y-48110087D01*
X65522778Y-48127991D01*
X65493448Y-48163729D01*
X65410186Y-48265186D01*
X65308729Y-48348448D01*
X65272991Y-48377778D01*
X65272989Y-48377779D01*
X65116467Y-48461443D01*
X65059853Y-48478616D01*
X64946627Y-48512963D01*
X64880442Y-48519482D01*
X64814260Y-48526000D01*
X64725740Y-48526000D01*
X64659557Y-48519481D01*
X64593373Y-48512963D01*
X64480147Y-48478616D01*
X64423533Y-48461443D01*
X64267011Y-48377779D01*
X64267009Y-48377778D01*
X64231271Y-48348448D01*
X64129814Y-48265186D01*
X64046552Y-48163729D01*
X64017222Y-48127991D01*
X64007652Y-48110087D01*
X63933557Y-47971467D01*
X63916384Y-47914853D01*
X63882037Y-47801627D01*
X63864641Y-47625000D01*
X63882037Y-47448373D01*
X63933557Y-47278534D01*
X63933557Y-47278533D01*
X64017221Y-47122011D01*
X64017222Y-47122009D01*
X64046552Y-47086271D01*
X64129814Y-46984814D01*
X64231271Y-46901552D01*
X64267009Y-46872222D01*
X64284913Y-46862652D01*
X64423533Y-46788557D01*
X64480147Y-46771384D01*
X64593373Y-46737037D01*
X64659558Y-46730518D01*
X64725740Y-46724000D01*
X64814260Y-46724000D01*
X64880442Y-46730518D01*
X64880442Y-46730518D01*
G37*
G36*
X134886000Y-48526000D02*
X133084000Y-48526000D01*
X133084000Y-46724000D01*
X134886000Y-46724000D01*
X134886000Y-48526000D01*
X134886000Y-48526000D01*
G37*
G36*
X125205442Y-46730518D02*
X125271627Y-46737037D01*
X125384853Y-46771384D01*
X125441467Y-46788557D01*
X125580087Y-46862652D01*
X125597991Y-46872222D01*
X125633729Y-46901552D01*
X125735186Y-46984814D01*
X125818448Y-47086271D01*
X125847778Y-47122009D01*
X125847779Y-47122011D01*
X125931443Y-47278533D01*
X125931443Y-47278534D01*
X125982963Y-47448373D01*
X126000359Y-47625000D01*
X125982963Y-47801627D01*
X125948616Y-47914853D01*
X125931443Y-47971467D01*
X125857348Y-48110087D01*
X125847778Y-48127991D01*
X125818448Y-48163729D01*
X125735186Y-48265186D01*
X125633729Y-48348448D01*
X125597991Y-48377778D01*
X125597989Y-48377779D01*
X125441467Y-48461443D01*
X125384853Y-48478616D01*
X125271627Y-48512963D01*
X125205442Y-48519482D01*
X125139260Y-48526000D01*
X125050740Y-48526000D01*
X124984557Y-48519481D01*
X124918373Y-48512963D01*
X124805147Y-48478616D01*
X124748533Y-48461443D01*
X124592011Y-48377779D01*
X124592009Y-48377778D01*
X124556271Y-48348448D01*
X124454814Y-48265186D01*
X124371552Y-48163729D01*
X124342222Y-48127991D01*
X124332652Y-48110087D01*
X124258557Y-47971467D01*
X124241384Y-47914853D01*
X124207037Y-47801627D01*
X124189641Y-47625000D01*
X124207037Y-47448373D01*
X124258557Y-47278534D01*
X124258557Y-47278533D01*
X124342221Y-47122011D01*
X124342222Y-47122009D01*
X124371552Y-47086271D01*
X124454814Y-46984814D01*
X124556271Y-46901552D01*
X124592009Y-46872222D01*
X124609913Y-46862652D01*
X124748533Y-46788557D01*
X124805147Y-46771384D01*
X124918373Y-46737037D01*
X124984558Y-46730518D01*
X125050740Y-46724000D01*
X125139260Y-46724000D01*
X125205442Y-46730518D01*
X125205442Y-46730518D01*
G37*
G36*
X127745442Y-46730518D02*
X127811627Y-46737037D01*
X127924853Y-46771384D01*
X127981467Y-46788557D01*
X128120087Y-46862652D01*
X128137991Y-46872222D01*
X128173729Y-46901552D01*
X128275186Y-46984814D01*
X128358448Y-47086271D01*
X128387778Y-47122009D01*
X128387779Y-47122011D01*
X128471443Y-47278533D01*
X128471443Y-47278534D01*
X128522963Y-47448373D01*
X128540359Y-47625000D01*
X128522963Y-47801627D01*
X128488616Y-47914853D01*
X128471443Y-47971467D01*
X128397348Y-48110087D01*
X128387778Y-48127991D01*
X128358448Y-48163729D01*
X128275186Y-48265186D01*
X128173729Y-48348448D01*
X128137991Y-48377778D01*
X128137989Y-48377779D01*
X127981467Y-48461443D01*
X127924853Y-48478616D01*
X127811627Y-48512963D01*
X127745442Y-48519482D01*
X127679260Y-48526000D01*
X127590740Y-48526000D01*
X127524557Y-48519481D01*
X127458373Y-48512963D01*
X127345147Y-48478616D01*
X127288533Y-48461443D01*
X127132011Y-48377779D01*
X127132009Y-48377778D01*
X127096271Y-48348448D01*
X126994814Y-48265186D01*
X126911552Y-48163729D01*
X126882222Y-48127991D01*
X126872652Y-48110087D01*
X126798557Y-47971467D01*
X126781384Y-47914853D01*
X126747037Y-47801627D01*
X126729641Y-47625000D01*
X126747037Y-47448373D01*
X126798557Y-47278534D01*
X126798557Y-47278533D01*
X126882221Y-47122011D01*
X126882222Y-47122009D01*
X126911552Y-47086271D01*
X126994814Y-46984814D01*
X127096271Y-46901552D01*
X127132009Y-46872222D01*
X127149913Y-46862652D01*
X127288533Y-46788557D01*
X127345147Y-46771384D01*
X127458373Y-46737037D01*
X127524558Y-46730518D01*
X127590740Y-46724000D01*
X127679260Y-46724000D01*
X127745442Y-46730518D01*
X127745442Y-46730518D01*
G37*
G36*
X136635442Y-46730518D02*
X136701627Y-46737037D01*
X136814853Y-46771384D01*
X136871467Y-46788557D01*
X137010087Y-46862652D01*
X137027991Y-46872222D01*
X137063729Y-46901552D01*
X137165186Y-46984814D01*
X137248448Y-47086271D01*
X137277778Y-47122009D01*
X137277779Y-47122011D01*
X137361443Y-47278533D01*
X137361443Y-47278534D01*
X137412963Y-47448373D01*
X137430359Y-47625000D01*
X137412963Y-47801627D01*
X137378616Y-47914853D01*
X137361443Y-47971467D01*
X137287348Y-48110087D01*
X137277778Y-48127991D01*
X137248448Y-48163729D01*
X137165186Y-48265186D01*
X137063729Y-48348448D01*
X137027991Y-48377778D01*
X137027989Y-48377779D01*
X136871467Y-48461443D01*
X136814853Y-48478616D01*
X136701627Y-48512963D01*
X136635442Y-48519482D01*
X136569260Y-48526000D01*
X136480740Y-48526000D01*
X136414557Y-48519481D01*
X136348373Y-48512963D01*
X136235147Y-48478616D01*
X136178533Y-48461443D01*
X136022011Y-48377779D01*
X136022009Y-48377778D01*
X135986271Y-48348448D01*
X135884814Y-48265186D01*
X135801552Y-48163729D01*
X135772222Y-48127991D01*
X135762652Y-48110087D01*
X135688557Y-47971467D01*
X135671384Y-47914853D01*
X135637037Y-47801627D01*
X135619641Y-47625000D01*
X135637037Y-47448373D01*
X135688557Y-47278534D01*
X135688557Y-47278533D01*
X135772221Y-47122011D01*
X135772222Y-47122009D01*
X135801552Y-47086271D01*
X135884814Y-46984814D01*
X135986271Y-46901552D01*
X136022009Y-46872222D01*
X136039913Y-46862652D01*
X136178533Y-46788557D01*
X136235147Y-46771384D01*
X136348373Y-46737037D01*
X136414558Y-46730518D01*
X136480740Y-46724000D01*
X136569260Y-46724000D01*
X136635442Y-46730518D01*
X136635442Y-46730518D01*
G37*
G36*
X139175442Y-46730518D02*
X139241627Y-46737037D01*
X139354853Y-46771384D01*
X139411467Y-46788557D01*
X139550087Y-46862652D01*
X139567991Y-46872222D01*
X139603729Y-46901552D01*
X139705186Y-46984814D01*
X139788448Y-47086271D01*
X139817778Y-47122009D01*
X139817779Y-47122011D01*
X139901443Y-47278533D01*
X139901443Y-47278534D01*
X139952963Y-47448373D01*
X139970359Y-47625000D01*
X139952963Y-47801627D01*
X139918616Y-47914853D01*
X139901443Y-47971467D01*
X139827348Y-48110087D01*
X139817778Y-48127991D01*
X139788448Y-48163729D01*
X139705186Y-48265186D01*
X139603729Y-48348448D01*
X139567991Y-48377778D01*
X139567989Y-48377779D01*
X139411467Y-48461443D01*
X139354853Y-48478616D01*
X139241627Y-48512963D01*
X139175442Y-48519482D01*
X139109260Y-48526000D01*
X139020740Y-48526000D01*
X138954557Y-48519481D01*
X138888373Y-48512963D01*
X138775147Y-48478616D01*
X138718533Y-48461443D01*
X138562011Y-48377779D01*
X138562009Y-48377778D01*
X138526271Y-48348448D01*
X138424814Y-48265186D01*
X138341552Y-48163729D01*
X138312222Y-48127991D01*
X138302652Y-48110087D01*
X138228557Y-47971467D01*
X138211384Y-47914853D01*
X138177037Y-47801627D01*
X138159641Y-47625000D01*
X138177037Y-47448373D01*
X138228557Y-47278534D01*
X138228557Y-47278533D01*
X138312221Y-47122011D01*
X138312222Y-47122009D01*
X138341552Y-47086271D01*
X138424814Y-46984814D01*
X138526271Y-46901552D01*
X138562009Y-46872222D01*
X138579913Y-46862652D01*
X138718533Y-46788557D01*
X138775147Y-46771384D01*
X138888373Y-46737037D01*
X138954558Y-46730518D01*
X139020740Y-46724000D01*
X139109260Y-46724000D01*
X139175442Y-46730518D01*
X139175442Y-46730518D01*
G37*
G36*
X54720442Y-46730518D02*
X54786627Y-46737037D01*
X54899853Y-46771384D01*
X54956467Y-46788557D01*
X55095087Y-46862652D01*
X55112991Y-46872222D01*
X55148729Y-46901552D01*
X55250186Y-46984814D01*
X55333448Y-47086271D01*
X55362778Y-47122009D01*
X55362779Y-47122011D01*
X55446443Y-47278533D01*
X55446443Y-47278534D01*
X55497963Y-47448373D01*
X55515359Y-47625000D01*
X55497963Y-47801627D01*
X55463616Y-47914853D01*
X55446443Y-47971467D01*
X55372348Y-48110087D01*
X55362778Y-48127991D01*
X55333448Y-48163729D01*
X55250186Y-48265186D01*
X55148729Y-48348448D01*
X55112991Y-48377778D01*
X55112989Y-48377779D01*
X54956467Y-48461443D01*
X54899853Y-48478616D01*
X54786627Y-48512963D01*
X54720442Y-48519482D01*
X54654260Y-48526000D01*
X54565740Y-48526000D01*
X54499557Y-48519481D01*
X54433373Y-48512963D01*
X54320147Y-48478616D01*
X54263533Y-48461443D01*
X54107011Y-48377779D01*
X54107009Y-48377778D01*
X54071271Y-48348448D01*
X53969814Y-48265186D01*
X53886552Y-48163729D01*
X53857222Y-48127991D01*
X53847652Y-48110087D01*
X53773557Y-47971467D01*
X53756384Y-47914853D01*
X53722037Y-47801627D01*
X53704641Y-47625000D01*
X53722037Y-47448373D01*
X53773557Y-47278534D01*
X53773557Y-47278533D01*
X53857221Y-47122011D01*
X53857222Y-47122009D01*
X53886552Y-47086271D01*
X53969814Y-46984814D01*
X54071271Y-46901552D01*
X54107009Y-46872222D01*
X54124913Y-46862652D01*
X54263533Y-46788557D01*
X54320147Y-46771384D01*
X54433373Y-46737037D01*
X54499558Y-46730518D01*
X54565740Y-46724000D01*
X54654260Y-46724000D01*
X54720442Y-46730518D01*
X54720442Y-46730518D01*
G37*
G36*
X141715442Y-46730518D02*
X141781627Y-46737037D01*
X141894853Y-46771384D01*
X141951467Y-46788557D01*
X142090087Y-46862652D01*
X142107991Y-46872222D01*
X142143729Y-46901552D01*
X142245186Y-46984814D01*
X142328448Y-47086271D01*
X142357778Y-47122009D01*
X142357779Y-47122011D01*
X142441443Y-47278533D01*
X142441443Y-47278534D01*
X142492963Y-47448373D01*
X142510359Y-47625000D01*
X142492963Y-47801627D01*
X142458616Y-47914853D01*
X142441443Y-47971467D01*
X142367348Y-48110087D01*
X142357778Y-48127991D01*
X142328448Y-48163729D01*
X142245186Y-48265186D01*
X142143729Y-48348448D01*
X142107991Y-48377778D01*
X142107989Y-48377779D01*
X141951467Y-48461443D01*
X141894853Y-48478616D01*
X141781627Y-48512963D01*
X141715442Y-48519482D01*
X141649260Y-48526000D01*
X141560740Y-48526000D01*
X141494557Y-48519481D01*
X141428373Y-48512963D01*
X141315147Y-48478616D01*
X141258533Y-48461443D01*
X141102011Y-48377779D01*
X141102009Y-48377778D01*
X141066271Y-48348448D01*
X140964814Y-48265186D01*
X140881552Y-48163729D01*
X140852222Y-48127991D01*
X140842652Y-48110087D01*
X140768557Y-47971467D01*
X140751384Y-47914853D01*
X140717037Y-47801627D01*
X140699641Y-47625000D01*
X140717037Y-47448373D01*
X140768557Y-47278534D01*
X140768557Y-47278533D01*
X140852221Y-47122011D01*
X140852222Y-47122009D01*
X140881552Y-47086271D01*
X140964814Y-46984814D01*
X141066271Y-46901552D01*
X141102009Y-46872222D01*
X141119913Y-46862652D01*
X141258533Y-46788557D01*
X141315147Y-46771384D01*
X141428373Y-46737037D01*
X141494558Y-46730518D01*
X141560740Y-46724000D01*
X141649260Y-46724000D01*
X141715442Y-46730518D01*
X141715442Y-46730518D01*
G37*
G36*
X144255442Y-46730518D02*
X144321627Y-46737037D01*
X144434853Y-46771384D01*
X144491467Y-46788557D01*
X144630087Y-46862652D01*
X144647991Y-46872222D01*
X144683729Y-46901552D01*
X144785186Y-46984814D01*
X144868448Y-47086271D01*
X144897778Y-47122009D01*
X144897779Y-47122011D01*
X144981443Y-47278533D01*
X144981443Y-47278534D01*
X145032963Y-47448373D01*
X145050359Y-47625000D01*
X145032963Y-47801627D01*
X144998616Y-47914853D01*
X144981443Y-47971467D01*
X144907348Y-48110087D01*
X144897778Y-48127991D01*
X144868448Y-48163729D01*
X144785186Y-48265186D01*
X144683729Y-48348448D01*
X144647991Y-48377778D01*
X144647989Y-48377779D01*
X144491467Y-48461443D01*
X144434853Y-48478616D01*
X144321627Y-48512963D01*
X144255442Y-48519482D01*
X144189260Y-48526000D01*
X144100740Y-48526000D01*
X144034557Y-48519481D01*
X143968373Y-48512963D01*
X143855147Y-48478616D01*
X143798533Y-48461443D01*
X143642011Y-48377779D01*
X143642009Y-48377778D01*
X143606271Y-48348448D01*
X143504814Y-48265186D01*
X143421552Y-48163729D01*
X143392222Y-48127991D01*
X143382652Y-48110087D01*
X143308557Y-47971467D01*
X143291384Y-47914853D01*
X143257037Y-47801627D01*
X143239641Y-47625000D01*
X143257037Y-47448373D01*
X143308557Y-47278534D01*
X143308557Y-47278533D01*
X143392221Y-47122011D01*
X143392222Y-47122009D01*
X143421552Y-47086271D01*
X143504814Y-46984814D01*
X143606271Y-46901552D01*
X143642009Y-46872222D01*
X143659913Y-46862652D01*
X143798533Y-46788557D01*
X143855147Y-46771384D01*
X143968373Y-46737037D01*
X144034558Y-46730518D01*
X144100740Y-46724000D01*
X144189260Y-46724000D01*
X144255442Y-46730518D01*
X144255442Y-46730518D01*
G37*
G36*
X146795442Y-46730518D02*
X146861627Y-46737037D01*
X146974853Y-46771384D01*
X147031467Y-46788557D01*
X147170087Y-46862652D01*
X147187991Y-46872222D01*
X147223729Y-46901552D01*
X147325186Y-46984814D01*
X147408448Y-47086271D01*
X147437778Y-47122009D01*
X147437779Y-47122011D01*
X147521443Y-47278533D01*
X147521443Y-47278534D01*
X147572963Y-47448373D01*
X147590359Y-47625000D01*
X147572963Y-47801627D01*
X147538616Y-47914853D01*
X147521443Y-47971467D01*
X147447348Y-48110087D01*
X147437778Y-48127991D01*
X147408448Y-48163729D01*
X147325186Y-48265186D01*
X147223729Y-48348448D01*
X147187991Y-48377778D01*
X147187989Y-48377779D01*
X147031467Y-48461443D01*
X146974853Y-48478616D01*
X146861627Y-48512963D01*
X146795442Y-48519482D01*
X146729260Y-48526000D01*
X146640740Y-48526000D01*
X146574557Y-48519481D01*
X146508373Y-48512963D01*
X146395147Y-48478616D01*
X146338533Y-48461443D01*
X146182011Y-48377779D01*
X146182009Y-48377778D01*
X146146271Y-48348448D01*
X146044814Y-48265186D01*
X145961552Y-48163729D01*
X145932222Y-48127991D01*
X145922652Y-48110087D01*
X145848557Y-47971467D01*
X145831384Y-47914853D01*
X145797037Y-47801627D01*
X145779641Y-47625000D01*
X145797037Y-47448373D01*
X145848557Y-47278534D01*
X145848557Y-47278533D01*
X145932221Y-47122011D01*
X145932222Y-47122009D01*
X145961552Y-47086271D01*
X146044814Y-46984814D01*
X146146271Y-46901552D01*
X146182009Y-46872222D01*
X146199913Y-46862652D01*
X146338533Y-46788557D01*
X146395147Y-46771384D01*
X146508373Y-46737037D01*
X146574558Y-46730518D01*
X146640740Y-46724000D01*
X146729260Y-46724000D01*
X146795442Y-46730518D01*
X146795442Y-46730518D01*
G37*
G36*
X149335442Y-46730518D02*
X149401627Y-46737037D01*
X149514853Y-46771384D01*
X149571467Y-46788557D01*
X149710087Y-46862652D01*
X149727991Y-46872222D01*
X149763729Y-46901552D01*
X149865186Y-46984814D01*
X149948448Y-47086271D01*
X149977778Y-47122009D01*
X149977779Y-47122011D01*
X150061443Y-47278533D01*
X150061443Y-47278534D01*
X150112963Y-47448373D01*
X150130359Y-47625000D01*
X150112963Y-47801627D01*
X150078616Y-47914853D01*
X150061443Y-47971467D01*
X149987348Y-48110087D01*
X149977778Y-48127991D01*
X149948448Y-48163729D01*
X149865186Y-48265186D01*
X149763729Y-48348448D01*
X149727991Y-48377778D01*
X149727989Y-48377779D01*
X149571467Y-48461443D01*
X149514853Y-48478616D01*
X149401627Y-48512963D01*
X149335442Y-48519482D01*
X149269260Y-48526000D01*
X149180740Y-48526000D01*
X149114557Y-48519481D01*
X149048373Y-48512963D01*
X148935147Y-48478616D01*
X148878533Y-48461443D01*
X148722011Y-48377779D01*
X148722009Y-48377778D01*
X148686271Y-48348448D01*
X148584814Y-48265186D01*
X148501552Y-48163729D01*
X148472222Y-48127991D01*
X148462652Y-48110087D01*
X148388557Y-47971467D01*
X148371384Y-47914853D01*
X148337037Y-47801627D01*
X148319641Y-47625000D01*
X148337037Y-47448373D01*
X148388557Y-47278534D01*
X148388557Y-47278533D01*
X148472221Y-47122011D01*
X148472222Y-47122009D01*
X148501552Y-47086271D01*
X148584814Y-46984814D01*
X148686271Y-46901552D01*
X148722009Y-46872222D01*
X148739913Y-46862652D01*
X148878533Y-46788557D01*
X148935147Y-46771384D01*
X149048373Y-46737037D01*
X149114558Y-46730518D01*
X149180740Y-46724000D01*
X149269260Y-46724000D01*
X149335442Y-46730518D01*
X149335442Y-46730518D01*
G37*
G36*
X67420442Y-46730518D02*
X67486627Y-46737037D01*
X67599853Y-46771384D01*
X67656467Y-46788557D01*
X67795087Y-46862652D01*
X67812991Y-46872222D01*
X67848729Y-46901552D01*
X67950186Y-46984814D01*
X68033448Y-47086271D01*
X68062778Y-47122009D01*
X68062779Y-47122011D01*
X68146443Y-47278533D01*
X68146443Y-47278534D01*
X68197963Y-47448373D01*
X68215359Y-47625000D01*
X68197963Y-47801627D01*
X68163616Y-47914853D01*
X68146443Y-47971467D01*
X68072348Y-48110087D01*
X68062778Y-48127991D01*
X68033448Y-48163729D01*
X67950186Y-48265186D01*
X67848729Y-48348448D01*
X67812991Y-48377778D01*
X67812989Y-48377779D01*
X67656467Y-48461443D01*
X67599853Y-48478616D01*
X67486627Y-48512963D01*
X67420442Y-48519482D01*
X67354260Y-48526000D01*
X67265740Y-48526000D01*
X67199557Y-48519481D01*
X67133373Y-48512963D01*
X67020147Y-48478616D01*
X66963533Y-48461443D01*
X66807011Y-48377779D01*
X66807009Y-48377778D01*
X66771271Y-48348448D01*
X66669814Y-48265186D01*
X66586552Y-48163729D01*
X66557222Y-48127991D01*
X66547652Y-48110087D01*
X66473557Y-47971467D01*
X66456384Y-47914853D01*
X66422037Y-47801627D01*
X66404641Y-47625000D01*
X66422037Y-47448373D01*
X66473557Y-47278534D01*
X66473557Y-47278533D01*
X66557221Y-47122011D01*
X66557222Y-47122009D01*
X66586552Y-47086271D01*
X66669814Y-46984814D01*
X66771271Y-46901552D01*
X66807009Y-46872222D01*
X66824913Y-46862652D01*
X66963533Y-46788557D01*
X67020147Y-46771384D01*
X67133373Y-46737037D01*
X67199558Y-46730518D01*
X67265740Y-46724000D01*
X67354260Y-46724000D01*
X67420442Y-46730518D01*
X67420442Y-46730518D01*
G37*
G36*
X110756000Y-48526000D02*
X108954000Y-48526000D01*
X108954000Y-46724000D01*
X110756000Y-46724000D01*
X110756000Y-48526000D01*
X110756000Y-48526000D01*
G37*
G36*
X112505442Y-46730518D02*
X112571627Y-46737037D01*
X112684853Y-46771384D01*
X112741467Y-46788557D01*
X112880087Y-46862652D01*
X112897991Y-46872222D01*
X112933729Y-46901552D01*
X113035186Y-46984814D01*
X113118448Y-47086271D01*
X113147778Y-47122009D01*
X113147779Y-47122011D01*
X113231443Y-47278533D01*
X113231443Y-47278534D01*
X113282963Y-47448373D01*
X113300359Y-47625000D01*
X113282963Y-47801627D01*
X113248616Y-47914853D01*
X113231443Y-47971467D01*
X113157348Y-48110087D01*
X113147778Y-48127991D01*
X113118448Y-48163729D01*
X113035186Y-48265186D01*
X112933729Y-48348448D01*
X112897991Y-48377778D01*
X112897989Y-48377779D01*
X112741467Y-48461443D01*
X112684853Y-48478616D01*
X112571627Y-48512963D01*
X112505442Y-48519482D01*
X112439260Y-48526000D01*
X112350740Y-48526000D01*
X112284557Y-48519481D01*
X112218373Y-48512963D01*
X112105147Y-48478616D01*
X112048533Y-48461443D01*
X111892011Y-48377779D01*
X111892009Y-48377778D01*
X111856271Y-48348448D01*
X111754814Y-48265186D01*
X111671552Y-48163729D01*
X111642222Y-48127991D01*
X111632652Y-48110087D01*
X111558557Y-47971467D01*
X111541384Y-47914853D01*
X111507037Y-47801627D01*
X111489641Y-47625000D01*
X111507037Y-47448373D01*
X111558557Y-47278534D01*
X111558557Y-47278533D01*
X111642221Y-47122011D01*
X111642222Y-47122009D01*
X111671552Y-47086271D01*
X111754814Y-46984814D01*
X111856271Y-46901552D01*
X111892009Y-46872222D01*
X111909913Y-46862652D01*
X112048533Y-46788557D01*
X112105147Y-46771384D01*
X112218373Y-46737037D01*
X112284558Y-46730518D01*
X112350740Y-46724000D01*
X112439260Y-46724000D01*
X112505442Y-46730518D01*
X112505442Y-46730518D01*
G37*
G36*
X98535442Y-46730518D02*
X98601627Y-46737037D01*
X98714853Y-46771384D01*
X98771467Y-46788557D01*
X98910087Y-46862652D01*
X98927991Y-46872222D01*
X98963729Y-46901552D01*
X99065186Y-46984814D01*
X99148448Y-47086271D01*
X99177778Y-47122009D01*
X99177779Y-47122011D01*
X99261443Y-47278533D01*
X99261443Y-47278534D01*
X99312963Y-47448373D01*
X99330359Y-47625000D01*
X99312963Y-47801627D01*
X99278616Y-47914853D01*
X99261443Y-47971467D01*
X99187348Y-48110087D01*
X99177778Y-48127991D01*
X99148448Y-48163729D01*
X99065186Y-48265186D01*
X98963729Y-48348448D01*
X98927991Y-48377778D01*
X98927989Y-48377779D01*
X98771467Y-48461443D01*
X98714853Y-48478616D01*
X98601627Y-48512963D01*
X98535442Y-48519482D01*
X98469260Y-48526000D01*
X98380740Y-48526000D01*
X98314557Y-48519481D01*
X98248373Y-48512963D01*
X98135147Y-48478616D01*
X98078533Y-48461443D01*
X97922011Y-48377779D01*
X97922009Y-48377778D01*
X97886271Y-48348448D01*
X97784814Y-48265186D01*
X97701552Y-48163729D01*
X97672222Y-48127991D01*
X97662652Y-48110087D01*
X97588557Y-47971467D01*
X97571384Y-47914853D01*
X97537037Y-47801627D01*
X97519641Y-47625000D01*
X97537037Y-47448373D01*
X97588557Y-47278534D01*
X97588557Y-47278533D01*
X97672221Y-47122011D01*
X97672222Y-47122009D01*
X97701552Y-47086271D01*
X97784814Y-46984814D01*
X97886271Y-46901552D01*
X97922009Y-46872222D01*
X97939913Y-46862652D01*
X98078533Y-46788557D01*
X98135147Y-46771384D01*
X98248373Y-46737037D01*
X98314558Y-46730518D01*
X98380740Y-46724000D01*
X98469260Y-46724000D01*
X98535442Y-46730518D01*
X98535442Y-46730518D01*
G37*
G36*
X95995442Y-46730518D02*
X96061627Y-46737037D01*
X96174853Y-46771384D01*
X96231467Y-46788557D01*
X96370087Y-46862652D01*
X96387991Y-46872222D01*
X96423729Y-46901552D01*
X96525186Y-46984814D01*
X96608448Y-47086271D01*
X96637778Y-47122009D01*
X96637779Y-47122011D01*
X96721443Y-47278533D01*
X96721443Y-47278534D01*
X96772963Y-47448373D01*
X96790359Y-47625000D01*
X96772963Y-47801627D01*
X96738616Y-47914853D01*
X96721443Y-47971467D01*
X96647348Y-48110087D01*
X96637778Y-48127991D01*
X96608448Y-48163729D01*
X96525186Y-48265186D01*
X96423729Y-48348448D01*
X96387991Y-48377778D01*
X96387989Y-48377779D01*
X96231467Y-48461443D01*
X96174853Y-48478616D01*
X96061627Y-48512963D01*
X95995442Y-48519482D01*
X95929260Y-48526000D01*
X95840740Y-48526000D01*
X95774557Y-48519481D01*
X95708373Y-48512963D01*
X95595147Y-48478616D01*
X95538533Y-48461443D01*
X95382011Y-48377779D01*
X95382009Y-48377778D01*
X95346271Y-48348448D01*
X95244814Y-48265186D01*
X95161552Y-48163729D01*
X95132222Y-48127991D01*
X95122652Y-48110087D01*
X95048557Y-47971467D01*
X95031384Y-47914853D01*
X94997037Y-47801627D01*
X94979641Y-47625000D01*
X94997037Y-47448373D01*
X95048557Y-47278534D01*
X95048557Y-47278533D01*
X95132221Y-47122011D01*
X95132222Y-47122009D01*
X95161552Y-47086271D01*
X95244814Y-46984814D01*
X95346271Y-46901552D01*
X95382009Y-46872222D01*
X95399913Y-46862652D01*
X95538533Y-46788557D01*
X95595147Y-46771384D01*
X95708373Y-46737037D01*
X95774558Y-46730518D01*
X95840740Y-46724000D01*
X95929260Y-46724000D01*
X95995442Y-46730518D01*
X95995442Y-46730518D01*
G37*
G36*
X93455442Y-46730518D02*
X93521627Y-46737037D01*
X93634853Y-46771384D01*
X93691467Y-46788557D01*
X93830087Y-46862652D01*
X93847991Y-46872222D01*
X93883729Y-46901552D01*
X93985186Y-46984814D01*
X94068448Y-47086271D01*
X94097778Y-47122009D01*
X94097779Y-47122011D01*
X94181443Y-47278533D01*
X94181443Y-47278534D01*
X94232963Y-47448373D01*
X94250359Y-47625000D01*
X94232963Y-47801627D01*
X94198616Y-47914853D01*
X94181443Y-47971467D01*
X94107348Y-48110087D01*
X94097778Y-48127991D01*
X94068448Y-48163729D01*
X93985186Y-48265186D01*
X93883729Y-48348448D01*
X93847991Y-48377778D01*
X93847989Y-48377779D01*
X93691467Y-48461443D01*
X93634853Y-48478616D01*
X93521627Y-48512963D01*
X93455442Y-48519482D01*
X93389260Y-48526000D01*
X93300740Y-48526000D01*
X93234557Y-48519481D01*
X93168373Y-48512963D01*
X93055147Y-48478616D01*
X92998533Y-48461443D01*
X92842011Y-48377779D01*
X92842009Y-48377778D01*
X92806271Y-48348448D01*
X92704814Y-48265186D01*
X92621552Y-48163729D01*
X92592222Y-48127991D01*
X92582652Y-48110087D01*
X92508557Y-47971467D01*
X92491384Y-47914853D01*
X92457037Y-47801627D01*
X92439641Y-47625000D01*
X92457037Y-47448373D01*
X92508557Y-47278534D01*
X92508557Y-47278533D01*
X92592221Y-47122011D01*
X92592222Y-47122009D01*
X92621552Y-47086271D01*
X92704814Y-46984814D01*
X92806271Y-46901552D01*
X92842009Y-46872222D01*
X92859913Y-46862652D01*
X92998533Y-46788557D01*
X93055147Y-46771384D01*
X93168373Y-46737037D01*
X93234558Y-46730518D01*
X93300740Y-46724000D01*
X93389260Y-46724000D01*
X93455442Y-46730518D01*
X93455442Y-46730518D01*
G37*
G36*
X90915442Y-46730518D02*
X90981627Y-46737037D01*
X91094853Y-46771384D01*
X91151467Y-46788557D01*
X91290087Y-46862652D01*
X91307991Y-46872222D01*
X91343729Y-46901552D01*
X91445186Y-46984814D01*
X91528448Y-47086271D01*
X91557778Y-47122009D01*
X91557779Y-47122011D01*
X91641443Y-47278533D01*
X91641443Y-47278534D01*
X91692963Y-47448373D01*
X91710359Y-47625000D01*
X91692963Y-47801627D01*
X91658616Y-47914853D01*
X91641443Y-47971467D01*
X91567348Y-48110087D01*
X91557778Y-48127991D01*
X91528448Y-48163729D01*
X91445186Y-48265186D01*
X91343729Y-48348448D01*
X91307991Y-48377778D01*
X91307989Y-48377779D01*
X91151467Y-48461443D01*
X91094853Y-48478616D01*
X90981627Y-48512963D01*
X90915442Y-48519482D01*
X90849260Y-48526000D01*
X90760740Y-48526000D01*
X90694557Y-48519481D01*
X90628373Y-48512963D01*
X90515147Y-48478616D01*
X90458533Y-48461443D01*
X90302011Y-48377779D01*
X90302009Y-48377778D01*
X90266271Y-48348448D01*
X90164814Y-48265186D01*
X90081552Y-48163729D01*
X90052222Y-48127991D01*
X90042652Y-48110087D01*
X89968557Y-47971467D01*
X89951384Y-47914853D01*
X89917037Y-47801627D01*
X89899641Y-47625000D01*
X89917037Y-47448373D01*
X89968557Y-47278534D01*
X89968557Y-47278533D01*
X90052221Y-47122011D01*
X90052222Y-47122009D01*
X90081552Y-47086271D01*
X90164814Y-46984814D01*
X90266271Y-46901552D01*
X90302009Y-46872222D01*
X90319913Y-46862652D01*
X90458533Y-46788557D01*
X90515147Y-46771384D01*
X90628373Y-46737037D01*
X90694558Y-46730518D01*
X90760740Y-46724000D01*
X90849260Y-46724000D01*
X90915442Y-46730518D01*
X90915442Y-46730518D01*
G37*
G36*
X85835442Y-46730518D02*
X85901627Y-46737037D01*
X86014853Y-46771384D01*
X86071467Y-46788557D01*
X86210087Y-46862652D01*
X86227991Y-46872222D01*
X86263729Y-46901552D01*
X86365186Y-46984814D01*
X86448448Y-47086271D01*
X86477778Y-47122009D01*
X86477779Y-47122011D01*
X86561443Y-47278533D01*
X86561443Y-47278534D01*
X86612963Y-47448373D01*
X86630359Y-47625000D01*
X86612963Y-47801627D01*
X86578616Y-47914853D01*
X86561443Y-47971467D01*
X86487348Y-48110087D01*
X86477778Y-48127991D01*
X86448448Y-48163729D01*
X86365186Y-48265186D01*
X86263729Y-48348448D01*
X86227991Y-48377778D01*
X86227989Y-48377779D01*
X86071467Y-48461443D01*
X86014853Y-48478616D01*
X85901627Y-48512963D01*
X85835442Y-48519482D01*
X85769260Y-48526000D01*
X85680740Y-48526000D01*
X85614557Y-48519481D01*
X85548373Y-48512963D01*
X85435147Y-48478616D01*
X85378533Y-48461443D01*
X85222011Y-48377779D01*
X85222009Y-48377778D01*
X85186271Y-48348448D01*
X85084814Y-48265186D01*
X85001552Y-48163729D01*
X84972222Y-48127991D01*
X84962652Y-48110087D01*
X84888557Y-47971467D01*
X84871384Y-47914853D01*
X84837037Y-47801627D01*
X84819641Y-47625000D01*
X84837037Y-47448373D01*
X84888557Y-47278534D01*
X84888557Y-47278533D01*
X84972221Y-47122011D01*
X84972222Y-47122009D01*
X85001552Y-47086271D01*
X85084814Y-46984814D01*
X85186271Y-46901552D01*
X85222009Y-46872222D01*
X85239913Y-46862652D01*
X85378533Y-46788557D01*
X85435147Y-46771384D01*
X85548373Y-46737037D01*
X85614558Y-46730518D01*
X85680740Y-46724000D01*
X85769260Y-46724000D01*
X85835442Y-46730518D01*
X85835442Y-46730518D01*
G37*
G36*
X83295442Y-46730518D02*
X83361627Y-46737037D01*
X83474853Y-46771384D01*
X83531467Y-46788557D01*
X83670087Y-46862652D01*
X83687991Y-46872222D01*
X83723729Y-46901552D01*
X83825186Y-46984814D01*
X83908448Y-47086271D01*
X83937778Y-47122009D01*
X83937779Y-47122011D01*
X84021443Y-47278533D01*
X84021443Y-47278534D01*
X84072963Y-47448373D01*
X84090359Y-47625000D01*
X84072963Y-47801627D01*
X84038616Y-47914853D01*
X84021443Y-47971467D01*
X83947348Y-48110087D01*
X83937778Y-48127991D01*
X83908448Y-48163729D01*
X83825186Y-48265186D01*
X83723729Y-48348448D01*
X83687991Y-48377778D01*
X83687989Y-48377779D01*
X83531467Y-48461443D01*
X83474853Y-48478616D01*
X83361627Y-48512963D01*
X83295442Y-48519482D01*
X83229260Y-48526000D01*
X83140740Y-48526000D01*
X83074557Y-48519481D01*
X83008373Y-48512963D01*
X82895147Y-48478616D01*
X82838533Y-48461443D01*
X82682011Y-48377779D01*
X82682009Y-48377778D01*
X82646271Y-48348448D01*
X82544814Y-48265186D01*
X82461552Y-48163729D01*
X82432222Y-48127991D01*
X82422652Y-48110087D01*
X82348557Y-47971467D01*
X82331384Y-47914853D01*
X82297037Y-47801627D01*
X82279641Y-47625000D01*
X82297037Y-47448373D01*
X82348557Y-47278534D01*
X82348557Y-47278533D01*
X82432221Y-47122011D01*
X82432222Y-47122009D01*
X82461552Y-47086271D01*
X82544814Y-46984814D01*
X82646271Y-46901552D01*
X82682009Y-46872222D01*
X82699913Y-46862652D01*
X82838533Y-46788557D01*
X82895147Y-46771384D01*
X83008373Y-46737037D01*
X83074558Y-46730518D01*
X83140740Y-46724000D01*
X83229260Y-46724000D01*
X83295442Y-46730518D01*
X83295442Y-46730518D01*
G37*
G36*
X81546000Y-48526000D02*
X79744000Y-48526000D01*
X79744000Y-46724000D01*
X81546000Y-46724000D01*
X81546000Y-48526000D01*
X81546000Y-48526000D01*
G37*
G36*
X88375442Y-46730518D02*
X88441627Y-46737037D01*
X88554853Y-46771384D01*
X88611467Y-46788557D01*
X88750087Y-46862652D01*
X88767991Y-46872222D01*
X88803729Y-46901552D01*
X88905186Y-46984814D01*
X88988448Y-47086271D01*
X89017778Y-47122009D01*
X89017779Y-47122011D01*
X89101443Y-47278533D01*
X89101443Y-47278534D01*
X89152963Y-47448373D01*
X89170359Y-47625000D01*
X89152963Y-47801627D01*
X89118616Y-47914853D01*
X89101443Y-47971467D01*
X89027348Y-48110087D01*
X89017778Y-48127991D01*
X88988448Y-48163729D01*
X88905186Y-48265186D01*
X88803729Y-48348448D01*
X88767991Y-48377778D01*
X88767989Y-48377779D01*
X88611467Y-48461443D01*
X88554853Y-48478616D01*
X88441627Y-48512963D01*
X88375442Y-48519482D01*
X88309260Y-48526000D01*
X88220740Y-48526000D01*
X88154557Y-48519481D01*
X88088373Y-48512963D01*
X87975147Y-48478616D01*
X87918533Y-48461443D01*
X87762011Y-48377779D01*
X87762009Y-48377778D01*
X87726271Y-48348448D01*
X87624814Y-48265186D01*
X87541552Y-48163729D01*
X87512222Y-48127991D01*
X87502652Y-48110087D01*
X87428557Y-47971467D01*
X87411384Y-47914853D01*
X87377037Y-47801627D01*
X87359641Y-47625000D01*
X87377037Y-47448373D01*
X87428557Y-47278534D01*
X87428557Y-47278533D01*
X87512221Y-47122011D01*
X87512222Y-47122009D01*
X87541552Y-47086271D01*
X87624814Y-46984814D01*
X87726271Y-46901552D01*
X87762009Y-46872222D01*
X87779913Y-46862652D01*
X87918533Y-46788557D01*
X87975147Y-46771384D01*
X88088373Y-46737037D01*
X88154558Y-46730518D01*
X88220740Y-46724000D01*
X88309260Y-46724000D01*
X88375442Y-46730518D01*
X88375442Y-46730518D01*
G37*
G36*
X117585442Y-46730518D02*
X117651627Y-46737037D01*
X117764853Y-46771384D01*
X117821467Y-46788557D01*
X117960087Y-46862652D01*
X117977991Y-46872222D01*
X118013729Y-46901552D01*
X118115186Y-46984814D01*
X118198448Y-47086271D01*
X118227778Y-47122009D01*
X118227779Y-47122011D01*
X118311443Y-47278533D01*
X118311443Y-47278534D01*
X118362963Y-47448373D01*
X118380359Y-47625000D01*
X118362963Y-47801627D01*
X118328616Y-47914853D01*
X118311443Y-47971467D01*
X118237348Y-48110087D01*
X118227778Y-48127991D01*
X118198448Y-48163729D01*
X118115186Y-48265186D01*
X118013729Y-48348448D01*
X117977991Y-48377778D01*
X117977989Y-48377779D01*
X117821467Y-48461443D01*
X117764853Y-48478616D01*
X117651627Y-48512963D01*
X117585442Y-48519482D01*
X117519260Y-48526000D01*
X117430740Y-48526000D01*
X117364557Y-48519481D01*
X117298373Y-48512963D01*
X117185147Y-48478616D01*
X117128533Y-48461443D01*
X116972011Y-48377779D01*
X116972009Y-48377778D01*
X116936271Y-48348448D01*
X116834814Y-48265186D01*
X116751552Y-48163729D01*
X116722222Y-48127991D01*
X116712652Y-48110087D01*
X116638557Y-47971467D01*
X116621384Y-47914853D01*
X116587037Y-47801627D01*
X116569641Y-47625000D01*
X116587037Y-47448373D01*
X116638557Y-47278534D01*
X116638557Y-47278533D01*
X116722221Y-47122011D01*
X116722222Y-47122009D01*
X116751552Y-47086271D01*
X116834814Y-46984814D01*
X116936271Y-46901552D01*
X116972009Y-46872222D01*
X116989913Y-46862652D01*
X117128533Y-46788557D01*
X117185147Y-46771384D01*
X117298373Y-46737037D01*
X117364558Y-46730518D01*
X117430740Y-46724000D01*
X117519260Y-46724000D01*
X117585442Y-46730518D01*
X117585442Y-46730518D01*
G37*
G36*
X57260442Y-46730518D02*
X57326627Y-46737037D01*
X57439853Y-46771384D01*
X57496467Y-46788557D01*
X57635087Y-46862652D01*
X57652991Y-46872222D01*
X57688729Y-46901552D01*
X57790186Y-46984814D01*
X57873448Y-47086271D01*
X57902778Y-47122009D01*
X57902779Y-47122011D01*
X57986443Y-47278533D01*
X57986443Y-47278534D01*
X58037963Y-47448373D01*
X58055359Y-47625000D01*
X58037963Y-47801627D01*
X58003616Y-47914853D01*
X57986443Y-47971467D01*
X57912348Y-48110087D01*
X57902778Y-48127991D01*
X57873448Y-48163729D01*
X57790186Y-48265186D01*
X57688729Y-48348448D01*
X57652991Y-48377778D01*
X57652989Y-48377779D01*
X57496467Y-48461443D01*
X57439853Y-48478616D01*
X57326627Y-48512963D01*
X57260442Y-48519482D01*
X57194260Y-48526000D01*
X57105740Y-48526000D01*
X57039557Y-48519481D01*
X56973373Y-48512963D01*
X56860147Y-48478616D01*
X56803533Y-48461443D01*
X56647011Y-48377779D01*
X56647009Y-48377778D01*
X56611271Y-48348448D01*
X56509814Y-48265186D01*
X56426552Y-48163729D01*
X56397222Y-48127991D01*
X56387652Y-48110087D01*
X56313557Y-47971467D01*
X56296384Y-47914853D01*
X56262037Y-47801627D01*
X56244641Y-47625000D01*
X56262037Y-47448373D01*
X56313557Y-47278534D01*
X56313557Y-47278533D01*
X56397221Y-47122011D01*
X56397222Y-47122009D01*
X56426552Y-47086271D01*
X56509814Y-46984814D01*
X56611271Y-46901552D01*
X56647009Y-46872222D01*
X56664913Y-46862652D01*
X56803533Y-46788557D01*
X56860147Y-46771384D01*
X56973373Y-46737037D01*
X57039558Y-46730518D01*
X57105740Y-46724000D01*
X57194260Y-46724000D01*
X57260442Y-46730518D01*
X57260442Y-46730518D01*
G37*
G36*
X120125442Y-46730518D02*
X120191627Y-46737037D01*
X120304853Y-46771384D01*
X120361467Y-46788557D01*
X120500087Y-46862652D01*
X120517991Y-46872222D01*
X120553729Y-46901552D01*
X120655186Y-46984814D01*
X120738448Y-47086271D01*
X120767778Y-47122009D01*
X120767779Y-47122011D01*
X120851443Y-47278533D01*
X120851443Y-47278534D01*
X120902963Y-47448373D01*
X120920359Y-47625000D01*
X120902963Y-47801627D01*
X120868616Y-47914853D01*
X120851443Y-47971467D01*
X120777348Y-48110087D01*
X120767778Y-48127991D01*
X120738448Y-48163729D01*
X120655186Y-48265186D01*
X120553729Y-48348448D01*
X120517991Y-48377778D01*
X120517989Y-48377779D01*
X120361467Y-48461443D01*
X120304853Y-48478616D01*
X120191627Y-48512963D01*
X120125442Y-48519482D01*
X120059260Y-48526000D01*
X119970740Y-48526000D01*
X119904557Y-48519481D01*
X119838373Y-48512963D01*
X119725147Y-48478616D01*
X119668533Y-48461443D01*
X119512011Y-48377779D01*
X119512009Y-48377778D01*
X119476271Y-48348448D01*
X119374814Y-48265186D01*
X119291552Y-48163729D01*
X119262222Y-48127991D01*
X119252652Y-48110087D01*
X119178557Y-47971467D01*
X119161384Y-47914853D01*
X119127037Y-47801627D01*
X119109641Y-47625000D01*
X119127037Y-47448373D01*
X119178557Y-47278534D01*
X119178557Y-47278533D01*
X119262221Y-47122011D01*
X119262222Y-47122009D01*
X119291552Y-47086271D01*
X119374814Y-46984814D01*
X119476271Y-46901552D01*
X119512009Y-46872222D01*
X119529913Y-46862652D01*
X119668533Y-46788557D01*
X119725147Y-46771384D01*
X119838373Y-46737037D01*
X119904558Y-46730518D01*
X119970740Y-46724000D01*
X120059260Y-46724000D01*
X120125442Y-46730518D01*
X120125442Y-46730518D01*
G37*
G36*
X122665442Y-46730518D02*
X122731627Y-46737037D01*
X122844853Y-46771384D01*
X122901467Y-46788557D01*
X123040087Y-46862652D01*
X123057991Y-46872222D01*
X123093729Y-46901552D01*
X123195186Y-46984814D01*
X123278448Y-47086271D01*
X123307778Y-47122009D01*
X123307779Y-47122011D01*
X123391443Y-47278533D01*
X123391443Y-47278534D01*
X123442963Y-47448373D01*
X123460359Y-47625000D01*
X123442963Y-47801627D01*
X123408616Y-47914853D01*
X123391443Y-47971467D01*
X123317348Y-48110087D01*
X123307778Y-48127991D01*
X123278448Y-48163729D01*
X123195186Y-48265186D01*
X123093729Y-48348448D01*
X123057991Y-48377778D01*
X123057989Y-48377779D01*
X122901467Y-48461443D01*
X122844853Y-48478616D01*
X122731627Y-48512963D01*
X122665442Y-48519482D01*
X122599260Y-48526000D01*
X122510740Y-48526000D01*
X122444557Y-48519481D01*
X122378373Y-48512963D01*
X122265147Y-48478616D01*
X122208533Y-48461443D01*
X122052011Y-48377779D01*
X122052009Y-48377778D01*
X122016271Y-48348448D01*
X121914814Y-48265186D01*
X121831552Y-48163729D01*
X121802222Y-48127991D01*
X121792652Y-48110087D01*
X121718557Y-47971467D01*
X121701384Y-47914853D01*
X121667037Y-47801627D01*
X121649641Y-47625000D01*
X121667037Y-47448373D01*
X121718557Y-47278534D01*
X121718557Y-47278533D01*
X121802221Y-47122011D01*
X121802222Y-47122009D01*
X121831552Y-47086271D01*
X121914814Y-46984814D01*
X122016271Y-46901552D01*
X122052009Y-46872222D01*
X122069913Y-46862652D01*
X122208533Y-46788557D01*
X122265147Y-46771384D01*
X122378373Y-46737037D01*
X122444558Y-46730518D01*
X122510740Y-46724000D01*
X122599260Y-46724000D01*
X122665442Y-46730518D01*
X122665442Y-46730518D01*
G37*
G36*
X115045442Y-46730518D02*
X115111627Y-46737037D01*
X115224853Y-46771384D01*
X115281467Y-46788557D01*
X115420087Y-46862652D01*
X115437991Y-46872222D01*
X115473729Y-46901552D01*
X115575186Y-46984814D01*
X115658448Y-47086271D01*
X115687778Y-47122009D01*
X115687779Y-47122011D01*
X115771443Y-47278533D01*
X115771443Y-47278534D01*
X115822963Y-47448373D01*
X115840359Y-47625000D01*
X115822963Y-47801627D01*
X115788616Y-47914853D01*
X115771443Y-47971467D01*
X115697348Y-48110087D01*
X115687778Y-48127991D01*
X115658448Y-48163729D01*
X115575186Y-48265186D01*
X115473729Y-48348448D01*
X115437991Y-48377778D01*
X115437989Y-48377779D01*
X115281467Y-48461443D01*
X115224853Y-48478616D01*
X115111627Y-48512963D01*
X115045442Y-48519482D01*
X114979260Y-48526000D01*
X114890740Y-48526000D01*
X114824557Y-48519481D01*
X114758373Y-48512963D01*
X114645147Y-48478616D01*
X114588533Y-48461443D01*
X114432011Y-48377779D01*
X114432009Y-48377778D01*
X114396271Y-48348448D01*
X114294814Y-48265186D01*
X114211552Y-48163729D01*
X114182222Y-48127991D01*
X114172652Y-48110087D01*
X114098557Y-47971467D01*
X114081384Y-47914853D01*
X114047037Y-47801627D01*
X114029641Y-47625000D01*
X114047037Y-47448373D01*
X114098557Y-47278534D01*
X114098557Y-47278533D01*
X114182221Y-47122011D01*
X114182222Y-47122009D01*
X114211552Y-47086271D01*
X114294814Y-46984814D01*
X114396271Y-46901552D01*
X114432009Y-46872222D01*
X114449913Y-46862652D01*
X114588533Y-46788557D01*
X114645147Y-46771384D01*
X114758373Y-46737037D01*
X114824558Y-46730518D01*
X114890740Y-46724000D01*
X114979260Y-46724000D01*
X115045442Y-46730518D01*
X115045442Y-46730518D01*
G37*
M02*
